<svg width="200" height="200" viewBox="0 0 200 200" fill="none" xmlns="http://www.w3.org/2000/svg">
<path d="M158.569 84.7826L158.27 82.7926C158.216 82.4438 158.232 82.0878 158.316 81.745C158.4 81.4023 158.551 81.0796 158.761 80.7956C159.183 80.2218 159.816 79.8389 160.52 79.731L156.474 80.3349C155.85 80.4321 155.279 80.7456 154.863 81.2206C154.446 81.6957 154.21 82.3021 154.195 82.9339L146.512 83.9289C147.476 84.8363 148.365 85.7199 149.064 86.4999L154.627 85.8273C154.818 86.435 155.219 86.9546 155.759 87.2927C156.298 87.6307 156.941 87.7649 157.571 87.6711L161.59 87.0651C161.242 87.117 160.886 87.0988 160.545 87.0117C160.203 86.9246 159.882 86.7703 159.601 86.5578C159.319 86.3453 159.083 86.0788 158.906 85.774C158.729 85.4692 158.614 85.1322 158.569 84.7826Z" fill="#339458"/>
<path d="M68.1311 64.8944C63.3293 62.6875 56.0698 53.1743 54.7275 55.7454C54.031 57.0687 63.0268 73.9688 63.7074 76.4264C66.7858 74.395 70.2943 73.1071 73.9559 72.6643C72.7241 70.2634 72.9131 67.1063 68.1311 64.8944Z" fill="#339458"/>
<path d="M50.0958 105.18C48.8514 105.013 47.5863 105.09 46.3715 105.407C41.2293 106.616 30.1142 103.535 30.1898 106.428C30.2465 108.336 49.8122 116.107 50.6062 116.9C51.6566 113.572 53.4249 110.515 55.7862 107.945C54.031 107.127 52.6101 105.577 50.0958 105.18Z" fill="#339458"/>
<path d="M165.564 137.336C165.733 138.189 165.645 139.073 165.311 139.875C164.977 140.678 164.413 141.363 163.689 141.845C162.965 142.326 162.116 142.582 161.247 142.581C160.378 142.58 159.529 142.321 158.806 141.838C158.206 141.435 157.715 140.891 157.375 140.254C157.035 139.616 156.858 138.904 156.859 138.182C156.86 137.459 157.039 136.748 157.381 136.111C157.722 135.474 158.216 134.932 158.817 134.531C159.418 134.13 160.109 133.884 160.828 133.815C161.547 133.745 162.273 133.853 162.94 134.131C163.607 134.408 164.196 134.846 164.653 135.405C165.111 135.964 165.424 136.627 165.564 137.336Z" fill="#339458"/>
<path d="M140.55 52.1158C140.27 42.4932 147.397 44.3837 151.197 57.1445C149.684 50.679 159.103 42.8524 159.776 79.9788C159.427 80.136 159.123 80.3748 158.887 80.6753C156.622 75.2525 152.302 78.5331 152.894 82.9638C152.973 83.5568 152.543 83.8702 151.647 82.8922C150.709 81.8424 149.616 82.4245 149.512 83.5548L147.032 83.8573C143.415 80.2455 140.488 76.004 138.395 71.3412C134.179 62.5126 136.561 52.2661 143.688 66.7851C141.731 62.1355 140.667 57.1592 140.55 52.1158Z" fill="#B6E7FA"/>
<path d="M151.213 86.4077C151.598 87.6614 151.77 88.9718 151.722 90.2832C151.542 88.736 150.808 87.6465 149.681 86.4565L151.213 86.4077Z" fill="#B6E7FA"/>
<path d="M125.827 58.8429C125.506 58.1464 125.031 57.2012 124.579 56.3315C126.034 56.5186 126.451 57.5007 125.827 58.8429Z" fill="#B6E7FA"/>
<path d="M119.456 92.9674C118.038 93.5723 117.641 96.2379 118.171 99.9622L126.546 98.5632C124.333 95.2927 121.403 92.1733 119.456 92.9674Z" fill="#B6E7FA"/>
<path d="M134.712 123.482C134.39 125.335 133.407 126.488 131.592 125.694C132.632 124.974 133.672 124.237 134.712 123.482Z" fill="#B6E7FA"/>
<path d="M114.75 65.3673C113.03 65.2728 112.461 64.2141 113.293 62.645C113.728 63.5783 114.214 64.4878 114.75 65.3673Z" fill="#B6E7FA"/>
<path d="M153.37 96.6541C153.37 96.8673 153.285 97.0718 153.134 97.2225C152.984 97.3733 152.779 97.458 152.566 97.458C152.353 97.458 152.148 97.3733 151.997 97.2225C151.847 97.0718 151.762 96.8673 151.762 96.6541C151.762 96.4408 151.847 96.2363 151.997 96.0856C152.148 95.9348 152.353 95.8501 152.566 95.8501C152.779 95.8501 152.984 95.9348 153.134 96.0856C153.285 96.2363 153.37 96.4408 153.37 96.6541Z" fill="#B6E7FA"/>
<path d="M166.584 92.1925C166.568 92.3947 166.477 92.5834 166.328 92.721C166.179 92.8587 165.984 92.9352 165.781 92.9352C165.578 92.9352 165.383 92.8587 165.234 92.721C165.085 92.5834 164.993 92.3947 164.977 92.1925C164.99 91.9879 165.08 91.7957 165.229 91.6552C165.379 91.5147 165.576 91.4365 165.781 91.4365C165.986 91.4365 166.183 91.5147 166.333 91.6552C166.482 91.7957 166.572 91.9879 166.584 92.1925Z" fill="#B6E7FA"/>
<path d="M171.839 77.8632C171.839 77.9713 171.817 78.0783 171.775 78.1777C171.733 78.2772 171.671 78.3672 171.593 78.4422C171.515 78.5173 171.423 78.5759 171.322 78.6146C171.221 78.6533 171.114 78.6713 171.006 78.6675C170.898 78.6637 170.792 78.6382 170.694 78.5925C170.596 78.5467 170.508 78.4818 170.436 78.4014C170.363 78.3211 170.308 78.227 170.273 78.1248C170.238 78.0225 170.223 77.9143 170.231 77.8065C170.246 77.5984 170.341 77.4041 170.496 77.2646C170.651 77.1251 170.854 77.0513 171.062 77.0586C171.271 77.066 171.468 77.154 171.613 77.304C171.758 77.4541 171.839 77.6546 171.839 77.8632Z" fill="#B6E7FA"/>
<path d="M184.276 70.6793C184.264 70.8839 184.174 71.0761 184.025 71.2166C183.875 71.357 183.678 71.4353 183.473 71.4353C183.268 71.4353 183.071 71.357 182.921 71.2166C182.772 71.0761 182.682 70.8839 182.67 70.6793C182.682 70.4747 182.772 70.2825 182.921 70.142C183.071 70.0016 183.268 69.9233 183.473 69.9233C183.678 69.9233 183.875 70.0016 184.025 70.142C184.174 70.2825 184.264 70.4747 184.276 70.6793Z" fill="#B6E7FA"/>
<path d="M150.1 110.058C150.093 110.266 150.004 110.463 149.855 110.608C149.705 110.753 149.505 110.834 149.296 110.834C149.088 110.833 148.888 110.752 148.739 110.607C148.589 110.463 148.501 110.266 148.493 110.058C148.501 109.85 148.589 109.653 148.739 109.508C148.888 109.364 149.088 109.282 149.296 109.282C149.504 109.283 149.704 109.364 149.854 109.508C150.004 109.653 150.092 109.85 150.1 110.058Z" fill="#B6E7FA"/>
<path d="M135.94 105.218C135.933 105.426 135.845 105.623 135.695 105.768C135.545 105.913 135.345 105.994 135.136 105.994C134.928 105.993 134.729 105.912 134.579 105.767C134.429 105.623 134.341 105.426 134.333 105.218C134.341 105.01 134.429 104.813 134.579 104.668C134.728 104.524 134.928 104.443 135.136 104.442C135.345 104.443 135.544 104.524 135.694 104.669C135.844 104.813 135.932 105.01 135.94 105.218Z" fill="#B6E7FA"/>
<path d="M140.137 91.2442C140.125 91.4489 140.035 91.641 139.885 91.7815C139.736 91.922 139.539 92.0002 139.334 92.0002C139.129 92.0002 138.932 91.922 138.782 91.7815C138.633 91.641 138.543 91.4489 138.53 91.2442C138.543 91.0396 138.633 90.8475 138.782 90.707C138.932 90.5665 139.129 90.4883 139.334 90.4883C139.539 90.4883 139.736 90.5665 139.885 90.707C140.035 90.8475 140.125 91.0396 140.137 91.2442Z" fill="#B6E7FA"/>
<path d="M136.451 76.6534C136.435 76.8556 136.343 77.0443 136.194 77.182C136.045 77.3196 135.85 77.3961 135.647 77.3961C135.445 77.3961 135.249 77.3196 135.1 77.182C134.951 77.0443 134.86 76.8556 134.844 76.6534C134.856 76.4488 134.946 76.2566 135.096 76.1162C135.245 75.9757 135.442 75.8975 135.647 75.8975C135.852 75.8975 136.05 75.9757 136.199 76.1162C136.348 76.2566 136.438 76.4488 136.451 76.6534Z" fill="#B6E7FA"/>
<path d="M120.988 70.6793C120.975 70.8839 120.885 71.0761 120.736 71.2166C120.586 71.357 120.389 71.4353 120.184 71.4353C119.979 71.4353 119.782 71.357 119.632 71.2166C119.483 71.0761 119.393 70.8839 119.381 70.6793C119.393 70.4747 119.483 70.2825 119.632 70.142C119.782 70.0016 119.979 69.9233 120.184 69.9233C120.389 69.9233 120.586 70.0016 120.736 70.142C120.885 70.2825 120.975 70.4747 120.988 70.6793Z" fill="#B6E7FA"/>
<path d="M131.214 92.8452H128.303L135.94 100.189L131.214 92.8452Z" fill="#B6E7FA"/>
<path d="M155.979 91.285C155.266 91.0951 154.58 90.8156 153.937 90.4531L155.865 93.0053C155.814 92.4294 155.853 91.8491 155.979 91.285Z" fill="#B6E7FA"/>
<path d="M156.432 96.0488C157.119 99.5413 156.529 103.164 154.769 106.258L157.415 103.932C157.767 101.264 157.428 98.5495 156.432 96.0488Z" fill="#B6E7FA"/>
<path d="M159.779 79.9808C159.098 42.8524 149.684 50.679 151.197 57.1445C147.397 44.3837 140.272 42.4932 140.55 52.1158C140.668 57.159 141.732 62.1352 143.688 66.7851C136.561 52.2671 134.181 62.5116 138.395 71.3412C140.482 75.9933 143.4 80.2259 147.005 83.8314M151.722 90.283C151.542 88.7318 150.803 87.6423 149.672 86.4483" stroke="white" stroke-linecap="round" stroke-linejoin="round"/>
<path d="M58.9811 126.031C52.7724 126.466 46.552 125.368 40.8671 122.834C35.1822 120.3 30.207 116.409 26.3788 111.501C22.5506 106.594 19.9868 100.821 18.9129 94.6907C17.839 88.5601 18.2878 82.2596 20.2199 76.3431C21.8259 71.4175 24.4224 66.8725 27.8498 62.9875C31.2773 59.1025 35.4632 55.9596 40.1501 53.7521C44.8371 51.5447 49.9261 50.3193 55.1042 50.1513C60.2823 49.9833 65.44 50.8763 70.2602 52.7754C75.0804 54.6744 79.4612 57.5394 83.1332 61.1941C86.8052 64.8488 89.6909 69.216 91.6127 74.0271C93.5345 78.8383 94.4519 83.9917 94.3084 89.1705C94.1649 94.3494 92.9636 99.4441 90.7783 104.141" stroke="white" stroke-linecap="round" stroke-linejoin="round"/>
<path d="M67.2237 95.5952C61.6656 98.9414 55.6916 102.306 50.0958 105.18" stroke="white" stroke-linecap="round" stroke-linejoin="round"/>
<path d="M84.279 62.4368C96.4727 57.825 105.133 56.4808 106.907 59.5444C109.237 63.5692 98.9672 74.1201 82.2751 85.8412" stroke="white" stroke-linecap="round" stroke-linejoin="round"/>
<path d="M37.903 111.06C20.8696 118.677 8.01523 121.706 5.80334 117.883C4.00737 114.783 9.69777 107.789 20.0756 99.3765" stroke="white" stroke-linecap="round" stroke-linejoin="round"/>
<path d="M128.303 92.8452L135.94 100.189L113.142 64.7056" stroke="white" stroke-linecap="round" stroke-linejoin="round"/>
<path d="M160.024 86.8232C160.062 94.1395 153.937 90.453 153.937 90.453" stroke="white" stroke-linecap="round" stroke-linejoin="round"/>
<path d="M153.937 90.4531L155.866 92.9625" stroke="white" stroke-linecap="round" stroke-linejoin="round"/>
<path d="M158.909 80.6235C156.745 75.35 152.22 78.4026 152.888 83.0373C152.954 83.494 152.59 83.9328 151.65 82.8921C150.721 81.8573 149.635 82.4264 149.519 83.5398M149.836 90.5476C151.083 91.8142 152.577 91.852 151.216 86.4074C151.152 86.3614 151.089 86.3143 151.027 86.2661" stroke="white" stroke-linecap="round" stroke-linejoin="round"/>
<path d="M125.94 57.0688C131.291 66.2298 143.836 86.5597 152.463 92.8351C152.941 93.2321 153.503 93.515 154.106 93.6624C154.71 93.8098 155.339 93.8178 155.946 93.6858C155.824 92.8827 155.837 92.0649 155.984 91.266" stroke="white" stroke-linecap="round" stroke-linejoin="round"/>
<path d="M157.264 104.08C158.304 100.752 156.432 96.0449 156.432 96.0449C156.432 96.0449 160.869 110.347 134.013 125.427" stroke="white" stroke-linecap="round" stroke-linejoin="round"/>
<path d="M131.214 92.8452H120.577" stroke="white" stroke-linecap="round" stroke-linejoin="round"/>
<path d="M154.769 106.258C154.769 106.258 173.787 90.4371 186.982 69.0724C185.322 66.2168 182.682 64.0602 179.553 63.0029C175.381 69.0201 170.863 74.7896 166.021 80.2821" stroke="white" stroke-linecap="round" stroke-linejoin="round"/>
<path d="M126.566 123.631C114.695 127.374 101.99 129.366 88.7396 130.569C86.0897 130.806 83.4359 130.158 81.1947 128.724C78.9536 127.29 77.2519 125.153 76.3568 122.647C71.7599 109.737 67.4963 97.262 61.782 77.8635C63.9058 76.1026 66.3291 74.7383 68.9361 73.8358C71.233 73.0495 73.6294 72.5916 76.0543 72.4756L90.9674 104.537L126.546 98.5675" stroke="white" stroke-linecap="round" stroke-linejoin="round"/>
<path d="M131.592 125.691C136.941 128.031 134.791 115.864 131.214 107.354C129.195 102.551 122.888 90.9846 119.286 93.0721C118.007 93.8134 117.663 96.4103 118.171 99.9814" stroke="white" stroke-linecap="round" stroke-linejoin="round"/>
<path d="M73.3668 114.159L57.015 106.697C53.4435 110.077 50.9787 114.46 49.9445 119.268C61.7422 128.483 74.353 136.608 87.6212 143.541C89.2017 144.384 90.9518 144.861 92.7417 144.936C94.5316 145.012 96.3155 144.683 97.9612 143.975C110.921 138.502 123.244 131.629 134.712 123.478" stroke="white" stroke-linecap="round" stroke-linejoin="round"/>
<path d="M73.9529 72.6648C70.2913 73.1074 66.7827 74.3953 63.7044 76.4269C63.0238 73.9692 54.028 57.0701 54.7245 55.7458C56.0737 53.1777 63.3273 62.6799 68.1282 64.8998C72.9151 67.1037 72.7241 70.2638 73.9529 72.6648Z" stroke="white" stroke-linecap="round" stroke-linejoin="round"/>
<path d="M50.0958 105.18C48.8514 105.013 47.5863 105.09 46.3715 105.407C41.2293 106.616 30.1142 103.536 30.1898 106.428C30.2465 108.337 49.8122 116.107 50.6062 116.9C51.6566 113.572 53.4249 110.515 55.7862 107.945C54.031 107.128 52.6101 105.577 50.0958 105.18Z" stroke="white" stroke-linecap="round" stroke-linejoin="round"/>
<path d="M117.131 46.4065C117.131 46.4065 117.131 44.1568 117.112 40.6594C117.092 36.9918 118.515 36.2893 119.059 40.4514C119.118 40.9051 119.815 45.4612 120.023 46.8035C120.137 47.5408 120.665 49.5765 121.347 49.49C123.216 49.2462 126.74 45.1558 127.849 46.3707C128.571 47.1667 126.397 50.0402 124.786 51.9854C124.332 52.5319 124.051 53.2008 123.977 53.9075C123.903 54.6142 124.04 55.3269 124.372 55.9555C124.427 56.0669 125.727 58.6808 125.827 58.841" stroke="white" stroke-linecap="round" stroke-linejoin="round"/>
<path d="M117.412 47.3327C117.412 47.3327 114.994 39.6762 114.841 39.1658C113.641 35.1549 112.36 36.0663 112.951 39.6762C113.514 43.1179 114.145 47.3138 114.145 47.3138" stroke="white" stroke-linecap="round" stroke-linejoin="round"/>
<path d="M114.749 48.5586C113.578 46.2278 112.548 43.8289 111.664 41.3747C110.224 37.4444 109.146 38.4265 109.812 42.0363C110.174 44.2667 110.706 46.4661 111.404 48.6153" stroke="white" stroke-linecap="round" stroke-linejoin="round"/>
<path d="M113.282 62.6647C112.466 64.2229 113.037 65.2736 114.75 65.3671C118.232 65.5562 124.364 61.9672 125.827 58.8429C126.456 57.5027 126.034 56.5206 124.579 56.3315" stroke="white" stroke-linecap="round" stroke-linejoin="round"/>
<path d="M112.743 50.5865C111.369 48.765 110.221 46.7838 109.323 44.6862C107.682 40.8057 106.651 41.8713 107.565 45.5558C107.809 46.5388 108.062 47.3886 108.283 48.108C108.93 50.1676 109.55 52.2482 110.136 54.3277C110.777 56.6162 113.008 62.8161 114.75 65.3722" stroke="white" stroke-linecap="round" stroke-linejoin="round"/>
<path d="M118.643 46.9546C115.127 48.07 113.142 49.866 110.854 52.7773" stroke="white" stroke-linecap="round" stroke-linejoin="round"/>
<path d="M119.513 48.5996C118.275 49.8499 117.31 51.3447 116.682 52.9885C116.054 54.6323 115.775 56.3891 115.864 58.1466" stroke="white" stroke-linecap="round" stroke-linejoin="round"/>
<path d="M180.347 63.3256C180.347 63.3256 182.729 58.9397 182.029 55.4999C181.198 51.4204 181.868 51.3359 183.9 54.895C185.249 57.2541 186.018 62.9097 186.018 62.9097" stroke="white" stroke-linecap="round" stroke-linejoin="round"/>
<path d="M186.415 68.1653C186.415 68.1653 190.044 62.2481 190.914 58.2591C191.669 54.7995 190.366 56.3507 189.893 57.4631" stroke="white" stroke-linecap="round" stroke-linejoin="round"/>
<path d="M186.82 55.3653C187.006 54.0831 187.066 52.7858 187.001 51.4918C186.755 47.8242 185.882 48.069 185.299 51.2271C185.036 52.7092 184.682 54.1739 184.241 55.6131" stroke="white" stroke-linecap="round" stroke-linejoin="round"/>
<path d="M186.131 54.5732C187.752 56.3068 188.778 58.5115 189.061 60.8676" stroke="white" stroke-linecap="round" stroke-linejoin="round"/>
<path d="M187.001 53.4016C187.284 52.6056 187.55 51.717 187.797 50.736C188.662 47.2943 189.423 47.9947 189.253 51.0952C189.117 53.2726 188.728 55.4267 188.093 57.5139" stroke="white" stroke-linecap="round" stroke-linejoin="round"/>
<path d="M189.061 53.3444C189.95 49.6013 190.841 50.2062 190.593 53.5902C190.38 55.8595 189.825 58.0835 188.948 60.1871" stroke="white" stroke-linecap="round" stroke-linejoin="round"/>
<path d="M55.4648 144.104L55.9185 146.712" stroke="white" stroke-linecap="round" stroke-linejoin="round"/>
<path d="M53.8957 149.605L51.2679 150.078" stroke="white" stroke-linecap="round" stroke-linejoin="round"/>
<path d="M61.4388 148.282L58.811 148.735" stroke="white" stroke-linecap="round" stroke-linejoin="round"/>
<path d="M57.2419 154.256L56.7881 151.628" stroke="white" stroke-linecap="round" stroke-linejoin="round"/>
<path d="M58.807 148.735C58.3206 148.825 57.8185 148.767 57.3654 148.569C56.9122 148.37 56.5289 148.041 56.2648 147.623C56.089 147.345 55.97 147.036 55.9145 146.712C55.9741 147.035 55.9689 147.367 55.8992 147.688C55.8295 148.009 55.6967 148.313 55.5084 148.582C55.3202 148.851 55.0803 149.08 54.8028 149.256C54.5252 149.431 54.2155 149.55 53.8917 149.605C54.2146 149.546 54.5459 149.552 54.8665 149.622C55.1872 149.692 55.4909 149.824 55.7603 150.012C56.0296 150.2 56.2588 150.439 56.4346 150.717C56.6104 150.994 56.7292 151.304 56.7842 151.628C56.7245 151.305 56.7297 150.973 56.7995 150.652C56.8692 150.331 57.002 150.027 57.1902 149.758C57.3785 149.489 57.6183 149.26 57.8959 149.084C58.1735 148.909 58.4832 148.79 58.807 148.735Z" stroke="white" stroke-linecap="round" stroke-linejoin="round"/>
<path d="M93.236 31.9443L93.5574 33.7781" stroke="white" stroke-linecap="round" stroke-linejoin="round"/>
<path d="M92.1206 35.8198L90.2868 36.1412" stroke="white" stroke-linecap="round" stroke-linejoin="round"/>
<path d="M97.4508 34.8936L95.5991 35.2149" stroke="white" stroke-linecap="round" stroke-linejoin="round"/>
<path d="M94.4837 39.109L94.1623 37.2563" stroke="white" stroke-linecap="round" stroke-linejoin="round"/>
<path d="M95.5991 35.2146C95.3706 35.255 95.1364 35.2499 94.9099 35.1995C94.6835 35.1491 94.4692 35.0544 94.2794 34.9209C94.0897 34.7873 93.9282 34.6176 93.8043 34.4214C93.6804 34.2253 93.5964 34.0065 93.5574 33.7778C93.5981 34.0065 93.5932 34.241 93.5429 34.4678C93.4927 34.6945 93.398 34.9091 93.2645 35.0992C93.1309 35.2892 92.9611 35.451 92.7648 35.5751C92.5685 35.6993 92.3495 35.7834 92.1206 35.8226C92.3491 35.7821 92.5833 35.7873 92.8098 35.8377C93.0362 35.8881 93.2505 35.9828 93.4403 36.1163C93.63 36.2498 93.7915 36.4196 93.9154 36.6157C94.0393 36.8119 94.1233 37.0306 94.1623 37.2593C94.1216 37.0307 94.1265 36.7962 94.1768 36.5694C94.227 36.3426 94.3217 36.128 94.4552 35.938C94.5888 35.7479 94.7586 35.5862 94.9549 35.462C95.1512 35.3379 95.3702 35.2538 95.5991 35.2146Z" stroke="white" stroke-linecap="round" stroke-linejoin="round"/>
<path d="M184.071 83.478L184.883 88.052" stroke="white" stroke-linecap="round" stroke-linejoin="round"/>
<path d="M181.329 93.1187L176.755 93.9316" stroke="white" stroke-linecap="round" stroke-linejoin="round"/>
<path d="M194.525 90.7935L189.95 91.6064" stroke="white" stroke-linecap="round" stroke-linejoin="round"/>
<path d="M187.209 101.229L186.396 96.6538" stroke="white" stroke-linecap="round" stroke-linejoin="round"/>
<path d="M189.948 91.6064C189.382 91.7057 188.802 91.6926 188.241 91.5677C187.68 91.4429 187.149 91.2087 186.679 90.8787C186.208 90.5486 185.807 90.1292 185.499 89.6442C185.191 89.1592 184.981 88.6183 184.881 88.0522C185.082 89.1954 184.82 90.3711 184.153 91.3212C183.487 92.2712 182.47 92.9178 181.327 93.1188C181.893 93.0195 182.473 93.0326 183.034 93.1575C183.595 93.2823 184.126 93.5165 184.597 93.8465C185.067 94.1765 185.468 94.596 185.776 95.081C186.085 95.5659 186.295 96.1069 186.394 96.6729C186.194 95.5298 186.456 94.354 187.122 93.404C187.789 92.454 188.805 91.8074 189.948 91.6064Z" stroke="white" stroke-linecap="round" stroke-linejoin="round"/>
<path d="M161.253 138.188L126.185 152.592" stroke="white" stroke-linecap="round" stroke-linejoin="round"/>
<path d="M117.906 163.311L161.253 138.188L108.454 179.247" stroke="white" stroke-linecap="round" stroke-linejoin="round"/>
<path d="M165.564 137.336C165.733 138.189 165.645 139.073 165.311 139.875C164.977 140.678 164.413 141.363 163.689 141.845C162.965 142.326 162.116 142.582 161.247 142.581C160.378 142.58 159.529 142.321 158.806 141.838C158.206 141.435 157.715 140.891 157.375 140.254C157.035 139.616 156.858 138.904 156.859 138.182C156.86 137.459 157.039 136.748 157.381 136.111C157.722 135.474 158.216 134.932 158.817 134.531C159.418 134.13 160.109 133.884 160.828 133.815C161.547 133.745 162.273 133.853 162.94 134.131C163.607 134.408 164.196 134.846 164.653 135.405C165.111 135.964 165.424 136.627 165.564 137.336Z" stroke="white" stroke-linecap="round" stroke-linejoin="round"/>
<path d="M162.86 79.4136C183.919 58.5614 147.283 41.6036 168.343 20.7534" stroke="white" stroke-linecap="round" stroke-linejoin="round"/>
<path d="M70.3798 73.3828L84.0103 110.379" stroke="white" stroke-linecap="round" stroke-linejoin="round"/>
<path d="M84.0103 110.379C84.6892 112.214 85.984 113.756 87.6735 114.742C89.3631 115.728 91.3426 116.096 93.2738 115.785" stroke="white" stroke-linecap="round" stroke-linejoin="round"/>
<path d="M93.2927 115.785L132.065 109.472" stroke="white" stroke-linecap="round" stroke-linejoin="round"/>
<path d="M149.06 86.5032L154.693 85.8226L154.258 82.9302L146.508 83.9321L149.06 86.5032Z" stroke="white" stroke-linecap="round" stroke-linejoin="round"/>
<path d="M160.516 79.7539L156.47 80.3589C155.945 80.4397 155.456 80.6742 155.064 81.0327C154.672 81.3913 154.395 81.8579 154.267 82.3737C154.183 82.7165 154.167 83.0726 154.221 83.4215L154.519 85.4115C154.623 86.1154 155.002 86.7494 155.572 87.1744C156.143 87.5995 156.859 87.781 157.563 87.6791L161.59 87.0652" stroke="white" stroke-linecap="round" stroke-linejoin="round"/>
<path d="M164.618 86.6153C164.967 86.5623 165.302 86.441 165.604 86.2583C165.906 86.0756 166.169 85.8351 166.377 85.5506C166.799 84.9761 166.975 84.258 166.868 83.5537L166.569 81.5637C166.466 80.8594 166.088 80.2248 165.517 79.7994C164.946 79.374 164.23 79.1926 163.526 79.2951L160.52 79.7488C159.995 79.8296 159.505 80.0641 159.113 80.4226C158.721 80.7812 158.444 81.2478 158.317 81.7637C158.232 82.1064 158.216 82.4625 158.27 82.8114L158.569 84.7964C158.643 85.3198 158.87 85.8095 159.223 86.2034C159.575 86.5974 160.037 86.8778 160.549 87.0093C160.889 87.0959 161.243 87.1148 161.59 87.065L164.618 86.6153Z" stroke="white" stroke-linecap="round" stroke-linejoin="round"/>
<path d="M164.5 123.5C167.947 123.502 171.253 124.871 173.69 127.309C176.052 129.67 177.412 132.846 177.496 136.176L177.5 136.499C177.5 139.07 176.738 141.584 175.31 143.722C173.881 145.86 171.851 147.526 169.476 148.51C167.1 149.494 164.487 149.751 161.965 149.25C159.443 148.749 157.127 147.511 155.309 145.693C153.49 143.875 152.252 141.559 151.75 139.037C151.248 136.515 151.505 133.901 152.489 131.525C153.473 129.15 155.14 127.12 157.277 125.691C159.282 124.352 161.616 123.598 164.019 123.509L164.5 123.5Z" fill="#339458" stroke="white"/>
<path d="M168.412 131L162.309 131.517C161.626 131.613 161.008 131.953 160.581 132.468C160.154 132.983 159.95 133.634 160.011 134.287C160.071 134.94 160.393 135.546 160.909 135.982C161.425 136.417 162.096 136.649 162.786 136.629L166.2 136.341C166.892 136.318 167.567 136.547 168.086 136.983C168.605 137.419 168.928 138.027 168.989 138.683C169.051 139.338 168.845 139.991 168.415 140.507C167.984 141.023 167.362 141.362 166.677 141.454L160.575 142" fill="#339458"/>
<path d="M168.412 131L162.309 131.517C161.626 131.613 161.008 131.953 160.581 132.468C160.154 132.983 159.95 133.634 160.011 134.287C160.071 134.94 160.393 135.546 160.909 135.982C161.425 136.417 162.096 136.649 162.786 136.629L166.2 136.341C166.892 136.318 167.567 136.547 168.086 136.983C168.605 137.419 168.928 138.027 168.989 138.683C169.051 139.338 168.845 139.991 168.415 140.507C167.984 141.023 167.362 141.362 166.677 141.454L160.575 142" stroke="white" stroke-linecap="round" stroke-linejoin="round"/>
<path d="M164 129L165 144L164 129Z" fill="#339458"/>
<path d="M164 129L165 144" stroke="white" stroke-linecap="round" stroke-linejoin="round"/>
<path d="M176.5 28.5C178.356 28.5009 180.136 29.2385 181.448 30.5508C182.761 31.8631 183.499 33.643 183.5 35.499C183.5 36.8835 183.089 38.2375 182.32 39.3887C181.551 40.5397 180.459 41.437 179.18 41.9668C177.901 42.4967 176.493 42.6352 175.135 42.3652C173.777 42.0952 172.53 41.429 171.551 40.4502C170.572 39.4713 169.905 38.224 169.635 36.8662C169.365 35.5084 169.503 34.1004 170.033 32.8213C170.563 31.5423 171.46 30.4488 172.611 29.6797C173.691 28.9586 174.947 28.5527 176.241 28.5049L176.5 28.5Z" fill="#339458" stroke="white"/>
<path d="M178.673 32L175.283 32.329C174.903 32.3899 174.56 32.6064 174.323 32.9341C174.085 33.2617 173.972 33.6759 174.006 34.0916C174.04 34.5073 174.218 34.8932 174.505 35.1703C174.792 35.4473 175.165 35.5946 175.548 35.5818L177.444 35.399C177.829 35.3841 178.204 35.5302 178.492 35.8074C178.78 36.0847 178.96 36.4718 178.994 36.8889C179.028 37.3062 178.914 37.7217 178.675 38.0499C178.436 38.378 178.09 38.5938 177.709 38.6527L174.32 39" fill="#339458"/>
<path d="M178.673 32L175.283 32.329C174.903 32.3899 174.56 32.6064 174.323 32.9341C174.085 33.2617 173.972 33.6759 174.006 34.0916C174.04 34.5073 174.218 34.8932 174.505 35.1703C174.792 35.4473 175.165 35.5946 175.548 35.5818L177.444 35.399C177.829 35.3841 178.204 35.5302 178.492 35.8074C178.78 36.0847 178.96 36.4718 178.994 36.8889C179.028 37.3062 178.914 37.7217 178.675 38.0499C178.436 38.378 178.09 38.5938 177.709 38.6527L174.32 39" stroke="white" stroke-linecap="round" stroke-linejoin="round"/>
<path d="M176 31L177 40L176 31Z" fill="#339458"/>
<path d="M176 31L177 40" stroke="white" stroke-linecap="round" stroke-linejoin="round"/>
</svg>
