<svg width="200" height="200" viewBox="0 0 200 200" fill="none" xmlns="http://www.w3.org/2000/svg">
<path d="M51.852 83.6582C46.708 87.7012 46.871 77.8342 49.28 78.6982C49.827 78.8982 51.825 80.8982 52.22 79.6162C52.392 79.0612 50.934 72.8162 50.383 71.5322C54.3369 68.4917 57.2821 64.3295 58.834 59.5892C58.834 59.0382 57.365 59.7732 57.365 59.7732C57.6651 59.0145 57.7905 58.198 57.732 57.3842C57.6998 57.3416 57.6582 57.307 57.6104 57.2831C57.5626 57.2593 57.5099 57.2469 57.4565 57.2469C57.4031 57.2469 57.3504 57.2593 57.3026 57.2831C57.2548 57.307 57.2132 57.3416 57.181 57.3842C56.262 59.2222 54.058 59.5842 52.22 59.7732C50.02 59.7732 42.298 58.6732 39.542 59.9572C38.256 60.5082 36.786 62.3452 37.342 65.6572C37.342 66.0252 37.893 68.2302 38.26 68.4132C39.682 68.4079 41.0788 68.788 42.302 69.5132C42.486 69.6962 42.302 69.8802 42.119 69.8802C41.384 69.8802 40.832 69.6962 40.281 69.6962C37.709 69.5132 34.034 69.5132 33.667 72.8202C33.299 75.3922 34.218 77.9652 35.137 80.1702C36.237 82.9252 42.302 91.9292 43.037 92.2962C43.2943 92.3014 43.5509 92.2656 43.797 92.1902C43.988 94.1242 44.339 96.0502 44.691 97.8082C44.874 98.9082 45.977 99.0942 45.791 97.8082C45.268 95.8902 44.91 93.9722 44.404 92.0542C47.021 91.4422 52.566 89.8762 53.692 89.1732C54.058 88.9872 52.4 83.1072 51.852 83.6582ZM53.874 62.5292C53.9688 62.5368 54.0578 62.5779 54.1251 62.6451C54.1924 62.7124 54.2335 62.8014 54.241 62.8962C54.241 64.0292 50.707 64.6962 50.566 64.7342C50.383 64.7342 50.199 64.3662 50.383 64.3662C50.587 64.1612 53.37 62.3612 53.874 62.5292ZM44.5 85.3122C44.5005 85.3365 44.4962 85.3607 44.4871 85.3833C44.4781 85.4059 44.4645 85.4264 44.4473 85.4436C44.4301 85.4608 44.4096 85.4743 44.3871 85.4833C44.3645 85.4924 44.3403 85.4968 44.316 85.4962C43.765 85.6802 43.216 85.1282 43.03 84.7612C42.6364 84.292 42.2692 83.8012 41.93 83.2912C42.0126 84.7589 42.3866 86.1955 43.03 87.5172C43.081 87.6398 43.0907 87.7756 43.0578 87.9041C43.0248 88.0327 42.951 88.147 42.8474 88.23C42.7438 88.3129 42.6161 88.36 42.4834 88.364C42.3508 88.368 42.2204 88.3288 42.112 88.2522C40.8633 86.9407 39.811 85.4553 38.988 83.8422C38.106 82.1692 37.151 80.5352 37.335 78.5142C37.335 78.3302 37.702 78.1462 37.702 78.5142C38.1316 80.2296 38.8778 81.8497 39.902 83.2912C40.2679 84.0055 40.7026 84.6824 41.2 85.3122C40.8593 84.1173 40.7963 82.8602 41.016 81.6372C41.0204 81.5292 41.061 81.4257 41.1312 81.3435C41.2015 81.2613 41.2974 81.2052 41.4035 81.184C41.5095 81.1629 41.6196 81.1781 41.716 81.2271C41.8124 81.2761 41.8896 81.3561 41.935 81.4542C42.767 83.1272 44.743 84.3522 44.5 85.3122ZM40.645 62.1612C40.455 62.2512 40.297 62.1342 40.461 61.9782C41.1428 61.4129 41.9408 61.0046 42.7982 60.7824C43.6556 60.5601 44.5514 60.5293 45.422 60.6922C46.8811 60.919 48.3545 61.0417 49.831 61.0592C49.931 61.0592 52.547 60.7322 51.485 61.7942C50.239 62.7282 47.448 62.2732 45.973 61.9782C44.2231 61.468 42.3558 61.5321 40.645 62.1612Z" fill="white"/>
<path d="M61.591 79.6162C62.0576 79.242 62.4326 78.7661 62.6872 78.2249C62.9418 77.6836 63.0693 77.0913 63.06 76.4932C63.06 74.0232 61.06 72.4802 59.386 70.4292C58.478 69.3182 57.365 68.4082 56.262 67.3062C56.078 67.1222 55.711 67.3062 55.895 67.6732C56.63 68.5922 57.365 69.6952 58.095 70.6132C60.257 73.3132 61.495 74.6132 61.769 76.1252C61.7801 77.0938 61.5259 78.0468 61.034 78.8812C60.9883 78.6049 60.8604 78.3488 60.667 78.1462C60.483 77.9632 60.238 77.9762 60.299 78.3302C60.78 81.0992 61.399 84.2102 60.483 87.1492C60.2153 88.1702 59.7118 89.1142 59.013 89.9052C58.278 90.8242 57.176 91.1922 56.257 91.9272C56.073 92.1102 56.073 92.4782 56.441 92.4782C57.727 92.6612 58.829 91.7432 59.748 91.0082C60.6573 90.0671 61.3489 88.9379 61.774 87.7002C62.5425 85.0504 62.4786 82.2285 61.591 79.6162Z" fill="white"/>
<path d="M92.091 98.7252C95.168 97.8452 97.065 96.6052 103.115 93.5802C105.425 92.8102 106.524 92.3532 107.524 90.2732C116 72.6342 117.068 61.0912 118 58.3002C118.212 57.2121 118.334 56.1084 118.365 55.0002C118.365 54.4482 117.63 54.4482 117.446 54.8162C116.974 56.755 116.607 58.7179 116.346 60.6962C114.611 69.2615 112.026 77.6323 108.629 85.6842C107.729 87.7142 107.159 90.6442 105.138 91.7472C103.12 92.8581 101.033 93.8401 98.891 94.6872C96.666 95.7482 94.481 97.0752 92.091 98.1782C91.539 98.3572 91.723 98.7252 92.091 98.7252Z" fill="white"/>
<path d="M117.079 52.0562C115.979 51.1372 114.863 50.4172 113.588 49.4842C112.852 49.0871 112.222 48.52 111.75 47.8302C111.523 47.4062 111.405 46.9329 111.405 46.4522C111.405 45.9715 111.523 45.4982 111.75 45.0742C112.101 44.0621 112.531 43.0791 113.036 42.1342C113.404 41.2162 113.955 40.2972 114.323 39.3782C114.506 39.0112 113.955 38.6432 113.588 39.0112C112.93 39.8617 112.375 40.7868 111.934 41.7672C111.199 43.4202 110.058 45.4462 110.28 47.2792C110.414 47.8985 110.68 48.4817 111.06 48.989C111.439 49.4964 111.924 49.916 112.48 50.2192C113.78 51.1192 115.236 52.0562 116.522 52.7912C117.079 52.7912 117.446 52.4232 117.079 52.0562Z" fill="white"/>
<path d="M115.425 42.8692C116.03 39.5422 116.179 35.7752 116.525 33.6822C116.709 32.5822 116.709 31.4822 116.893 30.3752C117.077 29.6402 117.26 30.5592 117.444 30.7432C117.628 31.4782 117.989 32.2142 118.179 33.1312C118.713 35.7072 118.914 38.4602 119.279 41.0312C119.291 41.1448 119.344 41.25 119.429 41.3265C119.514 41.4029 119.624 41.4452 119.739 41.4452C119.853 41.4452 119.963 41.4029 120.048 41.3265C120.133 41.25 120.186 41.1448 120.198 41.0312C120.327 37.2109 119.703 33.4024 118.361 29.8232C118.3 29.5228 118.14 29.2514 117.907 29.0522C117.674 28.8529 117.381 28.7371 117.075 28.7232C115.789 28.7232 115.975 30.9232 115.789 31.6622C115.417 35.2639 115.233 38.8824 115.237 42.5032C114.874 43.0532 115.241 43.0532 115.425 42.8692Z" fill="white"/>
<path d="M125.163 37.1732C125.883 37.8029 126.395 38.6358 126.633 39.5622C126.817 40.4717 126.817 41.4088 126.633 42.3182C126.541 42.4539 126.492 42.6139 126.492 42.7777C126.492 42.9415 126.541 43.1016 126.633 43.2372C126.817 43.4202 127 43.2372 127.184 43.0532C127.904 42.3332 127.804 40.3902 127.552 39.3782C127.401 38.7887 127.126 38.238 126.746 37.7628C126.366 37.2876 125.889 36.8988 125.347 36.6222C125.085 36.5292 124.979 36.9902 125.163 37.1732Z" fill="white"/>
<path d="M129.389 51.1372C129.999 49.8546 130.432 48.4948 130.675 47.0952C131.009 44.7022 131.043 41.5832 129.389 39.5622C129.205 39.1942 128.654 39.5622 128.838 39.9292C129.754 42.14 129.947 44.5841 129.389 46.9112C129.021 49.1112 127.689 50.9332 126.817 52.9752C126.428 53.8852 127.742 63.9982 128.103 69.1432C128.477 74.4712 128.47 79.8002 128.47 85.1282C128.47 90.2732 128.109 95.4182 127.735 100.746C127.588 103.297 127.157 105.824 126.449 108.279C125.828 110.11 124.754 111.753 123.326 113.056C121.521 114.906 119.482 116.511 117.262 117.833C115.98 118.574 114.874 119.303 113.588 120.033C112.296 120.721 111.066 121.521 109.913 122.422C109.545 122.605 109.913 123.157 110.28 122.973C112.755 122.131 115.103 120.957 117.262 119.482C119.279 118.239 121.186 116.825 122.962 115.256C124.481 113.937 125.783 112.387 126.821 110.663C127.879 108.477 128.503 106.106 128.658 103.681C130.667 89.1132 129.825 68.4152 127.558 53.8882C128.47 53.5262 129.205 51.6882 129.389 51.1372Z" fill="white"/>
<path d="M9.226 151.641C8.966 155.541 6.844 165.282 5.919 169.095C5.093 172.5 5 172.3 5 173.138C5 173.505 5.367 173.689 5.735 173.321C6.40599 172.329 6.84548 171.199 7.021 170.014C7.556 167.578 9.961 155.482 9.961 151.641C9.777 151.089 9.226 151.089 9.226 151.641Z" fill="white"/>
<path d="M120.57 35.8872C120.937 36.4382 121.488 36.8062 121.67 37.3572C122.194 38.5094 122.446 39.767 122.405 41.0322C122.405 42.3092 123.842 41.1322 123.324 38.8322C123.139 37.908 122.765 37.0322 122.224 36.2602C121.817 35.7945 121.316 35.4197 120.754 35.1602C120.57 35.3362 120.386 35.7002 120.57 35.8872Z" fill="white"/>
<path d="M72.431 140.249C72.063 140.433 71.877 139.877 72.247 139.698C74.986 138.374 109.178 125.918 109.547 125.734C108.078 121.875 97.053 93.2132 96.686 91.7432C96.653 91.6562 96.6024 91.577 96.5372 91.5105C96.472 91.4441 96.3937 91.3919 96.3073 91.3573C96.2209 91.3227 96.1283 91.3065 96.0353 91.3096C95.9423 91.3126 95.8509 91.335 95.767 91.3752C91.725 94.1312 67.288 102.767 66.737 102.951C60.672 96.5202 42.3 95.6002 34.581 99.0922C34.4626 99.1276 34.3588 99.2002 34.2849 99.2993C34.2111 99.3984 34.1712 99.5187 34.1712 99.6422C34.1712 99.7658 34.2111 99.8861 34.2849 99.9852C34.3588 100.084 34.4626 100.157 34.581 100.192C36.405 100.756 37.641 103.251 37.889 103.499C31.274 105.699 25.152 109.334 20.989 114.89C15.627 122.042 15.089 126.664 6.658 153.842C6.64565 153.942 6.65566 154.043 6.68731 154.139C6.71896 154.234 6.77146 154.322 6.841 154.394C10.884 155.129 15.109 155.312 19.152 156.047C18.832 147.102 18.992 136.974 21.352 128.303C22.3069 124.326 23.7901 120.495 25.762 116.912C25.946 116.728 26.313 116.912 26.13 117.095C25.0621 119.257 24.2599 121.54 23.741 123.895C19.336 137.109 20.878 155.889 21.169 169.828C21.211 171.849 21.352 173.871 21.536 175.892C23.5577 176.522 25.6655 176.832 27.783 176.81C29.621 176.81 41.559 176.024 45.789 175.71C54.601 175.052 80.699 173.873 85.109 174.24C85.2521 174.231 85.387 174.17 85.4884 174.069C85.5898 173.967 85.6508 173.832 85.66 173.689C85.752 168.909 87.681 138.412 87.681 136.389C82.5209 137.351 77.4273 138.64 72.431 140.249ZM59.2 122.059C59.8889 125.886 61.2586 129.557 63.244 132.9C63.316 132.963 63.3702 133.043 63.401 133.133C63.4319 133.223 63.4382 133.32 63.4195 133.413C63.4008 133.506 63.3577 133.593 63.2945 133.664C63.2314 133.735 63.1504 133.789 63.06 133.818C62.693 133.818 62.325 133.083 62.142 132.9C61.407 131.8 60.672 130.511 59.937 129.225C58.831 126.582 58.0908 123.8 57.737 120.957C57.061 115.566 58.937 110.209 61.044 107.728C61.212 107.528 63.617 105.339 63.433 106.074C63.249 106.625 62.497 107.16 62.147 107.544C61.2603 108.639 60.576 109.884 60.126 111.219C58.8721 114.689 58.5528 118.427 59.2 122.059ZM53.5 102.767C54.6831 102.87 55.7908 103.391 56.624 104.237C56.6585 104.283 56.6814 104.336 56.6907 104.393C56.7 104.449 56.6954 104.507 56.6773 104.561C56.6591 104.616 56.6281 104.665 56.5867 104.704C56.5454 104.744 56.495 104.773 56.44 104.788C53.649 104.788 53.955 103.318 42.292 103.318C41.925 103.318 42.109 102.951 42.292 102.951C44.854 102.754 50.872 102.328 53.506 102.767H53.5Z" fill="#5163E2"/>
<path d="M133.247 23.3932C129.156 23.3932 106.694 23.0072 103.115 23.3932C101.097 23.6112 98.889 23.9442 97.415 25.5932C96.6011 26.4489 96.0855 27.5447 95.945 28.7172C95.753 31.1017 95.753 33.4978 95.945 35.8822C96.115 37.9052 96.105 39.9482 97.782 41.5822C101.045 44.7522 106.599 43.1442 110.644 43.2362C110.717 43.2362 110.787 43.2072 110.839 43.1554C110.891 43.1036 110.92 43.0334 110.92 42.9602C110.92 42.887 110.891 42.8168 110.839 42.7651C110.787 42.7133 110.717 42.6842 110.644 42.6842C108.99 42.6842 107.153 42.5012 105.499 42.5012C102.257 42.5012 99.211 42.4182 97.782 39.5612C96.864 37.7242 97.047 35.3352 97.047 33.3142C97.047 31.4772 96.864 28.9042 97.782 27.2512C98.7 25.5982 100.726 24.9012 102.56 24.6782C105.061 24.4044 107.577 24.2819 110.093 24.3112C137.95 24.3112 139.685 24.2302 140.409 24.3112C141.331 24.4726 142.212 24.8157 143.001 25.3204C143.789 25.8251 144.469 26.4814 145.002 27.2512C146.074 29.0786 146.464 31.2267 146.102 33.3142C146.057 33.5862 145.848 37.8282 144.816 39.5612C143.221 42.2382 137.232 42.3232 135.816 42.5012H132.508C132.325 42.5012 131.59 42.5012 131.773 42.8682H131.957C134.707 43.1207 137.475 43.1207 140.225 42.8682C142.063 42.6842 143.9 42.3172 145.002 40.8472C146.102 39.5612 146.263 37.9042 146.472 36.2542C146.676 34.9769 146.799 33.688 146.84 32.3952C146.932 31.2334 146.932 30.0661 146.84 28.9042C146.601 27.8929 146.15 26.9439 145.516 26.1203C144.883 25.2967 144.081 24.6173 143.165 24.1272C142.287 23.6872 139.38 23.3932 133.247 23.3932Z" fill="white"/>
<path d="M164.482 81.4542C168.513 81.8366 172.568 81.8978 176.609 81.6372C178.11 81.6458 179.602 81.3972 181.019 80.9022C181.762 80.5973 182.436 80.1479 183.004 79.5803C183.572 79.0126 184.021 78.3379 184.326 77.5952C184.623 76.645 184.747 75.6493 184.693 74.6552C184.693 72.4442 184.745 72.0552 184.51 71.3482C184.51 71.1642 184.142 71.1642 184.142 71.3482C183.892 72.1815 183.829 73.0598 183.958 73.9202C183.937 74.8496 183.814 75.7738 183.591 76.6762C183.414 77.4011 183.073 78.0759 182.596 78.6492C182.118 79.2225 181.516 79.6791 180.835 79.9842C179.463 80.4064 178.043 80.6534 176.609 80.7192C175.139 80.7192 173.485 80.9022 172.016 80.9022C169.627 80.9022 167.055 80.9022 164.666 81.0862C164.3 81.2702 164.3 81.4542 164.482 81.4542Z" fill="white"/>
<path d="M121.672 120.038C128.508 120.187 147.729 120.652 151.988 120.222C154.008 120.022 156.053 119.888 157.688 118.752C159.739 117.324 160.077 115.077 160.077 112.872C160.522 105.745 160.61 100.698 153.462 100.195C149.792 99.9362 146.113 100.195 142.254 100.195C132.528 100.195 133.154 100.378 131.414 100.378C131.341 100.378 131.271 100.407 131.219 100.459C131.167 100.511 131.138 100.581 131.138 100.654C131.138 100.727 131.167 100.798 131.219 100.849C131.271 100.901 131.341 100.93 131.414 100.93C132.149 100.93 133.435 101.098 134.354 101.113C139.868 101.205 145.377 100.757 150.89 101.113C153.829 101.303 157.723 101.286 158.79 104.788C159.739 107.902 159.521 112.137 158.973 115.261C158.233 119.486 151.807 119.269 148.5 119.303C139.5 119.395 130.678 119.119 121.675 119.487C121.488 119.671 121.488 120.034 121.672 120.038Z" fill="white"/>
<path d="M188.735 105.155C184.656 104.748 162.235 105.082 161.726 105.339C161.359 105.523 161.91 116.363 162.278 116.363C166.878 116.034 188.978 115.845 190.757 115.445C192.974 114.945 194.247 112.505 194.247 110.3C194.431 107.36 191.492 105.523 188.735 105.155Z" fill="#5163E2"/>
<path d="M188.735 105.155C184.656 104.748 162.235 105.082 161.726 105.339C161.359 105.523 161.91 116.363 162.278 116.363C166.878 116.034 188.978 115.845 190.757 115.445C192.974 114.945 194.247 112.505 194.247 110.3C194.431 107.36 191.492 105.523 188.735 105.155Z" fill="#339458"/>
<path d="M188.735 105.155C184.656 104.748 162.235 105.082 161.726 105.339C161.359 105.523 161.91 116.363 162.278 116.363C166.878 116.034 188.978 115.845 190.757 115.445C192.974 114.945 194.247 112.505 194.247 110.3C194.431 107.36 191.492 105.523 188.735 105.155Z" fill="#339458"/>
<path d="M112.485 66.9392C107.358 66.4178 102.202 66.2334 97.051 66.3872C94.479 66.3872 91.907 66.3872 89.335 66.5712C88.0459 66.5407 86.7563 66.6022 85.476 66.7552C84.2481 66.7167 83.019 66.7779 81.801 66.9382C80.7788 67.1723 79.8349 67.668 79.0619 68.3768C78.289 69.0856 77.7136 69.983 77.392 70.9812C76.657 72.8182 77.581 74.8332 79.045 76.1252C80.7015 77.4605 82.803 78.1173 84.925 77.9632C94.277 77.9632 100.388 78.0262 109.913 77.4112C110.28 77.4112 110.28 76.6762 109.913 76.8602C102.632 77.2915 95.3348 77.3529 88.048 77.0442C86.027 77.0442 83.648 77.2002 81.618 76.4932C79.972 75.9192 78.127 74.2932 78.127 72.2672C78.2121 71.3151 78.5973 70.4145 79.227 69.6952C79.81 68.7685 80.7343 68.1083 81.8 67.8572C84.036 67.4852 86.35 67.8632 88.966 67.4902C93.491 67.4902 85.554 67.3062 112.666 67.3062C112.669 67.2062 112.669 67.1222 112.485 66.9392Z" fill="white"/>
<path d="M192.043 28.7222C190.215 27.6002 188 27.8002 185.8 27.8002C150.084 27.8002 148.318 27.9392 148.318 28.7192C148.318 31.9119 148.133 35.1018 147.766 38.2732C147.696 38.3185 147.641 38.3847 147.611 38.4624C147.58 38.5402 147.574 38.6256 147.594 38.7067C147.615 38.7878 147.66 38.8605 147.724 38.9146C147.788 38.9687 147.867 39.0014 147.95 39.0082C158.259 39.5972 171.233 39.0472 187.27 38.8242C188.923 38.8012 190.761 38.8242 192.23 37.7242C195.853 35.7102 196.054 31.1782 192.043 28.7222Z" fill="#5163E2"/>
<path d="M192.043 28.7222C190.215 27.6002 188 27.8002 185.8 27.8002C150.084 27.8002 148.318 27.9392 148.318 28.7192C148.318 31.9119 148.133 35.1018 147.766 38.2732C147.696 38.3185 147.641 38.3847 147.611 38.4624C147.58 38.5402 147.574 38.6256 147.594 38.7067C147.615 38.7878 147.66 38.8605 147.724 38.9146C147.788 38.9687 147.867 39.0014 147.95 39.0082C158.259 39.5972 171.233 39.0472 187.27 38.8242C188.923 38.8012 190.761 38.8242 192.23 37.7242C195.853 35.7102 196.054 31.1782 192.043 28.7222Z" fill="#339458"/>
<path d="M193.145 68.5922C191.492 66.9392 185.428 66.5712 185.428 67.3062C185.428 70.2462 185.428 77.0442 185.796 77.4112C186.286 77.7253 186.872 77.8556 187.449 77.7792C188.624 77.8306 189.801 77.7066 190.94 77.4112C191.862 77.1576 192.703 76.6686 193.379 75.9923C194.056 75.316 194.545 74.4755 194.799 73.5532C194.908 72.6554 194.816 71.7447 194.53 70.8868C194.244 70.0288 193.771 69.2451 193.145 68.5922Z" fill="#5163E2"/>
<path d="M193.145 68.5922C191.492 66.9392 185.428 66.5712 185.428 67.3062C185.428 70.2462 185.428 77.0442 185.796 77.4112C186.286 77.7253 186.872 77.8556 187.449 77.7792C188.624 77.8306 189.801 77.7066 190.94 77.4112C191.862 77.1576 192.703 76.6686 193.379 75.9923C194.056 75.316 194.545 74.4755 194.799 73.5532C194.908 72.6554 194.816 71.7447 194.53 70.8868C194.244 70.0288 193.771 69.2451 193.145 68.5922Z" fill="#339458"/>
<path d="M183.958 65.4692C180.958 60.9692 174.72 61.9782 170.546 61.9782C168.157 61.9782 165.585 61.9782 163.196 61.7942C147.926 61.7942 140.696 61.0082 137.657 62.5292C137.022 62.7437 136.435 63.0813 135.931 63.5226C135.427 63.9639 135.014 64.5004 134.717 65.1012C134.442 65.6147 134.249 66.1686 134.147 66.7422C131.631 66.7372 130.381 66.6812 130.124 66.9422V67.4932C130.376 67.7228 130.702 67.8532 131.043 67.8602C132.837 67.8602 133.602 67.9142 134.001 67.9202C133.939 68.8642 133.982 69.8062 133.982 70.6202C133.837 72.9005 134.014 75.1898 134.51 77.4202C131.401 77.4202 131.15 77.3662 130.675 77.6042L130.7 78.3392C130.8 78.4392 130.238 78.3392 134.851 78.3392C135.114 78.9609 135.497 79.5245 135.979 79.9975C136.46 80.4705 137.031 80.8435 137.657 81.0952C139.641 81.7562 140.91 81.6462 149.416 81.6462C156.66 81.6462 161.416 81.4462 162.461 81.4632C162.534 81.4632 162.604 81.4342 162.656 81.3824C162.708 81.3306 162.737 81.2604 162.737 81.1872C162.737 81.114 162.708 81.0438 162.656 80.9921C162.604 80.9403 162.534 80.9112 162.461 80.9112C161.361 80.9112 160.073 80.7282 158.97 80.7282H147.579C144.455 80.7282 140.229 81.4632 137.473 79.9932C136.7 79.5118 136.07 78.8314 135.65 78.0232C135.23 77.215 135.035 76.3087 135.085 75.3992C134.901 72.6432 134.534 68.9692 135.268 66.2122C135.523 65.4946 135.967 64.8596 136.555 64.3752C139.032 61.8982 144.389 62.5382 174.955 62.5382C177.344 62.5382 179.732 62.5382 181.57 63.8242C182.448 64.4235 183.139 65.2593 183.561 66.2348C183.984 67.2104 184.121 68.2857 183.958 69.3362C184.142 69.5202 184.142 69.5202 184.326 69.3362C184.589 68.7115 184.693 68.0312 184.629 67.3564C184.565 66.6815 184.334 66.0331 183.958 65.4692Z" fill="white"/>
<path d="M144.272 68.2252C142.772 72.7122 144.639 77.0802 144.639 75.3902C144.864 74.7152 145.083 66.6002 144.272 68.2252Z" fill="white"/>
<path d="M151.253 67.6732C150.904 68.8962 151.07 69.7052 151.07 73.7372C151.07 74.8672 151.154 75.3902 151.988 75.3902C152.503 75.0472 152.356 74.7672 152.356 71.7162C152.356 65.7852 151.033 67.6732 151.253 67.6732Z" fill="white"/>
<path d="M159.705 75.3902C160.029 74.9052 159.62 65.2722 158.419 67.6732C158.519 67.6732 158.1 77.0002 159.705 75.3902Z" fill="white"/>
<path d="M165.585 67.8572C165.383 69.8715 165.321 71.8974 165.401 73.9202C165.401 74.4722 165.401 75.3902 165.769 75.7582C165.952 75.9422 166.269 75.9342 166.32 75.7582C166.481 75.0973 166.542 74.4162 166.503 73.7372C166.58 71.7088 166.457 69.6776 166.136 67.6732C166.136 67.4902 165.585 67.4902 165.585 67.8572Z" fill="white"/>
<path d="M173.485 68.0412C173.485 68.1412 172.902 74.6412 174.037 75.5742C175.373 76.6692 174.726 70.6002 174.604 69.8492C174.083 66.6372 173.5 67.6412 173.485 68.0412Z" fill="white"/>
<path d="M105.687 29.8242C105.014 31.8442 105.559 31.8072 105.136 33.4992C105.136 34.5992 104.952 36.0712 105.503 36.9902C105.687 37.3572 106.055 37.1732 106.055 36.9902C106.286 36.2962 106.238 35.9902 106.238 31.6612C106.238 31.1102 106.055 30.5612 106.055 29.8242C106.238 29.6402 105.871 29.4562 105.687 29.8242Z" fill="white"/>
<path d="M112.669 29.2732C112.287 31.2701 112.164 33.3079 112.302 35.3362C112.302 35.8872 112.302 36.8062 112.853 36.9902H113.22C113.771 36.6222 113.588 35.8902 113.588 35.3362C113.723 33.3078 113.599 31.2705 113.22 29.2732C113.036 29.0892 112.669 28.9052 112.669 29.2732Z" fill="white"/>
<path d="M127 29.4562C126.798 31.4709 126.737 33.4971 126.817 35.5202C126.817 36.0712 126.817 36.9902 127.184 37.3572C127.368 37.5412 127.722 37.5572 127.776 37.3782C127.923 36.7081 127.971 36.0202 127.919 35.3362C127.996 33.3081 127.873 31.2773 127.552 29.2732C127.552 29.0892 127 29.0892 127 29.4562Z" fill="white"/>
<path d="M134.9 29.6402C134.9 29.7402 134.258 38.9182 136 37.1732C136.616 36.2512 135.766 30.6822 135.449 29.4562C135.365 29.1202 134.9 29.2732 134.9 29.6402Z" fill="white"/>
<path d="M135.82 106.442C135.676 107.45 135.759 113.628 136.555 114.159C136.587 114.202 136.629 114.237 136.677 114.26C136.724 114.284 136.777 114.297 136.831 114.297C136.884 114.297 136.937 114.284 136.984 114.26C137.032 114.237 137.074 114.202 137.106 114.159C137.689 113.284 136.734 107.07 136.555 106.442C136.555 106.074 136 106.074 135.82 106.442Z" fill="white"/>
<path d="M142.985 106.809C142.783 108.824 142.722 110.849 142.802 112.872C142.802 113.424 142.802 114.342 143.169 114.71C143.353 114.893 143.72 114.893 143.72 114.71C144.088 114.159 143.904 113.424 143.904 112.689C143.981 110.661 143.858 108.63 143.537 106.625C143.537 106.258 142.985 106.442 142.985 106.809Z" fill="white"/>
<path d="M152.172 112.321C152.119 110.401 151.873 108.492 151.437 106.621C151.321 106.245 150.98 106.405 150.886 106.805C150.74 107.469 150.678 108.148 150.702 108.826C150.702 110.781 150.578 111.891 150.702 112.626C150.707 112.946 150.775 113.261 150.902 113.555C151.029 113.848 151.212 114.114 151.442 114.336C151.474 114.379 151.516 114.414 151.563 114.438C151.611 114.462 151.664 114.474 151.717 114.474C151.771 114.474 151.824 114.462 151.872 114.438C151.919 114.414 151.961 114.379 151.993 114.336C152.356 113.791 152.172 113.056 152.172 112.321Z" fill="white"/>
<path d="M129.205 109.014C129.205 109.933 129.021 110.851 129.021 111.77V113.791C129.021 114.159 129.389 114.342 129.756 114.342C131.075 114.342 130.062 111.081 129.756 109.198C129.663 108.624 129.205 108.83 129.205 109.014Z" fill="white"/>
<path d="M95.4 28.3542C94.6159 28.1835 93.812 28.1215 93.011 28.1702C89.15 28.2622 85.111 27.8032 81.252 28.3542C79.9797 28.592 78.8191 29.2367 77.945 30.1912C77.1923 31.1648 76.784 32.3606 76.784 33.5912C76.784 34.8218 77.1923 36.0176 77.945 36.9912C80.217 39.9242 85.195 38.8282 90.439 38.8282C91.9076 38.7362 93.3804 38.7362 94.849 38.8282C94.9626 38.8164 95.0678 38.7628 95.1442 38.678C95.2207 38.5931 95.263 38.483 95.263 38.3687C95.263 38.2545 95.2207 38.1443 95.1442 38.0595C95.0678 37.9746 94.9626 37.9211 94.849 37.9092C93.748 37.8237 92.642 37.8237 91.541 37.9092C90.257 38.1092 88.785 38.0932 87.499 38.2772C83.62 38.2772 81.591 38.4722 79.966 37.5422C78.9849 36.9175 78.2839 35.9372 78.0098 34.8068C77.7357 33.6765 77.91 32.4839 78.496 31.4792C79.596 29.6412 81.803 29.2742 83.825 29.2742C86.948 29.0902 90.072 29.4572 93.195 29.2742C93.9958 29.3046 94.7973 29.2428 95.584 29.0902C95.582 28.7222 95.582 28.5382 95.4 28.3542Z" fill="white"/>
<path d="M120.281 29.4122C120.239 29.67 120.212 29.9302 120.202 30.1912C120.202 31.8752 120.144 32.1542 120.386 32.3962C120.724 32.7342 121.121 31.8962 121.121 31.6612C121.186 30.9153 121.145 30.1639 121.001 29.4292C120.935 29.2082 120.33 29.1382 120.281 29.4122Z" fill="white"/>
<path d="M57.365 82.1892C57.5501 82.4603 57.796 82.6844 58.0829 82.8438C58.3699 83.0031 58.6901 83.0933 59.018 83.1072C59.937 83.1072 60.118 83.6582 59.569 84.0262C59.153 84.2351 58.6723 84.2753 58.2274 84.1383C57.7824 84.0014 57.4076 83.6979 57.181 83.2912C56.547 82.3002 56.63 81.4542 57.365 82.1892Z" fill="white"/>
<path d="M55.16 70.8002C54.8696 70.762 54.5744 70.8116 54.3124 70.9426C54.0504 71.0735 53.8336 71.28 53.69 71.5352C53.139 72.2702 52.679 72.1032 52.771 71.3512C52.7968 70.8888 53.0047 70.4553 53.349 70.1456C53.6934 69.8359 54.1464 69.675 54.609 69.6982C55.9 69.6952 56.078 70.6132 55.16 70.8002Z" fill="white"/>
<path d="M54.425 73.5532C54.425 73.797 54.5799 74.0307 54.8556 74.2031C55.1312 74.3754 55.5051 74.4722 55.895 74.4722C56.2849 74.4722 56.6588 74.3754 56.9344 74.2031C57.2101 74.0307 57.365 73.797 57.365 73.5532C57.365 73.3095 57.2101 73.0757 56.9344 72.9034C56.6588 72.7311 56.2849 72.6342 55.895 72.6342C55.5051 72.6342 55.1312 72.7311 54.8556 72.9034C54.5799 73.0757 54.425 73.3095 54.425 73.5532Z" fill="white"/>
</svg>
