<svg width="200" height="200" viewBox="0 0 200 200" fill="none" xmlns="http://www.w3.org/2000/svg">
<path d="M42.6422 157.131C42.433 156.503 42.3536 155.838 42.4088 155.179C42.464 154.519 42.6528 153.877 42.9636 153.293C40.3296 151.042 37.3967 149.165 34.2484 147.716C31.9599 150.11 29.1082 153.553 28.0098 154.711C29.9003 153.463 47.2362 165.884 47.9167 168.984C48.2381 164.712 43.8402 160.886 42.6422 157.131Z" fill="#B6E7FA"/>
<path d="M93.0052 150.155C92.2512 149.266 91.8657 148.123 91.9276 146.96C88.661 146.419 85.3398 146.284 82.0403 146.562C81.9979 147.619 81.8983 148.673 81.7418 149.719C81.3826 152.008 80.8721 152.914 80.5129 155.05C81.0612 152.99 102.348 156.809 103.331 159.191C102.571 154.617 95.7086 153.482 93.0052 150.155Z" fill="#B6E7FA"/>
<path d="M183.069 122.592C181.953 121.796 179.288 120.172 175.805 118.092L159.587 121.514L154.824 99.0737L157.49 98.5065C155.395 84.4542 154.991 82.2502 153.218 74.7619C148.058 80.2662 135.579 83.09 130.21 81.5866C130.351 82.0104 130.456 82.2831 130.929 83.4203C122.173 102.533 120.814 106.031 120.55 109.169C120.251 112.85 120.644 115.313 127.677 142.631C131.955 143.825 139.106 141.813 141.44 139.341C139.474 130.853 137.47 122.402 135.296 111.343C135.563 110.605 135.88 109.885 136.241 109.188C138.147 103.634 139.378 97.8703 139.908 92.0221C143.419 107.932 144.451 113.354 146.865 116.05C149.304 118.754 152.139 120.474 175.733 133.761C179.272 132.845 183.68 126.518 183.069 122.592Z" fill="#B6E7FA"/>
<path d="M47.5764 115.408C36.1001 116.823 34.3429 117.026 24.5691 118.3L44.7596 132.437C45.6312 131.555 49.7197 127.418 50.5823 126.52C50.1246 125.074 48.3038 118.315 47.5764 115.408Z" fill="#B6E7FA"/>
<path d="M31.4883 113.196C31.4883 113.185 31.5261 109.642 31.5261 109.642C30.6146 109.775 29.7908 110.258 29.2296 110.989C28.6685 111.719 28.4139 112.64 28.5202 113.555L28.9928 116.938L31.942 116.56L31.4883 113.196Z" fill="#B6E7FA"/>
<path d="M43.9815 111.664C43.8728 110.804 43.447 110.016 42.7875 109.453C42.0551 109.711 41.2928 109.876 40.5189 109.944C40.6791 110.641 40.7298 110.887 40.897 111.721C41.0522 111.876 41.0055 111.843 41.4831 115.403L44.4322 115.025L43.9815 111.664Z" fill="#B6E7FA"/>
<path d="M183.05 124.444C182.261 127.977 180.167 131.083 177.189 133.141C177.488 136.997 179.136 145.788 180.705 148.151C183.79 144.465 187.814 131.193 188.022 126.108C186.409 125.429 184.746 124.873 183.05 124.444Z" fill="#339458"/>
<path d="M140.362 140.249C137.268 142.081 133.73 143.028 130.135 142.99C127.302 146.616 125.085 150.683 123.575 155.029C128.45 154.481 139.417 149.566 143.047 145.842C142.352 143.887 141.453 142.013 140.362 140.249Z" fill="#339458"/>
<path d="M46.9178 169.482C42.7069 168.456 26.2705 157.604 27.8774 154.825C29.3252 153.087 45.6541 164.824 47.6949 168.491C48.1605 169.335 47.9257 169.729 46.9178 169.482Z" fill="#339458"/>
<path d="M94.0509 155.9C88.1008 154.663 81.3646 153.942 80.5915 154.943C78.9359 157.084 90.851 159.122 93.5415 159.471C97.9891 160.054 102.111 160.206 103.141 159.681C105.262 158.606 96.5235 156.417 94.0509 155.9Z" fill="#339458"/>
<path d="M95.7086 149.096C95.6708 148.416 94.7633 147.546 91.9465 146.979C91.8756 148.144 92.2623 149.29 93.0241 150.174C94.9335 150.174 95.7464 149.663 95.7086 149.096Z" fill="#339458"/>
<path d="M79.1289 148.038C79.0533 148.851 80.0174 149.418 81.7567 149.739C81.9079 148.68 82.0024 147.641 82.0552 146.582C80.0552 146.828 79.2045 147.362 79.1289 148.038Z" fill="#339458"/>
<path d="M34.2484 147.697C33.4355 148.529 32.4574 149.645 31.4694 150.76C29.9948 149.55 29.4794 148.189 30.0137 147.47L30.1271 147.338C30.6754 146.828 32.0176 146.771 34.2484 147.697Z" fill="#339458"/>
<path d="M42.9865 153.293C45.3307 155.297 46.2223 156.776 45.9168 157.415C45.6551 157.964 44.5178 157.944 42.6462 157.131C42.4287 156.503 42.3466 155.837 42.4053 155.176C42.4639 154.514 42.662 153.872 42.9865 153.293Z" fill="#339458"/>
<path d="M130.546 82.5129C129.311 79.0563 130.419 82.4433 127.276 73.5519C127.79 77.297 127.986 81.0789 127.862 84.8571C129 83.893 129.927 83.0612 130.546 82.5129Z" fill="#339458"/>
<path d="M152.536 71.9828C147.904 77.2563 134.427 80.6791 129.207 78.9588C129.566 79.9418 129.904 80.8493 130.19 81.6055C135.675 83.1408 148.125 80.1727 153.198 74.7619C152.972 73.8166 152.764 72.8714 152.536 71.9828Z" fill="#339458"/>
<path d="M139.908 92.0221C139.378 97.8703 138.147 103.634 136.241 109.188C137.224 107.241 138.869 104.443 141.514 99.3005L139.908 92.0221Z" fill="#339458"/>
<path d="M173.654 82.4184C173.28 81.6277 172.975 80.8052 172.746 79.9607C173.891 80.0095 174.5 80.2911 174.736 80.6572C175.171 81.3239 174.49 82.1467 173.654 82.4184Z" fill="#339458"/>
<path d="M164.239 81.7189C162.878 82.3428 162.349 82.9666 162.368 83.4203C162.424 84.0064 163.143 84.3845 164.447 84.1576C164.752 83.5497 164.364 82.3885 164.239 81.7189Z" fill="#339458"/>
<path d="M150.817 65.1959C149.172 64.9691 147.055 64.7422 144.276 64.4775C146.908 65.8378 149.436 67.3923 151.838 69.1282C151.441 67.578 151.081 66.2168 150.817 65.1959Z" fill="#339458"/>
<path d="M130.646 44.9865C130.289 46.2594 129.752 47.4751 129.054 48.5973C129.092 48.068 129.092 47.4033 129.149 46.5745C129.567 46.1397 130.059 45.6103 130.646 44.9865Z" fill="#339458"/>
<path d="M129.133 36.7817C129.019 35.4584 128.584 35.1897 124.766 34.9479C120.72 34.6644 120.417 35.326 120.833 37.4812C121.117 38.9369 121.873 39.3528 123.404 39.3528C124.35 39.3528 125.593 39.1826 127.166 39.0125C128.376 40.5438 129.17 41.3378 129.17 40.4115C129.17 38.6533 131.004 38.6911 131.042 41.506C131.723 42.2025 132.479 43.0373 133.292 43.8502C132.46 37.1598 132.29 37.0653 129.133 36.7817Z" fill="#339458"/>
<path d="M130.985 55.1196C131.435 54.4508 131.809 53.7343 132.101 52.9833C131.534 52.1704 131.023 51.3197 130.509 50.4311C130.168 51.2271 129.812 52.038 129.507 52.8321C129.655 53.6245 129.923 54.3895 130.303 55.1007C130.076 57.2369 128.904 72.5311 128.904 73.533C129.542 74.8594 130.328 76.1089 131.248 77.2573C132.274 76.1405 133.185 74.9246 133.97 73.6276C133.594 70.7918 131.288 56.1404 130.985 55.1196Z" fill="#339458"/>
<path d="M107.146 85.5566C107.487 85.3128 108.186 85.4243 109.188 86.086C108.337 86.8043 107.846 87.2392 107.486 87.5416C106.711 86.5775 106.693 85.88 107.146 85.5566Z" fill="#339458"/>
<path d="M115.181 92.8161C115.767 93.9106 115.877 94.631 115.672 94.9902C115.658 95.0291 115.631 95.0623 115.597 95.0847C115.256 95.4439 114.368 95.2549 113.385 94.4042C114.084 93.7803 115.181 92.8161 115.181 92.8161Z" fill="#339458"/>
<path d="M31.0346 101.399C30.9968 101.947 30.9779 102.552 30.9779 103.176C29.5978 103.233 28.9461 102.988 28.9172 102.628C28.8903 102.289 29.5789 101.796 31.0346 101.399Z" fill="#339458"/>
<path d="M41.6592 101.361C41.7159 101.701 41.2244 102.117 39.7309 102.344C39.4193 101.819 39.2681 101.215 39.2961 100.605C40.8085 100.697 41.6025 101.021 41.6592 101.361Z" fill="#339458"/>
<path d="M63.9293 76.4822C63.4955 81.7866 63.3412 87.4043 63.2328 89.9615C54.5942 90.1694 47.2978 91.5117 43.9517 93.9693C43.9706 94.9902 43.9895 95.9922 44.0462 96.9543C49.0759 93.3106 60.0488 92.6838 66.2785 92.5684C65.2606 88.7973 64.4845 81.6094 63.9293 76.4822Z" fill="#339458"/>
<path d="M44.7596 80.7358C44.6462 81.7189 44.5516 82.6831 44.476 83.6094C43.5686 83.9079 42.3776 84.289 41.2055 84.6492C39.9766 85.0263 38.7667 85.3676 37.9349 85.6133C40.2908 84.1039 42.5686 82.476 44.7596 80.7358Z" fill="#339458"/>
<path d="M70.0734 59.2598C70.0136 59.3551 69.9438 59.4438 69.8654 59.5244C69.4018 60.007 67.9232 59.9413 66.5998 59.7334C66.3167 58.9435 66.1618 58.1135 66.1412 57.2747C67.767 58.9006 69.4306 60.1861 70.0734 59.2598Z" fill="#339458"/>
<path d="M70.5649 46.1397C70.6784 44.0601 68.0884 44.476 67.8784 45.6482C67.7227 45.3749 67.4816 45.1603 67.1923 45.0372C66.9029 44.914 66.5811 44.8893 66.2763 44.9665C65.9714 45.0437 65.7003 45.2187 65.5045 45.4648C65.3085 45.7108 65.1988 46.0143 65.1919 46.3287C64.2656 45.2342 62.3751 45.6322 62.6965 47.2929C61.392 46.0263 58.0458 46.7825 63.393 57.0101C64.5084 56.0648 65.5292 55.1385 66.4178 54.3066C64.9054 51.9435 66.6446 50.8242 67.4197 52.3594C67.8356 53.1724 68.6137 53.0967 68.5142 50.8092C69.1256 50.6516 69.7206 50.4364 70.2913 50.1665C71.4183 49.668 72.377 48.8538 73.0514 47.8222C74.0434 46.2342 72.134 44.3437 70.5649 46.1397Z" fill="#339458"/>
<path d="M65.7252 114.519C66.8785 124.142 67.162 127.677 67.1053 129.681C64.7972 123.159 62.1265 116.771 59.1055 110.547C60.9234 111.683 63.1164 112.969 65.7252 114.519Z" fill="#339458"/>
<path d="M175.582 90.4341L176.316 93.9305L179.228 93.3067L178.358 89.2421C178.206 88.5409 177.807 87.9174 177.235 87.4841C176.663 87.0508 175.955 86.8362 175.239 86.879C175.501 88.0452 175.615 89.2394 175.582 90.4341Z" fill="#339458"/>
<path d="M165.506 88.9217L165.317 88.9595C164.931 89.0384 164.564 89.1934 164.237 89.4155C163.912 89.6376 163.633 89.9224 163.418 90.2532C163.204 90.5841 163.057 90.9543 162.987 91.3423C162.917 91.7305 162.925 92.1286 163.01 92.5136L163.842 96.5782L166.754 95.9544C166.72 95.7922 165.617 89.254 165.506 88.9217Z" fill="#339458"/>
<path d="M30.1082 98.3175C30.8455 97.9782 30.8455 99.603 30.2406 99.7921C29.6356 99.9811 29.6535 98.5264 30.1082 98.3175Z" fill="#339458"/>
<path d="M89.9426 99.1493C90.3266 98.415 91.8868 98.5045 91.5684 99.2249C91.25 99.9453 89.4769 100.042 89.9426 99.1493Z" fill="#339458"/>
<path d="M116.674 91.9276C116.825 92.7027 118.216 91.6291 117.979 90.9824C117.741 90.3356 116.504 91.058 116.674 91.9276Z" fill="#339458"/>
<path d="M171.971 76.2743C172.709 76.2653 173.165 77.9568 172.255 77.9379C171.344 77.919 171.177 76.2832 171.971 76.2743Z" fill="#339458"/>
<path d="M189.194 93.1345L189.383 105.572C189.385 105.634 189.365 105.693 189.327 105.742C189.289 105.79 189.235 105.824 189.175 105.837L184.827 106.763L185.413 109.485L182.596 110.09L182.01 107.368L167.491 110.453L168.077 113.175L165.26 113.78L164.675 111.059L160.327 111.986C160.268 111.994 160.207 111.983 160.155 111.956C160.101 111.929 160.057 111.886 160.028 111.835L155.153 100.392L159.63 121.528L193.716 114.287L189.194 93.1345Z" fill="#339458"/>
<path d="M188.646 91.8709L155.089 99.017L160.383 111.438L164.542 110.549L163.975 107.902L166.791 107.297L167.359 109.944L181.878 106.863L181.329 104.216L184.146 103.611L184.713 106.258L188.854 105.388L188.646 91.8709Z" fill="#339458"/>
<path d="M158.489 24.1302C158.658 23.9701 158.922 23.9456 159.12 24.0843L194.812 49.0765C195.038 49.2349 195.093 49.5466 194.935 49.7728L174.837 78.4788C174.974 79.1526 175.116 79.8479 175.258 80.5667C175.267 80.5885 175.275 80.6106 175.283 80.6331C175.471 81.111 175.337 81.5984 175.084 81.9681C175.01 82.0767 174.923 82.1791 174.828 82.2747C174.681 82.439 174.51 82.5775 174.321 82.6858C174.335 82.7179 174.349 82.75 174.364 82.7825C174.789 83.753 175.253 84.8859 175.646 86.3841C176.328 86.4285 176.986 86.6686 177.537 87.0853C178.12 87.5272 178.55 88.1392 178.767 88.8333L178.847 89.136L179.729 93.2552L188.806 91.3226L188.837 91.3187L189.136 91.2552L189.137 91.3685C189.266 91.4346 189.366 91.5537 189.399 91.7064L189.438 91.889C189.439 91.8916 189.439 91.8942 189.44 91.8968L189.681 93.0296H189.683L194.31 114.672L177.152 118.317C180.094 120.08 182.344 121.46 183.359 122.184L183.53 122.306L183.563 122.513C183.641 123.007 183.645 123.524 183.593 124.053C185.17 124.481 186.719 125.005 188.231 125.626C188.281 125.647 188.327 125.676 188.367 125.71L188.536 125.782L188.527 125.978C188.536 126.02 188.542 126.065 188.54 126.11C188.434 128.723 187.356 133.366 185.936 137.788C185.223 140.008 184.418 142.188 183.595 144.05C182.777 145.901 181.925 147.475 181.108 148.452C181.104 148.457 181.099 148.459 181.095 148.463C181.093 148.466 181.092 148.469 181.089 148.472L180.66 148.986L180.288 148.428C179.854 147.774 179.44 146.722 179.059 145.5C178.673 144.265 178.307 142.808 177.982 141.312C177.411 138.681 176.962 135.9 176.759 133.936C176.447 134.08 176.138 134.19 175.836 134.253C175.832 134.254 175.826 134.253 175.822 134.254L175.663 134.296L175.512 134.21C175.504 134.206 175.495 134.204 175.488 134.2C167.207 129.535 161.479 126.292 157.426 123.931C155.707 122.93 154.288 122.089 153.105 121.364C151.147 120.163 149.822 119.278 148.829 118.522C148.327 118.139 147.91 117.788 147.539 117.447L139.541 128.89C140.348 132.442 141.14 135.832 141.927 139.229L141.988 139.49L141.803 139.685C141.579 139.922 141.315 140.152 141.021 140.375C142.025 142.056 142.862 143.829 143.518 145.674L143.622 145.968L143.405 146.191C141.522 148.122 137.801 150.314 133.988 152.08C130.171 153.849 126.151 155.243 123.63 155.527L122.842 155.616L123.059 154.989C123.061 154.941 123.07 154.893 123.086 154.847C123.956 152.385 125.045 150.01 126.336 147.749L106.686 175.793C106.528 176.019 106.216 176.075 105.99 175.916L59.394 143.295C56.3844 146.702 52.2045 151.289 46.3734 157.628C46.3698 157.636 46.3685 157.646 46.3647 157.654C46.0915 158.227 45.4392 158.348 44.8471 158.307C44.4709 158.281 44.0313 158.187 43.5346 158.029C43.7888 158.577 44.0989 159.136 44.4447 159.708C44.7284 160.178 45.0326 160.651 45.3432 161.134C45.6526 161.615 45.9695 162.106 46.2748 162.601C47.4807 164.556 48.5799 166.694 48.4164 168.995C48.446 169.205 48.4266 169.431 48.3061 169.642C48.2827 169.688 48.2538 169.73 48.2182 169.767C47.9914 170.033 47.6459 170.067 47.4203 170.06C47.3354 170.057 47.2461 170.047 47.1527 170.034C47.0383 170.019 46.92 169.997 46.7992 169.967C45.6696 169.692 43.7967 168.787 41.6918 167.583C39.5683 166.369 37.1549 164.82 34.9242 163.216C32.6971 161.615 30.6338 159.946 29.2231 158.491C28.5207 157.766 27.9575 157.071 27.6215 156.447C27.3001 155.849 27.1059 155.161 27.4447 154.575L27.4662 154.537L27.4936 154.504C27.5359 154.453 27.5826 154.41 27.6313 154.372C28.1958 153.764 29.2132 152.588 30.3481 151.285C30.4833 151.13 30.6204 150.973 30.7582 150.816C30.1833 150.273 29.765 149.7 29.5307 149.146C29.4363 148.922 29.3706 148.691 29.3373 148.462C29.2663 148.003 29.3323 147.549 29.6127 147.172L29.6225 147.159L29.6342 147.145L29.7475 147.013L29.766 146.992L29.7865 146.972C29.8087 146.951 29.8334 146.934 29.8568 146.914C30.8087 145.866 33.6282 142.995 37.0043 139.581L23.7807 141.235C23.6492 141.251 23.5162 141.214 23.4115 141.133C23.3069 141.052 23.2385 140.932 23.2221 140.8L20.4809 118.811C20.4467 118.537 20.6415 118.286 20.9154 118.252L23.2123 117.964L5.1879 105.344C5.07933 105.268 5.00584 105.151 4.98282 105.021C4.95987 104.89 4.98982 104.756 5.06583 104.648L30.058 68.9544L30.1225 68.8802C30.1932 68.8127 30.2826 68.7666 30.3803 68.7493C30.5109 68.7263 30.6457 68.7563 30.7543 68.8323L35.6957 72.2923C36.8647 71.4819 38.1441 70.6918 39.5063 69.9339C42.3797 68.3351 45.648 66.8683 49.0873 65.6478C49.1133 65.6313 49.1416 65.6175 49.1713 65.6058C54.2646 63.5957 59.0541 60.0753 62.7787 56.9075C61.5355 54.4924 60.7753 52.6012 60.3637 51.1341C59.9364 49.6112 59.8688 48.4969 60.0658 47.7181C60.2717 46.9049 60.784 46.4255 61.4399 46.3421C61.7081 46.308 61.9753 46.3467 62.226 46.4319C62.2638 46.2924 62.3164 46.16 62.3871 46.0374C62.6039 45.6621 62.9484 45.418 63.3275 45.3001C63.8292 45.1443 64.4057 45.2034 64.9086 45.47C64.9662 45.3587 65.0347 45.2528 65.1137 45.1536C65.3776 44.822 65.7429 44.5858 66.1537 44.4817C66.5644 44.3778 66.998 44.4114 67.3881 44.5774L67.5307 44.6448C67.6186 44.691 67.7023 44.7443 67.7817 44.803C67.8887 44.691 68.0097 44.5954 68.1352 44.5159C68.4882 44.2924 68.9236 44.168 69.35 44.1741C69.6186 44.178 69.8991 44.2345 70.1557 44.3626C70.3166 44.4401 70.4687 44.5453 70.6029 44.6839C70.7423 44.8277 70.8513 44.9969 70.9311 45.1878C71.1772 45.0471 71.4321 44.96 71.6898 44.9261C72.0212 44.8825 72.3371 44.9301 72.6186 45.0462L72.642 45.056C72.8106 45.126 72.9663 45.2216 73.1059 45.3362C73.8424 45.9414 74.1187 47.0899 73.5072 48.0999C73.5045 48.1044 73.5013 48.1091 73.4984 48.1136C72.8314 49.1382 71.9026 49.9625 70.8119 50.5052C71.097 53.5766 71.1869 55.6293 71.1049 57.0286C71.0298 58.309 70.808 59.1238 70.39 59.6751C70.3746 59.6955 70.3593 59.7159 70.3432 59.7356C70.3347 59.7461 70.3264 59.7567 70.3178 59.7669C70.3145 59.7708 70.3114 59.7748 70.308 59.7786C70.2813 59.8098 70.2551 59.841 70.227 59.8704L70.224 59.8733L70.2231 59.8724C70.0181 60.0891 69.7397 60.2078 69.477 60.2767C69.2028 60.3485 68.8912 60.3809 68.5727 60.3899C68.2392 60.3994 67.8786 60.3825 67.5141 60.3499C67.8201 60.7607 68.2135 61.1041 68.6693 61.3538C68.7023 61.3719 68.7321 61.3935 68.7592 61.4173C68.9287 61.4117 69.095 61.4068 69.2582 61.4046C72.4371 61.3619 74.4944 61.9575 75.8539 63.0345L76.1166 63.2562L76.1176 63.2571C77.2391 64.2699 77.9126 65.561 78.391 68.8714C78.86 72.1165 79.1539 77.403 79.4438 86.47C81.4361 86.7065 84.5341 87.0789 87.2895 87.4241L87.2943 87.4251C89.1634 87.6593 90.8744 87.8805 91.975 88.0384L92.9223 88.1849L92.9877 88.2005C93.0527 88.2213 93.1128 88.2558 93.1645 88.3011C93.577 88.6625 93.9245 89.1405 94.2143 89.6898C95.2625 89.8416 95.8755 89.9353 96.3119 89.9534C96.7364 89.9711 96.9328 89.9149 97.1791 89.7728L97.4574 89.6048C98.0812 89.2094 98.534 88.7995 98.9926 88.4485C99.4736 88.0804 100.059 87.6985 100.782 87.9114C101.075 87.9968 101.368 88.0867 101.669 88.1839C101.761 88.0749 101.854 87.9658 101.947 87.8577L101.954 87.8489C102.216 87.5605 102.555 87.4278 102.894 87.3714C103.225 87.3163 103.592 87.3271 103.954 87.3538C104.714 87.4098 105.509 87.535 106.406 87.4954L106.606 87.4749C106.661 87.4644 106.707 87.4501 106.75 87.4329C106.759 87.4294 106.768 87.4243 106.777 87.4202C106.541 87.0581 106.393 86.7074 106.351 86.3753C106.318 86.1172 106.351 85.8737 106.446 85.6605C106.529 85.4611 106.665 85.286 106.856 85.1497C106.874 85.137 106.893 85.127 106.912 85.1155C107.816 84.3127 109.331 83.0769 111.097 81.6409C111.143 81.5808 111.204 81.5333 111.272 81.4993C111.467 81.341 111.664 81.1796 111.864 81.0169C113.974 79.3005 116.361 77.3512 118.505 75.5081C118.717 68.3462 118.793 64.1659 119.1 61.3802C119.415 58.5224 119.983 57.068 121.2 55.3421C122.488 53.5144 124.034 52.6284 127.579 50.5843L127.58 50.5823C127.885 50.4086 128.127 50.0982 128.306 49.6673C128.318 49.6194 128.335 49.5742 128.359 49.5335C128.412 49.3869 128.461 49.2288 128.501 49.0579C128.538 48.9017 128.566 48.7389 128.59 48.5726L128.555 48.5618C128.572 48.3225 128.58 48.0527 128.591 47.7366C128.471 47.8333 128.357 47.9221 128.246 47.9993C127.892 48.2443 127.56 48.4068 127.219 48.4935C126.876 48.5806 126.551 48.5837 126.221 48.5462C125.836 48.5023 125.472 48.3659 125.153 48.0189C124.859 47.6988 124.634 47.2308 124.425 46.596C124.023 45.3734 123.615 43.3044 123.006 39.8411C122.926 39.8369 122.847 39.831 122.769 39.8235C122.757 39.8224 122.745 39.8209 122.733 39.8196C122.537 39.7996 122.35 39.768 122.171 39.723C122.153 39.7184 122.135 39.7141 122.118 39.7093C122.064 39.6947 122.011 39.6788 121.958 39.6614C121.944 39.6566 121.93 39.6518 121.915 39.6468C121.72 39.5779 121.536 39.4908 121.368 39.3753C120.803 38.9872 120.498 38.3746 120.342 37.5765C120.238 37.0356 120.165 36.5276 120.205 36.0901C120.248 35.6277 120.421 35.2058 120.826 34.9007C121.201 34.6177 121.717 34.482 122.339 34.4231C122.655 34.3933 123.015 34.382 123.424 34.387H123.443C123.852 34.392 124.31 34.4138 124.82 34.4495C124.838 34.4508 124.856 34.4522 124.873 34.4534C125.795 34.5125 126.529 34.5743 127.112 34.6546C127.705 34.7363 128.175 34.8419 128.539 35.0013C128.92 35.1678 129.2 35.4008 129.379 35.7327C129.479 35.9172 129.535 36.1171 129.574 36.3206C130.179 36.3787 130.709 36.4455 131.152 36.5892C131.728 36.7758 132.173 37.0944 132.512 37.6546C132.831 38.1825 133.042 38.9049 133.226 39.8694C133.411 40.8379 133.578 42.1075 133.785 43.7659C134.941 44.8067 136.288 45.8359 137.514 46.6321C137.706 46.7565 137.894 46.8731 138.078 46.9847C138.127 47.0053 138.172 47.0313 138.211 47.0648C138.591 47.2921 138.948 47.4905 139.273 47.6497C139.802 47.9087 140.205 48.0489 140.461 48.0823C140.845 48.1288 141.222 48.1742 141.596 48.219L158.423 24.2064L158.489 24.1302ZM130.359 83.347C130.045 83.6249 129.685 83.943 129.286 84.2913C129.18 84.3833 129.071 84.4774 128.96 84.5735C128.738 84.7672 128.506 84.9699 128.264 85.179C128.23 85.2194 128.19 85.2547 128.145 85.2825C125.835 87.2803 122.758 89.895 120.038 92.1429C120.007 92.1785 119.97 92.2072 119.93 92.2327C118.451 93.454 117.083 94.562 116.008 95.3968C115.689 95.7873 115.155 95.8245 114.717 95.7278C114.305 95.6369 113.851 95.4132 113.391 95.0696C112.882 95.53 112.393 95.9787 112.034 96.3226C112.047 96.4771 112.043 96.6326 112.017 96.7894C111.942 97.2369 111.706 97.6319 111.379 97.9856C111.411 98.1086 111.43 98.2357 111.429 98.3685C111.426 98.7843 111.25 99.1681 110.991 99.5237L110.99 99.5257C110.832 99.7397 110.624 99.9517 110.325 100.071C110.153 100.139 109.972 100.166 109.784 100.162C109.538 100.707 109.224 101.098 108.827 101.326C108.368 101.59 107.886 101.589 107.455 101.484C107.307 101.738 107.123 101.943 106.905 102.096C106.578 102.325 106.215 102.416 105.874 102.437C105.549 102.456 105.215 102.411 104.915 102.35L95.9857 115.109C95.8275 115.334 95.5165 115.389 95.2904 115.232L93.5609 114.024C94.0566 115.443 94.4211 117.322 94.7289 120.31C95.2578 125.444 95.6321 133.923 96.2084 149.077C96.2408 149.636 95.8509 150.036 95.3588 150.275C95.3401 150.284 95.3221 150.294 95.3031 150.303C94.9931 150.444 94.6032 150.545 94.1352 150.606C94.2552 150.713 94.3796 150.819 94.5092 150.922C94.6027 150.997 94.6984 151.071 94.7963 151.144C95.144 151.404 95.5194 151.655 95.9164 151.903C96.1396 152.042 96.366 152.177 96.5932 152.31C96.8937 152.486 97.2015 152.663 97.515 152.839C98.8997 153.619 100.383 154.427 101.559 155.424C102.607 156.313 103.448 157.384 103.776 158.767C103.848 158.864 103.913 158.977 103.946 159.11C104.002 159.334 103.959 159.561 103.828 159.751C103.71 159.922 103.538 160.041 103.368 160.127L103.367 160.126C103.014 160.305 102.478 160.399 101.874 160.45C101.249 160.502 100.478 160.514 99.6098 160.492C97.8728 160.446 95.712 160.26 93.476 159.967C93.1351 159.923 92.6491 159.851 92.0629 159.757C91.9283 159.737 91.7932 159.718 91.6586 159.698C88.7884 159.252 85.9169 158.642 83.7699 157.925C83.7253 157.91 83.6812 157.894 83.6371 157.879C82.7313 157.59 81.9196 157.278 81.3012 156.946C80.8206 156.687 80.3884 156.382 80.1449 156.014C80.0168 155.82 79.9291 155.589 79.935 155.331C79.9383 155.187 79.9726 155.051 80.0277 154.923C80.2108 153.849 80.4317 153.076 80.6459 152.308C80.8289 151.652 81.0065 150.993 81.1635 150.129C80.4822 149.972 79.9039 149.767 79.4731 149.495C78.9344 149.156 78.5432 148.653 78.6127 147.986C78.6171 147.943 78.625 147.902 78.6332 147.861C78.8537 141.689 78.1515 125.825 77.8402 122.522C73.3708 119.662 69.58 117.374 66.3861 115.473C66.3699 115.463 66.3536 115.453 66.3373 115.444C67.3913 124.317 67.6608 127.717 67.6049 129.695L67.5951 129.696C67.5837 130.074 67.5621 130.402 67.5297 130.706L67.4838 131.087C67.3611 131.995 67.208 132.801 66.7201 133.829C66.2394 134.842 65.4429 136.052 64.0629 137.798C63.074 139.049 61.7739 140.586 60.06 142.54L106.153 174.81L128.249 143.276C128.007 143.229 127.771 143.176 127.542 143.113L127.265 143.034L127.193 142.755C123.677 129.1 121.817 121.643 120.874 117.139C120.16 113.728 119.968 111.987 119.983 110.52C119.987 110.036 120.013 109.583 120.051 109.11L120.079 108.802C120.24 107.253 120.702 105.527 122.085 102.082C123.549 98.4362 126.062 92.8247 130.383 83.4085C130.375 83.3878 130.367 83.3671 130.359 83.347ZM28.3031 155.156C28.259 155.307 28.2869 155.611 28.6215 156.162C28.9837 156.759 29.6118 157.483 30.4516 158.292C32.125 159.904 34.5489 161.766 37.0775 163.491C39.6042 165.214 42.2151 166.787 44.2543 167.824C45.2771 168.343 46.1379 168.719 46.7641 168.914C46.9959 168.987 47.1795 169.029 47.3178 169.048C47.3487 169.051 47.3764 169.052 47.4008 169.053C47.3768 168.976 47.3328 168.87 47.2572 168.733C47.0344 168.333 46.593 167.786 45.9565 167.126C45.3259 166.472 44.5275 165.731 43.6147 164.943C42.7972 164.237 41.8903 163.499 40.9379 162.755C40.1696 162.158 39.3714 161.556 38.5629 160.969C36.0658 159.156 33.4963 157.479 31.4848 156.388C30.6374 155.928 29.9049 155.583 29.3275 155.372C29.1849 155.322 29.0515 155.278 28.9281 155.244C28.6571 155.17 28.463 155.145 28.3373 155.151C28.3244 155.151 28.3132 155.155 28.3031 155.156ZM65.3949 164.769C65.3949 163.572 64.426 162.603 63.2299 162.603C62.0338 162.603 61.0639 163.572 61.0639 164.769C61.064 165.965 62.0339 166.934 63.2299 166.934C64.4259 166.934 65.3948 165.965 65.3949 164.769ZM34.3647 148.324C33.2933 149.459 32.1146 150.794 31.06 152.005C30.329 152.844 29.6507 153.627 29.1127 154.236C29.2511 154.272 29.3956 154.316 29.5434 154.367C30.2382 154.606 31.1016 155.016 32.0619 155.54C33.9876 156.591 36.3712 158.136 38.7084 159.811C41.0465 161.487 43.3523 163.303 45.1205 164.9C45.9535 165.652 46.6722 166.364 47.2231 166.993C47.083 166.446 46.8783 165.899 46.6234 165.35C46.0014 164.01 45.1185 162.708 44.2602 161.371C43.4178 160.06 42.5964 158.712 42.1801 157.345C42.1662 157.311 42.156 157.276 42.1498 157.24C42.1346 157.187 42.1189 157.134 42.1049 157.081C42.0866 157.018 42.07 156.955 42.0541 156.891C41.9061 156.318 41.8551 155.723 41.9076 155.131C41.9125 155.076 41.9196 155.022 41.9262 154.967C41.9282 154.949 41.9308 154.931 41.933 154.913C41.9392 154.867 41.9461 154.82 41.9535 154.774C41.9621 154.718 41.9703 154.662 41.9809 154.606C41.9864 154.577 41.9934 154.549 41.9994 154.52C42.01 154.469 42.0203 154.418 42.0326 154.367C42.1076 154.044 42.2121 153.73 42.3451 153.426C42.0123 153.147 41.6745 152.875 41.3324 152.609C40.6653 152.097 39.9146 151.554 39.0736 150.989C38.8121 150.813 38.5562 150.645 38.307 150.485C37.0392 149.686 35.7227 148.964 34.3647 148.324ZM85.3383 155.08C84.0864 154.976 83.0138 154.944 82.2162 154.995C81.8162 155.021 81.5038 155.067 81.2797 155.128C81.133 155.168 81.0547 155.207 81.017 155.23C81.0522 155.367 81.2014 155.599 81.6762 155.91C82.1992 156.253 82.9775 156.598 83.9555 156.931C84.4575 157.091 84.9987 157.247 85.5639 157.396C87.871 158.005 90.4857 158.49 92.2123 158.768C94.9204 159.173 97.6069 159.43 99.6557 159.481C100.734 159.508 101.616 159.477 102.224 159.389C102.472 159.353 102.653 159.309 102.778 159.266C102.74 159.228 102.689 159.182 102.619 159.128C102.481 159.025 102.297 158.912 102.068 158.792C101.564 158.556 100.907 158.305 100.16 158.055C98.0156 157.337 95.3243 156.683 94.0522 156.412C93.99 156.399 93.928 156.385 93.8656 156.372C90.9296 155.765 87.8143 155.286 85.3383 155.08ZM84.0316 146.945C83.7047 146.956 83.3779 146.972 83.0512 146.992C82.8701 147.004 82.6967 147.018 82.5307 147.034C82.4732 147.955 82.3971 148.722 82.307 149.382C82.2886 149.524 82.2718 149.667 82.2514 149.81L82.1781 150.325L82.1596 150.322C82.0644 150.846 81.9613 151.3 81.8529 151.721C81.6336 152.573 81.4135 153.243 81.2172 154.097C81.3035 154.079 81.3924 154.064 81.4828 154.05C82.1792 153.945 83.132 153.933 84.2309 153.99C86.4385 154.102 89.3451 154.493 92.224 155.026C95.103 155.558 97.9775 156.238 100.119 156.938C100.957 157.212 101.698 157.494 102.288 157.778C101.553 156.531 100.22 155.57 98.642 154.636C97.8431 154.163 96.9539 153.68 96.1147 153.189C95.6211 152.9 95.135 152.601 94.6732 152.284C94.6499 152.268 94.6262 152.253 94.6029 152.237C94.4861 152.156 94.3714 152.073 94.2582 151.99C94.2372 151.974 94.2166 151.958 94.1957 151.943C93.8213 151.663 93.4676 151.371 93.1498 151.057C93.067 150.975 92.9869 150.891 92.9086 150.806C92.9014 150.798 92.8943 150.79 92.8871 150.783C92.8214 150.711 92.758 150.637 92.6957 150.563C92.6411 150.519 92.5954 150.466 92.5629 150.404C91.8657 149.55 91.4669 148.495 91.4242 147.4C90.8736 147.304 90.2519 147.22 89.5512 147.151C89.5357 147.153 89.5203 147.157 89.5043 147.158C89.4415 147.159 89.3816 147.148 89.3256 147.128C88.8955 147.089 88.4366 147.052 87.9477 147.025C86.4089 146.937 85.1124 146.914 84.0316 146.945ZM43.1547 154.118C43.1414 154.154 43.1288 154.189 43.1166 154.224C43.1003 154.271 43.0843 154.319 43.0697 154.367C43.0551 154.414 43.0415 154.462 43.0287 154.51C43.005 154.599 42.984 154.689 42.9662 154.78C42.939 154.925 42.9191 155.072 42.9067 155.22C42.9036 155.257 42.902 155.294 42.8998 155.331C42.8757 155.804 42.9328 156.278 43.0551 156.76C43.8643 157.095 44.4862 157.255 44.9193 157.284C45.1541 157.301 45.3036 157.277 45.3881 157.246C45.408 157.239 45.4212 157.229 45.432 157.223C45.4425 157.197 45.4542 157.172 45.4692 157.148C45.4692 157.066 45.4475 156.914 45.3295 156.666C45.1572 156.305 44.8301 155.833 44.3139 155.263C43.9949 154.911 43.6081 154.53 43.1547 154.118ZM62.768 93.1849C60.2937 93.3036 57.5057 93.5224 54.7865 93.9329C53.485 94.1294 52.2074 94.3679 50.9926 94.6575C48.7411 95.1994 46.8615 95.8756 45.4154 96.679C45.3473 96.7171 45.2799 96.7554 45.2133 96.7942C45.1023 96.8587 44.9946 96.9245 44.8891 96.9905C44.8485 97.016 44.8078 97.0409 44.768 97.0667C44.6966 97.1127 44.6268 97.1596 44.558 97.2064C44.704 99.6494 44.9998 101.927 45.4574 104.172C46.1264 107.453 47.0285 111.242 47.9447 114.858L47.9545 114.857L48.0385 115.196C48.0644 115.246 48.0838 115.301 48.0912 115.361C48.0931 115.376 48.0917 115.391 48.0922 115.407C48.5376 117.179 49.3526 120.238 50.0297 122.717C50.4247 124.139 50.7813 125.394 51.0805 126.401C51.0891 126.43 51.0939 126.459 51.0971 126.489L51.1488 126.652L51.0561 126.747C51.0323 126.8 51.0003 126.85 50.9584 126.893C47.7234 130.194 42.9442 135 38.7953 139.191C38.7639 139.235 38.7255 139.274 38.6811 139.306C35.7364 142.281 33.1359 144.922 31.6361 146.484C32.3162 146.529 33.1473 146.729 34.1322 147.113L34.144 147.117C34.241 147.155 34.3399 147.194 34.4399 147.236L35.1166 147.517L35.0961 147.537C36.1684 148.031 37.406 148.717 38.8197 149.626C39.8889 150.299 40.9242 151.025 41.9223 151.801C42.2464 152.049 42.5535 152.29 42.8412 152.527L42.8481 152.517L43.3109 152.913C44.5008 153.93 45.3457 154.834 45.8578 155.584C46.0212 155.824 46.1539 156.056 46.2553 156.278C55.6625 146.046 60.6158 140.545 63.2777 137.178C64.6418 135.453 65.3844 134.312 65.8168 133.401C66.2419 132.505 66.3764 131.813 66.4926 130.953C66.5417 130.592 66.5773 130.211 66.5942 129.739C64.7824 124.649 62.7557 119.639 60.519 114.723C59.9269 113.426 59.3197 112.136 58.6977 110.853C58.6011 110.792 58.5049 110.733 58.4106 110.673C54.2399 108.025 52.0155 106.089 51.3988 103.284C51.3396 103.014 51.51 102.747 51.7797 102.688C52.0493 102.629 52.3161 102.799 52.3754 103.069C52.8931 105.424 54.752 107.166 58.9467 109.829C61.0298 111.152 63.6455 112.678 66.8969 114.614C70.1443 116.547 74.0135 118.881 78.5854 121.811C78.7124 121.892 78.7962 122.027 78.8129 122.177C79.0978 124.759 79.7761 139.629 79.6635 146.685C80.0486 146.491 80.5346 146.338 81.1166 146.223C81.162 146.214 81.2084 146.206 81.2553 146.198C81.2664 146.196 81.2773 146.193 81.2885 146.191C81.3752 146.175 81.4644 146.161 81.5561 146.147L81.558 146.101L81.9984 146.064C82.1498 146.051 82.3011 146.04 82.4525 146.029L82.5844 146.013L82.5834 146.019C82.7217 146.009 82.8601 146.001 82.9984 145.992C83.0789 145.987 83.1606 145.983 83.2436 145.978C83.3698 145.971 83.4962 145.966 83.6225 145.96C83.7396 145.955 83.859 145.949 83.9809 145.946C85.6458 145.888 87.3124 145.933 88.9711 146.08C88.5871 133.585 88.4591 126.289 88.2016 121.76C87.939 117.143 87.5418 115.531 86.6918 114.269C85.4139 112.371 84.01 110.993 81.0717 108.992C78.1152 106.98 73.6447 104.364 66.2455 99.9769C64.9778 99.2255 64.1071 98.3975 63.5561 97.221C63.0619 96.1659 62.8455 94.8707 62.768 93.1849ZM140.186 140.94C138.878 141.731 137.181 142.396 135.411 142.845C135.283 142.877 135.155 142.907 135.027 142.937C134.668 143.022 134.307 143.098 133.944 143.163C133.907 143.17 133.87 143.177 133.832 143.184C133.692 143.208 133.552 143.233 133.412 143.254C133.324 143.268 133.236 143.279 133.149 143.291C133.029 143.308 132.91 143.326 132.79 143.34C132.594 143.365 132.398 143.386 132.202 143.405C132.195 143.405 132.189 143.405 132.182 143.406C131.966 143.426 131.75 143.442 131.536 143.454C131.52 143.455 131.504 143.456 131.489 143.457C131.344 143.465 131.2 143.472 131.056 143.476C130.832 143.484 130.608 143.487 130.383 143.488C127.828 146.797 125.788 150.472 124.335 154.389C126.717 153.95 130.177 152.72 133.551 151.157C137.193 149.469 140.632 147.439 142.448 145.694C141.84 144.043 141.083 142.452 140.186 140.94ZM32.6957 147.698C31.9669 147.498 31.4257 147.454 31.0473 147.5C30.7614 147.536 30.5924 147.619 30.4926 147.704C30.4628 147.738 30.434 147.767 30.4106 147.794C30.3278 147.915 30.2784 148.113 30.3383 148.402C30.3606 148.502 30.3967 148.613 30.4486 148.736C30.6168 149.132 30.9397 149.589 31.4272 150.053C31.7361 149.703 32.0459 149.355 32.3481 149.019C32.6971 148.629 33.036 148.252 33.3588 147.907C33.1246 147.824 32.9035 147.755 32.6957 147.698ZM92.4594 147.611C92.5299 148.394 92.8147 149.066 93.2621 149.669C94.0493 149.648 94.5751 149.534 94.89 149.392C94.9172 149.38 94.9413 149.366 94.9643 149.354C95.0846 149.29 95.1499 149.234 95.1811 149.195C95.2121 149.155 95.2099 149.137 95.2094 149.129C95.1947 148.972 95.0339 148.605 94.2191 148.204C94.1753 148.183 94.1297 148.161 94.0824 148.14C94.0142 148.109 93.9421 148.077 93.8656 148.046C93.7926 148.016 93.7159 147.987 93.6361 147.957C93.573 147.934 93.5075 147.911 93.4398 147.888C93.1536 147.791 92.8279 147.699 92.4594 147.611ZM81.3998 147.189C80.8133 147.3 80.392 147.439 80.1039 147.591C79.7207 147.793 79.6395 147.975 79.6254 148.089C79.6133 148.238 79.6745 148.425 80.0297 148.65C80.3164 148.831 80.7435 148.996 81.3158 149.134C81.4015 148.482 81.4655 147.827 81.5063 147.17C81.4703 147.177 81.4347 147.182 81.3998 147.189ZM158.311 135.975C158.583 135.927 158.842 136.109 158.89 136.381L159.813 141.626L165.06 140.701C165.332 140.654 165.591 140.835 165.639 141.107C165.687 141.379 165.506 141.639 165.234 141.687L159.986 142.612L160.913 147.875C160.96 148.147 160.779 148.406 160.507 148.454C160.235 148.502 159.976 148.321 159.928 148.049L159.001 142.784L153.758 143.709C153.486 143.757 153.227 143.576 153.179 143.304C153.131 143.032 153.313 142.773 153.584 142.725L158.828 141.8L157.905 136.554C157.857 136.282 158.039 136.023 158.311 135.975ZM65.8832 93.0774C65.2217 93.0917 64.5127 93.11 63.768 93.139C63.8435 94.7754 64.0497 95.9151 64.4623 96.7962C64.9035 97.7382 65.6022 98.4331 66.7553 99.1165C74.1346 103.492 78.6441 106.131 81.6342 108.166C84.642 110.214 86.1522 111.676 87.5219 113.71C88.5435 115.227 88.939 117.104 89.2006 121.703C89.46 126.265 89.5885 133.63 89.975 146.183C90.478 146.24 90.98 146.307 91.4809 146.383L91.4818 146.375L91.6723 146.413C91.7846 146.431 91.897 146.449 92.0092 146.467L92.4506 146.54L92.4486 146.575C92.8873 146.675 93.2805 146.783 93.6322 146.898C93.6884 146.916 93.7433 146.935 93.7973 146.953C93.8531 146.973 93.9077 146.992 93.9613 147.012C94.0149 147.032 94.0673 147.052 94.1186 147.072C94.1972 147.102 94.2735 147.133 94.3471 147.164C94.4005 147.187 94.453 147.21 94.5043 147.234C94.5299 147.245 94.5556 147.256 94.5805 147.268L94.6762 147.316C94.6887 147.322 94.7009 147.329 94.7133 147.335C94.8683 147.414 95.0108 147.492 95.1391 147.574C95.1426 147.576 95.1463 147.578 95.1498 147.58C94.6058 133.372 94.2416 125.332 93.7348 120.412C93.2116 115.335 92.5434 113.661 91.4174 111.981C89.1672 108.619 87.3443 107.193 77.2543 101.009C74.0032 100.754 71.8403 100.295 70.4506 99.4222C69.3905 98.7559 68.512 98.0769 67.7777 97.1429C67.0437 96.2091 66.4753 95.0492 65.9897 93.4485C65.953 93.3278 65.919 93.2037 65.8832 93.0774ZM183.43 125.061C183.346 125.436 183.239 125.814 183.108 126.191C183.098 126.247 183.077 126.3 183.047 126.352C182.765 127.127 182.396 127.896 181.969 128.63C181.483 129.491 180.911 130.302 180.263 131.05C179.98 131.384 179.687 131.7 179.387 131.997C179.327 132.057 179.267 132.117 179.206 132.175C179.172 132.208 179.137 132.241 179.102 132.274C178.942 132.425 178.781 132.571 178.62 132.708C178.329 132.955 178.031 133.18 177.734 133.38C177.907 135.299 178.37 138.271 178.98 141.081C179.3 142.56 179.659 143.985 180.033 145.183C180.286 145.994 180.541 146.681 180.787 147.204C181.383 146.329 182.024 145.112 182.663 143.664C183.469 141.842 184.261 139.696 184.966 137.501C186.317 133.295 187.324 128.969 187.5 126.435C186.174 125.893 184.814 125.433 183.43 125.061ZM148.968 78.5491C146.873 79.6768 144.479 80.5938 142.081 81.2562C140.115 81.7995 138.119 82.1821 136.255 82.3724C136.466 83.2601 136.634 83.9658 136.786 84.5306C136.969 85.2161 137.119 85.653 137.267 85.9368C137.407 86.2045 137.522 86.2885 137.626 86.3304C137.763 86.385 137.969 86.4046 138.367 86.3812C138.642 86.3649 138.879 86.5752 138.895 86.8509C138.911 87.1264 138.701 87.363 138.425 87.3792C138.02 87.403 137.616 87.4034 137.255 87.2591C136.863 87.1019 136.593 86.806 136.381 86.4007C136.177 86.011 136.005 85.4798 135.82 84.7894C135.656 84.1781 135.474 83.4092 135.247 82.4544C134.794 82.4842 134.35 82.5027 133.919 82.5071C133.897 82.5074 133.874 82.507 133.851 82.5071C133.147 82.5122 132.477 82.4842 131.854 82.4173C131.569 82.387 131.294 82.3478 131.029 82.3021C131.042 82.3346 131.053 82.3676 131.059 82.4017C131.191 82.7399 131.302 83.0187 131.389 83.2259L131.39 83.2288L131.474 83.43L131.383 83.6282C127.004 93.1867 124.481 98.8285 123.019 102.471C121.558 106.111 121.174 107.716 121.048 109.211C121.013 109.652 120.986 110.075 120.982 110.53C120.97 111.904 121.155 113.577 121.854 116.915C122.785 121.361 124.618 128.722 128.088 142.203C130.084 142.705 132.777 142.472 135.273 141.817C136.207 141.571 137.102 141.269 137.909 140.933C138.44 140.705 138.962 140.454 139.472 140.177C140.059 139.843 140.534 139.501 140.872 139.171C138.926 130.773 136.94 122.356 134.787 111.421C134.769 111.334 134.775 111.243 134.804 111.159C135.027 110.52 135.333 109.844 135.743 109.034C135.745 109.025 135.746 109.015 135.749 109.006C137.584 103.66 138.786 98.1178 139.338 92.4935C138.628 92.4058 137.93 92.2277 137.264 91.9593C137.008 91.8561 136.884 91.565 136.987 91.3089C137.09 91.0528 137.382 90.9283 137.638 91.0315C138.307 91.3011 139.012 91.4681 139.729 91.5296C139.793 91.5078 139.863 91.4987 139.935 91.5052C140.164 91.5261 140.341 91.6992 140.379 91.9153L140.397 91.9144L142.002 99.1927L142.041 99.3685L142.04 99.3694C142.444 101.192 142.807 102.819 143.145 104.273C143.201 104.515 143.257 104.751 143.312 104.983C143.394 105.333 143.475 105.672 143.554 106.001C143.641 106.36 143.726 106.705 143.809 107.037C143.971 107.687 144.127 108.294 144.281 108.861C145.277 112.535 146.114 114.462 147.236 115.715C147.402 115.9 147.572 116.08 147.75 116.26C147.753 116.262 147.755 116.262 147.757 116.264C147.805 116.298 147.843 116.34 147.875 116.385C148.133 116.639 148.412 116.896 148.734 117.166C148.935 117.335 149.152 117.51 149.391 117.693C149.418 117.713 149.445 117.733 149.472 117.753C150.423 118.474 151.709 119.334 153.628 120.511C155.08 121.401 156.888 122.468 159.179 123.793C163.095 126.057 168.423 129.069 175.793 133.22C176.245 133.077 176.724 132.838 177.212 132.51C178.093 131.865 178.886 131.122 179.584 130.301C179.784 130.062 179.979 129.813 180.167 129.557C180.282 129.4 180.396 129.241 180.505 129.078C180.527 129.047 180.548 129.015 180.569 128.984C180.807 128.626 181.029 128.26 181.233 127.891C181.511 127.374 181.759 126.841 181.97 126.29C180.214 125.17 175.994 122.505 171.332 119.553L159.246 122.12L159.24 122.097L159.202 122.106L159.097 121.617L156.68 110.227C155.782 109.639 155.062 109.164 154.575 108.822C154.455 108.737 154.378 108.605 154.365 108.459C153.592 100.253 151.159 87.9223 148.968 78.5491ZM21.5346 119.183L24.1518 140.18L38.141 138.431C40.0346 136.518 42.055 134.481 43.9984 132.519L24.435 118.821L21.5346 119.183ZM25.9184 118.635L44.6996 131.784C45.8749 130.595 48.9629 127.468 50.019 126.38C49.8087 125.679 49.4519 124.399 49.0492 122.924C48.4802 120.874 47.8383 118.481 47.1967 115.975L25.9184 118.635ZM105.793 122.288C106.065 122.241 106.325 122.423 106.372 122.695L107.004 126.312L110.613 125.672C110.885 125.624 111.145 125.806 111.193 126.077C111.241 126.349 111.059 126.608 110.788 126.657L107.176 127.297L107.809 130.918C107.856 131.19 107.674 131.449 107.403 131.496C107.131 131.544 106.871 131.362 106.824 131.09L106.191 127.472L102.582 128.113C102.311 128.161 102.052 127.979 102.003 127.707C101.955 127.436 102.137 127.176 102.409 127.128L106.019 126.487L105.387 122.867C105.34 122.595 105.521 122.336 105.793 122.288ZM141.32 100.759C140.282 102.751 139.415 104.357 138.693 105.682C137.825 107.273 137.174 108.449 136.687 109.413L136.685 109.418C136.354 110.056 136.064 110.713 135.814 111.386C137 117.412 138.137 122.663 139.244 127.572L146.819 116.734C146.71 116.619 146.601 116.506 146.495 116.389C145.251 115.012 144.441 113.229 143.463 109.69C143.192 108.709 142.908 107.586 142.596 106.292C142.521 105.981 142.444 105.661 142.367 105.331C142.3 105.051 142.231 104.763 142.163 104.467C142.099 104.195 142.036 103.918 141.971 103.634C141.766 102.743 141.551 101.787 141.32 100.759ZM60.2953 111.866C60.7148 112.754 61.1279 113.646 61.5336 114.54C63.3238 118.476 64.9767 122.473 66.4887 126.524C66.3207 124.214 65.9507 120.667 65.2553 114.821C63.3967 113.717 61.7465 112.746 60.2953 111.866ZM172.732 119.255C176.872 121.876 180.556 124.206 182.303 125.318C182.364 125.116 182.42 124.913 182.472 124.708C182.609 124.057 182.656 123.437 182.597 122.875C181.429 122.072 178.937 120.573 175.704 118.624L172.732 119.255ZM189.883 105.565H189.881C189.885 105.743 189.828 105.912 189.722 106.048L189.719 106.052C189.609 106.192 189.452 106.288 189.281 106.325H189.279L185.421 107.147L186.007 109.869L185.518 109.974L182.212 110.684L181.624 107.96L168.085 110.837L168.671 113.559L168.182 113.663L164.878 114.373L164.772 113.887L164.771 113.884L164.739 113.735L164.283 111.654L160.431 112.475L160.413 112.479L160.394 112.482C160.232 112.504 160.07 112.473 159.931 112.403C159.785 112.329 159.667 112.215 159.591 112.078L159.579 112.055L159.569 112.031L156.706 105.314L160.011 120.913L175.558 117.633L175.651 117.613C175.669 117.607 175.688 117.604 175.707 117.601L193.121 113.902L189.771 98.2308L189.883 105.565ZM6.17032 104.811L24.6918 117.78C26.1197 117.594 27.3755 117.432 28.516 117.284L28.0248 113.621L28.0238 113.613C27.9026 112.568 28.193 111.517 28.8334 110.684C29.3041 110.072 29.9366 109.611 30.6518 109.35C30.4946 107.465 30.43 105.574 30.4574 103.683C29.9916 103.675 29.604 103.627 29.3002 103.538C29.2512 103.524 29.201 103.506 29.1498 103.487C28.8118 103.364 28.4461 103.129 28.4008 102.678L28.3969 102.595C28.3972 102.561 28.4011 102.527 28.4057 102.494C27.8476 95.0163 27.5951 89.7791 27.7846 85.9593C27.9756 82.1084 28.6177 79.6313 29.9018 77.7298C30.9948 76.1162 32.7015 74.4827 34.8344 72.9105L30.5902 69.9368L6.17032 104.811ZM38.892 113.654C38.6653 114.019 38.3068 114.285 37.8891 114.392L37.8881 114.391C37.5202 114.486 37.1336 114.452 36.7904 114.299L36.6459 114.227C36.54 114.167 36.443 114.094 36.3539 114.014C36.1154 114.321 35.7756 114.538 35.391 114.618C34.9626 114.708 34.5166 114.624 34.1508 114.386L34.1498 114.385C34.0166 114.298 33.8978 114.193 33.7963 114.074C33.5534 114.319 33.2379 114.483 32.892 114.535L32.893 114.536C32.647 114.575 32.3988 114.553 32.1654 114.481L32.4379 116.493L32.475 116.778C35.2037 116.431 37.5804 116.137 41.0072 115.715C40.8962 114.878 40.8108 114.224 40.7445 113.708C40.6256 113.784 40.4973 113.846 40.3608 113.89C39.9615 114.017 39.5293 113.987 39.1518 113.808C39.06 113.765 38.9731 113.712 38.892 113.654ZM31.019 110.281C30.4709 110.476 29.9859 110.825 29.6264 111.293C29.1462 111.918 28.9274 112.705 29.016 113.489L29.0277 113.579L29.4184 116.378L31.3666 116.129L30.9926 113.26L30.9887 113.228V113.196C30.9887 113.186 30.9927 112.77 30.9984 112.228C30.9979 112.097 30.9985 111.962 31.0004 111.823C31.0021 111.699 31.0046 111.571 31.0072 111.438C31.0073 111.428 31.0071 111.419 31.0072 111.409C31.0115 111.005 31.0155 110.601 31.019 110.281ZM43.9076 84.3187C43.5631 84.43 43.1967 84.5494 42.8178 84.6683C42.4555 84.783 42.0819 84.8989 41.7074 85.0149C41.7216 89.396 41.9741 97.4704 42.1576 101.328C42.2083 101.789 41.8757 102.127 41.5268 102.328C41.3138 102.452 41.0422 102.559 40.7094 102.651C40.9445 102.88 41.2245 103.146 41.5219 103.435C41.8173 103.721 42.1216 104.021 42.3803 104.291C42.5683 104.487 42.7466 104.683 42.8813 104.853L43.0004 105.015L43.0014 105.016C43.1777 105.28 43.2975 105.685 43.3822 106.076C43.4716 106.49 43.5369 106.965 43.5746 107.423C43.6122 107.88 43.6234 108.335 43.5981 108.706C43.5855 108.89 43.5635 109.07 43.5248 109.224C43.5121 109.275 43.4905 109.34 43.4613 109.41C44.0155 110.015 44.3727 110.778 44.477 111.6L44.9281 114.958L44.9633 115.226C45.59 115.149 46.2491 115.068 46.9447 114.982C46.0358 111.389 45.1429 107.633 44.4779 104.372C43.993 101.994 43.6867 99.5829 43.5443 96.9944C43.5433 96.9807 43.5423 96.9671 43.5424 96.9534C43.492 96.0244 43.4633 95.0725 43.4545 94.0911C43.4541 94.0703 43.4529 94.0495 43.4525 94.0286C43.4484 93.9937 43.4474 93.9589 43.4506 93.9241L43.4467 93.72L43.4506 93.7161C43.4404 90.8845 43.5977 87.8039 43.9076 84.3187ZM42.6635 110.021C42.1643 110.18 41.6532 110.297 41.1352 110.373C41.2217 110.778 41.3012 111.153 41.3813 111.533C41.415 111.588 41.4418 111.644 41.4613 111.702C41.5025 111.825 41.5312 111.991 41.5639 112.212C41.6252 112.627 41.72 113.396 41.9125 114.843L43.8598 114.593L43.4858 111.729V111.727C43.4041 111.081 43.1139 110.483 42.6635 110.021ZM93.9721 100.231C93.7407 100.588 93.4773 100.913 93.1791 101.196C93.0863 101.283 92.9631 101.333 92.8354 101.333C90.471 101.333 88.3314 101.327 86.3969 101.31C86.3636 101.313 86.3304 101.312 86.2973 101.309C83.6124 101.285 81.324 101.234 79.3764 101.14C88.0622 106.498 89.9899 108.049 92.2484 111.424L92.4779 111.776C92.5743 111.929 92.6648 112.084 92.7543 112.242L95.4525 114.125L102.945 103.421C102.622 103.361 102.327 103.201 102.103 102.961L102.102 102.96C102.081 102.938 102.062 102.913 102.042 102.889C101.962 102.958 101.876 103.021 101.782 103.073L101.781 103.072C101.423 103.27 101.002 103.321 100.608 103.211C100.232 103.106 99.9102 102.865 99.7035 102.534C99.6476 102.567 99.5908 102.598 99.5307 102.623C99.1596 102.777 98.7512 102.762 98.3988 102.631C98.045 102.5 97.7215 102.242 97.5258 101.875C97.5245 101.873 97.5232 101.87 97.5219 101.867C97.4275 101.923 97.3279 101.972 97.2221 102.007C96.8302 102.138 96.4025 102.106 96.0336 101.922C95.6644 101.737 95.3829 101.413 95.2523 101.022C95.1828 100.813 95.1592 100.594 95.1801 100.379C94.8144 100.33 94.3822 100.276 93.9721 100.231ZM34.726 109.066C34.513 109.092 34.2042 109.289 34.1967 109.838L34.1996 109.953V109.973C34.2189 111.035 34.2924 112.095 34.4193 113.149C34.4567 113.312 34.5559 113.455 34.6977 113.548C34.8423 113.642 35.0171 113.675 35.185 113.64C35.3531 113.605 35.5016 113.503 35.5961 113.359C35.6902 113.214 35.7223 113.039 35.6869 112.87C35.6831 112.852 35.6809 112.833 35.6791 112.815C35.5864 111.826 35.5109 110.965 35.3588 109.745C35.3206 109.438 35.2048 109.266 35.0971 109.176C34.9875 109.084 34.8552 109.05 34.726 109.066ZM32.5697 109.169C32.3579 109.184 32.0258 109.374 32.0258 109.982C32.0258 110.578 32.0146 111.079 32.0063 111.504C32.0044 111.677 32.0031 111.849 32.0014 112.013C31.9983 112.417 32.0041 112.746 32.0395 113.057C32.0702 113.211 32.1578 113.349 32.2856 113.441C32.4168 113.534 32.5805 113.573 32.7397 113.548H32.7416C32.9 113.524 33.0437 113.439 33.141 113.31C33.2384 113.181 33.2813 113.019 33.2611 112.859C33.2593 112.844 33.2578 112.829 33.2572 112.814C33.2325 112.103 33.2156 111.454 33.1752 110.675L33.1254 109.845C33.1053 109.549 33.0039 109.381 32.9086 109.291C32.8116 109.2 32.6908 109.161 32.5697 109.169ZM37.141 108.803C37.038 108.785 36.9334 108.798 36.8393 108.84C36.6696 108.916 36.4666 109.122 36.4574 109.546L36.4662 109.742L36.4682 109.761C36.5369 110.839 36.6584 111.914 36.8334 112.98C36.8851 113.139 36.9936 113.274 37.1391 113.357C37.291 113.443 37.4709 113.467 37.6391 113.423H37.641C37.8092 113.38 37.9542 113.272 38.0453 113.123C38.1361 112.975 38.1658 112.795 38.1274 112.624C38.1244 112.611 38.1224 112.598 38.1205 112.584C38.0275 111.915 37.9408 111.306 37.8275 110.594C37.8191 110.594 37.8104 110.595 37.8022 110.595C37.4225 110.595 37.0311 110.421 36.8734 110.012C36.7294 109.639 36.8507 109.239 37.0609 108.918C37.086 108.88 37.1121 108.841 37.141 108.803ZM164.57 108.285L165.047 110.468L165.059 110.466L165.643 113.186L167.481 112.791L166.987 110.534L166.974 110.536L166.407 107.891L164.57 108.285ZM40.1166 110.441C39.6864 110.487 39.2567 110.524 38.8647 110.55C38.9639 111.231 39.0964 111.907 39.2641 112.575C39.3267 112.719 39.4382 112.837 39.5795 112.904L39.5815 112.905C39.7309 112.976 39.9015 112.987 40.058 112.937C40.215 112.887 40.3483 112.778 40.4291 112.634C40.5093 112.491 40.5319 112.322 40.4926 112.161C40.4912 112.156 40.4898 112.15 40.4887 112.145C40.4775 112.091 40.4656 112.038 40.4545 111.986L40.4369 111.968L40.4067 111.82C40.2749 111.162 40.2138 110.874 40.1166 110.441ZM158.053 98.8968L158.054 98.8978L155.788 99.3792L160.68 110.862L163.948 110.163L163.502 108.084L163.486 108.009V108.007L163.381 107.519L163.87 107.413L167.173 106.704L167.28 107.191V107.193L167.295 107.263L167.751 109.349L181.287 106.476L180.739 103.831L184.041 103.122L184.53 103.017L185.1 105.664L188.347 104.983L188.155 92.4856L158.053 98.8968ZM38.807 101.062C37.8359 101.019 36.5912 101.049 35.0717 101.198C33.6024 101.341 32.4222 101.548 31.517 101.776C31.5072 101.979 31.4973 102.183 31.4897 102.386C31.4826 102.643 31.4779 102.908 31.4779 103.176V103.656H31.4574C31.4325 105.293 31.4763 106.93 31.5922 108.564C31.8429 108.333 32.1588 108.195 32.5004 108.171C32.8901 108.144 33.2868 108.274 33.5932 108.562C33.6061 108.574 33.6178 108.587 33.6303 108.6C33.8811 108.307 34.2215 108.121 34.602 108.074C34.9981 108.024 35.4096 108.134 35.7387 108.409C35.7567 108.425 35.7731 108.441 35.7904 108.457C35.9549 108.224 36.1728 108.043 36.4291 107.928C36.6659 107.822 36.9236 107.778 37.1772 107.799C37.0374 107.741 36.9019 107.677 36.7719 107.605C35.8139 107.073 35.1906 106.186 34.9486 104.935C34.8963 104.664 35.0733 104.402 35.3442 104.349C35.6151 104.297 35.8775 104.474 35.9301 104.744C36.123 105.742 36.5888 106.359 37.2572 106.73C37.9518 107.115 38.924 107.269 40.1742 107.196C40.4314 107.181 40.6581 107.363 40.6977 107.617C40.7371 107.872 40.5763 108.115 40.3266 108.179C38.8209 108.562 38.1265 109.117 37.8969 109.467C37.862 109.52 37.8416 109.562 37.8295 109.594C38.4676 109.592 39.5856 109.511 40.6117 109.377C41.1308 109.31 41.6148 109.231 41.9936 109.146C42.1835 109.103 42.3384 109.06 42.4535 109.02C42.4984 109.004 42.5305 108.988 42.5541 108.978C42.5725 108.903 42.5896 108.79 42.6 108.638C42.6209 108.332 42.6135 107.93 42.5785 107.505C42.5436 107.081 42.483 106.65 42.4047 106.287C42.3222 105.906 42.2327 105.667 42.1703 105.573L42.0922 105.466C41.9961 105.345 41.8487 105.181 41.6586 104.983C41.4129 104.726 41.1192 104.438 40.8256 104.153C40.537 103.873 40.2383 103.588 40.0043 103.36C39.8184 103.178 39.6448 103.005 39.5336 102.879L39.4731 102.889L39.3246 102.639C39.2876 102.593 39.2579 102.542 39.2387 102.484C38.9982 102.043 38.8503 101.56 38.807 101.062ZM181.922 104.599L182.392 106.776H182.394L182.979 109.496L184.818 109.101L184.332 106.848L184.329 106.849L183.762 104.204L181.922 104.599ZM152.936 75.7776C152.069 76.5962 151.029 77.351 149.875 78.0374C152.066 87.3687 154.524 99.7722 155.335 108.129C155.621 108.326 155.972 108.563 156.384 108.835L154.232 98.6888L154.391 98.6546L154.716 98.5843L154.725 98.5823L156.923 98.1136C156.279 93.9285 155.555 89.1296 154.955 85.5442C154.458 82.5715 153.709 79.0901 152.936 75.7776ZM37.8422 108.017C37.8769 108.038 37.9113 108.06 37.9447 108.084C37.9613 108.074 37.9786 108.064 37.9955 108.053C37.9439 108.042 37.8929 108.03 37.8422 108.017ZM140.062 95.1282C139.645 98.2658 139.026 101.372 138.21 104.429C138.975 103.013 139.887 101.309 140.971 99.2083C140.69 97.9487 140.387 96.592 140.062 95.1282ZM30.4984 102.092C30.1426 102.219 29.8716 102.344 29.6811 102.461C29.6225 102.497 29.5753 102.531 29.5365 102.561C29.5448 102.563 29.5529 102.568 29.5619 102.571C29.7606 102.628 30.0609 102.667 30.4799 102.677C30.4834 102.568 30.4865 102.458 30.4906 102.349C30.493 102.263 30.4953 102.177 30.4984 102.092ZM103.474 99.4339C103.39 99.4152 103.309 99.4307 103.237 99.4856C103.181 99.5282 103.108 99.6119 103.053 99.7649L103.005 99.9427C102.897 100.509 102.738 101.6 102.697 101.968C102.708 102.083 102.755 102.192 102.834 102.279L102.904 102.342C102.978 102.398 103.067 102.434 103.16 102.445H103.162C103.286 102.46 103.412 102.431 103.518 102.362C103.617 102.297 103.69 102.201 103.728 102.09C103.82 101.486 103.879 100.878 103.905 100.267C103.924 99.684 103.632 99.4691 103.474 99.4339ZM101.554 99.0657C101.457 99.0393 101.354 99.0527 101.26 99.1136C101.167 99.1745 101.047 99.3077 100.975 99.5794C100.821 100.164 100.62 100.95 100.489 101.548C100.487 101.555 100.485 101.561 100.484 101.568C100.447 101.709 100.467 101.861 100.54 101.988L100.604 102.076C100.675 102.158 100.77 102.218 100.876 102.247C101.017 102.287 101.169 102.269 101.296 102.198C101.425 102.127 101.521 102.007 101.562 101.867C101.715 101.229 101.836 100.583 101.924 99.9329L101.925 99.93C102.008 99.3447 101.726 99.1126 101.554 99.0657ZM39.8315 101.154C39.8676 101.364 39.9296 101.568 40.017 101.763C40.512 101.664 40.8258 101.549 41.0072 101.444C41.0144 101.44 41.0203 101.434 41.0268 101.43C40.9826 101.41 40.9306 101.386 40.8676 101.365C40.864 101.363 40.8605 101.362 40.8568 101.361C40.6148 101.278 40.2745 101.205 39.8315 101.154ZM99.6303 98.5325C99.5215 98.4969 99.4016 98.5043 99.2914 98.5648C99.1837 98.6239 99.0502 98.7539 98.9623 99.0218C98.7698 99.6084 98.5033 100.432 98.3813 100.842C98.3052 101.097 98.3413 101.28 98.4076 101.405C98.478 101.537 98.6006 101.64 98.7465 101.694C98.8939 101.748 99.0398 101.744 99.1488 101.699C99.2457 101.658 99.3486 101.573 99.4096 101.38L99.5668 100.845C99.7143 100.307 99.8337 99.7775 99.932 99.4007C100.078 98.8388 99.8169 98.5936 99.6303 98.5325ZM38.935 95.6312C37.8234 95.5247 36.4527 95.5508 35.0707 95.6995C33.6885 95.8483 32.3161 96.1184 31.1986 96.4896C30.64 96.6751 30.1559 96.8821 29.7699 97.1058C29.4568 97.2872 29.2261 97.4693 29.0707 97.6439C29.1472 98.8523 29.237 100.134 29.3363 101.494C29.578 101.367 29.8642 101.242 30.1918 101.126C31.2544 100.751 32.8434 100.409 34.975 100.201L35.768 100.133C37.1827 100.025 38.3552 100.022 39.2826 100.088C39.2946 100.088 39.3066 100.086 39.3188 100.086C39.339 100.087 39.3588 100.091 39.3783 100.094C39.5912 100.111 39.7909 100.131 39.977 100.155C40.4228 100.212 40.805 100.292 41.1156 100.392C41.0637 99.1866 41.0081 97.7205 40.9555 96.1478C40.8249 96.0606 40.6269 95.9683 40.3471 95.8841C39.9699 95.7706 39.4912 95.6845 38.935 95.6312ZM100.5 88.8704C100.3 88.8109 100.089 88.869 99.601 89.2425C99.1549 89.5838 98.5268 90.1502 97.6791 90.639C97.2428 90.8908 96.8526 90.9766 96.2709 90.9524C95.8796 90.9362 95.3738 90.8673 94.6781 90.7669C94.6985 90.825 94.7213 90.8828 94.7406 90.9417C95.0953 92.0232 95.2928 93.2721 95.3197 94.5315C95.3545 96.1614 95.0989 97.8736 94.476 99.2825C94.8381 99.3251 95.1974 99.3714 95.4984 99.4134C95.7082 98.8895 95.9204 98.4039 96.0736 98.095C96.5057 97.2252 97.3383 96.8624 98.0678 97.1526C98.3587 97.2684 98.5875 97.4705 98.7406 97.7298C98.7635 97.7156 98.7864 97.7008 98.81 97.6878C99.1703 97.49 99.5783 97.4633 99.9418 97.5823C100.29 97.6965 100.574 97.9329 100.755 98.2513C101.086 98.0517 101.466 98.0058 101.816 98.1009C102.151 98.1921 102.434 98.3992 102.632 98.6878C102.948 98.449 103.332 98.3779 103.692 98.4583C104.423 98.6216 104.936 99.3518 104.905 100.3V100.304C104.891 100.635 104.868 100.966 104.835 101.295C104.86 101.302 104.885 101.309 104.91 101.32C105.215 101.394 105.521 101.457 105.814 101.439C106.024 101.426 106.194 101.374 106.33 101.278C106.394 101.233 106.459 101.171 106.522 101.087C106.381 101.006 106.246 100.923 106.121 100.839C105.945 100.72 105.779 100.6 105.634 100.493C105.485 100.384 105.364 100.295 105.262 100.227C105.032 100.074 104.97 99.7633 105.123 99.5335C105.277 99.3039 105.587 99.2417 105.817 99.3948C105.942 99.4781 106.084 99.5828 106.225 99.6858C106.37 99.792 106.521 99.9032 106.68 100.01C107.003 100.227 107.325 100.408 107.624 100.496C107.916 100.582 108.141 100.567 108.329 100.459C108.467 100.38 108.63 100.221 108.792 99.9163C108.189 99.6606 107.426 99.1998 106.426 98.5052C106.199 98.3476 106.144 98.0356 106.301 97.8089C106.459 97.5826 106.77 97.5265 106.996 97.6839C108.251 98.5561 109.008 98.9631 109.485 99.1048C109.535 99.1061 109.585 99.113 109.635 99.1302C109.651 99.1357 109.666 99.1447 109.681 99.1517C109.83 99.1754 109.91 99.159 109.955 99.1409C110.014 99.1177 110.085 99.0668 110.184 98.9329C110.375 98.6713 110.428 98.4899 110.429 98.3616C110.43 98.2931 110.413 98.2154 110.367 98.1214C110.363 98.1148 110.36 98.1077 110.356 98.1009C110.322 98.0373 110.278 97.9654 110.211 97.887C109.831 97.4393 109.004 96.918 107.58 96.1917C107.335 96.0662 107.237 95.7648 107.363 95.5189C107.488 95.2733 107.789 95.1759 108.035 95.3011C109.31 95.9516 110.267 96.5124 110.828 97.0823C110.943 96.9161 111.007 96.764 111.031 96.6233C111.043 96.55 111.045 96.4718 111.036 96.387C110.998 96.3133 110.978 96.2332 110.98 96.1526C110.934 96.0212 110.861 95.8758 110.747 95.7151C110.194 94.9284 108.869 93.9548 106.479 92.7142C106.223 92.7266 105.967 92.7269 105.71 92.7112C104.862 92.6596 104.033 92.4531 103.26 92.1058C101.939 93.5396 100.682 94.1599 99.7504 94.2073C99.2644 94.232 98.7666 94.0982 98.4897 93.7034C98.1937 93.2816 98.2898 92.7744 98.56 92.3733L98.9496 91.7845C99.5898 90.834 100.269 89.9103 100.985 89.0159C100.824 88.9663 100.664 88.9181 100.503 88.8714L100.5 88.8704ZM97.6986 98.0814C97.5538 98.0237 97.2216 98.0322 96.9691 98.5403C96.8103 98.8607 96.5688 99.4213 96.3363 100.017C96.3354 100.026 96.3359 100.036 96.3344 100.045C96.321 100.129 96.2855 100.203 96.2377 100.266C96.2355 100.271 96.2342 100.276 96.2318 100.281C96.1658 100.413 96.1549 100.566 96.2016 100.705C96.2483 100.845 96.3488 100.962 96.4809 101.028C96.6132 101.094 96.7659 101.104 96.9057 101.058L97.0053 101.013C97.0975 100.96 97.1732 100.882 97.2231 100.785C97.411 100.379 97.7409 99.413 97.8979 98.9212C98.0752 98.3625 97.8371 98.1366 97.6986 98.0814ZM88.3295 88.5667C88.6214 89.1003 88.843 89.725 89.0014 90.3899C89.2807 91.5627 89.3824 92.9246 89.3119 94.2855C89.2414 95.6467 88.9971 97.0272 88.5688 98.2347C88.2958 99.004 87.9411 99.7196 87.4975 100.318C89.0716 100.328 90.7766 100.332 92.6234 100.332C93.8056 99.0923 94.3688 96.849 94.3197 94.553C94.2946 93.3786 94.1104 92.2288 93.7904 91.2532C93.4886 90.3328 93.0762 89.6071 92.602 89.1468C91.8546 89.0237 90.2417 88.8098 88.3295 88.5667ZM30.4379 97.7835C30.6355 97.8186 30.7905 97.9232 30.9008 98.0491C31.1033 98.2803 31.1667 98.5914 31.1772 98.8353C31.1882 99.0945 31.1451 99.3798 31.0395 99.6292C30.9385 99.8675 30.7406 100.159 30.39 100.269C30.2236 100.321 30.039 100.327 29.8608 100.257C29.6874 100.189 29.5666 100.069 29.4867 99.9505C29.3363 99.7276 29.2866 99.4502 29.2777 99.2239C29.2685 98.9861 29.3006 98.7273 29.3793 98.4993C29.4502 98.2939 29.5979 98.0022 29.8988 97.8636L30.0238 97.8148C30.1525 97.7739 30.2928 97.7577 30.4379 97.7835ZM69.2719 62.4046C66.0005 62.4486 61.3486 63.1979 54.6801 64.9622C49.3968 66.358 44.2469 68.4402 39.9916 70.8079C38.5633 71.6027 37.2426 72.428 36.0531 73.2649C36.0157 73.3018 35.9736 73.331 35.9281 73.3538C33.6236 74.9901 31.8263 76.6735 30.7309 78.2903C29.5961 79.9708 28.9709 82.2325 28.7836 86.0091C28.6522 88.6594 28.7393 92.0234 28.9975 96.4095C29.0851 96.3512 29.1758 96.2945 29.269 96.2405C29.7311 95.9728 30.2822 95.74 30.8832 95.5403C32.0857 95.141 33.5321 94.8596 34.9643 94.7054C36.3965 94.5512 37.8366 94.5216 39.0307 94.636C39.6272 94.6932 40.1757 94.7875 40.6361 94.9261C40.7322 94.955 40.8262 94.9882 40.9184 95.0228C40.8108 91.6202 40.7234 87.9045 40.7094 85.3177C39.7055 85.6183 38.7558 85.8924 38.0766 86.0931L38.0707 86.0804L38.0697 86.0814C37.8309 86.1467 37.5798 86.0277 37.4799 85.8011C37.3801 85.5745 37.4619 85.3092 37.6713 85.1771C38.1695 84.8625 38.6622 84.5393 39.1527 84.2132C40.9138 83.0303 42.6287 81.7799 44.2934 80.4642C44.5721 77.9248 44.9161 75.1788 45.3227 72.18C45.3599 71.9066 45.6117 71.7153 45.8852 71.7523C46.1588 71.7893 46.351 72.0411 46.3139 72.3148C45.7484 76.486 45.3043 80.1564 44.9916 83.4544C44.9872 83.5073 44.9813 83.5599 44.977 83.6126C44.9768 83.6371 44.9748 83.661 44.9711 83.6849L44.9477 83.9808L44.9418 83.9817C44.6339 87.3424 44.4682 90.3144 44.4525 93.0384C46.3822 91.8943 49.1607 91.0389 52.4565 90.4476C55.4801 89.9051 58.9781 89.5784 62.7309 89.4671C62.827 86.7349 63.0025 81.4654 63.4125 76.4612L63.4291 76.3675C63.4877 76.1576 63.6784 76.0052 63.9037 76.0023C64.1546 75.9989 64.3659 76.182 64.4027 76.428H64.4262C64.9836 81.5757 65.7561 88.7142 66.7611 92.4378L66.9281 93.056H66.9174C66.9276 93.0902 66.9364 93.1247 66.9467 93.1585C67.4083 94.6801 67.9288 95.7168 68.5639 96.5247C69.1987 97.3323 69.9706 97.9399 70.9818 98.5755C72.2063 99.3449 74.2839 99.8012 77.8119 100.049C80.0239 100.205 82.7677 100.276 86.1693 100.308C86.7664 99.766 87.2607 98.9306 87.6264 97.8997C88.0168 96.7991 88.2474 95.5166 88.3139 94.2337C88.3803 92.9505 88.2822 91.6857 88.0287 90.6214C87.7906 89.6219 87.4256 88.8561 86.9857 88.3948C84.0832 88.0319 80.8276 87.6405 78.8998 87.4124C78.8968 87.4121 78.894 87.4109 78.891 87.4105L77.8031 87.2815C77.5292 87.2489 77.3333 87.0009 77.3656 86.7269C77.398 86.4526 77.6471 86.257 77.9213 86.2894L78.4398 86.3499C78.1512 77.3662 77.8579 72.1777 77.4008 69.0149C76.9361 65.7995 76.3159 64.7834 75.4477 63.9993C74.3617 63.0234 72.544 62.3606 69.2719 62.4046ZM91.0443 98.1419C91.301 98.1552 91.6123 98.2285 91.8402 98.4368C91.9625 98.5486 92.0616 98.7022 92.0971 98.8939C92.1321 99.0831 92.097 99.266 92.0258 99.4271C91.8799 99.7572 91.5927 99.969 91.3285 100.094C91.0578 100.222 90.7484 100.291 90.4643 100.292C90.2039 100.294 89.8499 100.239 89.6029 99.9935C89.4659 99.8571 89.3783 99.6753 89.3666 99.4661C89.3556 99.2684 89.414 99.082 89.4994 98.9183C89.663 98.6056 89.9374 98.4055 90.2065 98.2903C90.4758 98.175 90.7735 98.1279 91.0443 98.1419ZM90.9897 99.1409C90.8632 99.1349 90.7201 99.1579 90.6 99.2093C90.5413 99.2344 90.4958 99.2628 90.4613 99.2913C90.6014 99.29 90.7651 99.255 90.9008 99.1907C90.9356 99.1743 90.9647 99.1571 90.9897 99.1409ZM152.322 69.0042L152.663 70.3421L152.641 70.3255C152.801 70.9645 152.966 71.6295 153.133 72.3138C153.154 72.3974 153.174 72.4813 153.195 72.5657C153.29 72.9546 153.386 73.3491 153.482 73.7483L153.49 73.7405L153.704 74.6468C155.46 82.0603 155.877 84.3187 157.905 97.9046L160.331 97.387L162.783 93.9085L162.52 92.6126C162.422 92.1661 162.414 91.7035 162.496 91.2532C162.577 90.7993 162.75 90.3662 162.999 89.9808C163.05 89.9023 163.105 89.8261 163.162 89.7523C162.706 88.9797 162.442 88.108 162.394 87.2093C162.393 87.2005 162.393 87.1917 162.393 87.1829C162.393 86.8329 162.538 86.4713 162.693 86.1634C162.854 85.8427 163.066 85.5062 163.266 85.1946C163.372 85.0291 163.474 84.8706 163.569 84.72C163.265 84.706 162.991 84.6524 162.754 84.5579C162.271 84.3652 161.92 83.9868 161.87 83.4681L161.868 83.4407C161.867 83.4332 161.868 83.4257 161.868 83.4183C160.306 76.6026 159.448 72.8576 158.819 70.6946C158.186 68.5182 157.817 68.0691 157.309 67.6985C156.468 67.085 155.774 66.6622 154.023 66.2669C153.353 66.1155 152.531 65.9688 151.495 65.8196L152.322 69.0042ZM161.771 97.0814L163.357 96.7435L163.055 95.2562L161.771 97.0814ZM65.2621 90.4251C64.7413 90.4272 64.2245 90.4326 63.7123 90.4427V90.4505L63.2445 90.4612C58.9456 90.5647 54.9923 90.9502 51.7065 91.6116C48.5481 92.2474 46.0539 93.1298 44.4565 94.2249C44.4682 94.8463 44.4818 95.4558 44.5043 96.0511C44.6421 95.9672 44.7843 95.8873 44.9281 95.8069C45.0071 95.7631 45.0873 95.7201 45.1684 95.6771C46.6746 94.8741 48.4804 94.2518 50.4193 93.7698C50.5236 93.7437 50.6281 93.7162 50.7338 93.6907C50.8045 93.6738 50.8757 93.6585 50.9467 93.6419C51.514 93.5084 52.1005 93.3819 52.7055 93.2659C56.3808 92.5616 60.7705 92.1716 65.6205 92.0814C65.4969 91.5708 65.3789 91.0201 65.2621 90.4251ZM165.104 89.5364C164.975 89.5812 164.848 89.6349 164.728 89.7005L164.519 89.8284C164.249 90.013 164.016 90.249 163.837 90.5237C163.659 90.7997 163.538 91.1091 163.48 91.431L163.479 91.4319C163.435 91.6737 163.428 91.9202 163.457 92.1634L163.498 92.4056L163.5 92.4134L164.231 95.9827L166.179 95.5657C166.109 95.1603 166.003 94.5417 165.883 93.846C165.741 93.6116 165.653 93.3457 165.631 93.0677C165.525 91.8807 165.348 90.702 165.104 89.5364ZM175.47 92.3665C175.271 92.5587 175.033 92.7072 174.771 92.8011C174.509 92.8947 174.229 92.9318 173.953 92.9095C173.848 92.901 173.745 92.8807 173.644 92.8558C173.461 93.1265 173.205 93.3526 172.892 93.4944C172.415 93.7104 171.85 93.7194 171.269 93.4769C171.254 93.4983 171.24 93.5204 171.224 93.5413C170.993 93.8453 170.678 94.075 170.319 94.2024C169.959 94.33 169.57 94.3502 169.199 94.2601C169.037 94.2206 168.881 94.1594 168.736 94.0814C168.697 94.1264 168.656 94.17 168.613 94.2112C168.287 94.5204 167.856 94.6942 167.409 94.6976C167.285 94.6984 167.164 94.6856 167.044 94.6614C167.078 94.8567 167.11 95.0416 167.14 95.2132C167.187 95.4836 167.227 95.7208 167.26 95.9114L175.837 94.0843L175.828 94.0335L175.476 92.3597C175.474 92.3618 175.472 92.3644 175.47 92.3665ZM108.762 87.1067C108.64 87.2133 108.527 87.3113 108.424 87.4017C108.146 87.6454 107.92 87.8445 107.725 87.9964C107.717 88.0026 107.709 88.0079 107.701 88.014L107.422 88.2493L107.399 88.221C107.309 88.2748 107.218 88.323 107.121 88.3616C106.957 88.4274 106.794 88.4635 106.623 88.4817L106.45 88.4944C105.475 88.5374 104.543 88.4006 103.881 88.3519C103.534 88.3262 103.266 88.3243 103.059 88.3587C102.866 88.3909 102.763 88.4477 102.701 88.514C101.502 89.9057 100.399 91.3775 99.3988 92.9183L99.392 92.928C99.3264 93.024 99.3114 93.087 99.309 93.1136V93.1292L99.3236 93.1429C99.3351 93.1512 99.3552 93.1628 99.3861 93.1741C99.4496 93.1973 99.5524 93.2158 99.6996 93.2083C100.306 93.1774 101.434 92.7033 102.76 91.1663L102.821 91.1067C102.973 90.9813 103.189 90.9559 103.369 91.0491C104.114 91.4356 104.933 91.6611 105.772 91.7122C106.61 91.7633 107.45 91.6391 108.238 91.346C108.496 91.2498 108.784 91.3812 108.88 91.6399C108.976 91.8986 108.845 92.1861 108.586 92.2825C108.421 92.3442 108.252 92.3967 108.082 92.4456C109.824 93.4294 110.978 94.3057 111.565 95.1399C111.601 95.191 111.634 95.2427 111.666 95.2942C111.954 95.0254 112.287 94.7221 112.629 94.4114L112.627 94.4095L112.883 94.181C113.48 93.6424 114.084 93.1044 114.525 92.7132C114.001 91.8325 113.179 90.7072 111.969 89.3265C110.881 88.0837 109.957 87.2488 109.215 86.719C109.049 86.8601 108.899 86.989 108.762 87.1067ZM114.875 93.7513C114.658 93.943 114.41 94.163 114.17 94.3753C114.437 94.5525 114.674 94.6631 114.867 94.7171C115.151 94.797 115.238 94.7366 115.238 94.7366L115.241 94.7317C115.252 94.7045 115.271 94.6387 115.264 94.513C115.261 94.4663 115.254 94.4118 115.243 94.3489C115.207 94.1605 115.132 93.9241 115.006 93.6351C114.964 93.6721 114.921 93.7115 114.875 93.7513ZM111.661 82.472C110.403 83.4947 109.287 84.4029 108.435 85.1214C108.751 85.2435 109.096 85.4256 109.463 85.6683L110.021 86.0364L109.999 86.053C110.782 86.6421 111.693 87.4944 112.72 88.6673C113.887 89.9982 114.726 91.1238 115.293 92.0501L115.324 92.0247L115.621 92.5804C115.905 93.1104 116.093 93.5795 116.19 93.9837C117.073 93.2831 118.092 92.4527 119.175 91.5589C119.192 90.9552 118.991 90.1549 118.579 89.2425C118.126 88.2419 117.449 87.1642 116.648 86.1644C115.847 85.1644 114.934 84.2562 114.017 83.5853C113.175 82.9692 112.366 82.5827 111.661 82.472ZM172.358 80.4407C171.404 80.4412 170.082 80.5894 168.297 80.9788C166.809 81.3037 165.676 81.6559 164.836 82.0003C164.903 82.271 164.953 82.5452 164.987 82.8216C164.99 82.841 164.994 82.8607 164.997 82.8802C165.037 83.1206 165.066 83.3774 165.061 83.6253C165.057 83.8177 165.029 84.0241 164.959 84.222C164.947 84.3157 164.909 84.4016 164.851 84.473C164.799 84.5867 164.743 84.6983 164.685 84.8021C164.518 85.1018 164.303 85.4296 164.108 85.7347C163.906 86.049 163.721 86.3446 163.586 86.6126C163.448 86.8871 163.395 87.0701 163.393 87.1751C163.431 87.8269 163.609 88.46 163.909 89.0355C163.924 89.0245 163.94 89.013 163.955 89.0023L164.101 88.9085C164.346 88.7587 164.609 88.639 164.883 88.554C164.825 88.3161 164.765 88.0786 164.702 87.8421C164.63 87.5755 164.788 87.3007 165.054 87.2288C165.321 87.157 165.595 87.3149 165.667 87.5814C165.754 87.9044 165.834 88.2295 165.911 88.555L165.98 88.763L166.027 88.9485L166.085 89.2415C166.13 89.4704 166.187 89.7776 166.251 90.1351C166.381 90.8506 166.544 91.7745 166.704 92.6917C166.748 92.9465 166.791 93.2011 166.834 93.4505C166.848 93.4649 166.86 93.481 166.874 93.4944L166.99 93.5823C167.112 93.6583 167.256 93.6986 167.402 93.6976C167.597 93.6961 167.784 93.6201 167.924 93.4866C168.066 93.3528 168.151 93.1694 168.163 92.9739C168.201 92.271 168.166 91.5663 168.056 90.8714C168.013 90.5988 168.199 90.3424 168.471 90.2991C168.744 90.2561 169 90.4425 169.043 90.7151C169.164 91.4812 169.204 92.2583 169.163 93.0325V93.0364C169.16 93.0791 169.154 93.1213 169.148 93.1634C169.236 93.2194 169.332 93.2633 169.435 93.2884L169.573 93.3108C169.711 93.3239 169.851 93.3069 169.984 93.2601C170.16 93.1975 170.315 93.0846 170.428 92.9358C170.541 92.7869 170.608 92.6084 170.621 92.4222C170.655 91.6974 170.642 90.971 170.584 90.2474C170.562 89.9721 170.768 89.7312 171.043 89.7093C171.318 89.6875 171.559 89.8922 171.581 90.1673C171.643 90.9362 171.656 91.7088 171.621 92.4798L171.62 92.4915C171.619 92.5061 171.615 92.5209 171.614 92.5355C171.987 92.704 172.28 92.6738 172.48 92.5833C172.747 92.4624 172.92 92.2091 172.949 91.9495C173.021 91.1588 173.02 90.3632 172.948 89.5726C172.922 89.2977 173.125 89.0541 173.4 89.0286C173.675 89.0034 173.918 89.2059 173.944 89.4808C174.018 90.2859 174.019 91.0959 173.954 91.9017C173.98 91.906 174.006 91.9102 174.033 91.9124C174.168 91.9233 174.306 91.9055 174.434 91.8597C174.561 91.8141 174.678 91.742 174.777 91.6468C174.86 91.5664 174.926 91.4705 174.976 91.3655C175.071 90.5672 175.094 89.7635 175.045 88.9632C174.994 88.2993 174.897 87.6393 174.751 86.9886L174.642 86.5032C174.275 85.1422 173.849 84.1004 173.448 83.1849C173.373 83.0145 173.299 82.8466 173.225 82.681L173.21 82.6507C173.202 82.634 173.194 82.6168 173.187 82.5989C173.043 82.2922 172.911 81.9798 172.788 81.6644C172.623 81.2615 172.475 80.8587 172.358 80.4407ZM175.875 87.4173C175.957 87.9118 176.014 88.4093 176.044 88.9085C176.081 89.3994 176.094 89.8921 176.082 90.3851L176.704 93.3353L178.633 92.9222L177.87 89.348C177.743 88.764 177.41 88.2446 176.933 87.8831C176.619 87.6455 176.257 87.488 175.875 87.4173ZM117.683 90.2356C117.971 90.2545 118.239 90.4036 118.39 90.6819L118.448 90.8099L118.486 90.9427C118.55 91.2516 118.45 91.5449 118.334 91.7542C118.196 92.0039 117.989 92.2256 117.772 92.388C117.568 92.5407 117.283 92.694 116.981 92.6976C116.816 92.6995 116.626 92.6564 116.462 92.5198C116.3 92.3844 116.218 92.2013 116.183 92.0237C116.046 91.3235 116.476 90.7453 116.899 90.4681C117.115 90.3264 117.394 90.2168 117.683 90.2356ZM117.427 91.3187C117.334 91.3842 117.263 91.4648 117.218 91.5491C117.301 91.4796 117.375 91.3984 117.427 91.3187ZM138.156 48.1878C137.683 49.4302 136.898 50.8435 136.143 52.0648C135.258 53.4963 134.39 54.71 134.049 55.1575C133.96 55.2745 133.824 55.3461 133.677 55.3538C133.53 55.3615 133.387 55.3046 133.287 55.1976C132.915 54.8027 132.562 54.3914 132.225 53.9681C132.022 54.3967 131.794 54.8132 131.543 55.2161C131.585 55.4091 131.642 55.681 131.702 56.0071C131.795 56.5142 131.911 57.1837 132.043 57.9651C132.308 59.5286 132.636 61.5463 132.967 63.6194C133.629 67.7628 134.302 72.1413 134.492 73.5667C134.499 73.6191 134.496 73.6717 134.487 73.723L134.489 73.7356L134.482 73.7464C134.47 73.7969 134.451 73.8459 134.424 73.8909C133.626 75.2127 132.701 76.4544 131.663 77.598C131.621 77.6452 131.568 77.6808 131.512 77.7083L131.222 78.0247L130.858 77.5696C129.914 76.3916 129.108 75.1096 128.454 73.7493L128.404 73.6468V73.5335C128.404 73.0074 128.7 68.9021 129.02 64.7044C129.328 60.6661 129.663 56.4848 129.791 55.1976C129.691 55.0007 129.598 54.8007 129.513 54.597C129.462 54.7799 129.414 54.9636 129.368 55.1478C129.311 55.3734 129.106 55.5301 128.873 55.5257C128.641 55.5213 128.442 55.3568 128.394 55.1292C128.136 53.9133 128.038 52.6714 128.101 51.4349C128.093 51.4397 128.085 51.4448 128.077 51.4495L128.078 51.4505C124.476 53.5275 123.153 54.3073 122.017 55.9183C120.913 57.4846 120.393 58.7715 120.093 61.4896C119.788 64.2514 119.717 68.4253 119.499 75.7601C119.495 75.9002 119.432 76.0318 119.326 76.1233C117.17 77.982 114.755 79.9527 112.621 81.6878C113.292 81.9229 113.965 82.3079 114.608 82.7786C115.61 83.5119 116.584 84.4859 117.428 85.5394C118.272 86.5931 118.997 87.7414 119.49 88.8304C119.789 89.4933 120.013 90.1578 120.116 90.7786C122.592 88.7211 125.279 86.4378 127.367 84.6341C127.476 80.953 127.282 77.2691 126.781 73.6204L126.791 73.6175C126.786 73.6018 126.78 73.5862 126.775 73.5706C126.029 71.448 125.313 69.3638 124.774 67.719C124.504 66.8972 124.278 66.182 124.114 65.6253C123.955 65.0882 123.84 64.6518 123.815 64.4183V64.4153C123.593 62.282 123.593 60.1317 123.815 57.9983C123.843 57.7237 124.089 57.5235 124.364 57.5521C124.638 57.5806 124.837 57.8272 124.809 58.1019C124.595 60.1657 124.595 62.246 124.809 64.3099L124.832 64.4456C124.87 64.6218 124.949 64.9203 125.074 65.3421C125.234 65.8851 125.457 66.5896 125.725 67.4075C126.261 69.0429 126.973 71.1202 127.718 73.2396C128.362 75.0709 129.029 76.9284 129.623 78.5579C130.223 78.7291 130.938 78.8337 131.745 78.8792C132.539 78.9235 133.42 78.9109 134.365 78.8372C134.519 78.8252 134.675 78.8084 134.832 78.7933C135.138 78.7638 135.449 78.7305 135.764 78.6898C135.846 78.6792 135.928 78.6688 136.01 78.6575C137.59 78.4401 139.27 78.0859 140.945 77.6126C145.4 76.3533 149.711 74.2855 151.99 71.8401C151.787 71.0173 151.588 70.2268 151.4 69.4817C149.055 67.7967 146.592 66.2845 144.027 64.9593C143.814 64.8493 143.71 64.6039 143.777 64.3743C143.844 64.1448 144.065 63.9956 144.303 64.0179C144.306 64.0181 144.308 64.0176 144.311 64.0179L144.323 63.9798C146.408 64.1784 148.125 64.3558 149.552 64.5286L150.885 64.7005L151.216 64.7464L151.223 64.7737C152.479 64.9462 153.457 65.1137 154.244 65.2913C156.14 65.7196 156.958 66.205 157.898 66.8909C158.691 67.4695 159.135 68.2025 159.779 70.4153C160.192 71.836 160.698 73.9191 161.426 77.0491C161.899 76.5828 162.52 76.1774 163.199 75.8323C164.322 75.2613 165.694 74.8073 167.072 74.4983C168.45 74.1893 169.857 74.0206 171.054 74.0315C171.652 74.037 172.211 74.0878 172.693 74.1937C172.769 74.2104 172.844 74.2321 172.918 74.2523C170.332 62.6775 168.46 59.4595 165.467 56.6966C159.432 51.1023 152.534 50.5543 140.336 49.0745H140.332C139.909 49.0194 139.386 48.8189 138.833 48.5481C138.617 48.4421 138.391 48.3197 138.156 48.1878ZM173.812 87.5218C174.084 87.4734 174.343 87.6544 174.392 87.9261C174.441 88.1979 174.26 88.4575 173.988 88.5062C172.747 88.7284 168.703 89.7628 167.487 90.137C167.223 90.2182 166.943 90.0699 166.862 89.806C166.781 89.5421 166.929 89.2622 167.193 89.181C168.435 88.7989 172.52 87.7532 173.812 87.5218ZM64.057 82.2317C63.9073 85.1399 63.8186 87.7524 63.7524 89.4417C64.1904 89.4333 64.6316 89.4287 65.0756 89.4261C64.7329 87.4945 64.4064 85.1393 64.057 82.2317ZM107.746 85.9778C107.521 85.9372 107.439 85.9816 107.428 85.9886L107.426 85.9896C107.402 86.0058 107.378 86.0268 107.362 86.0599C107.347 86.1019 107.34 86.1594 107.351 86.2425C107.369 86.3779 107.435 86.5655 107.578 86.804C107.654 86.7381 107.737 86.6681 107.827 86.5911C107.915 86.5145 108.012 86.4333 108.115 86.345C108.177 86.2907 108.242 86.233 108.31 86.1741C108.082 86.0672 107.895 86.0046 107.746 85.9778ZM44.1352 81.8685C43.0972 82.6714 42.0383 83.4466 40.9604 84.1946C41.7257 83.9622 42.5043 83.7189 43.2104 83.4935C43.4894 83.4039 43.7566 83.3165 44.0072 83.2347C44.0456 82.7866 44.0882 82.3306 44.1352 81.8685ZM128.244 77.7581C128.388 79.7434 128.444 81.7346 128.412 83.7259C129.018 83.1996 129.541 82.7352 129.959 82.3636C129.91 82.2366 129.869 82.1288 129.832 82.0247L129.812 82.0189L129.723 81.7825C129.436 81.0241 129.097 80.1147 128.738 79.1302L128.383 78.1605L128.388 78.1614C128.342 78.0343 128.295 77.8998 128.244 77.7581ZM163.89 82.4554C163.546 82.649 163.3 82.8315 163.134 82.9925C163.063 83.0614 163.01 83.1222 162.972 83.1741C162.885 83.2993 162.884 83.3659 162.885 83.3782C162.89 83.4407 162.923 83.5429 163.14 83.6292C163.284 83.6864 163.493 83.7252 163.773 83.723C163.855 83.7218 163.943 83.7163 164.038 83.7073C164.039 83.4605 164.026 83.2144 163.997 82.97C163.967 82.8001 163.929 82.6272 163.89 82.4554ZM171.045 75.0315C169.94 75.0214 168.61 75.178 167.29 75.4739C165.97 75.7699 164.682 76.2003 163.652 76.7239C162.681 77.2177 162.016 77.7575 161.714 78.2825C161.98 79.4322 162.272 80.7072 162.596 82.1224C162.811 81.9394 163.073 81.7611 163.38 81.5872C163.65 81.4347 163.962 81.2824 164.319 81.1312L164.545 81.0286L164.548 81.0374C165.451 80.6754 166.615 80.3219 168.083 80.0013C169.747 79.6384 171.063 79.4716 172.088 79.4456L172.085 79.4319L172.316 79.4417C172.442 79.4411 172.563 79.4436 172.68 79.4476C172.739 79.4396 172.796 79.4425 172.851 79.4544C173.041 79.4648 173.219 79.479 173.383 79.5013C173.622 79.5336 173.846 79.5818 174.052 79.6439C173.749 78.1296 173.46 76.7242 173.176 75.4192C173.015 75.3255 172.786 75.2377 172.479 75.1702C172.084 75.0835 171.598 75.0366 171.045 75.0315ZM173.442 80.5355C173.523 80.7844 173.613 81.0306 173.708 81.2747C173.771 81.4279 173.839 81.5824 173.908 81.7415C173.984 81.6894 174.055 81.6326 174.116 81.5726C174.238 81.4201 174.311 81.2356 174.333 81.0423V81.0403C174.325 80.9999 174.317 80.9595 174.309 80.9192C174.232 80.8099 174.001 80.6369 173.442 80.5355ZM152.266 72.9827C149.729 75.4177 145.474 77.375 141.228 78.5745C139.515 79.0585 137.789 79.4222 136.157 79.6468C136.039 79.6631 135.921 79.6769 135.804 79.6917C135.341 79.7502 134.886 79.7997 134.442 79.8343C134.18 79.8547 133.921 79.8712 133.665 79.8831C133.41 79.895 133.159 79.9016 132.912 79.9046C131.86 79.9174 130.887 79.848 130.036 79.6839C130.233 80.2197 130.42 80.7183 130.59 81.1692C133.173 81.8007 137.396 81.4795 141.662 80.3196C141.863 80.2648 142.064 80.2052 142.265 80.1468C146.355 78.946 150.282 77.0198 152.648 74.6097C152.517 74.0558 152.392 73.5127 152.266 72.9827ZM172.106 75.7825C172.425 75.8241 172.673 76.0163 172.837 76.2112C173.028 76.4376 173.158 76.7239 173.219 77.0023C173.279 77.272 173.289 77.6058 173.151 77.8987C173.078 78.0528 172.961 78.1972 172.793 78.2991C172.626 78.4006 172.437 78.4418 172.245 78.4378C171.428 78.4209 171.05 77.6914 170.979 77.1702C170.941 76.8912 170.968 76.5733 171.111 76.3021C171.266 76.0074 171.56 75.7795 171.965 75.7747L172.106 75.7825ZM171.99 76.7806C171.971 76.8246 171.953 76.9132 171.969 77.0345C171.987 77.1638 172.037 77.2781 172.097 77.3499C172.147 77.409 172.196 77.4316 172.252 77.4358C172.259 77.3951 172.266 77.322 172.243 77.2171C172.211 77.0763 172.146 76.9423 172.073 76.8548C172.035 76.8097 172.006 76.7895 171.99 76.7806ZM142.723 48.3548C153.467 49.6406 160.226 50.4768 166.145 55.9622C169.636 59.1856 171.616 63.0052 174.562 77.1282L193.829 49.6087L158.954 25.1888L142.723 48.3548ZM130.73 56.3968C130.57 58.2388 130.308 61.5415 130.062 64.7718C129.757 68.7771 129.481 72.6159 129.453 73.429C129.967 74.495 130.584 75.5073 131.295 76.4515C132.092 75.5337 132.812 74.5522 133.45 73.5169C133.235 71.9462 132.593 67.7578 131.956 63.7718C131.626 61.7002 131.298 59.6864 131.034 58.1273C130.919 57.454 130.815 56.8668 130.73 56.3968ZM146.759 65.262C148.21 66.092 149.626 66.9819 151.003 67.93C150.785 67.0813 150.588 66.3204 150.419 65.6741C149.392 65.5423 148.186 65.4073 146.759 65.262ZM69.8471 50.9271C69.5784 51.0308 69.3061 51.1244 69.0297 51.2054C69.0291 51.6204 68.9991 51.9675 68.9399 52.2513C68.866 52.6051 68.734 52.934 68.4936 53.1429C68.3642 53.2553 68.2026 53.3319 68.019 53.346C67.8388 53.3598 67.6763 53.3107 67.5443 53.2376C67.2927 53.0982 67.1089 52.8519 66.9828 52.6028C66.8305 52.3037 66.669 52.2077 66.5893 52.1839C66.5263 52.1652 66.4841 52.1777 66.4418 52.2249C66.3489 52.3287 66.1843 52.7727 66.5961 53.6097C66.6621 53.7422 66.7419 53.8853 66.8393 54.0374L67.0629 54.387L66.85 54.5853C66.8269 54.6228 66.8006 54.6594 66.767 54.6907C65.886 55.5101 64.8796 56.419 63.7729 57.3704C63.7504 57.3941 63.7261 57.4156 63.6986 57.4349C61.2001 59.5778 58.1868 61.9189 54.894 63.8724C60.1079 62.5108 64.1136 61.7665 67.2074 61.5081C66.7459 61.0631 66.379 60.5237 66.1361 59.9202L66.1322 59.9114L66.1293 59.9017C65.8282 59.0618 65.6631 58.1793 65.641 57.2874L65.6108 56.0374L66.4252 56.8519C66.4573 56.872 66.4876 56.8955 66.515 56.9231C67.17 57.5847 67.8178 58.1708 68.3861 58.5706C68.5043 58.6527 68.6177 58.7279 68.7279 58.7923C69.0517 58.9815 69.2894 59.0606 69.4447 59.0696C69.5513 59.0758 69.6004 59.0517 69.6469 58.9925C69.8578 58.6681 70.0406 58.0995 70.1068 56.97C70.1814 55.6976 70.1068 53.8036 69.8471 50.9271ZM66.8031 58.5872C66.8502 58.8212 66.908 59.053 66.9779 59.2815C67.0588 59.2926 67.1395 59.3041 67.2201 59.3138C67.4083 59.3362 67.595 59.3526 67.7768 59.3655C67.7624 59.3553 67.7482 59.3447 67.7338 59.3343C67.4314 59.1184 67.1182 58.865 66.8031 58.5872ZM69.3637 45.1868C69.1328 45.1843 68.888 45.2551 68.6977 45.3763C68.5058 45.4985 68.4118 45.6417 68.3881 45.763C68.3791 45.8088 68.3626 45.8516 68.3422 45.8919L68.1274 47.095L67.4438 45.8958C67.419 45.8524 67.3908 45.8113 67.3598 45.7728C67.266 45.665 67.149 45.5788 67.016 45.5228C66.8745 45.4632 66.7212 45.4393 66.5697 45.4524L66.4203 45.4778C66.222 45.5281 66.0453 45.6417 65.9174 45.8011C65.7893 45.9608 65.7163 46.1581 65.7104 46.3626C65.7091 46.4058 65.7006 46.4474 65.6889 46.4876L65.6625 47.6595L64.81 46.6517C64.7732 46.6083 64.7339 46.5691 64.6938 46.5325C64.3682 46.2482 63.9502 46.1788 63.644 46.2737C63.4751 46.3262 63.3491 46.425 63.2729 46.5569C63.1973 46.6879 63.1446 46.8973 63.2065 47.2171C63.214 47.256 63.2149 47.2949 63.2133 47.3333L63.4897 48.7601L62.3695 47.6731L62.3666 47.6702C62.1214 47.4323 61.8126 47.3251 61.5854 47.3538C61.4142 47.3756 61.1795 47.487 61.0541 47.9827C60.9199 48.5131 60.9367 49.4273 61.3451 50.8831C61.7187 52.2144 62.4097 53.9582 63.5541 56.2103C64.3565 55.5176 65.1054 54.8421 65.7836 54.2122C65.7556 54.1596 65.729 54.1071 65.7035 54.055C65.1937 53.0205 65.1937 52.0916 65.6879 51.5384C65.9878 51.2029 66.4318 51.0748 66.8666 51.2044C67.2838 51.3288 67.6293 51.667 67.8647 52.1321L67.9076 52.2054C67.9227 52.1592 67.9396 52.1016 67.9545 52.0296C68.0087 51.7679 68.0388 51.3787 68.015 50.8314L67.9975 50.4261L68.3891 50.3255C68.9698 50.1758 69.5354 49.9706 70.0775 49.7142L70.0893 49.7093C71.1254 49.251 72.0061 48.5023 72.6273 47.555C72.9858 46.9794 72.8105 46.3902 72.4535 46.0999C72.391 46.0491 72.3228 46.0071 72.2504 45.9759C72.1266 45.9261 71.99 45.9077 71.8461 45.9271C71.6085 45.9591 71.2969 46.1031 70.9604 46.4876C70.924 46.5292 70.8813 46.5634 70.8354 46.5901L69.9867 47.5618L70.0658 46.1126C70.0884 45.6984 69.9758 45.4831 69.8656 45.3704C69.8116 45.3152 69.7429 45.2708 69.6625 45.2376C69.5762 45.2055 69.4761 45.188 69.3637 45.1868ZM112.996 30.2962C113.268 30.249 113.526 30.4302 113.575 30.7015L114.879 38.0745C114.927 38.3464 114.746 38.6064 114.474 38.6546C114.202 38.7027 113.942 38.521 113.894 38.2493L112.799 32.0618L101.771 47.7884C101.612 48.0141 101.301 48.0685 101.075 47.9105L91.559 41.2591L81.3344 55.8792C81.176 56.1051 80.8642 56.1604 80.6381 56.0023C80.4119 55.844 80.357 55.5322 80.515 55.306L91.0268 40.2757L91.0922 40.1995C91.2608 40.0395 91.5241 40.0145 91.7221 40.1526L101.238 46.805L111.981 31.4876L105.776 32.5667C105.504 32.6138 105.245 32.4322 105.198 32.1605C105.15 31.8884 105.333 31.6287 105.605 31.5814L112.996 30.2962ZM37.2045 37.2161C37.4763 37.1679 37.7362 37.3487 37.7846 37.6204L38.0932 39.3626L42.517 38.5765C42.7888 38.5282 43.0488 38.7099 43.0971 38.9817C43.1453 39.2536 42.9636 39.5135 42.6918 39.5618L38.268 40.348L39.1625 45.3939L40.5736 45.1556C41.6941 44.9533 42.6513 45.2244 43.3676 45.7874C44.0755 46.3439 44.5202 47.163 44.6781 48.0179C44.8361 48.8729 44.7131 49.7969 44.2416 50.5696C43.7636 51.3528 42.9494 51.9437 41.8051 52.1517L41.8031 52.1526L40.4047 52.4007L40.7143 54.1439C40.7624 54.4156 40.5817 54.6746 40.31 54.723C40.0382 54.7712 39.7782 54.5904 39.7299 54.3187L39.4203 52.5755L34.9975 53.3626C34.7257 53.4108 34.4657 53.2291 34.4174 52.9573C34.3691 52.6855 34.5508 52.4256 34.8227 52.3773L39.2455 51.5901L38.351 46.5442L36.9408 46.7835C35.7969 46.9783 34.8313 46.7001 34.1156 46.1273C33.4098 45.5621 32.9786 44.7362 32.8344 43.8792C32.6903 43.0223 32.8272 42.101 33.3012 41.3362C33.7813 40.5616 34.5884 39.9788 35.7113 39.7864L37.1088 39.5374L36.8002 37.7952C36.7521 37.5235 36.9328 37.2645 37.2045 37.2161ZM130.587 51.5638C130.402 51.9925 130.227 52.4258 130.068 52.8646C130.197 53.4885 130.405 54.0929 130.685 54.6644C131.015 54.152 131.299 53.612 131.534 53.0501C131.195 52.5699 130.882 52.0728 130.587 51.5638ZM136.767 47.3362C135.049 48.6476 133.19 49.7604 131.223 50.6556C131.237 50.6811 131.25 50.7072 131.264 50.7327C131.652 51.39 132.043 52.0192 132.462 52.6253C132.821 53.1234 133.202 53.6048 133.609 54.0657C134.025 53.4857 134.654 52.5707 135.292 51.5384C136.081 50.2626 136.859 48.8433 137.282 47.6683C137.179 47.6034 137.074 47.538 136.969 47.47C136.902 47.4264 136.835 47.3812 136.767 47.3362ZM129.244 50.1038C129.117 50.9081 129.066 51.7207 129.088 52.5315C129.339 51.8899 129.618 51.2379 129.891 50.6028C129.662 50.4536 129.446 50.2868 129.244 50.1038ZM42.7494 46.5735C42.2653 46.1931 41.5983 45.985 40.7465 46.1399L40.7406 46.1409L39.3373 46.3773L40.2299 51.4153L41.6283 51.1673C42.5081 51.0069 43.0678 50.573 43.3881 50.0481C43.7149 49.5125 43.814 48.845 43.6947 48.1995C43.5754 47.5537 43.2433 46.9618 42.7494 46.5735ZM126.847 39.5501C126.265 39.6152 125.726 39.677 125.234 39.7278C124.797 39.7735 124.391 39.8104 124.02 39.8314C124.616 43.2129 125.006 45.1594 125.375 46.2835C125.571 46.8779 125.742 47.1815 125.889 47.3421C126.011 47.4754 126.134 47.5292 126.334 47.5521C126.581 47.5802 126.779 47.5731 126.973 47.5237C127.169 47.4739 127.392 47.3738 127.676 47.1771C128.016 46.942 128.417 46.5875 128.941 46.0657C129.322 45.6662 129.762 45.1956 130.282 44.6439L130.292 44.6497L130.296 44.6468C130.449 44.4814 130.694 44.4388 130.894 44.5423C131.094 44.6461 131.2 44.8718 131.153 45.0921C130.866 46.4252 130.324 47.6892 129.563 48.8196C129.555 48.8722 129.547 48.9248 129.538 48.9769C129.76 49.2372 130.014 49.4672 130.291 49.6653L130.441 49.3167L130.714 49.7884C132.549 48.9618 134.287 47.9401 135.9 46.7386C134.89 46.0173 133.859 45.1934 132.953 44.3636C132.946 44.3577 132.941 44.3501 132.935 44.344C132.075 43.5851 131.302 42.7303 130.635 41.7962L130.544 41.6692L130.542 41.513C130.534 40.8595 130.42 40.4049 130.283 40.1155C130.141 39.8194 129.997 39.7378 129.946 39.722C129.922 39.7148 129.892 39.7069 129.836 39.7718C129.766 39.8532 129.67 40.0498 129.67 40.4114C129.67 40.4815 129.667 40.5552 129.657 40.6292C129.647 40.7067 129.63 40.7845 129.603 40.8587C129.547 41.0114 129.425 41.197 129.193 41.2786C128.98 41.3534 128.784 41.3 128.663 41.2493C128.535 41.1961 128.416 41.1151 128.312 41.0325C128.009 40.7929 127.631 40.3758 127.209 39.8636C127.124 39.7597 127.038 39.6505 126.949 39.5394C126.915 39.5431 126.881 39.5463 126.847 39.5501ZM35.8861 40.7718H35.8822C35.0297 40.9173 34.4757 41.3409 34.1518 41.8636C33.8213 42.3968 33.7118 43.0655 33.8207 43.7132C33.9297 44.3607 34.251 44.955 34.7406 45.347C35.2207 45.7312 35.8939 45.9478 36.7729 45.7981L38.1762 45.5608L37.2836 40.5228L35.8861 40.7718ZM123.414 35.387C123.041 35.3828 122.722 35.3936 122.452 35.4192C121.893 35.4721 121.601 35.5834 121.447 35.6995C121.322 35.7937 121.244 35.9233 121.22 36.1819C121.201 36.3948 121.221 36.6642 121.277 37.012L121.343 37.386L121.344 37.3909C121.443 37.9257 121.603 38.2358 121.794 38.428C121.982 38.6163 122.254 38.7454 122.691 38.8079C122.875 38.8343 123.081 38.8446 123.313 38.847C123.321 38.8452 123.329 38.8426 123.337 38.8411C123.406 38.8291 123.474 38.8327 123.538 38.848C123.783 38.8435 124.053 38.8293 124.352 38.806C124.484 38.7955 124.62 38.7834 124.761 38.7698C124.911 38.7557 125.066 38.7407 125.226 38.7239C125.784 38.6645 126.409 38.591 127.113 38.5149L127.387 38.4856L127.559 38.7024C128.028 39.296 128.411 39.7463 128.697 40.0286C128.748 39.6696 128.875 39.3554 129.079 39.1185C129.368 38.7844 129.798 38.6317 130.238 38.7659C130.649 38.8917 130.972 39.2373 131.185 39.6849C131.382 40.0982 131.506 40.6371 131.535 41.2981C131.877 41.6523 132.224 42.02 132.583 42.3997C132.465 41.512 132.359 40.7796 132.245 40.1722C132.064 39.2145 131.878 38.62 131.653 38.2327C131.445 37.8762 131.199 37.6866 130.832 37.5579C130.429 37.4163 129.89 37.3516 129.088 37.2796L128.677 37.2425L128.635 36.8323C128.604 36.5202 128.559 36.3448 128.493 36.2259C128.438 36.1275 128.347 36.0297 128.126 35.9329C127.89 35.8293 127.53 35.738 126.969 35.6575C126.431 35.5803 125.738 35.5173 124.838 35.4534C124.804 35.4512 124.769 35.4488 124.734 35.4466H124.731C124.231 35.4115 123.794 35.3918 123.414 35.387ZM66.3949 164.769C66.3948 166.517 64.978 167.934 63.2299 167.934C61.4817 167.934 60.064 166.518 60.0639 164.769C60.0639 163.02 61.4816 161.603 63.2299 161.603C64.9781 161.603 66.3949 163.02 66.3949 164.769Z" fill="white"/>
</svg>
