<svg width="200" height="200" viewBox="0 0 200 200" fill="none" xmlns="http://www.w3.org/2000/svg">
<path d="M96.9155 102.438C91.3385 106.238 87.4441 112.553 84.7765 118.81C81.5159 126.439 49.5475 168.54 50.3495 169.192C50.648 169.677 50.9614 170.143 51.2898 170.592L49.4988 172.576C51.5783 175.601 56.5692 179.117 59.991 179.854C60.4388 179.026 60.9482 178.231 61.5134 177.476C62.3324 177.682 63.1631 177.839 64.0009 177.945C68.9142 171.907 81.7607 155.856 93.2022 140.668C90.9137 152.69 88.1754 165.294 85.3417 180.346C85.9287 180.631 86.5287 180.887 87.1327 181.126L86.1317 185.658C89.9875 186.755 94.0726 186.755 97.9284 185.658L98.6776 182.885C99.4935 182.835 100.31 182.757 101.123 182.652C109.045 158.681 115.153 127.299 118.743 103.27L96.9155 102.438ZM88.8998 141.343C85.5347 140.568 80.8652 137.263 78.7667 134.651L87.5625 121.476C90.2475 124.946 93.8584 127.587 97.9792 129.095L88.8998 141.343Z" fill="#339458"/>
<path d="M56.7832 114.859L54.1176 116.466L57.0478 121.514C47.2381 125.808 36.5399 127.682 25.8546 126.977L33.3599 140.079L61.8497 123.631L56.7832 114.859Z" fill="#339458"/>
<path d="M48.2759 99.981L35.0424 107.581C39.2927 107.283 43.4834 106.413 47.5008 104.994L49.0699 107.792C50.0475 107.331 51.0667 106.965 52.1136 106.697L48.2759 99.981Z" fill="#339458"/>
<path d="M49.845 109.075L50.2799 109.831L51.5087 109.15C50.9535 109.16 50.3973 109.135 49.845 109.075Z" fill="#B6E7FA"/>
<path d="M123.953 52.3399C122.913 52.4533 121.797 54.0035 121.06 56.2343C121.856 55.8363 122.705 55.3647 123.747 54.7597C124.34 54.4014 125.02 54.2118 125.713 54.2115C125.427 53.2105 124.86 52.2274 123.953 52.3399Z" fill="#B6E7FA"/>
<path d="M125.181 62.0581C123.707 62.7954 121.779 63.7406 120.663 64.3834C120.962 65.253 121.417 65.8142 121.987 65.9147C123.098 66.1107 124.35 64.4789 125.181 62.0581Z" fill="#B6E7FA"/>
<path d="M128.017 66.7087C128.017 66.6898 126.486 67.7863 124.369 69.1853L134.219 67.5216L128.017 66.7087Z" fill="#B6E7FA"/>
<path d="M110.889 68.1831L112.534 70.7164C112.453 70.0767 112.409 69.4328 112.402 68.7881C112.402 68.7692 111.532 68.4289 110.889 68.1831Z" fill="#B6E7FA"/>
<path d="M104.273 60.4887C97.3911 65.3851 99.4896 68.1502 107.392 65.6686L107.242 65.1831C107.522 64.7899 107.678 64.3222 107.691 63.8398C107.705 63.3573 107.574 62.8817 107.316 62.4737C105.824 60.5643 107.562 59.2409 108.432 60.7155C108.904 61.5285 109.112 61.226 109.112 60.5265C108.753 60.3374 108.753 60.1285 109.074 59.9404C109.036 59.5898 108.973 59.2424 108.885 58.9007C109.002 59.0616 109.152 59.1952 109.325 59.2921C109.499 59.3891 109.691 59.447 109.889 59.4618C110.088 59.4762 110.287 59.447 110.473 59.3762C110.658 59.3053 110.826 59.1947 110.965 59.0519C109.188 58.5415 109.434 58.031 109.771 57.9932C112.403 57.8609 113.374 58.1992 117.432 57.8798C118.502 57.4281 120.574 56.5365 121.591 55.9704C121.521 52.4391 109.998 56.3276 104.273 60.4887Z" fill="#B6E7FA"/>
<path d="M116.958 61.0747C116.617 61.3016 116.261 61.5284 115.899 61.7553C115.805 61.3394 115.823 61.5851 115.975 61.0936C116.296 61.0747 116.617 61.0747 116.958 61.0747Z" fill="#B6E7FA"/>
<path d="M93.234 140.646L91.6649 148.643L110.211 116.674C106.295 122.932 99.9622 131.704 93.234 140.646Z" fill="#B6E7FA"/>
<path d="M110.284 193.069C107.052 190.328 102.25 186.906 97.9394 185.659C94.0836 186.755 89.9984 186.755 86.1426 185.659C85.3438 187.933 84.8542 190.305 84.6869 192.71C84.6739 192.929 84.7057 193.148 84.7805 193.355C84.8553 193.561 84.9714 193.75 85.1218 193.909C85.2725 194.069 85.4543 194.195 85.6558 194.282C85.8574 194.368 86.0746 194.412 86.2939 194.412C93.8559 194.431 100.359 194.506 109.755 194.525C109.923 194.522 110.086 194.469 110.224 194.372C110.361 194.274 110.465 194.138 110.523 193.98C110.58 193.822 110.587 193.65 110.545 193.488C110.502 193.325 110.411 193.179 110.284 193.069Z" fill="#B6E7FA"/>
<path d="M58.1632 188.555C58.0219 185.539 58.6607 182.537 60.0159 179.84C56.5941 179.103 51.6032 175.586 49.5237 172.562L48.26 173.975C46.2382 175.721 46.3814 178.612 47.2958 181.122C48.3545 184.071 49.3187 189.062 50.453 191.538C50.9056 192.454 51.6105 193.222 52.4846 193.75C53.3588 194.279 54.3658 194.547 55.3872 194.523H62.9681C61.4527 190.574 60.3562 190.612 58.1632 188.555Z" fill="#B6E7FA"/>
<path d="M98.7334 95.709L96.6727 98.9985L96.5215 97.0134L98.7334 95.709Z" fill="#B6E7FA"/>
<path d="M42.094 111.627L41.4701 108.942L44.1546 108.318L44.7785 111.003L42.094 111.627Z" fill="#B6E7FA"/>
<path d="M36.6872 112.289L36.4225 109.547L39.1448 109.283L39.4284 112.024L36.6872 112.289Z" fill="#B6E7FA"/>
<path d="M31.3181 112.44V109.699H34.0783V112.44H31.3181Z" fill="#B6E7FA"/>
<path d="M126.543 83.9497C124.869 85.0232 123.14 86.0076 121.363 86.8989C121.325 86.2231 121.225 85.5523 121.064 84.895L126.543 83.9497Z" fill="#B6E7FA"/>
<path d="M107.089 37.8595L95.1414 29.1035H60.1861V46.6125H82.687L82.6114 46.4613C89.4672 42.4991 97.1099 40.0918 104.999 39.4097L107.089 37.8595ZM91.2848 40.8654C91.3119 40.891 91.3305 40.9243 91.3379 40.9608C91.3454 40.9973 91.3414 41.0352 91.3266 41.0694C91.317 41.0923 91.3027 41.1129 91.2848 41.1301C91.2677 41.148 91.2472 41.1622 91.2244 41.1719C91.2017 41.1816 91.1772 41.1866 91.1525 41.1866C91.1277 41.1866 91.1032 41.1816 91.0805 41.1719C91.0577 41.1622 91.0372 41.148 91.0201 41.1301L87.5605 37.6476L84.08 41.1112C84.0544 41.1383 84.0211 41.1568 83.9846 41.1643C83.9481 41.1718 83.9102 41.1678 83.876 41.153C83.8531 41.1433 83.8325 41.1291 83.8153 41.1112C83.7882 41.0856 83.7697 41.0523 83.7622 41.0158C83.7547 40.9793 83.7587 40.9414 83.7735 40.9072C83.7832 40.8843 83.7974 40.8637 83.8153 40.8465L87.2978 37.3869L83.8382 33.9044C83.8031 33.8693 83.7834 33.8217 83.7834 33.7721C83.7834 33.7224 83.8031 33.6748 83.8382 33.6397C83.8733 33.6046 83.9209 33.5849 83.9705 33.5849C84.0202 33.5849 84.0678 33.6046 84.1029 33.6397L87.5625 37.1222L91.045 33.6626C91.0802 33.6277 91.1278 33.6082 91.1773 33.6082C91.2269 33.6082 91.2745 33.6277 91.3097 33.6626C91.3445 33.6978 91.3641 33.7454 91.3641 33.7949C91.3641 33.8445 91.3445 33.8921 91.3097 33.9273L87.8272 37.3869L91.2848 40.8654Z" fill="#B6E7FA"/>
<path d="M49.845 109.075L50.2799 109.831" stroke="white" stroke-linecap="round" stroke-linejoin="round"/>
<path d="M12.3753 194.506H187.625" stroke="white" stroke-linecap="round" stroke-linejoin="round"/>
<path d="M60.1861 179.533V190.252" stroke="white" stroke-linecap="round" stroke-linejoin="round"/>
<path d="M60.1861 124.596V154.768" stroke="white" stroke-linecap="round" stroke-linejoin="round"/>
<path d="M60.1861 5.4751V68.183" stroke="white" stroke-linecap="round" stroke-linejoin="round"/>
<path d="M60.1861 11.6001V29.1061H29.9192L17.9712 20.3531L29.9192 11.6001H60.1861Z" stroke="white" stroke-linecap="round" stroke-linejoin="round"/>
<path d="M82.683 46.6125H60.1861V29.1064H95.1414L107.089 37.8595L104.972 39.4097" stroke="white" stroke-linecap="round" stroke-linejoin="round"/>
<path d="M77.7488 76.3311H70.8674" stroke="white" stroke-linecap="round" stroke-linejoin="round"/>
<path d="M68.0506 84.8952L74.3081 65.9146L80.5846 84.8952" stroke="white" stroke-linecap="round" stroke-linejoin="round"/>
<path d="M94.9335 79.0347L78.2025 49.9966C68.8199 55.4097 61.522 63.8111 57.4749 73.8588C53.4277 83.9066 52.8647 95.0208 55.8757 105.426" stroke="white" stroke-linecap="round" stroke-linejoin="round"/>
<path d="M99.7353 76.1989L82.5875 46.4425C89.7394 42.322 97.735 39.8826 105.969 39.3089C114.203 38.7351 122.46 40.0421 130.114 43.1309C137.768 46.2197 144.619 51.0093 150.149 57.1372C155.679 63.2651 159.742 70.5707 162.031 78.5009C164.32 86.4311 164.774 94.7781 163.361 102.91C161.947 111.042 158.702 118.746 153.871 125.438C149.04 132.131 142.75 137.637 135.477 141.539C128.204 145.441 120.138 147.638 111.89 147.962" stroke="white" stroke-linecap="round" stroke-linejoin="round"/>
<path d="M90.3584 144.446C91.0201 144.692 91.6818 144.937 92.3624 145.164" stroke="white" stroke-linecap="round" stroke-linejoin="round"/>
<path d="M65.3282 113.574L60.1294 116.616C59.5622 115.69 59.2975 115.217 59.2975 115.217" stroke="white" stroke-linecap="round" stroke-linejoin="round"/>
<path d="M74.3648 134.918C69.7562 130.975 65.8449 126.284 62.795 121.042L96.824 101.172" stroke="white" stroke-linecap="round" stroke-linejoin="round"/>
<path d="M125.181 62.0576C123.707 62.7949 121.773 63.7302 120.663 64.383C120.379 64.5501 120.136 64.6874 119.983 64.7989C117.064 66.9212 117.694 65.573 118.319 64.4397C118.602 63.9282 119.764 62.7422 120.247 61.8308C120.385 61.4597 120.392 61.0527 120.266 60.6776C118.494 61.004 116.695 61.1685 114.893 61.1691C113.666 61.2706 112.432 61.2389 111.212 61.0746C107.928 60.6298 108.227 59.8129 111.268 59.4299C113.381 59.158 115.455 58.6442 117.45 57.8985C119.635 57.0299 121.747 55.9868 123.765 54.7792C124.353 54.4229 125.028 54.2331 125.716 54.23" stroke="white" stroke-linecap="round" stroke-linejoin="round"/>
<path d="M121.06 56.2349C121.797 54.0041 122.914 52.4619 123.953 52.3405C124.861 52.234 125.428 53.2101 125.711 54.2121C126.244 56.8272 126.061 59.5379 125.181 62.0577C124.371 64.4845 123.098 66.1103 121.987 65.9143C121.417 65.8148 120.966 65.2526 120.663 64.383" stroke="white" stroke-linecap="round" stroke-linejoin="round"/>
<path d="M109.112 60.5456C109.112 61.2421 108.907 61.5267 108.432 60.7157C107.567 59.2382 105.823 60.5645 107.316 62.4739C107.571 62.883 107.7 63.358 107.687 63.8398C107.673 64.3216 107.519 64.7888 107.242 65.1833" stroke="white" stroke-linecap="round" stroke-linejoin="round"/>
<path d="M110.965 59.0516C110.756 59.2664 110.482 59.4063 110.186 59.4498C109.889 59.4934 109.587 59.438 109.325 59.2924C109.152 59.1953 109.002 59.0615 108.885 58.9004C108.973 59.2556 109.037 59.6168 109.075 59.98" stroke="white" stroke-linecap="round" stroke-linejoin="round"/>
<path d="M114.349 55.5547C114.349 55.5736 114.349 55.5736 114.368 55.5925C114.614 56.4621 114.84 57.275 115.048 58.0501" stroke="white" stroke-linecap="round" stroke-linejoin="round"/>
<path d="M112.421 68.769C112.421 68.769 111.532 68.4287 110.889 68.1641L112.534 70.7162" stroke="white" stroke-linecap="round" stroke-linejoin="round"/>
<path d="M124.289 69.1988L134.218 67.5213L128.017 66.6895" stroke="white" stroke-linecap="round" stroke-linejoin="round"/>
<path d="M120.266 60.6777C120.701 60.6021 121.193 60.4508 121.741 60.3374" stroke="white" stroke-linecap="round" stroke-linejoin="round"/>
<path d="M111.759 59.3544L111.154 59.1087C109.169 58.5982 109.363 58.0311 109.736 58.0142C110.492 57.9764 112.704 58.1276 115.01 58.052L117.429 57.8818" stroke="white" stroke-linecap="round" stroke-linejoin="round"/>
<path d="M130.721 53.4341C131.453 55.6617 131.651 58.0302 131.3 60.3486C130.948 62.667 130.057 64.8703 128.698 66.781" stroke="white" stroke-linecap="round" stroke-linejoin="round"/>
<path d="M107.381 65.6727C100.444 67.8438 98.1722 65.9642 101.898 62.4051C104.906 59.5335 110.686 56.5983 114.605 55.4739C117.365 54.6242 120.575 54.2013 121.391 55.3396" stroke="white" stroke-linecap="round" stroke-linejoin="round"/>
<path d="M116.958 61.0747C116.617 61.3016 116.261 61.5284 115.899 61.7553" stroke="white" stroke-linecap="round" stroke-linejoin="round"/>
<path d="M104.291 60.4887C104.085 59.5019 104.13 58.4792 104.42 57.5139C104.71 56.5486 105.238 55.6713 105.954 54.962C106.671 54.2528 107.553 53.7341 108.521 53.4534C109.489 53.1726 110.513 53.1386 111.497 53.3545C112.815 53.6431 113.999 54.3643 114.859 55.4032" stroke="white" stroke-linecap="round" stroke-linejoin="round"/>
<path d="M106.352 73.0606V78.6943L111.74 74.3461L116.958 77.6923L115.067 72.3989" stroke="white" stroke-linecap="round" stroke-linejoin="round"/>
<path d="M115.067 72.3987C115.167 72.3818 121.41 70.6505 122.752 70.0505C124.581 69.0502 126.34 67.9272 128.017 66.6894L121.816 65.8765" stroke="white" stroke-linecap="round" stroke-linejoin="round"/>
<path d="M110.209 116.674L91.6629 148.643" stroke="white" stroke-linecap="round" stroke-linejoin="round"/>
<path d="M98.6955 182.861L97.9204 185.659" stroke="white" stroke-linecap="round" stroke-linejoin="round"/>
<path d="M86.1426 185.659L87.1436 181.126" stroke="white" stroke-linecap="round" stroke-linejoin="round"/>
<path d="M109.751 194.525C100.355 194.516 93.8519 194.426 86.2899 194.412C86.0705 194.413 85.8532 194.369 85.6516 194.282C85.4499 194.196 85.2682 194.069 85.1178 193.909C84.9677 193.749 84.8518 193.561 84.7771 193.354C84.7023 193.148 84.6703 192.929 84.683 192.71C84.8498 190.305 85.3394 187.933 86.1387 185.659C89.9945 186.755 94.0796 186.755 97.9354 185.659C102.246 186.906 107.041 190.335 110.28 193.069C110.407 193.179 110.498 193.325 110.541 193.488C110.584 193.65 110.576 193.822 110.519 193.98C110.461 194.138 110.357 194.274 110.22 194.372C110.083 194.469 109.919 194.523 109.751 194.525Z" stroke="white" stroke-linecap="round" stroke-linejoin="round"/>
<path d="M61.5283 177.473C60.8403 178.344 60.2578 179.293 59.793 180.301C58.5904 182.885 58.0312 185.723 58.1632 188.57C60.3522 190.631 61.4527 190.574 62.9651 194.525H55.3842C54.3632 194.548 53.3568 194.279 52.483 193.75C51.6091 193.222 50.904 192.455 50.45 191.54C49.3237 189.06 48.3535 184.072 47.2929 181.124C46.463 178.816 46.1586 175.751 48.257 173.978L51.3097 170.605" stroke="white" stroke-linecap="round" stroke-linejoin="round"/>
<path d="M60.001 179.855C56.5792 179.117 51.5883 175.601 49.5087 172.576" stroke="white" stroke-linecap="round" stroke-linejoin="round"/>
<path d="M58.1632 188.57C56.6707 187.549 51.6221 188.57 51.6221 188.57" stroke="white" stroke-linecap="round" stroke-linejoin="round"/>
<path d="M102.687 107.43C100.626 110.889 97.413 112.56 93.045 112.44" stroke="white" stroke-linecap="round" stroke-linejoin="round"/>
<path d="M78.7697 134.653C80.8681 137.262 85.5357 140.57 88.9028 141.345L97.9772 129.114C93.8567 127.606 90.2464 124.963 87.5625 121.492L78.7697 134.653Z" stroke="white" stroke-linecap="round" stroke-linejoin="round"/>
<path d="M87.5605 121.495L88.6948 131.534L97.9772 129.114" stroke="white" stroke-linecap="round" stroke-linejoin="round"/>
<path d="M110.398 148.357C110.97 148.399 111.537 148.233 111.996 147.889C112.455 147.545 112.774 147.046 112.893 146.486L115.767 132.099C115.813 131.862 115.807 131.618 115.749 131.384C115.691 131.15 115.582 130.931 115.43 130.744C115.278 130.556 115.087 130.404 114.87 130.299C114.653 130.193 114.416 130.137 114.175 130.133" stroke="white" stroke-linecap="round" stroke-linejoin="round"/>
<path d="M135.693 112.515C135.693 112.515 146.412 113.93 146.412 106.866C146.412 100.646 135.693 100.703 135.693 100.703C135.693 100.703 143.255 101.001 143.255 97.0919C143.255 93.2164 135.693 93.5378 135.693 93.5378V112.515Z" stroke="white" stroke-linecap="round" stroke-linejoin="round"/>
<path d="M155.259 149.85C155.263 150.556 155.057 151.248 154.667 151.838C154.377 152.279 153.992 152.651 153.54 152.925C153.088 153.2 152.581 153.371 152.055 153.425C151.53 153.48 150.998 153.417 150.5 153.241C150.001 153.066 149.548 152.781 149.173 152.409C148.67 151.912 148.326 151.277 148.184 150.584C148.042 149.892 148.109 149.173 148.376 148.518C148.643 147.863 149.098 147.303 149.684 146.907C150.27 146.511 150.96 146.299 151.667 146.295C152.137 146.292 152.602 146.382 153.037 146.559C153.472 146.736 153.867 146.997 154.201 147.327C154.535 147.657 154.8 148.05 154.982 148.483C155.163 148.916 155.258 149.38 155.259 149.85Z" stroke="white" stroke-linecap="round" stroke-linejoin="round"/>
<path d="M164.561 158.889C164.565 159.596 164.359 160.288 163.969 160.877C163.677 161.318 163.292 161.688 162.84 161.962C162.388 162.236 161.882 162.406 161.356 162.46C160.831 162.515 160.3 162.453 159.802 162.278C159.303 162.103 158.85 161.819 158.474 161.448C157.971 160.952 157.627 160.317 157.485 159.624C157.343 158.931 157.41 158.212 157.677 157.558C157.944 156.903 158.4 156.342 158.986 155.947C159.571 155.551 160.262 155.338 160.969 155.335C161.438 155.331 161.904 155.42 162.339 155.597C162.774 155.774 163.17 156.035 163.503 156.366C163.836 156.696 164.101 157.089 164.283 157.522C164.464 157.955 164.559 158.42 164.561 158.889Z" stroke="white" stroke-linecap="round" stroke-linejoin="round"/>
<path d="M148.189 162.557L164.485 146.072" stroke="white" stroke-linecap="round" stroke-linejoin="round"/>
<path d="M35.8364 18.6517L39.0314 23.1322L42.7557 16.6289" stroke="white" stroke-linecap="round" stroke-linejoin="round"/>
<path d="M148.832 27.7828L144.786 27.1967L142.971 23.5103L141.156 27.1967L137.092 27.7828L140.022 30.6563L139.341 34.6831L142.971 32.7737L146.601 34.6831L145.901 30.6563L148.832 27.7828Z" stroke="white" stroke-linecap="round" stroke-linejoin="round"/>
<path d="M37.0752 82.0024V87.7685" stroke="white" stroke-linecap="round" stroke-linejoin="round"/>
<path d="M39.9577 84.8862H34.1917" stroke="white" stroke-linecap="round" stroke-linejoin="round"/>
<path d="M64.1939 112.402C62.0828 113.821 59.8344 115.024 57.4827 115.994" stroke="white" stroke-linecap="round" stroke-linejoin="round"/>
<path d="M42.094 111.627L41.4701 108.942L44.1546 108.318L44.7785 111.003L42.094 111.627Z" stroke="white" stroke-linecap="round" stroke-linejoin="round"/>
<path d="M36.6872 112.288L36.4225 109.547L39.1448 109.282L39.4284 112.023L36.6872 112.288Z" stroke="white" stroke-linecap="round" stroke-linejoin="round"/>
<path d="M31.3181 112.439V109.698H34.0783V112.439H31.3181Z" stroke="white" stroke-linecap="round" stroke-linejoin="round"/>
<path d="M56.8021 114.859L61.8497 123.631L33.3788 140.079L25.8546 126.977" stroke="white" stroke-linecap="round" stroke-linejoin="round"/>
<path d="M51.5087 109.15L49.0699 110.492L53.0022 117.147L56.8021 114.859L53.4181 108.98" stroke="white" stroke-linecap="round" stroke-linejoin="round"/>
<path d="M49.0699 107.789L47.4779 104.991C38.4342 108.101 28.6935 108.578 19.3891 106.368C19.4349 113.272 20.5183 120.129 22.6029 126.71C34.3418 128.025 46.2201 126.233 57.0478 121.511L54.1365 116.464" stroke="white" stroke-linecap="round" stroke-linejoin="round"/>
<path d="M35.0235 107.581L48.257 99.981L52.1136 106.692" stroke="white" stroke-linecap="round" stroke-linejoin="round"/>
<path d="M181.988 99.6022C182.065 100.032 182.012 100.475 181.836 100.875C181.659 101.275 181.368 101.613 180.999 101.847C180.631 102.081 180.201 102.201 179.765 102.191C179.329 102.181 178.905 102.042 178.547 101.792C178.28 101.605 178.057 101.361 177.895 101.077C177.734 100.793 177.637 100.477 177.613 100.151C177.588 99.8257 177.637 99.4987 177.754 99.1939C177.871 98.8892 178.055 98.6144 178.292 98.3893C178.58 98.1131 178.938 97.9205 179.328 97.832C179.718 97.7436 180.124 97.7627 180.504 97.8872C180.883 98.0118 181.222 98.2371 181.483 98.5392C181.745 98.8413 181.919 99.2087 181.988 99.6022Z" stroke="white" stroke-linecap="round" stroke-linejoin="round"/>
<path d="M60.0726 109.566C58.8438 109.944 55.4409 110.908 53.9852 108.904C53.9852 108.904 49.9057 109.585 48.7485 108.659C47.5914 107.732 52.0579 106.79 53.7235 106.22C55.6538 105.534 57.5582 104.777 59.4329 103.951" stroke="white" stroke-linecap="round" stroke-linejoin="round"/>
<path d="M121.363 86.8989C121.325 86.2231 121.225 85.5523 121.064 84.895L126.547 83.9497" stroke="white" stroke-linecap="round" stroke-linejoin="round"/>
<path d="M96.9155 102.439C91.3385 106.239 87.4481 112.555 84.7765 118.811C83.7198 121.288 79.503 127.583 74.3598 134.918C69.8416 141.364 64.6088 148.606 60.1811 154.768C54.436 162.767 50.048 168.947 50.3505 169.196C51.787 171.617 53.769 173.669 56.1387 175.189C58.5083 176.709 61.2002 177.655 63.9999 177.951C71.8455 168.31 99.9194 133.147 110.204 116.699" stroke="white" stroke-linecap="round" stroke-linejoin="round"/>
<path d="M104.499 126.505L91.6629 182.426" stroke="white" stroke-linecap="round" stroke-linejoin="round"/>
<path d="M118.773 103.252C115.181 127.28 109.074 158.663 101.153 182.634C95.7802 183.445 90.2878 182.649 85.3675 180.346C88.1804 165.393 88.6391 164.053 93.228 140.645" stroke="white" stroke-linecap="round" stroke-linejoin="round"/>
<path d="M124.365 52.3667L141.877 55.101C148.512 56.1218 150.27 62.9246 145.128 68.618C139.309 75.0607 129.02 83.1162 121.365 86.8992C121.648 92.7786 120.079 98.0153 118.778 103.271L96.9155 102.439C96.617 98.2959 96.7095 99.5188 96.5175 97.0133L66.4496 114.627C62.6893 111.231 60.0282 106.789 58.807 101.872C58.807 101.872 90.0749 82.0217 95.9732 78.4088C99.2732 76.3315 102.746 74.5415 106.352 73.0587" stroke="white" stroke-linecap="round" stroke-linejoin="round"/>
<path d="M80.5089 136.487L53.9663 173.522" stroke="white" stroke-linecap="round" stroke-linejoin="round"/>
<path d="M98.7334 111.268L89.6212 123.764" stroke="white" stroke-linecap="round" stroke-linejoin="round"/>
<path d="M64.0049 98.582C65.201 103.601 67.9618 108.109 71.8883 111.456" stroke="white" stroke-linecap="round" stroke-linejoin="round"/>
<path d="M104.917 60.0566C105.695 61.394 106.365 62.7915 106.92 64.2356C107.809 66.327 108.046 68.6381 107.6 70.8663C107.454 71.7154 107.02 72.4883 106.371 73.0553C109.377 75.1727 112.629 74.9269 115.067 72.3936C113.593 72.6016 112.746 72.4116 112.534 70.7111C112.455 70.065 112.418 69.4147 112.421 68.7639C112.919 68.9053 113.434 68.9815 113.952 68.9907C116.277 68.9907 116.92 66.949 115.899 61.7501L115.77 61.1054" stroke="white" stroke-linecap="round" stroke-linejoin="round"/>
<path d="M96.5215 97.0129L98.7334 95.7085L96.6727 98.998" stroke="white" stroke-linecap="round" stroke-linejoin="round"/>
<path d="M84.1934 33.563C84.1227 33.4971 84.0291 33.4612 83.9325 33.4629C83.8358 33.4647 83.7436 33.5038 83.6752 33.5722C83.6069 33.6405 83.5677 33.7328 83.566 33.8294C83.5643 33.9261 83.6002 34.0197 83.6661 34.0904L84.1934 33.563ZM90.9296 41.3539C90.9637 41.3905 91.0049 41.4199 91.0507 41.4403C91.0965 41.4607 91.1459 41.4717 91.196 41.4726C91.2461 41.4735 91.2958 41.4643 91.3423 41.4455C91.3888 41.4267 91.431 41.3988 91.4664 41.3634C91.5018 41.3279 91.5298 41.2857 91.5485 41.2393C91.5673 41.1928 91.5765 41.143 91.5756 41.0929C91.5747 41.0428 91.5638 40.9934 91.5434 40.9477C91.523 40.9019 91.4936 40.8607 91.4569 40.8265L90.9296 41.3539ZM83.6661 34.0904L90.9296 41.3539L91.4569 40.8265L84.1934 33.563L83.6661 34.0904Z" fill="white"/>
<path d="M91.4569 34.0904C91.5228 34.0197 91.5587 33.9261 91.557 33.8294C91.5553 33.7328 91.5161 33.6405 91.4478 33.5722C91.3794 33.5038 91.2872 33.4647 91.1905 33.4629C91.0939 33.4612 91.0003 33.4971 90.9296 33.563L91.4569 34.0904ZM83.6661 40.8265C83.6002 40.8973 83.5643 40.9908 83.566 41.0875C83.5677 41.1841 83.6069 41.2764 83.6752 41.3447C83.7436 41.4131 83.8358 41.4523 83.9325 41.454C84.0291 41.4557 84.1227 41.4198 84.1934 41.3539L83.6661 40.8265ZM90.9296 33.563L83.6661 40.8265L84.1934 41.3539L91.4569 34.0904L90.9296 33.563Z" fill="white"/>
</svg>
