<svg width="200" height="200" viewBox="0 0 200 200" fill="none" xmlns="http://www.w3.org/2000/svg">
<path d="M141.968 105.879L116.522 112.685C109.719 114.767 102.541 115.322 95.4996 114.311C93.433 119.402 92.239 125.77 94.7812 130.664V130.683C91.8049 137.688 88.1515 144.387 83.873 150.682C73.4827 149.233 63.1821 147.201 53.0201 144.595C49.3505 149.861 47.656 153.181 48.5963 161.987C59.7692 165.579 68.9192 168.283 79.6194 170.684C83.0283 171.452 86.5858 171.229 89.8719 170.04C93.1581 168.852 96.0357 166.749 98.1652 163.978C103.723 156.542 108.836 148.784 113.478 140.744L103.482 137.234C112.187 139.607 123.356 135.225 130.477 131.59V131.609L124.706 155.788C129.218 159.437 136.099 160.816 141.664 159.89L154.235 118.597C154.759 116.874 154.813 115.041 154.392 113.29C153.97 111.538 153.089 109.931 151.838 108.635C150.587 107.338 149.013 106.399 147.278 105.914C145.543 105.43 143.71 105.418 141.968 105.879Z" fill="#89B81F"/>
<path d="M151.061 79.318L155.977 78.4295L144.161 13.453L137.639 5.4751L151.061 79.318Z" fill="#89B81F"/>
<path d="M136.996 5.58838L133.688 15.3623L145.522 80.3387L150.419 79.4502L136.996 5.58838Z" fill="#89B81F"/>
<path d="M83.7218 118.716C83.6651 118.149 82.7765 117.544 80.7159 117.279L81.094 120.21C82.6631 120.021 83.7815 119.378 83.7218 118.716Z" fill="#00441A"/>
<path d="M73.3041 117.506C70.7171 117.904 69.6823 118.564 69.6564 119.17C69.6246 119.888 71.0365 120.531 72.9837 120.455C73.1479 120.313 73.2722 120.131 73.3429 119.926C73.4328 119.121 73.4191 118.308 73.3041 117.506Z" fill="#00441A"/>
<path d="M51.1862 147.244C49.0815 146.426 46.9286 145.738 44.7396 145.183C38.9169 148.529 30.8096 152.111 22.6019 159.192C22.4413 159.325 22.323 159.503 22.2616 159.702C27.2943 159.91 32.335 159.771 37.3478 159.286C40.883 159.003 44.7964 158.398 48.3316 158.927C48.2391 154.526 48.7346 151.36 51.1862 147.244Z" fill="#00441A"/>
<path d="M139.227 171.441C138.928 167.811 138.3 163.766 138.905 160.198C134.842 160.331 130.814 159.399 127.222 157.494C126.456 159.513 125.793 161.57 125.237 163.657C128.753 169.574 132.383 177.949 139.642 186.72C139.852 181.624 139.712 176.519 139.227 171.441Z" fill="#00441A"/>
<path d="M105.803 57.0668C105.658 56.7173 105.398 56.4278 105.066 56.2461C104.734 56.0644 104.35 56.0014 103.978 56.0676C103.605 56.1337 103.266 56.325 103.017 56.6098C102.768 56.8946 102.624 57.2559 102.608 57.6339C102.57 57.6339 102.551 57.6528 102.513 57.6528C102.354 57.2929 102.073 57.0007 101.72 56.8275C101.366 56.6542 100.963 56.6111 100.581 56.7056C100.199 56.8004 99.8621 57.0274 99.631 57.3464C99.3999 57.6654 99.2892 58.056 99.3184 58.4488C99.2995 58.4488 99.2806 58.4677 99.2617 58.4677C99.0732 58.0811 98.7424 57.7824 98.3385 57.6344C97.9346 57.4864 97.4891 57.5006 97.0955 57.674C96.7018 57.8474 96.3907 58.1665 96.2272 58.5644C96.0638 58.9623 96.0608 59.408 96.219 59.808C96.0458 59.4938 95.775 59.2445 95.4476 59.0978C95.1201 58.9511 94.7538 58.9151 94.4041 58.9951C94.1395 59.0598 93.8944 59.1874 93.6897 59.3671C93.4851 59.5468 93.3268 59.7733 93.2284 60.0273C93.1301 60.2813 93.0945 60.5553 93.1247 60.826C93.1549 61.0967 93.2501 61.3561 93.4021 61.5821C94.5175 63.6805 100.227 74.8723 98.9413 78.8951C100.567 75.2275 99.7373 70.1043 99.395 69.8207C96.0677 67.0606 98.5254 63.979 100.132 66.0397C100.907 67.0228 101.267 66.9849 101.475 66.3611C102.136 63.1472 106.125 58.4588 108.241 64.9054C105.527 56.1534 105.958 57.5334 105.803 57.0668Z" fill="#00441A"/>
<path d="M91.8698 98.3929C90.2387 98.9671 88.6579 99.6753 87.1436 100.51L90.8678 96.2944C91.239 96.975 91.5743 97.6755 91.8698 98.3929Z" fill="#00441A"/>
<path d="M117.127 110.095L108.431 96.5024L117.278 106.692C117.352 107.829 117.301 108.97 117.127 110.095Z" fill="#00441A"/>
<path d="M115.539 137.148C114.858 138.342 114.178 139.53 113.459 140.74L102.57 136.921C106.446 138.301 111.21 138.075 115.539 137.148Z" fill="#00441A"/>
<path d="M152.517 98.9979L156.014 98.3552L154.994 92.7593C153.973 92.9861 152.763 93.1573 151.511 93.421L152.517 98.9979Z" fill="#00441A"/>
<path d="M152.914 81.4165L152.479 79.0723L148.982 79.715L149.417 82.0593C150.048 81.9458 152.542 81.4931 152.914 81.4165Z" fill="#00441A"/>
<path d="M132.667 181.67C127.58 186.719 121.823 191.045 115.558 194.525C102.494 190.082 90.5833 181.67 80.5457 170.875" stroke="white" stroke-linecap="round" stroke-linejoin="round"/>
<path d="M141.023 54.7603C127.545 49.5323 114.423 43.432 101.738 36.498C84.0411 49.6034 65.5827 61.6481 46.46 72.5688L48.9366 100.775C50.5493 117.032 55.4847 132.784 63.4367 147.054" stroke="white" stroke-linecap="round" stroke-linejoin="round"/>
<path d="M139.34 174.354C158.037 151.46 167.376 118.659 164.919 90.6044L162.442 62.4171C159.093 61.3291 155.759 60.1947 152.441 59.0142" stroke="white" stroke-linecap="round" stroke-linejoin="round"/>
<path d="M95.4807 82.2483C101.341 80.2255 99.8716 70.2377 99.394 69.8277C96.1026 67.0059 98.5184 63.9901 100.131 66.0467C100.696 66.7671 101.291 67.2129 101.485 66.3144C102.24 62.817 106.906 57.626 108.771 66.992C111.319 79.7917 102.041 74.4216 102.041 74.4216" stroke="white" stroke-linecap="round" stroke-linejoin="round"/>
<path d="M72.9838 120.455C71.0365 120.531 69.6246 119.887 69.6565 119.169C69.7291 117.532 75.6732 117.22 77.2901 117.17C78.8602 117.123 83.6203 117.148 83.7218 118.716C83.7218 118.935 83.5397 119.91 81.094 120.208" stroke="white" stroke-linecap="round" stroke-linejoin="round"/>
<path d="M81.1318 120.776C81.4731 123.08 81.6561 125.404 81.68 127.733C81.4532 129 78.297 135.369 76.3299 138.131C75.0802 139.888 73.3817 140.401 74.8742 136.865C75.7285 134.742 76.4359 132.562 76.9916 130.342C78.5438 124.444 74.1926 123.196 72.4733 125.597C70.0067 129.043 68.1241 130.059 68.9569 127.431C69.4664 125.824 69.7321 124.86 70.0912 123.631C70.3698 122.685 72.2275 121.278 72.9588 120.492C73.123 120.342 73.2484 120.154 73.324 119.945C73.4036 119.14 73.3917 118.328 73.2862 117.525C75.7331 117.162 78.2146 117.092 80.678 117.317C80.678 117.317 80.8024 118.181 81.1318 120.776Z" stroke="white" stroke-linecap="round" stroke-linejoin="round"/>
<path d="M76.1597 133.233C74.9187 134.722 73.496 136.049 71.925 137.184C69.9768 138.525 69.2047 137.508 71.3957 135.086C72.9304 133.39 74.2861 131.54 75.4414 129.565" stroke="white" stroke-linecap="round" stroke-linejoin="round"/>
<path d="M73.931 128.509C74.8464 129.272 75.8722 129.891 76.9747 130.343" stroke="white" stroke-linecap="round" stroke-linejoin="round"/>
<path d="M73.7021 132.195C72.2114 133.094 70.6179 133.81 68.956 134.328C66.8018 134.973 66.966 133.659 69.2207 132.475C71.0243 131.432 72.7103 130.198 74.2494 128.793" stroke="white" stroke-linecap="round" stroke-linejoin="round"/>
<path d="M71.4146 131.08C70.253 131.384 69.0607 131.555 67.8605 131.59C66.2347 131.527 65.7063 130.649 68.1063 130.078C69.9996 129.638 71.8126 128.904 73.4793 127.904C73.5615 126.704 73.9034 125.537 74.4812 124.482" stroke="white" stroke-linecap="round" stroke-linejoin="round"/>
<path d="M87.1436 100.51L90.8678 96.2944C91.2449 96.972 91.5842 97.6695 91.8867 98.3839" stroke="white" stroke-linecap="round" stroke-linejoin="round"/>
<path d="M117.127 110.095L108.431 96.5215L117.278 106.711" stroke="white" stroke-linecap="round" stroke-linejoin="round"/>
<path d="M83.7218 118.716C83.4004 114.575 82.9258 104.896 82.9656 102.703C85.4531 101.516 88.9953 99.2963 91.8868 98.3878C93.7604 102.887 94.7235 108.882 95.4807 114.33C102.522 115.35 109.702 114.794 116.503 112.704C117.155 110.777 117.418 108.74 117.278 106.711C117.179 106.47 121.733 112.688 128.281 108.583L150.475 94.9332C149.36 89.7154 146.827 84.8379 142.554 82.5504L124.292 95.0874C116.503 83.2529 116.502 78.4082 103.856 80.2619C94.7424 81.6002 85.277 85.7513 76.4056 91.794C69.7918 96.2983 69.6396 98.7699 69.4296 105.368C69.2368 109.969 69.3189 114.577 69.6754 119.168" stroke="white" stroke-linecap="round" stroke-linejoin="round"/>
<path d="M135.9 128.565C135.9 128.565 133.782 129.927 130.474 131.609" stroke="white" stroke-linecap="round" stroke-linejoin="round"/>
<path d="M115.522 137.262C110.357 146.564 104.552 155.497 98.1483 163.994C96.0192 166.765 93.1418 168.869 89.8557 170.058C86.5696 171.247 83.0119 171.472 79.6025 170.705C68.9033 168.298 59.7522 165.6 48.5794 161.99C48.2809 158.279 47.9824 154.754 49.455 150.798C50.3396 148.578 51.5273 146.491 52.9842 144.597C63.1463 147.203 73.4469 149.236 83.8372 150.684C88.1663 144.394 91.8045 137.656 94.6887 130.585" stroke="white" stroke-linecap="round" stroke-linejoin="round"/>
<path d="M104.894 75.4541C104.685 77.2073 104.331 78.7376 105.69 80.055" stroke="white" stroke-linecap="round" stroke-linejoin="round"/>
<path d="M22.2616 159.7C21.6945 159.662 21.0895 159.647 20.5224 159.606C20.3693 159.594 20.2207 159.549 20.0879 159.472C19.9551 159.395 19.8414 159.289 19.7555 159.162C19.6696 159.034 19.6136 158.889 19.5919 158.737C19.5701 158.585 19.5831 158.431 19.6298 158.284C19.6925 158.089 19.8119 157.917 19.9741 157.791C23.7962 154.802 27.8624 152.139 32.13 149.831C35.8961 147.777 39.2761 146.182 41.9984 144.575C42.9248 144.764 43.8322 144.934 44.7397 145.18" stroke="white" stroke-linecap="round" stroke-linejoin="round"/>
<path d="M51.1862 147.243C48.7485 151.336 48.2371 154.499 48.3316 158.927C44.7964 158.397 40.883 159.001 37.3478 159.286C32.335 159.769 27.2943 159.908 22.2616 159.7C22.323 159.5 22.4413 159.323 22.6019 159.189C30.8146 152.108 38.9199 148.527 44.7396 145.181C46.9269 145.742 49.0795 146.43 51.1862 147.243Z" stroke="white" stroke-linecap="round" stroke-linejoin="round"/>
<path d="M139.642 186.716C139.605 187.222 139.585 187.744 139.529 188.249C139.513 188.453 139.436 188.648 139.308 188.807C139.179 188.967 139.006 189.084 138.81 189.144C138.613 189.203 138.404 189.202 138.208 189.14C138.013 189.078 137.841 188.958 137.714 188.797C130.99 180.225 127.714 172.217 124.5 166.773C124.708 165.714 124.973 164.693 125.237 163.653" stroke="white" stroke-linecap="round" stroke-linejoin="round"/>
<path d="M138.706 165.54C138.573 163.756 138.634 161.964 138.887 160.194C134.823 160.327 130.795 159.395 127.203 157.49C126.44 159.627 125.81 161.429 125.237 163.653C128.754 169.571 132.382 177.944 139.642 186.716C140.13 177.986 138.919 169.352 138.706 165.54Z" stroke="white" stroke-linecap="round" stroke-linejoin="round"/>
<path d="M140.342 81.2838L161.157 77.4839" stroke="white" stroke-linecap="round" stroke-linejoin="round"/>
<path d="M31.2121 123.521L26.4651 123.924C25.9343 123.998 25.4535 124.263 25.1212 124.663C24.789 125.064 24.6303 125.57 24.6777 126.078C24.725 126.586 24.975 127.058 25.3763 127.396C25.7776 127.735 26.2999 127.915 26.8362 127.899L29.4917 127.676C30.0298 127.658 30.5548 127.836 30.9584 128.175C31.3621 128.514 31.6137 128.987 31.6612 129.497C31.7088 130.007 31.5488 130.515 31.2142 130.916C30.8795 131.317 30.3958 131.581 29.8627 131.653L25.117 132.077" stroke="white" stroke-width="0.777778" stroke-linecap="round" stroke-linejoin="round"/>
<path d="M27.7805 121.967L28.5583 133.633" stroke="white" stroke-width="0.777778" stroke-linecap="round" stroke-linejoin="round"/>
<path d="M58.5781 40.7706C58.6278 41.23 58.5853 41.6946 58.4531 42.1373C58.321 42.58 58.1018 42.9919 57.8085 43.3488C57.5151 43.7057 57.1535 44.0005 56.7448 44.2159C56.3361 44.4314 55.8885 44.563 55.4282 44.6033C54.968 44.6435 54.5043 44.5915 54.0644 44.4504C53.6245 44.3092 53.2172 44.0816 52.8664 43.781C52.5155 43.4804 52.2282 43.1128 52.0212 42.6998C51.8142 42.2868 51.6917 41.8366 51.6609 41.3756C51.6003 40.4689 51.8974 39.5747 52.4886 38.8846C53.0798 38.1946 53.9179 37.7638 54.8231 37.6846C55.7284 37.6054 56.6285 37.8842 57.3305 38.4612C58.0325 39.0381 58.4804 39.8672 58.5781 40.7706Z" stroke="white" stroke-linecap="round" stroke-linejoin="round"/>
<path d="M155.428 89.81C157.376 89.6399 157.717 92.2676 156.125 92.5134C155.993 92.5343 152.212 93.194 150.189 93.7233C149.111 89.5831 147.104 85.8021 144.007 83.4748C145.463 82.7186 147.277 82.4162 152.438 81.4848C153.176 81.3525 155.179 80.9515 155.879 80.8232C157.787 80.4729 158.308 83.1823 156.749 83.5644C156.58 83.6062 154.934 83.9624 154.745 83.9992C154.839 83.9803 155.708 83.9405 155.804 83.9236C157.837 83.5694 158.337 86.3434 156.673 86.7215L155.066 86.9673C155.18 86.9484 155.539 86.9106 155.652 86.8917C157.656 86.6648 158.085 89.3025 156.448 89.6518C156.203 89.7115 155.693 89.7722 155.428 89.81Z" stroke="white" stroke-linecap="round" stroke-linejoin="round"/>
<path d="M108.242 64.9121L105.822 57.0665C105.666 56.7192 105.399 56.4337 105.063 56.2555C104.727 56.0772 104.341 56.0165 103.966 56.0828C103.591 56.1491 103.249 56.3387 102.995 56.6215C102.74 56.9043 102.587 57.264 102.56 57.6436C102.434 57.3751 102.24 57.144 101.997 56.9726C101.755 56.8012 101.472 56.6956 101.177 56.6658C100.882 56.636 100.584 56.6833 100.312 56.8028C100.04 56.9224 99.8044 57.1103 99.6269 57.3481C99.3895 57.6674 99.2703 58.0592 99.2896 58.4566C98.3672 56.4467 95.3095 57.9153 96.218 59.8078C96.0989 59.5914 95.9327 59.4045 95.7318 59.2609C95.5309 59.1172 95.3004 59.0204 95.0571 58.9777C94.8139 58.9349 94.5641 58.9472 94.3263 59.0137C94.0884 59.0802 93.8685 59.1993 93.6827 59.362C93.3704 59.6316 93.1674 60.0061 93.112 60.415C93.0567 60.8239 93.1528 61.2389 93.3822 61.5818C94.4976 63.6803 100.207 74.8532 98.9214 78.8799" stroke="white" stroke-linecap="round" stroke-linejoin="round"/>
<path d="M177.877 46.5098L171.774 47.0268C171.091 47.1225 170.473 47.4627 170.046 47.9776C169.618 48.4925 169.414 49.1434 169.475 49.7966C169.536 50.4499 169.858 51.0563 170.374 51.4917C170.89 51.9269 171.561 52.1584 172.251 52.1383L175.665 51.851C176.357 51.8276 177.032 52.0572 177.551 52.4928C178.07 52.9285 178.393 53.5369 178.454 54.1924C178.515 54.8481 178.31 55.501 177.879 56.0167C177.449 56.5324 176.827 56.8715 176.142 56.964L170.04 57.5098" stroke="white" stroke-linecap="round" stroke-linejoin="round"/>
<path d="M113.516 140.76L102.911 137.081" stroke="white" stroke-linecap="round" stroke-linejoin="round"/>
<path d="M116.484 112.704L141.93 105.898C143.674 105.432 145.511 105.441 147.251 105.923C148.99 106.406 150.569 107.344 151.825 108.642C153.08 109.939 153.965 111.548 154.389 113.303C154.814 115.058 154.761 116.894 154.237 118.622L141.666 159.914C138.836 160.365 135.948 160.282 133.148 159.671C130.071 159.064 127.18 157.742 124.708 155.812L130.479 131.613C123.996 134.935 114.867 138.41 107.219 137.859C98.4717 137.228 92.0191 131.606 93.5385 121.143C93.8937 118.806 94.5482 116.525 95.4857 114.356" stroke="white" stroke-linecap="round" stroke-linejoin="round"/>
<path d="M124.292 95.0845L125.294 96.5212" stroke="white" stroke-linecap="round" stroke-linejoin="round"/>
<path d="M133.688 15.3623L137.295 5.61426L144.161 13.4529L155.977 78.4294L145.522 80.3388L133.688 15.3623Z" stroke="white" stroke-linejoin="round"/>
<path d="M137.302 5.62109L150.727 79.2919" stroke="white" stroke-linecap="round"/>
<path d="M152.517 98.9979L156.014 98.3552L154.994 92.7593C153.973 92.9861 152.763 93.1573 151.511 93.421L152.517 98.9979Z" stroke="white" stroke-linejoin="round"/>
<path d="M152.914 81.4165L152.479 79.0723L148.982 79.715L149.417 82.0593C150.048 81.9458 152.542 81.4931 152.914 81.4165Z" stroke="white" stroke-linejoin="round"/>
<path d="M53.5 27.5C56.947 27.5016 60.2529 28.8712 62.6904 31.3086C65.0518 33.6697 66.4116 36.8458 66.4961 40.1758L66.5 40.499C66.5002 43.0701 65.7378 45.5839 64.3096 47.7217C62.8814 49.8596 60.8509 51.5258 58.4756 52.5098C56.1003 53.4939 53.4867 53.7514 50.9648 53.25C48.4431 52.7486 46.1268 51.5111 44.3086 49.6934C42.4903 47.8754 41.2518 45.5587 40.75 43.0371C40.2483 40.5154 40.5054 37.9009 41.4893 35.5254C42.4731 33.15 44.1397 31.1199 46.2773 29.6914C48.2817 28.3522 50.616 27.5978 53.0186 27.5088L53.5 27.5Z" fill="#89B81F" stroke="white"/>
<path d="M57.412 35L51.3088 35.517C50.6262 35.6127 50.0081 35.9529 49.5808 36.4678C49.1537 36.9827 48.9497 37.6336 49.0106 38.2869C49.0715 38.9401 49.3929 39.5465 49.9089 39.9819C50.4247 40.4172 51.0963 40.6486 51.7858 40.6285L55.2 40.3413C55.8919 40.3178 56.567 40.5475 57.0858 40.983C57.6049 41.4187 57.9283 42.0271 57.9894 42.6826C58.0506 43.3383 57.8449 43.9913 57.4147 44.5069C56.9844 45.0226 56.3625 45.3617 55.6771 45.4542L49.5754 46" fill="#89B81F"/>
<path d="M57.412 35L51.3088 35.517C50.6262 35.6127 50.0081 35.9529 49.5808 36.4678C49.1537 36.9827 48.9497 37.6336 49.0106 38.2869C49.0715 38.9401 49.3929 39.5465 49.9089 39.9819C50.4247 40.4172 51.0963 40.6486 51.7858 40.6285L55.2 40.3413C55.8919 40.3178 56.567 40.5475 57.0858 40.983C57.6049 41.4187 57.9283 42.0271 57.9894 42.6826C58.0506 43.3383 57.8449 43.9912 57.4147 44.5069C56.9844 45.0226 56.3625 45.3617 55.6771 45.4542L49.5754 46" stroke="white" stroke-linecap="round" stroke-linejoin="round"/>
<path d="M53 33L54 48L53 33Z" fill="#89B81F"/>
<path d="M53 33L54 48" stroke="white" stroke-linecap="round" stroke-linejoin="round"/>
<path d="M173.465 44.5098L174.465 59.5098" stroke="white" stroke-linecap="round" stroke-linejoin="round"/>
<path d="M171.543 173.555L166.796 173.957C166.265 174.032 165.784 174.296 165.452 174.697C165.12 175.097 164.961 175.604 165.008 176.112C165.056 176.62 165.306 177.091 165.707 177.43C166.108 177.769 166.63 177.949 167.167 177.933L169.822 177.709C170.36 177.691 170.885 177.87 171.289 178.209C171.693 178.548 171.944 179.021 171.992 179.531C172.039 180.041 171.879 180.548 171.545 180.949C171.21 181.351 170.726 181.614 170.193 181.686L165.448 182.111" stroke="white" stroke-width="0.777778" stroke-linecap="round" stroke-linejoin="round"/>
<path d="M168.111 172L168.889 183.667" stroke="white" stroke-width="0.777778" stroke-linecap="round" stroke-linejoin="round"/>
</svg>
