<svg width="200" height="200" viewBox="0 0 200 200" fill="none" xmlns="http://www.w3.org/2000/svg">
<path d="M116.49 94.8548C104.185 90.8857 101.235 78.4651 101.235 78.4651C101.648 77.8749 102.051 77.2778 102.445 76.6741L102.843 70.2663C96.415 68.4893 100.064 60.6626 100.064 60.6626C97.1162 56.3546 94.6561 51.7327 92.7285 46.8818C89.1597 47.2295 85.7411 48.4925 82.8034 50.5484C85.26 58.7502 89.4092 68.8763 98.2259 82.3675C94.432 87.1037 88.2391 94.5921 85.2561 98.4865L61.4756 87.84L56.0548 99.0517L82.7467 112.719C84.5903 113.581 86.677 113.774 88.6473 113.263C90.6175 112.752 92.348 111.571 93.5404 109.921L99.3821 101.868C101.726 105.459 103.522 108.409 110.029 111.131C116.95 108.017 119.947 104.245 122.543 99.0517C120.296 98.0155 118.248 96.5952 116.49 94.8548Z" fill="#89B81F"/>
<path d="M116.812 143.305L115.847 138.031L138.38 133.873L139.344 139.146L116.812 143.305Z" fill="#89B81F"/>
<path d="M136.528 138.862L132.993 134.855L152.029 118.069L155.564 122.076L136.528 138.862Z" fill="#89B81F"/>
<path fill-rule="evenodd" clip-rule="evenodd" d="M40.9557 7.96435C48.2152 7.07673 55.5795 8.18188 62.2587 11.1613C75.1101 16.8865 83.0044 28.0524 85.3596 40.2501C85.3596 40.2501 85.4173 41.8939 85.5417 43.1605C84.7566 43.6341 83.2114 42.3177 81.8612 41.1665C80.6433 40.1287 79.5836 39.2263 79.3846 39.8959C79.1936 40.5397 79.6532 41.2292 80.3836 42.3237C81.3636 43.7923 82.8293 45.9893 83.8621 49.7832L82.8671 50.5921C83.1686 51.7981 83.882 53.8259 84.7208 56.2139L85.065 57.196C83.3954 64.4157 79.699 71.2911 73.8584 76.9139C68.8698 81.7391 62.7193 85.1939 56.0031 86.9435C55.8538 86.9833 54.8369 86.3226 53.628 85.5375C51.9753 84.4629 49.9634 83.1565 49.3167 83.0849C48.2908 82.9704 50.7167 86.0997 51.7644 87.4529C51.8599 87.5743 51.9435 87.6818 52.0112 87.7713C46.7254 88.5972 41.3281 88.3622 36.1341 87.0799C30.9402 85.7977 26.0536 83.4938 21.7595 80.3028C17.4655 77.1119 13.8499 73.0977 11.1238 68.4944C8.39766 63.8912 6.61559 58.7912 5.88156 53.4919C5.14753 48.1926 5.47623 42.8001 6.84848 37.6292C8.22074 32.4583 10.6091 27.6125 13.8741 23.3745C17.1391 19.1364 21.2155 15.5911 25.8654 12.9453C30.5152 10.2995 35.6445 8.60627 40.9557 7.96435ZM42.0164 16.588C47.6954 15.8934 53.4565 16.7578 58.6816 19.0885C79.2702 28.2604 83.5915 55.2826 67.756 70.525C64.1632 74.0007 59.7952 76.572 55.0126 78.0265C50.23 79.4811 45.17 79.7771 40.2504 78.8903C35.3308 78.0034 30.6927 75.9591 26.719 72.9261C22.7454 69.8931 19.5502 65.9584 17.3972 61.4469C15.2442 56.9354 14.1953 51.9765 14.3369 46.9796C14.4785 41.9827 15.8067 37.0912 18.2118 32.7089C20.6169 28.3265 24.0298 24.5792 28.1689 21.7761C32.308 18.9731 37.0544 17.1948 42.0164 16.588Z" fill="#00441A"/>
<path d="M155.62 129.392L157.927 125.895L154.373 123.097L152.502 124.779L155.62 129.392Z" fill="#00441A"/>
<path d="M167.833 133.631L164.848 140.496C163.948 142.588 162.396 144.333 160.424 145.471L175.322 157.086L184.093 146.273L167.833 133.631Z" fill="#00441A"/>
<path d="M152.124 81.3007C154.607 81.6476 157.127 81.0178 159.154 79.5439C161.181 78.0699 162.558 75.8668 162.993 73.3984C159.934 72.4143 156.709 72.0529 153.507 72.3353C150.306 72.6178 147.194 73.5385 144.354 75.0432C144.965 76.6898 146.009 78.1406 147.377 79.2422C148.745 80.3437 150.385 81.055 152.124 81.3007Z" fill="#00441A"/>
<path d="M95.1663 77.52L81.4044 66.8208C79.426 71.0146 76.5628 74.7302 73.0116 77.7121L90.7226 91.6819L98.2468 82.3627L95.1663 77.52Z" fill="#00441A"/>
<path d="M106.206 92.5674L99.403 101.944C99.8819 102.824 100.439 103.659 101.067 104.439L106.206 92.5674Z" fill="#00441A"/>
<path d="M102.728 72.2264L105.431 70.3179C104.574 70.3738 103.714 70.3549 102.861 70.2612L102.728 72.2264Z" fill="#00441A"/>
<path d="M120.705 82.0758C120.904 80.5516 120.558 79.0061 119.728 77.7124C118.898 76.4186 117.637 75.4598 116.169 75.0053C116.357 74.4656 116.415 73.8892 116.339 73.3228C115.091 64.2116 113.201 58.5968 110.081 55.3839C107.964 53.1711 103.636 53.5312 101.065 56.763C98.5115 59.9997 99.1533 64.2693 99.1363 64.6235C99.3953 61.443 100.88 58.4876 103.277 56.3809C103.947 55.8302 104.736 55.442 105.582 55.2466C105.45 58.1212 107.737 62.6763 110.497 61.542C112.343 60.7888 112.565 64.129 108.928 64.129C107.945 72.0114 108.248 81.044 111.877 88.402L112.463 89.5164C114.247 92.7658 116.798 95.5303 119.893 97.57C121.949 97.6773 123.963 96.9638 125.492 95.5864C127.022 94.209 127.942 92.2804 128.05 90.2249C128.157 88.1694 127.443 86.1556 126.066 84.6261C124.689 83.0967 122.76 82.1769 120.705 82.0688V82.0758Z" fill="#00441A"/>
<path d="M155.62 129.392L157.927 125.895L154.373 123.097L152.502 124.779L155.62 129.392Z" stroke="white" stroke-linejoin="round"/>
<path d="M167.833 133.631L164.848 140.496C163.948 142.588 162.396 144.333 160.424 145.471L175.321 157.086L184.093 146.273L167.833 133.631Z" stroke="white"/>
<path d="M95.1663 77.5195L81.4044 66.8203C79.426 71.0141 76.5628 74.7297 73.0116 77.7116L90.7226 91.6814L98.2468 82.3622L95.1663 77.5195Z" stroke="white"/>
<path d="M99.7791 60.2602C96.9244 56.0864 94.5643 51.5951 92.7464 46.8765C89.1768 47.2228 85.7578 48.4877 82.8223 50.548C85.2799 58.7518 89.4191 68.866 98.2448 82.3631" stroke="white" stroke-linecap="round" stroke-linejoin="round"/>
<path d="M85.8471 44.8347C85.3171 42.0769 85.114 39.2662 85.2421 36.4608C85.1857 35.0112 85.2858 33.5597 85.5406 32.1316C86.2371 28.2143 87.1914 28.5963 87.5068 32.3773C88.2779 41.6388 90.4918 44.7024 91.3057 47.0844" stroke="white" stroke-linecap="round" stroke-linejoin="round"/>
<path d="M85.3735 33.3225C84.7397 31.9857 83.9185 30.7461 82.9347 29.641C82.6362 29.3545 81.9397 29.3256 82.8024 31.7206C82.9875 32.232 83.7268 34.4429 83.9556 35.2369C84.4862 36.8209 84.9156 38.4371 85.2412 40.0756" stroke="white" stroke-linecap="round" stroke-linejoin="round"/>
<path d="M85.5068 42.6229C85.3745 44.4945 82.484 41.6001 81.1209 40.5056C79.894 39.5205 78.1359 38.8947 80.6104 42.4717C82.0768 44.7538 83.1861 47.2465 83.8999 49.8636" stroke="white" stroke-linecap="round" stroke-linejoin="round"/>
<path d="M156.963 131.358L152.502 124.779" stroke="white" stroke-linecap="round" stroke-linejoin="round"/>
<path d="M102.885 70.2124C102.885 70.2124 102.677 72.8312 102.469 76.669C102.051 77.2607 101.642 77.8577 101.24 78.46" stroke="white" stroke-linecap="round" stroke-linejoin="round"/>
<path d="M105.432 70.3745L102.736 72.2033" stroke="white" stroke-linecap="round" stroke-linejoin="round"/>
<path d="M133.938 134.005L118.834 117.351" stroke="white" stroke-linecap="round" stroke-linejoin="round"/>
<path d="M106.187 92.5479L101.065 104.419" stroke="white" stroke-linecap="round" stroke-linejoin="round"/>
<path d="M145.129 124.136C139.26 114.704 130.738 107.214 120.63 102.605" stroke="white" stroke-linecap="round" stroke-linejoin="round"/>
<path d="M117.419 137.741L110.081 111.112" stroke="white" stroke-linecap="round" stroke-linejoin="round"/>
<path d="M138.891 136.783L139.344 139.146L116.812 143.305L115.847 138.031L132.993 134.875" stroke="white" stroke-linecap="round" stroke-linejoin="round"/>
<path d="M119.874 97.5957C121.899 97.6495 123.865 96.9107 125.354 95.5367C126.842 94.1627 127.736 92.262 127.844 90.2391C127.953 88.2162 127.267 86.2309 125.934 84.7059C124.6 83.1808 122.724 82.2364 120.705 82.0737C120.904 80.5495 120.558 79.004 119.728 77.7103C118.898 76.4165 117.637 75.4577 116.169 75.0032C116.781 73.2292 114.888 62.0802 111.48 57.1032C108.282 52.4327 103.608 53.5262 101.046 56.7609C98.4836 59.9957 99.1343 64.2662 99.1174 64.6214" stroke="white" stroke-linecap="round" stroke-linejoin="round"/>
<path d="M155.62 129.392L168.495 109.807C170.951 105.856 170.857 104.608 171.953 101.887C177.096 99.0891 188.759 95.7997 194.525 95.0435C190.29 101.66 180.366 105.573 176.453 113.777L164.827 140.469C164.14 142.05 163.081 143.441 161.739 144.523C160.397 145.605 158.813 146.346 157.122 146.682C155.431 147.018 153.684 146.94 152.03 146.454C150.376 145.968 148.865 145.088 147.625 143.891L139.609 136.16" stroke="white" stroke-linecap="round" stroke-linejoin="round"/>
<path d="M136.528 138.862L132.993 134.855L152.03 118.069L155.564 122.076L136.528 138.862Z" stroke="white" stroke-linecap="round" stroke-linejoin="round"/>
<path d="M51.7425 89.3341C53.8031 89.1262 50.3773 85.8586 49.8142 84.8566C49.053 83.4984 48.246 81.9253 51.7992 84.4218C54.6777 86.2387 57.6635 87.8798 60.7403 89.3361" stroke="white" stroke-linecap="round" stroke-linejoin="round"/>
<path d="M120.441 142.625L122.009 148.258C123.032 151.878 125.426 154.957 128.683 156.84C131.934 158.731 161.632 172.984 161.632 172.984C169.553 177.461 172.785 187.615 179.099 192.304C178.74 186.5 176.245 174.629 173.806 169.319C171.204 168.056 169.938 168.051 166.321 165.464L137.945 145.52L136.32 139.697" stroke="white" stroke-linecap="round" stroke-linejoin="round"/>
<path d="M106.187 92.5483C105.11 93.9473 98.6537 102.881 93.5404 109.94C92.3464 111.587 90.6159 112.768 88.6461 113.278C86.6764 113.788 84.5904 113.597 82.7467 112.736L56.0548 99.0705L61.4606 87.8608L85.2411 98.4845" stroke="white" stroke-linecap="round" stroke-linejoin="round"/>
<path d="M116.49 94.8545C118.26 96.5889 120.308 98.0151 122.549 99.0743C120.041 104.845 115.751 108.582 110.044 111.15C103.519 108.418 101.733 105.497 99.3781 101.889" stroke="white" stroke-linecap="round" stroke-linejoin="round"/>
<path d="M150.933 119.014C139.222 103.317 126.812 100.832 122.549 99.0742" stroke="white" stroke-linecap="round" stroke-linejoin="round"/>
<path d="M101.235 78.4648C101.235 78.4648 104.184 90.8844 116.49 94.8544C114.593 92.9831 113.026 90.8032 111.858 88.4078C108.22 81.0597 107.926 72.0182 108.909 64.1358H109.401C112.386 63.9656 112.33 60.7876 110.478 61.5488C107.717 62.6801 105.432 58.127 105.564 55.2544C104.719 55.4512 103.93 55.8389 103.258 56.3877C101.86 57.6117 100.763 59.1422 100.054 60.8596C99.3449 62.5771 99.0421 64.4352 99.1692 66.2889C99.5214 68.6919 101.176 70.6122 105.432 70.3774" stroke="white" stroke-linecap="round" stroke-linejoin="round"/>
<path d="M101.235 78.4648C99.4577 81.1513 85.6013 97.5768 83.7487 100.583" stroke="white" stroke-linecap="round" stroke-linejoin="round"/>
<path d="M44.6929 91.4893C43.7855 91.6027 41.9149 91.9818 41.3656 92.0942C38.8712 92.6076 39.1926 93.2663 39.5896 93.3041C41.1955 93.4564 43.8044 93.4375 45.2979 93.6255C47.6988 93.929 52.3305 94.3628 54.1454 95.4404" stroke="white" stroke-linecap="round" stroke-linejoin="round"/>
<path d="M45.1655 93.6069C44.7675 93.7582 44.4093 93.8905 44.2392 93.9661C41.8572 94.8736 42.293 95.4835 42.689 95.4586C44.2969 95.3641 46.868 94.8925 48.3794 94.8348C50.1971 94.8008 52.0138 94.9401 53.8051 95.2507" stroke="white" stroke-linecap="round" stroke-linejoin="round"/>
<path d="M114.222 39.2966C114.192 39.783 114.019 40.2497 113.724 40.6375C113.429 41.0254 113.026 41.3167 112.565 41.4747C112.221 41.593 111.854 41.6335 111.492 41.5933C111.131 41.5531 110.782 41.4331 110.472 41.242C110.162 41.051 109.899 40.7936 109.7 40.4884C109.502 40.1832 109.373 39.8377 109.324 39.4769C109.275 39.1162 109.307 38.749 109.417 38.4019C109.527 38.0549 109.712 37.7365 109.96 37.4697C110.208 37.203 110.512 36.9945 110.85 36.8593C111.188 36.724 111.552 36.6654 111.915 36.6877C112.566 36.7305 113.173 37.0286 113.605 37.5173C114.037 38.0059 114.259 38.6455 114.222 39.2966Z" stroke="white" stroke-linecap="round" stroke-linejoin="round"/>
<path d="M179.572 98.768C180.121 93.441 178.878 88.083 176.04 83.5422C173.201 79.0013 168.928 75.5371 163.899 73.698C159.719 72.1704 155.198 71.8318 150.837 72.7198C146.477 73.6078 142.448 75.6876 139.198 78.7281C135.949 81.7686 133.606 85.6506 132.43 89.9426C131.255 94.2347 131.293 98.7686 132.539 103.04" stroke="white" stroke-linecap="round" stroke-linejoin="round"/>
<path d="M153.995 120.298C156.7 120.49 159.417 120.214 162.029 119.485" stroke="white" stroke-linecap="round" stroke-linejoin="round"/>
<path d="M154.808 62.1131C153.391 61.9178 151.948 62.0389 150.584 62.4677C149.22 62.8964 147.967 63.6221 146.917 64.5927C145.867 65.5632 145.044 66.7545 144.509 68.0808C143.974 69.407 143.74 70.8354 143.823 72.2631C143.935 74.1727 144.611 76.0061 145.765 77.5318C146.918 79.0575 148.498 80.2072 150.305 80.8355C152.112 81.4639 154.064 81.5428 155.916 81.0622C157.767 80.5817 159.435 79.5633 160.708 78.1356C161.981 76.7074 162.801 74.9338 163.066 73.0392C163.417 70.4957 162.744 67.9168 161.196 65.8684C159.648 63.8201 157.35 62.4696 154.808 62.1131Z" stroke="white" stroke-linecap="round" stroke-linejoin="round"/>
<path d="M83.3337 33.266C80.923 27.1172 77.0384 21.6549 72.0215 17.3595C67.0047 13.064 61.0093 10.067 54.5626 8.63201C48.1159 7.19699 41.4153 7.36791 35.0502 9.12974C28.685 10.8916 22.8502 14.1904 18.0589 18.736C13.2676 23.2816 9.66655 28.9348 7.57242 35.1986C5.47829 41.4623 4.95523 48.1446 6.04924 54.6578C7.14325 61.1711 9.82082 67.3158 13.8465 72.5516C17.8721 77.7873 23.1226 81.9538 29.1361 84.6846C36.3016 87.8811 44.2331 88.957 51.9912 87.785" stroke="white" stroke-linecap="round" stroke-linejoin="round"/>
<path d="M85.0352 57.1221C83.8103 62.4183 81.5233 67.4109 78.3128 71.7976C75.1023 76.1842 71.0349 79.8738 66.357 82.6428C63.1246 84.5512 59.637 85.9898 55.9991 86.9154" stroke="white" stroke-linecap="round" stroke-linejoin="round"/>
<path d="M58.6816 19.0883C53.4566 16.7576 47.6958 15.8931 42.0168 16.5875C36.3379 17.2819 30.955 19.509 26.4455 23.03C21.9361 26.551 18.47 31.233 16.4192 36.5741C14.3683 41.9151 13.8099 47.7136 14.8039 53.3479C15.7979 58.9821 18.3067 64.2395 22.0615 68.5564C25.8162 72.8732 30.6751 76.0865 36.1172 77.8519C41.5593 79.6172 47.3792 79.8679 52.953 78.5771C58.5267 77.2863 63.644 74.5027 67.756 70.5248C83.5914 55.2824 79.2702 28.2602 58.6816 19.0883Z" stroke="white" stroke-linecap="round" stroke-linejoin="round"/>
<path d="M29.9858 114.004L38.3796 120.658L46.9426 107.52" stroke="white" stroke-linecap="round" stroke-linejoin="round"/>
<path d="M103.484 119.846L95.3175 120.884" stroke="white" stroke-linecap="round" stroke-linejoin="round"/>
<path d="M99.9114 124.458L98.8716 116.273" stroke="white" stroke-linecap="round" stroke-linejoin="round"/>
<path d="M56.9802 97.1419C54.3331 95.394 51.5298 93.8951 48.6062 92.6644C46.2591 91.8064 43.8224 91.2166 41.3427 90.9062C37.6941 90.4585 37.2772 89.4764 41.2482 88.9401C42.7094 88.7631 44.1821 88.6999 45.6531 88.7511C48.4421 88.7869 51.2191 89.1292 53.9335 89.7719" stroke="white" stroke-linecap="round" stroke-linejoin="round"/>
</svg>
