<svg width="30" height="44" viewBox="0 0 30 44" fill="none" xmlns="http://www.w3.org/2000/svg">
<path d="M14.809 20.95C11.3056 26.2955 6.13889 30.5464 0 33.0368V22.5618C6.13889 20.0679 11.3056 15.8205 14.809 10.475V20.95Z" fill="white"/>
<path d="M14.809 10.475C18.3125 15.8205 23.4792 20.0714 29.618 22.5618V12.0868C23.4792 9.59292 18.3125 5.34554 14.809 0V10.475Z" fill="white"/>
<path d="M14.809 31.425C18.3125 36.7705 23.4792 41.0214 29.618 43.5117V33.0368C23.4792 30.5429 18.3125 26.2955 14.809 20.95V31.425Z" fill="white"/>
<path d="M14.809 43.5118V31.4214C11.3056 36.767 6.13889 41.0179 0 43.5118H14.809Z" fill="white"/>
</svg>
