<svg width="296" height="61" viewBox="0 0 296 61" fill="none" xmlns="http://www.w3.org/2000/svg">
<path d="M286.453 57.04V10H295.157V57.04H286.453Z" fill="currentColor"/>
<path d="M273.116 57.04V10H281.82V57.04H273.116Z" fill="currentColor"/>
<path d="M252.202 58C248.661 58 245.536 57.2427 242.826 55.728C240.138 54.192 238.026 52.0907 236.49 49.424C234.976 46.736 234.218 43.664 234.218 40.208C234.218 36.432 234.965 33.1467 236.458 30.352C237.952 27.5574 240.01 25.392 242.634 23.856C245.258 22.2987 248.277 21.52 251.69 21.52C255.317 21.52 258.4 22.3734 260.938 24.08C263.477 25.7867 265.354 28.1867 266.57 31.28C267.786 34.3734 268.213 38.0107 267.85 42.192H259.242V38.992C259.242 35.472 258.677 32.944 257.546 31.408C256.437 29.8507 254.613 29.072 252.074 29.072C249.109 29.072 246.922 29.9787 245.514 31.792C244.128 33.584 243.434 36.24 243.434 39.76C243.434 42.9814 244.128 45.4774 245.514 47.248C246.922 48.9974 248.981 49.872 251.69 49.872C253.397 49.872 254.858 49.4987 256.074 48.752C257.29 48.0054 258.218 46.928 258.858 45.52L267.562 48.016C266.261 51.1734 264.202 53.6267 261.386 55.376C258.592 57.1254 255.53 58 252.202 58ZM240.746 42.192V35.728H263.658V42.192H240.746Z" fill="currentColor"/>
<path d="M195.223 57.04L184.663 22.416L193.175 22.48L199.447 43.088L205.815 22.48H213.047L219.415 43.088L225.687 22.48H234.199L223.639 57.04H216.983L209.431 34.512L201.879 57.04H195.223Z" fill="currentColor"/>
<path d="M168.84 58C165.298 58 162.173 57.2427 159.464 55.728C156.776 54.192 154.664 52.0907 153.128 49.424C151.613 46.736 150.856 43.664 150.856 40.208C150.856 36.432 151.602 33.1467 153.096 30.352C154.589 27.5574 156.648 25.392 159.272 23.856C161.896 22.2987 164.914 21.52 168.328 21.52C171.954 21.52 175.037 22.3734 177.576 24.08C180.114 25.7867 181.992 28.1867 183.208 31.28C184.424 34.3734 184.85 38.0107 184.488 42.192H175.88V38.992C175.88 35.472 175.314 32.944 174.184 31.408C173.074 29.8507 171.25 29.072 168.712 29.072C165.746 29.072 163.56 29.9787 162.152 31.792C160.765 33.584 160.072 36.24 160.072 39.76C160.072 42.9814 160.765 45.4774 162.152 47.248C163.56 48.9974 165.618 49.872 168.328 49.872C170.034 49.872 171.496 49.4987 172.712 48.752C173.928 48.0054 174.856 46.928 175.496 45.52L184.2 48.016C182.898 51.1734 180.84 53.6267 178.024 55.376C175.229 57.1254 172.168 58 168.84 58ZM157.384 42.192V35.728H180.296V42.192H157.384Z" fill="currentColor"/>
<path d="M129.392 58C126.213 58 123.429 57.2 121.04 55.6C118.65 54 116.784 51.824 115.44 49.072C114.117 46.32 113.456 43.216 113.456 39.76C113.456 36.24 114.128 33.1146 115.472 30.384C116.837 27.632 118.746 25.4666 121.2 23.888C123.653 22.3093 126.533 21.52 129.84 21.52C133.125 21.52 135.888 22.32 138.128 23.92C140.368 25.52 142.064 27.696 143.216 30.448C144.368 33.2 144.944 36.304 144.944 39.76C144.944 43.216 144.357 46.32 143.184 49.072C142.032 51.824 140.304 54 138 55.6C135.696 57.2 132.826 58 129.392 58ZM130.8 50.256C132.741 50.256 134.288 49.8186 135.44 48.944C136.613 48.0693 137.456 46.8426 137.968 45.264C138.48 43.6853 138.736 41.8506 138.736 39.76C138.736 37.6693 138.48 35.8346 137.968 34.256C137.456 32.6773 136.634 31.4506 135.504 30.576C134.394 29.7013 132.933 29.264 131.12 29.264C129.178 29.264 127.578 29.744 126.32 30.704C125.082 31.6426 124.165 32.912 123.568 34.512C122.97 36.0906 122.672 37.84 122.672 39.76C122.672 41.7013 122.96 43.472 123.536 45.072C124.112 46.6506 124.997 47.9093 126.192 48.848C127.386 49.7866 128.922 50.256 130.8 50.256ZM138.736 57.04V33.36H137.648V10.96H146.416V57.04H138.736Z" fill="currentColor"/>
<path d="M100.678 17.68V10H109.382V17.68H100.678ZM100.678 57.04V22.48H109.382V57.04H100.678Z" fill="currentColor"/>
<path d="M72.1425 38.7998C72.1425 39.5891 72.1851 40.6026 72.2704 41.8398C72.3557 43.0557 72.6223 44.2824 73.0702 45.5195C73.5182 46.7569 74.2443 47.792 75.247 48.624C76.2709 49.4559 77.7106 49.872 79.5663 49.8721C80.313 49.8721 81.1134 49.7542 81.9667 49.5195C82.82 49.2849 83.6204 48.8371 84.3671 48.1758C85.1135 47.4932 85.7211 46.5012 86.1903 45.2002C86.681 43.8775 86.9267 42.149 86.9267 40.0156V22.4805H95.6942V57.04H88.0145V53.4727C87.2111 54.368 86.284 55.164 85.2304 55.8564C83.0118 57.3283 80.2061 58.0645 76.8143 58.0645C74.1052 58.0644 71.8969 57.6048 70.1903 56.6875C68.4839 55.7702 67.1502 54.6081 66.1903 53.2002C65.4127 52.0337 64.8206 50.8296 64.4091 49.5898L67.4159 47.7471L63.3104 40.1445V22.4805H72.1425V38.7998Z" fill="currentColor"/>
<path d="M28.0422 0.641113C35.464 0.641142 41.2973 2.36332 45.5423 5.80719C49.7872 9.25121 52.6312 14.1236 54.073 20.4242L42.9403 22.0265C41.8991 18.6625 40.1895 15.9797 37.8133 13.9773C35.464 11.9483 32.4474 10.9206 28.7632 10.8938C25.1057 10.8404 22.062 11.6278 19.6325 13.2563C17.2029 14.8849 15.3731 17.1945 14.145 20.1847C12.9436 23.1748 12.3435 26.6723 12.3435 30.6769C12.3435 34.6817 12.9435 38.1529 14.145 41.0897C15.3731 44.0265 17.203 46.3089 19.6325 47.9375C22.062 49.566 25.1057 50.4067 28.7632 50.4601C31.246 50.5134 33.489 50.0869 35.4912 49.1792C37.5201 48.2715 39.2287 46.8431 40.617 44.8943C42.0053 42.9453 42.9934 40.4486 43.5807 37.4049H34.45V28.9952H55.1949V28.9977L55.2071 28.9916L65.6639 47.1028L58.3689 51.3156L53.6611 43.1625C53.1981 44.5133 52.6437 45.812 51.9904 47.0563C49.7477 51.3281 46.584 54.679 42.4991 57.1086C38.4143 59.5114 33.5953 60.7127 28.0422 60.7128C24.4112 60.7128 20.9536 60.0718 17.6697 58.7903C14.386 57.4822 11.476 55.5602 8.9398 53.0241C6.43014 50.4878 4.4404 47.3501 2.97198 43.6123C1.53029 39.8745 0.809982 35.5627 0.809982 30.6769C0.809982 24.296 2.02371 18.8759 4.45324 14.4173C6.90938 9.93218 10.1938 6.51528 14.3051 4.16582C18.4434 1.81636 23.0228 0.641113 28.0422 0.641113Z" fill="currentColor"/>
</svg>
