<svg width="201" height="200" viewBox="0 0 201 200" fill="none" xmlns="http://www.w3.org/2000/svg">
<path d="M136.248 94.1288C127.74 95.4065 119.31 97.1572 110.997 99.3728L110.947 98.2978L89.9639 101.292C87.0309 104.586 85.6879 113.157 89.6449 118.819L86.8099 133.288L65.7199 126.068C60.9129 130.989 59.3199 136.233 58.9749 143.13L88.8999 154.454C90.3151 154.992 91.8282 155.224 93.3397 155.136C94.8511 155.047 96.3267 154.639 97.6692 153.939C99.0118 153.239 100.191 152.263 101.129 151.074C102.067 149.886 102.743 148.512 103.112 147.044L108.356 126.41L98.8519 124C107.844 125.192 121.71 120.337 128.857 117.536C128.439 124.699 128.097 134.294 127.508 144.896C132.757 146.888 138.484 147.252 143.943 145.941C145.577 133.135 147.192 118.695 147.724 104.441C147.78 102.97 147.511 101.504 146.937 100.148C146.363 98.7924 145.498 97.5794 144.403 96.5953C143.308 95.6112 142.009 94.8802 140.6 94.4539C139.191 94.0276 137.705 93.9167 136.248 94.1288Z" fill="#89B81F"/>
<path d="M159.941 67.4908L160.207 70.5118L163.342 68.7638L159.941 67.4908Z" fill="#89B81F"/>
<path d="M153.272 63.7288C150.612 57.2288 146.584 49.9348 143.449 43.5128C141.769 40.203 140.303 36.7886 139.06 33.2908C137.871 29.8216 136.987 26.255 136.419 22.6318C136.402 22.4782 136.355 22.3296 136.28 22.1947C136.204 22.0598 136.103 21.9414 135.981 21.8466C135.859 21.7518 135.719 21.6825 135.57 21.6427C135.421 21.603 135.265 21.5937 135.112 21.6153C134.959 21.637 134.812 21.6892 134.68 21.7688C134.547 21.8485 134.432 21.9539 134.342 22.0788C134.251 22.2038 134.186 22.3457 134.151 22.4962C134.117 22.6467 134.112 22.8027 134.139 22.9548C134.49 24.8393 134.94 26.7039 135.488 28.5408C137.111 33.9891 139.362 39.2303 142.195 44.1588C145.595 50.4668 149.89 57.5728 152.795 63.9378C152.823 64.001 152.874 64.0507 152.939 64.0758C153.003 64.101 153.075 64.0995 153.138 64.0718C153.201 64.0441 153.251 63.9924 153.276 63.928C153.301 63.8637 153.3 63.792 153.272 63.7288Z" fill="white"/>
<path d="M89.9639 101.292L87.7219 92.0768C84.7325 95.3646 83.1126 99.6706 83.1938 104.114C83.2751 108.557 85.0513 112.801 88.1589 115.977C86.1449 110.545 87.6079 103.933 89.9639 101.292Z" fill="#00441A"/>
<path d="M117.001 97.8718C114.987 98.3468 112.992 98.8598 111.001 99.3918C110.849 96.2758 110.735 91.7728 110.678 89.5918C113.587 91.6362 115.795 94.5275 117.001 97.8718Z" fill="#00441A"/>
<path d="M99.3309 70.0938L96.7659 67.9278C97.4638 68.0843 98.1793 68.1481 98.8939 68.1178C98.9759 68.7889 99.1222 69.4506 99.3309 70.0938Z" fill="#00441A"/>
<path d="M89.6979 90.6518L88.7099 96.1428L87.4179 90.8228L89.6979 90.6518Z" fill="#00441A"/>
<path d="M97.3928 123.75L108.375 126.41L109.116 123.465C105.221 124.149 100.984 124.529 97.3928 123.75Z" fill="#00441A"/>
<path d="M117.685 84.3628L110.579 85.6358L110.522 83.2038L117.685 84.3628Z" fill="#00441A"/>
<path d="M154.944 75.9078C154.336 82.8618 152.379 91.6778 150.935 98.6508C150.175 102.299 149.32 106.365 148.769 110.07C148.178 114.005 148.242 118.012 148.959 121.926C148.988 122.053 149.043 122.173 149.12 122.277C149.197 122.382 149.295 122.47 149.407 122.536C149.52 122.602 149.645 122.643 149.774 122.659C149.903 122.674 150.034 122.663 150.159 122.626C150.408 122.555 150.618 122.39 150.746 122.166C150.874 121.941 150.909 121.676 150.843 121.426C150.065 117.755 149.898 113.98 150.349 110.254C150.786 106.554 151.508 102.521 152.154 98.8728C153.384 91.8298 155.077 82.9998 155.476 75.9458C155.474 75.8793 155.448 75.8161 155.402 75.7681C155.356 75.72 155.294 75.6908 155.227 75.6861C155.161 75.6814 155.095 75.7013 155.043 75.7423C154.991 75.7833 154.955 75.8423 154.944 75.9078Z" fill="white"/>
<path d="M101.155 60.5558C100.946 60.0618 100.678 59.5498 100.395 59.0168C96.256 51.2068 93.2509 57.8768 93.7259 61.1448C93.7449 61.7338 93.439 61.9088 92.453 61.2968C90.415 60.0318 89.2639 63.3838 93.0039 64.8118C93.1819 64.9347 93.3207 65.1062 93.4039 65.3058C94.1259 67.5478 94.316 69.0059 93.936 70.3979C93.636 67.3979 90.348 65.3418 87.894 61.6978C85.143 57.6108 91.994 50.4308 95.608 50.1838C99.222 49.9368 99.4069 54.6848 101.155 60.5558Z" fill="#00441A"/>
<path d="M141.093 146.474C137.478 146.953 133.805 146.715 130.282 145.774C130.054 147.427 129.845 148.966 129.731 150.657C133.651 154.95 138.505 161.902 146.717 168.137C144.796 158.256 141.356 151.607 141.093 146.474Z" fill="#00441A"/>
<path d="M59.0319 126.885C53.5319 129.367 45.5629 131.702 36.8399 137.734C40.6759 138.541 56.2759 138.463 59.3549 139.102C59.8148 135.395 61.1928 131.862 63.3639 128.823C61.8629 128.12 60.6089 127.531 59.0319 126.885Z" fill="#00441A"/>
<path d="M51.8119 58.9598L42.5589 51.9488L36.9539 35.1338L46.1689 42.0118L51.8119 58.9598Z" fill="#00441A"/>
<path d="M33.0019 44.8998L15.2749 44.4058L5.98389 37.5088L23.8439 38.0788L33.0019 44.8998Z" fill="#00441A"/>
<path d="M84.9288 81.5128C84.9515 81.7622 84.8742 82.0106 84.7138 82.2029C84.5535 82.3953 84.3233 82.5162 84.0738 82.5388C83.8244 82.5615 83.5762 82.4841 83.3838 82.3238C83.1913 82.1634 83.0705 81.9332 83.0478 81.6838C83.0252 81.4344 83.1025 81.1861 83.2628 80.9937C83.4232 80.8013 83.6534 80.6805 83.9028 80.6578C84.1523 80.6351 84.4005 80.7125 84.5929 80.8728C84.7853 81.0331 84.9062 81.2635 84.9288 81.5128Z" fill="#00441A"/>
<path d="M141.796 69.1818C141.819 69.4312 141.741 69.6795 141.581 69.8719C141.421 70.0643 141.19 70.1851 140.941 70.2078C140.692 70.2305 140.443 70.1531 140.251 69.9928C140.059 69.8324 139.938 69.6022 139.915 69.3528C139.904 69.2293 139.917 69.1048 139.954 68.9864C139.991 68.868 140.051 68.758 140.13 68.6627C140.209 68.5674 140.307 68.4887 140.417 68.4311C140.526 68.3735 140.646 68.338 140.77 68.3268C140.894 68.3156 141.018 68.3288 141.136 68.3657C141.255 68.4026 141.365 68.4624 141.46 68.5418C141.555 68.6212 141.634 68.7186 141.692 68.8284C141.749 68.9382 141.785 69.0583 141.796 69.1818Z" fill="#00441A"/>
<path d="M170.087 138.741V147.215L161.575 150.103L179.91 154.568L170.087 138.741Z" fill="#00441A"/>
<path d="M117.852 173.506C118.127 173.483 118.369 173.688 118.392 173.963L118.814 178.935L123.797 178.504C124.072 178.48 124.315 178.684 124.339 178.959C124.363 179.234 124.159 179.476 123.884 179.5L118.898 179.931L119.323 184.925C119.346 185.2 119.143 185.443 118.868 185.466C118.593 185.49 118.35 185.285 118.327 185.01L117.903 180.017L112.921 180.45C112.646 180.474 112.403 180.27 112.379 179.995C112.356 179.72 112.56 179.478 112.834 179.454L117.818 179.021L117.396 174.047C117.373 173.772 117.577 173.53 117.852 173.506ZM17.9458 20.7252C18.123 20.5972 18.3635 20.5992 18.5386 20.7301L27.5571 27.4723C27.6685 27.5052 27.7648 27.5779 27.8306 27.6774L46.4683 41.6109L46.5942 41.7057L46.6431 41.8541L52.1831 58.4928L53.8481 59.7291C57.4504 55.9065 61.5339 52.5131 66.0259 49.6441C79.187 41.2385 94.9584 37.9119 110.393 40.2877C115.096 41.0115 119.669 42.2512 124.039 43.9615L136.622 33.4859C136.03 31.9052 135.491 30.304 135.008 28.6842L134.806 27.9869C134.344 26.3589 133.957 24.7104 133.647 23.0465V23.0426C133.608 22.8221 133.616 22.5987 133.664 22.3863V22.3834C133.714 22.1683 133.807 21.9652 133.936 21.7867L134.041 21.6568C134.151 21.533 134.279 21.426 134.421 21.3404C134.611 21.226 134.822 21.1518 135.042 21.1207C135.26 21.0899 135.485 21.1028 135.699 21.1598L135.856 21.2106C136.011 21.2688 136.156 21.3498 136.288 21.4518C136.463 21.5884 136.608 21.7579 136.715 21.9488L136.717 21.9518C136.821 22.1388 136.885 22.3437 136.912 22.5543C137.475 26.1469 138.352 29.6836 139.531 33.1236L140.004 34.4234C140.973 37.016 142.066 39.5601 143.279 42.0475L143.895 43.2867L143.898 43.2936C146.963 49.5726 150.929 56.7754 153.597 63.2115C153.99 63.1376 154.365 63.0694 154.796 62.9899C155.408 62.8771 155.947 63.0023 156.366 63.2945C156.776 63.581 157.041 64.006 157.161 64.4488C157.311 65.0073 157.233 65.6767 156.853 66.1656C156.954 66.2135 157.051 66.2667 157.141 66.3297C157.566 66.6261 157.839 67.0624 157.958 67.5191C158.066 67.9377 158.048 68.3946 157.876 68.8033L159.539 68.6256L159.374 66.7447L164.529 68.6744L159.777 71.3238L159.625 69.6217L158.014 69.7945C158.215 70.0437 158.352 70.3315 158.421 70.6275C158.528 71.0789 158.487 71.5735 158.264 71.9967C158.113 72.2838 157.881 72.5235 157.58 72.6891C157.979 72.9894 158.238 73.4244 158.336 73.8834C158.429 74.317 158.382 74.7876 158.163 75.19C165.138 89.2632 166.73 105.406 162.626 120.575C161.141 126.067 158.946 131.292 156.128 136.134L169.586 146.213V136.987L180.979 155.343L159.786 150.182L169.03 147.046L155.616 137.001C152.172 142.713 147.849 147.869 142.794 152.275C142.84 152.428 142.885 152.582 142.932 152.738C143.316 153.962 143.729 155.18 144.099 156.374C144.373 157.256 144.64 158.13 144.901 158.996C145.147 159.8 145.393 160.632 145.635 161.494C146.754 165.442 147.646 169.339 148.02 173.578C148.037 173.775 147.937 173.963 147.764 174.059C147.592 174.155 147.379 174.14 147.221 174.021C143.301 171.065 139.696 167.711 136.467 164.013C135.067 162.435 133.805 160.921 132.639 159.529C125.234 163.776 117.059 166.509 108.585 167.564C99.9806 168.635 91.2479 167.956 82.9126 165.566C74.5774 163.176 66.8115 159.126 60.0815 153.658C54.9333 149.476 50.4736 144.529 46.8501 139.002C44.7669 138.929 42.5218 138.813 40.3032 138.62C38.9076 138.524 37.7273 138.408 36.9272 138.258C36.883 138.253 36.8386 138.248 36.7944 138.242C36.7889 138.241 36.7834 138.24 36.7778 138.239C35.2101 138.032 33.7111 137.777 32.356 137.461C32.1638 137.416 32.0162 137.262 31.979 137.068C31.9419 136.874 32.0228 136.676 32.1851 136.563C35.3806 134.343 38.7503 132.388 42.2603 130.717C35.7934 116.695 34.5884 100.808 38.8784 85.9625C41.6396 76.4078 46.557 67.7018 53.1636 60.4674L51.8081 59.4596H51.7925L33.9712 58.775C33.8706 58.7711 33.7728 58.7373 33.6919 58.6774L15.1128 44.901H15.103L14.9771 44.8072L4.40381 36.9586L23.1987 37.5553L17.7651 21.2897C17.6959 21.0823 17.7686 20.8532 17.9458 20.7252ZM130.19 151.924C130.144 152.991 130.128 154.06 130.142 155.129C131.165 156.227 132.224 157.478 133.356 158.828C134.244 159.887 135.179 161.009 136.186 162.174L137.218 163.353L137.22 163.356C140.15 166.712 143.396 169.779 146.908 172.519C146.752 171.131 146.541 169.776 146.286 168.438C146.177 168.354 146.069 168.269 145.96 168.184C144.2 166.822 142.593 165.427 141.118 164.036C141.043 163.966 140.969 163.896 140.895 163.826C140.844 163.777 140.792 163.728 140.741 163.679C139.148 162.166 137.623 160.58 136.173 158.925C133.842 156.313 131.905 153.888 130.19 151.924ZM127.515 134.857C120.993 140.515 112.841 143.976 104.219 144.727L103.596 147.184C103.21 148.721 102.503 150.16 101.521 151.403C100.539 152.647 99.3049 153.668 97.8999 154.401C96.4949 155.134 94.9504 155.561 93.3687 155.654C91.7869 155.746 90.2034 155.503 88.7222 154.94L58.4575 143.468L58.4751 143.105C58.5374 141.86 58.6406 140.666 58.7954 139.515C57.9792 139.402 56.6708 139.31 55.0532 139.231C54.0911 139.184 53.0309 139.141 51.9175 139.101C51.2458 139.1 50.5784 139.099 49.9214 139.087C49.3311 139.076 48.7149 139.06 48.0786 139.043C51.5739 144.247 55.828 148.914 60.7124 152.881C67.3378 158.265 74.9833 162.253 83.189 164.605C91.3946 166.957 99.9914 167.627 108.462 166.572C116.744 165.541 124.737 162.882 131.985 158.752C131.033 157.622 130.143 156.585 129.28 155.668C129.195 155.577 129.146 155.457 129.144 155.333C129.12 153.843 129.154 152.353 129.245 150.867L129.217 150.837L129.232 150.624C129.312 149.441 129.438 148.332 129.583 147.214C129.628 146.86 129.674 146.506 129.725 146.152C128.918 145.925 128.12 145.663 127.332 145.364C127.329 145.363 127.326 145.361 127.324 145.36L126.989 145.233L127.008 144.868C127.2 141.415 127.364 138.059 127.515 134.857ZM130.7 146.407C130.651 146.765 130.604 147.119 130.559 147.471C130.436 148.48 130.338 149.49 130.269 150.504C131.231 151.564 132.226 152.749 133.286 154.015C134.404 155.351 135.599 156.78 136.923 158.263L136.926 158.266C136.954 158.298 136.983 158.33 137.011 158.362C138.314 159.819 139.738 161.328 141.318 162.847C142.803 164.264 144.349 165.617 145.953 166.901C145.559 165.06 145.116 163.337 144.659 161.715C144.434 160.925 144.199 160.132 143.958 159.332C143.566 158.048 143.177 156.832 142.807 155.677C142.516 154.769 142.237 153.895 141.981 153.051C141.424 151.272 140.917 149.43 140.696 147.618C140.68 147.493 140.667 147.37 140.654 147.247C140.649 147.195 140.643 147.143 140.638 147.091C140.636 147.071 140.633 147.052 140.631 147.032C140.223 147.078 139.813 147.115 139.404 147.143C139.365 147.146 139.327 147.149 139.289 147.152C139.156 147.161 139.023 147.169 138.89 147.175C138.807 147.18 138.725 147.184 138.642 147.187C138.521 147.192 138.399 147.197 138.278 147.201C138.178 147.204 138.079 147.205 137.979 147.207C137.835 147.209 137.691 147.212 137.547 147.213C137.377 147.213 137.206 147.213 137.036 147.211C137.013 147.21 136.989 147.209 136.966 147.209C134.858 147.175 132.756 146.907 130.7 146.407ZM87.1899 133.947L86.6802 133.772C86.6631 133.768 86.6451 133.766 86.6284 133.76L65.8599 126.644C63.5857 129.027 62.0696 131.488 61.0815 134.2L62.2632 134.57C62.5267 134.652 62.6737 134.932 62.5913 135.196C62.5089 135.459 62.2288 135.606 61.9653 135.524L60.7603 135.147C60.3395 136.488 60.0368 137.892 59.8247 139.378L59.7847 139.702L59.7798 139.701C59.648 140.692 59.5557 141.72 59.4946 142.791L89.0767 153.986L89.0776 153.987C90.4266 154.5 91.869 154.72 93.3101 154.636C94.751 154.551 96.1581 154.163 97.438 153.496C98.718 152.828 99.8426 151.898 100.737 150.764C101.631 149.632 102.276 148.321 102.627 146.921L107.746 126.776L99.3198 124.731L99.1479 125.495C99.0868 125.764 98.8185 125.933 98.5493 125.872C98.28 125.811 98.1113 125.542 98.1724 125.273L98.3481 124.496L97.2749 124.236L97.2759 124.23L97.2183 124.216L97.2124 124.214C94.4081 123.604 91.8703 122.327 89.9204 120.01L87.1899 133.947ZM163.365 150.023L177.653 153.503L170 147.772L163.365 150.023ZM170.586 146.961L178.085 152.577L170.586 140.494V146.961ZM157.397 75.8981C157.261 75.9602 157.112 76.0097 156.951 76.0387C156.84 76.0585 156.727 76.0746 156.613 76.0904C156.603 76.094 156.594 76.1002 156.583 76.1031C156.389 76.1594 156.178 76.2127 155.955 76.2672C155.524 83.3085 153.856 92.0305 152.646 98.9586C151.999 102.611 151.28 106.629 150.845 110.312V110.314C150.402 113.979 150.565 117.691 151.328 121.302C151.426 121.678 151.372 122.076 151.18 122.413C150.988 122.75 150.671 123 150.296 123.107L150.295 123.106C150.107 123.161 149.91 123.178 149.716 123.156L149.712 123.155C149.519 123.131 149.329 123.069 149.155 122.967L149.153 122.966C148.984 122.867 148.834 122.733 148.716 122.573C148.599 122.413 148.515 122.229 148.471 122.037L148.469 122.027L148.467 122.016C147.74 118.048 147.675 113.986 148.274 109.997L148.496 108.586C148.726 107.179 148.991 105.737 149.271 104.3L148.229 103.88C148.231 103.977 148.232 104.074 148.231 104.171L148.223 104.46C147.73 117.678 146.304 131.052 144.798 143.13C144.678 144.097 144.561 145.056 144.44 146.005C144.439 146.01 144.438 146.014 144.437 146.018L144.395 146.346L144.074 146.423C144.069 146.425 144.065 146.427 144.061 146.428C143.255 146.622 142.443 146.778 141.627 146.9C141.633 146.964 141.637 147.028 141.643 147.091C141.769 148.353 142.073 149.715 142.489 151.213C151.711 143.053 158.411 132.33 161.662 120.313C165.675 105.475 164.154 89.6901 157.397 75.8981ZM128.528 95.9479C122.891 96.9919 117.295 98.2477 111.75 99.7106C111.544 99.7653 111.337 99.8194 111.13 99.8746L111.011 99.9059C109.722 100.256 108.452 100.606 107.183 100.972C106.918 101.049 106.642 100.896 106.565 100.63C106.488 100.365 106.641 100.088 106.907 100.011C108.093 99.6693 109.279 99.3424 110.477 99.0162L110.47 98.901L105.19 99.6666C105.167 99.6723 105.144 99.6749 105.12 99.6774L97.0073 100.854L97.3677 104.51C97.3948 104.785 97.1942 105.03 96.9194 105.057C96.6446 105.084 96.3997 104.884 96.3726 104.609L96.0161 100.998L90.2446 101.835C89.0074 103.317 87.9956 106.054 87.7671 109.153C87.6345 110.951 87.7686 112.84 88.2573 114.638C88.2998 114.794 88.3453 114.949 88.3931 115.103C88.4143 115.172 88.4362 115.24 88.4585 115.308C88.8365 116.448 89.3608 117.539 90.0552 118.533L90.1763 118.707L90.1743 118.714C93.2267 122.917 98.2171 123.926 103.58 123.632C103.61 123.631 103.64 123.629 103.67 123.628C103.722 123.625 103.773 123.621 103.825 123.618C104.024 123.605 104.223 123.592 104.423 123.576C104.549 123.566 104.675 123.555 104.8 123.544C104.922 123.533 105.044 123.521 105.167 123.509C105.27 123.499 105.374 123.489 105.477 123.478C105.599 123.465 105.721 123.452 105.843 123.438C105.959 123.425 106.074 123.411 106.19 123.397C106.445 123.366 106.701 123.333 106.957 123.297C107.253 123.256 107.551 123.212 107.85 123.166C108.069 123.132 108.288 123.095 108.507 123.058C108.679 123.029 108.851 122.999 109.024 122.968L109.03 122.967C110.74 122.662 112.48 122.276 114.205 121.836C114.585 121.739 114.964 121.638 115.341 121.537C116.473 121.232 117.592 120.909 118.684 120.575C118.887 120.513 119.09 120.45 119.292 120.387C120.021 120.16 120.738 119.929 121.437 119.697C121.668 119.62 121.896 119.542 122.124 119.465C122.207 119.437 122.29 119.409 122.373 119.38C122.917 119.195 123.45 119.011 123.969 118.827C124.646 118.587 125.298 118.349 125.922 118.118C126.271 117.989 126.61 117.861 126.941 117.736C127.554 117.504 128.133 117.282 128.674 117.07L129.317 116.819C130.238 116.457 130.991 116.16 131.606 115.899C131.86 115.791 132.154 115.91 132.262 116.164C132.37 116.418 132.251 116.711 131.998 116.819C131.294 117.118 130.414 117.462 129.339 117.884C129.083 122.35 128.851 127.7 128.574 133.642C128.578 133.686 128.575 133.729 128.568 133.772C128.408 137.19 128.235 140.802 128.028 144.554C128.634 144.775 129.246 144.973 129.863 145.15L129.864 145.145L130.379 145.282C130.39 145.284 130.402 145.285 130.413 145.288C132.09 145.736 133.802 146.019 135.525 146.141L135.581 144.996C135.594 144.72 135.828 144.507 136.104 144.52C136.38 144.533 136.593 144.768 136.58 145.044L136.524 146.193C137.373 146.222 138.223 146.212 139.072 146.162C139.258 146.15 139.444 146.138 139.63 146.123C139.659 146.12 139.688 146.118 139.717 146.116C139.916 146.099 140.115 146.08 140.313 146.059C140.391 146.051 140.469 146.042 140.546 146.033C141.533 145.92 142.515 145.753 143.49 145.532C143.681 144.027 143.873 142.499 144.062 140.953C145.463 129.432 146.729 116.838 147.207 104.408C147.219 104.092 147.212 103.777 147.193 103.463L128.528 95.9479ZM96.104 136.668C96.3733 136.729 96.542 136.996 96.481 137.265L96.02 139.296C96.0191 139.3 96.02 139.305 96.019 139.309C95.8578 140.026 95.5674 140.707 95.1636 141.319L94.9839 141.577C94.4856 142.254 93.8521 142.818 93.1245 143.236C92.3965 143.654 91.5891 143.918 90.7544 144.008C89.9195 144.099 89.0746 144.014 88.2739 143.761C88.2487 143.753 88.2256 143.742 88.2026 143.73L86.5815 143.223C86.318 143.141 86.171 142.86 86.2534 142.596C86.336 142.333 86.6169 142.186 86.8804 142.268L88.5933 142.804C88.6149 142.811 88.6348 142.821 88.6548 142.831C89.3 143.023 89.9771 143.086 90.647 143.013C91.3439 142.938 92.0178 142.719 92.6255 142.37C93.2336 142.02 93.7623 141.548 94.1782 140.983C94.5935 140.42 94.8874 139.776 95.0415 139.093C95.042 139.091 95.0429 139.089 95.0435 139.087L95.5063 137.045C95.5674 136.775 95.8347 136.607 96.104 136.668ZM128.315 118.281C127.967 118.415 127.606 118.554 127.232 118.695C126.887 118.825 126.532 118.959 126.168 119.093C126.127 119.109 126.086 119.125 126.044 119.14C125.518 119.334 124.972 119.532 124.411 119.732C124.37 119.746 124.329 119.761 124.289 119.775C123.801 119.948 123.301 120.12 122.791 120.295C122.646 120.344 122.5 120.395 122.354 120.444C122.168 120.507 121.981 120.57 121.792 120.632C121.639 120.684 121.484 120.734 121.329 120.785C120.523 121.05 119.696 121.312 118.855 121.568C118.729 121.606 118.603 121.645 118.476 121.683C118.233 121.756 117.988 121.83 117.743 121.902C117.693 121.916 117.644 121.931 117.594 121.945C117.026 122.111 116.453 122.272 115.875 122.429C115.771 122.458 115.666 122.486 115.561 122.514C115.289 122.587 115.016 122.66 114.742 122.731C114.718 122.737 114.695 122.744 114.671 122.75C114.553 122.78 114.433 122.809 114.314 122.839C113.877 122.95 113.439 123.057 113 123.161C112.806 123.207 112.611 123.252 112.417 123.296C112.166 123.354 111.917 123.411 111.667 123.465C111.611 123.477 111.556 123.49 111.5 123.502C111.193 123.568 110.886 123.631 110.579 123.693C110.483 123.712 110.386 123.731 110.291 123.75C110.085 123.79 109.879 123.83 109.673 123.868C109.623 123.877 109.573 123.887 109.523 123.896L108.739 127.012L108.719 127.007L104.481 143.698C113.083 142.872 121.188 139.283 127.58 133.463C127.845 127.767 128.072 122.597 128.315 118.281ZM76.9194 139.677C77.0019 139.414 77.2821 139.267 77.5454 139.349L80.9028 140.4C81.1663 140.482 81.3133 140.762 81.231 141.026C81.1485 141.29 80.8676 141.437 80.604 141.354L77.2476 140.304C76.984 140.222 76.837 139.941 76.9194 139.677ZM136.517 135.918C136.793 135.931 137.006 136.165 136.993 136.441L136.851 139.375C136.838 139.65 136.603 139.863 136.328 139.85C136.052 139.837 135.839 139.603 135.852 139.327L135.994 136.393C136.007 136.117 136.241 135.904 136.517 135.918ZM59.0396 127.464C57.7118 128.057 56.2494 128.647 54.6831 129.275C53.0359 129.935 51.2708 130.641 49.4077 131.448L49.4038 131.449C45.5177 133.094 41.7911 135.092 38.269 137.413C38.9629 137.491 39.6663 137.561 40.3735 137.623C40.7546 137.649 41.1551 137.675 41.5718 137.699C43.6152 137.815 46.0153 137.9 48.3979 137.981C49.5891 138.021 50.7763 138.06 51.9106 138.101C54.2025 138.105 56.6554 138.108 58.9321 138.51C59.4338 135.112 60.6916 131.87 62.6138 129.024C61.9869 128.731 61.3949 128.457 60.7915 128.186C60.2118 127.935 59.628 127.694 59.0396 127.464ZM67.6343 136.774C67.7167 136.51 67.9967 136.363 68.2603 136.446L71.6548 137.507C71.9183 137.59 72.0654 137.871 71.9829 138.134C71.9004 138.398 71.6203 138.545 71.3569 138.463L67.9614 137.4C67.6982 137.317 67.5521 137.037 67.6343 136.774ZM55.4683 126.221C54.0965 126.845 52.5755 127.462 50.939 128.118C49.2283 128.804 47.3876 129.537 45.437 130.383L45.4331 130.385C41.3354 132.126 37.4127 134.251 33.7163 136.729C34.6625 136.917 35.6652 137.082 36.7026 137.222C44.8027 131.654 52.291 129.216 57.6431 126.944C56.9237 126.687 56.1988 126.446 55.4683 126.221ZM97.6401 129.887C97.9092 129.948 98.0779 130.216 98.0171 130.485L97.3208 133.557C97.2598 133.827 96.9924 133.995 96.7231 133.934C96.4539 133.873 96.2852 133.606 96.3462 133.337L97.0415 130.264C97.1025 129.995 97.3708 129.826 97.6401 129.887ZM62.8696 93.2027L62.8687 93.2018C62.5579 93.2291 62.2467 93.2382 61.936 93.2311C60.4451 98.7322 60.136 104.488 61.0366 110.119C61.9492 115.825 64.0807 121.265 67.2827 126.074L86.4116 132.623L89.1099 118.936C88.5465 118.1 88.0956 117.209 87.7437 116.289C84.5831 113.028 82.777 108.689 82.6938 104.146C82.6904 103.957 82.6913 103.768 82.6938 103.58C82.7454 99.2911 84.3326 95.1593 87.1743 91.9391L87.0317 91.3531L62.8696 93.2027ZM136.944 127.001C137.22 127.014 137.433 127.248 137.419 127.524L137.27 130.638C137.257 130.914 137.022 131.127 136.747 131.114C136.471 131.1 136.258 130.867 136.271 130.591L136.42 127.476C136.434 127.2 136.668 126.987 136.944 127.001ZM53.9702 61.067C47.432 68.2036 42.5671 76.8018 39.8394 86.2408C35.6168 100.853 36.8023 116.491 43.1665 130.294C43.509 130.136 43.8527 129.982 44.1978 129.83L45.0425 129.464C47.0072 128.612 48.8604 127.873 50.5669 127.189C52.2779 126.503 53.8377 125.874 55.229 125.234L55.3149 125.204C55.4027 125.181 55.4958 125.183 55.5835 125.21C56.7243 125.556 57.8516 125.943 58.9653 126.366L59.022 126.34L59.2212 126.422C59.9295 126.713 60.573 126.992 61.2017 127.274C61.8812 127.568 62.5544 127.878 63.2212 128.201C63.854 127.361 64.5642 126.535 65.3618 125.718L65.5825 125.493L65.7563 125.551C62.8596 120.894 60.9171 115.703 60.0493 110.277C59.136 104.567 59.4336 98.7302 60.9204 93.1461C60.4738 93.0814 60.0316 92.9833 59.5991 92.8473C58.5408 92.5146 57.5584 91.9762 56.7085 91.2633C55.8585 90.5503 55.1577 89.6764 54.646 88.692C54.1345 87.7081 53.8224 86.6328 53.7271 85.5279L53.6987 85.1129C53.6066 83.0592 54.2041 81.2997 55.395 79.8609C56.6558 78.3378 58.5529 77.2076 60.9097 76.4391L60.9204 76.4361L70.6812 73.4859L53.9702 61.067ZM108.428 124.088C108.142 124.134 107.854 124.179 107.565 124.221C107.44 124.24 107.315 124.257 107.19 124.275C107.009 124.3 106.828 124.324 106.646 124.347C106.524 124.363 106.402 124.379 106.281 124.394C106.148 124.41 106.015 124.425 105.881 124.44C105.816 124.447 105.751 124.454 105.685 124.462C105.502 124.481 105.321 124.5 105.139 124.517C105.061 124.525 104.982 124.532 104.904 124.539C104.798 124.548 104.692 124.557 104.586 124.566C104.437 124.578 104.288 124.589 104.139 124.599C103.983 124.61 103.826 124.62 103.669 124.629C103.588 124.633 103.508 124.64 103.427 124.644L107.993 125.801L108.428 124.088ZM137.364 118.258C137.64 118.272 137.853 118.506 137.839 118.782L137.699 121.71C137.685 121.985 137.451 122.198 137.175 122.185C136.899 122.172 136.686 121.938 136.7 121.662L136.84 118.734C136.854 118.458 137.088 118.245 137.364 118.258ZM150.216 104.681C149.858 106.529 149.526 108.378 149.263 110.143C148.681 114.016 148.743 117.961 149.447 121.814L149.476 121.902L149.522 121.979L149.523 121.981C149.559 122.03 149.606 122.072 149.66 122.104C149.71 122.134 149.768 122.153 149.831 122.162C149.893 122.169 149.957 122.164 150.017 122.146L150.022 122.145C150.145 122.11 150.248 122.029 150.311 121.919C150.375 121.807 150.392 121.676 150.36 121.553L150.356 121.542L150.354 121.53C149.565 117.805 149.394 113.974 149.852 110.194C150.061 108.422 150.336 106.575 150.635 104.733C150.532 104.763 150.419 104.763 150.311 104.719L150.216 104.681ZM137.64 113.559C137.916 113.573 138.129 113.808 138.116 114.084L138.041 115.619C138.027 115.895 137.792 116.108 137.516 116.094C137.241 116.081 137.028 115.846 137.042 115.571L137.117 114.035C137.13 113.759 137.364 113.546 137.64 113.559ZM87.4702 93.1598C84.9695 96.2425 83.6263 100.116 83.6938 104.105L83.7056 104.508C83.8495 107.921 85.0237 111.195 87.0493 113.911C86.7161 112.318 86.6222 110.69 86.7212 109.135C86.9115 106.148 87.8124 103.357 89.1255 101.545C89.141 101.523 89.1567 101.501 89.1724 101.48C89.2285 101.404 89.2837 101.329 89.3413 101.256C89.3663 101.225 89.3923 101.194 89.4175 101.164L87.6909 94.0641L87.4702 93.1598ZM97.2349 108.202C97.5097 108.175 97.7547 108.376 97.7817 108.651C97.8352 109.195 98.0014 109.72 98.27 110.197C98.5382 110.672 98.9026 111.086 99.3403 111.414C99.7238 111.7 100.156 111.913 100.614 112.044L100.812 112.094C101.345 112.217 101.897 112.226 102.433 112.123C102.704 112.07 102.967 112.248 103.019 112.519C103.071 112.79 102.894 113.053 102.623 113.105C101.949 113.235 101.257 113.223 100.588 113.069C100.004 112.935 99.4496 112.696 98.9526 112.364L98.7427 112.215C98.1939 111.805 97.7358 111.286 97.3989 110.689C97.0622 110.092 96.8537 109.431 96.7866 108.749C96.7597 108.474 96.9601 108.229 97.2349 108.202ZM111.257 110.424C111.528 110.372 111.791 110.55 111.843 110.821C111.895 111.092 111.718 111.354 111.447 111.407L108.748 111.926C108.477 111.979 108.214 111.802 108.162 111.531C108.109 111.26 108.287 110.997 108.558 110.945L111.257 110.424ZM135.009 107.065C135.142 106.823 135.446 106.735 135.688 106.868C135.869 106.967 136.042 107.077 136.208 107.198L136.371 107.322L136.372 107.323C136.955 107.787 137.424 108.378 137.746 109.048C138.067 109.721 138.232 110.457 138.228 111.203C138.226 111.479 138.001 111.701 137.725 111.7C137.449 111.698 137.226 111.473 137.228 111.197C137.232 110.603 137.1 110.017 136.844 109.481C136.588 108.946 136.214 108.476 135.75 108.106L135.485 107.913C135.394 107.852 135.302 107.796 135.208 107.744C134.965 107.611 134.876 107.307 135.009 107.065ZM118.753 108.982C119.025 108.93 119.286 109.107 119.338 109.379C119.39 109.649 119.214 109.911 118.943 109.963L116.201 110.492C115.93 110.544 115.667 110.366 115.615 110.095C115.563 109.824 115.74 109.562 116.011 109.509L118.753 108.982ZM126.349 107.52C126.62 107.468 126.883 107.645 126.935 107.917C126.987 108.188 126.81 108.449 126.539 108.502L123.748 109.039C123.476 109.091 123.214 108.913 123.162 108.642C123.11 108.371 123.287 108.11 123.558 108.057L126.349 107.52ZM132.334 106.368C132.606 106.316 132.867 106.493 132.919 106.764C132.972 107.035 132.795 107.298 132.524 107.35L131.195 107.606C130.924 107.658 130.661 107.481 130.609 107.21C130.557 106.938 130.734 106.676 131.005 106.624L132.334 106.368ZM187.829 90.3629C188.104 90.3397 188.345 90.5438 188.369 90.819L188.692 94.6529L188.709 94.8072C188.819 95.577 189.211 96.2816 189.81 96.7828C190.449 97.3171 191.273 97.5774 192.103 97.5065L195.942 97.1832C196.217 97.1601 196.459 97.3651 196.482 97.6402C196.505 97.9153 196.301 98.1571 196.026 98.1803L192.188 98.5035L192.187 98.5025C191.36 98.5804 190.595 98.9817 190.061 99.6197C189.56 100.22 189.301 100.981 189.329 101.758L189.338 101.915L189.661 105.753C189.684 106.028 189.48 106.27 189.205 106.294C188.93 106.317 188.688 106.112 188.665 105.837L188.34 101.988C188.265 101.216 187.909 100.501 187.341 99.9772L187.224 99.8736C186.586 99.3397 185.763 99.0792 184.934 99.149L184.933 99.1481L184.93 99.149L181.092 99.4723C180.817 99.4954 180.575 99.2912 180.551 99.0162C180.528 98.7411 180.733 98.4984 181.008 98.4752L184.842 98.1529L184.997 98.1344C185.766 98.0247 186.47 97.6348 186.972 97.0358C187.506 96.3969 187.766 95.5721 187.696 94.7418L187.373 90.9029C187.349 90.6279 187.554 90.3862 187.829 90.3629ZM152.574 93.2379L151.424 98.7525C151.093 100.341 150.747 102.006 150.415 103.682L150.685 103.792C150.721 103.806 150.753 103.826 150.784 103.847C151.071 102.123 151.373 100.414 151.662 98.7858C152.082 96.377 152.553 93.7666 153.01 91.0943C152.865 91.8149 152.72 92.5307 152.574 93.2379ZM154.373 76.6041C153.478 76.7738 152.485 76.9378 151.466 77.0973C149.607 77.3883 147.651 77.6726 145.979 77.9693C145.937 78.4741 145.875 78.9813 145.788 79.4908C145.752 79.6985 145.591 79.8618 145.383 79.899L135.267 81.7135C137.665 85.465 139.434 89.5827 140.506 93.9059C140.586 93.9279 140.665 93.9512 140.745 93.9752C142.224 94.4227 143.587 95.1902 144.737 96.2233C145.886 97.2563 146.794 98.5299 147.397 99.9527C147.779 100.855 148.032 101.804 148.151 102.771L149.471 103.302C149.794 101.681 150.127 100.076 150.445 98.5494C151.841 91.8063 153.7 83.399 154.373 76.6041ZM140.449 94.943C139.112 94.5409 137.703 94.4368 136.322 94.6412L136.323 94.6422C134.336 94.94 132.353 95.2642 130.375 95.6139L147.058 102.331C146.964 101.819 146.829 101.315 146.652 100.824L146.461 100.337C145.918 99.0512 145.097 97.9008 144.057 96.9684C143.019 96.0362 141.786 95.345 140.449 94.943ZM74.4272 73.3981C74.4227 73.3996 74.4181 73.4006 74.4136 73.402L61.2192 77.3893C58.9762 78.1207 57.2677 79.1671 56.1655 80.4986C55.1412 81.7362 54.616 83.2505 54.6987 85.0719L54.7231 85.44C54.8071 86.4141 55.0827 87.3636 55.5337 88.2311C55.9847 89.0984 56.6021 89.8684 57.3511 90.4967C58.1001 91.1251 58.9662 91.6 59.8989 91.8932C60.8317 92.1864 61.8136 92.2923 62.7876 92.2057H62.7935L87.3794 90.3238L90.3042 90.1051L89.2212 96.1207L90.3433 100.732L104.553 98.7047C104.415 94.0793 104.201 89.9888 103.548 85.8902L92.6987 81.5221C92.5618 81.5333 92.422 81.5457 92.2798 81.5572C90.7318 81.683 88.9022 81.8236 87.4966 81.9205C87.4669 82.5821 87.404 83.245 87.3042 83.9059C87.2754 84.0957 87.1401 84.2527 86.9565 84.3092L80.7681 86.2125C80.7182 86.2382 80.664 86.2546 80.6069 86.2623L65.2778 90.9781C65.014 91.0592 64.7341 90.9109 64.6528 90.6471C64.5716 90.3832 64.72 90.1033 64.9839 90.0221L80.0864 85.3756C80.7431 80.2193 79.6244 76.0101 76.7749 72.6891L74.4272 73.3981ZM188.368 96.6539C188.21 97.0206 188 97.3667 187.74 97.6783C187.479 97.9897 187.175 98.2574 186.842 98.4772C187.209 98.6352 187.554 98.8463 187.866 99.107L188.02 99.2418C188.267 99.4695 188.483 99.7246 188.666 100.001C188.823 99.6349 189.034 99.2904 189.294 98.9791L189.43 98.8248C189.658 98.5783 189.913 98.3611 190.189 98.1783C189.823 98.0208 189.479 97.8104 189.168 97.5504C188.857 97.2897 188.588 96.987 188.368 96.6539ZM111.215 90.6285C111.265 92.4232 111.331 94.6583 111.413 97.2643C111.432 97.769 111.452 98.2612 111.473 98.7301C113.085 98.305 114.702 97.8976 116.323 97.5074C115.23 94.816 113.471 92.4503 111.215 90.6285ZM104.627 86.3248C105.214 90.2537 105.417 94.1836 105.549 98.5631L110.43 97.8668C110.424 97.6758 110.418 97.4866 110.413 97.2994C110.306 94.5234 110.224 91.3752 110.179 89.6451C110.176 89.615 110.174 89.5848 110.176 89.5543L110.152 88.6109L110.159 88.6158C110.158 88.5942 110.158 88.5727 110.158 88.5514L104.627 86.3248ZM111.17 89.0113C111.173 89.1183 111.176 89.2278 111.179 89.3395C113.942 91.3429 116.068 94.0959 117.307 97.2721C120.449 96.5302 123.607 95.8529 126.777 95.2428L111.168 88.9586C111.169 88.9761 111.17 88.9937 111.17 89.0113ZM17.5425 90.067C17.9237 90.0509 18.3054 90.1004 18.6704 90.2145C19.0874 90.3449 19.4751 90.5566 19.8101 90.8375C20.145 91.1184 20.4214 91.463 20.6226 91.8512C20.8235 92.2388 20.9453 92.6624 20.9819 93.0973L20.9946 93.3424C21.0025 93.9146 20.8619 94.4806 20.5854 94.985C20.2696 95.5611 19.7902 96.0309 19.2075 96.3346C18.6246 96.6385 17.9643 96.7624 17.311 96.691C16.7394 96.6287 16.1953 96.4196 15.731 96.0856L15.5366 95.9342C15.0331 95.5119 14.666 94.9499 14.4819 94.319C14.2979 93.6882 14.305 93.017 14.5024 92.3902C14.6998 91.7633 15.0789 91.209 15.5913 90.7975C16.1033 90.3864 16.7253 90.1355 17.3794 90.0777L17.5425 90.067ZM17.4702 91.0738H17.4683C17.0108 91.114 16.5755 91.2892 16.2173 91.5768C15.8592 91.8644 15.5946 92.2519 15.4565 92.69C15.3185 93.1281 15.3132 93.5976 15.4419 94.0387C15.5705 94.4793 15.8266 94.8724 16.1782 95.1676C16.5303 95.4628 16.9629 95.6471 17.4194 95.6969C17.8761 95.7467 18.3374 95.6601 18.7446 95.4479C19.1519 95.2356 19.4877 94.9072 19.7085 94.5045C19.9294 94.1015 20.0261 93.6419 19.9858 93.1842V93.1822C19.9604 92.8783 19.8752 92.5819 19.7349 92.3111C19.5945 92.0404 19.4013 91.8002 19.1675 91.6041C18.9339 91.4082 18.6637 91.2607 18.3726 91.1695C18.0813 91.0785 17.7741 91.0459 17.4702 91.0738ZM117.772 84.8531L117.773 84.8551L111.094 86.0514C111.097 86.1744 111.101 86.3234 111.105 86.4977C111.114 86.8525 111.126 87.312 111.14 87.8697L128.602 94.9C131.118 94.4366 133.642 94.0145 136.173 93.6344H136.176C137.254 93.4776 138.346 93.4888 139.415 93.6656C138.324 89.4903 136.563 85.5188 134.201 81.9049L117.772 84.8531ZM88.0425 91.277L88.6372 93.7213L89.0913 91.1979L88.0425 91.277ZM102.022 75.7828C103.172 79.0761 103.931 82.1374 104.444 85.1734L110.129 87.4625C110.12 87.0953 110.111 86.7807 110.105 86.5221C110.102 86.4148 110.099 86.3171 110.097 86.2291L110.092 86.2311L110.008 82.6139L110.602 82.7106L117.676 83.8551L138.708 80.0807C138.941 77.3295 138.649 74.5723 137.863 71.9498L102.022 75.7828ZM77.8149 72.3746C80.5874 75.7903 81.6796 80.0322 81.1313 85.0543L86.3579 83.4459C86.4422 82.8137 86.4944 82.1805 86.5112 81.5484C86.5075 81.5288 86.5018 81.5093 86.5005 81.4889C86.4973 81.4405 86.5032 81.3934 86.5132 81.3483C86.5579 78.4591 85.9059 75.604 84.6157 73.025C84.6121 73.0194 84.6075 73.0143 84.604 73.0084C84.5886 72.9823 84.5771 72.9548 84.5669 72.9274C84.182 72.1694 83.7416 71.4361 83.2476 70.733L77.8149 72.3746ZM111.065 85.0406L113.739 84.5621L114.709 84.3873L111.036 83.7936L111.065 85.0406ZM97.0327 76.317C97.1046 76.4815 97.1544 76.654 97.1782 76.8287C97.2349 77.2459 97.1551 77.6902 96.9126 78.0543C96.801 78.2219 96.6571 78.3647 96.4868 78.4781C96.7178 78.7594 96.8576 79.0999 96.897 79.4469C96.9433 79.8555 96.8556 80.289 96.6099 80.6402C96.3563 81.0024 95.9523 81.2496 95.439 81.2897L95.438 81.2877C95.3795 81.2942 95.28 81.3051 95.1685 81.315C95.0965 81.3215 95.0117 81.3282 94.9155 81.3365L103.352 84.734C102.838 81.8762 102.095 78.9901 101 75.8922L97.0327 76.317ZM83.8579 80.1598C84.2394 80.1252 84.6185 80.2439 84.9126 80.4889C85.2068 80.734 85.3916 81.0859 85.4263 81.4674C85.4566 81.8011 85.3706 82.1337 85.1841 82.4088L85.0981 82.5231C84.8529 82.8174 84.5001 83.002 84.1187 83.0367C83.7372 83.0713 83.358 82.9526 83.064 82.7076C82.8064 82.493 82.6325 82.197 82.5698 81.8707L82.5503 81.7291C82.5157 81.3478 82.6332 80.9678 82.8784 80.6734C83.1237 80.3792 83.4765 80.1945 83.8579 80.1598ZM83.9478 81.1559C83.8305 81.1666 83.7224 81.2236 83.647 81.3141C83.5718 81.4044 83.5349 81.521 83.5454 81.6383C83.5561 81.7557 83.613 81.8645 83.7036 81.94C83.7942 82.0155 83.9116 82.0513 84.0288 82.0406C84.1462 82.0299 84.2543 81.9728 84.3296 81.8824C84.4049 81.792 84.4418 81.6755 84.4312 81.5582C84.4205 81.4411 84.3633 81.3328 84.2729 81.2574C84.1823 81.1819 84.0651 81.1452 83.9478 81.1559ZM90.4526 69.4918C89.8726 69.4996 89.4413 69.5057 89.1011 69.5289C88.7596 69.5522 88.5493 69.5912 88.4009 69.6461C88.1597 69.7355 88.0069 69.8876 87.6821 70.4889C87.249 71.4721 86.5564 72.3153 85.6821 72.9303C86.8663 75.4249 87.4918 78.1508 87.5142 80.9166C88.901 80.8203 90.6828 80.6843 92.1987 80.5611C93.0603 80.4911 93.8353 80.4259 94.4019 80.3775C94.6852 80.3534 94.9162 80.3335 95.0796 80.319C95.2378 80.3048 95.3094 80.298 95.3188 80.2975L95.3608 80.2926C95.5789 80.2756 95.7099 80.1822 95.7905 80.067C95.8787 79.941 95.9253 79.7592 95.9028 79.5602C95.86 79.1824 95.579 78.8014 94.9624 78.8014C94.6935 78.8011 94.4731 78.5887 94.4634 78.3199C94.4539 78.0509 94.6588 77.8225 94.9272 77.8033H94.9292L94.9331 77.8024C94.9367 77.8021 94.942 77.8019 94.9487 77.8014C94.9625 77.8004 94.9826 77.7993 95.0073 77.7975C95.0568 77.7939 95.1253 77.7885 95.2007 77.7828L95.6372 77.7467C95.8631 77.724 95.9982 77.6242 96.0806 77.5006C96.1706 77.3655 96.2154 77.1726 96.187 76.9635C96.1328 76.5655 95.8268 76.1693 95.1802 76.1793L95.1724 76.1803C95.1053 76.1803 94.9946 76.1741 94.9155 76.1695C94.873 76.1671 94.8337 76.1645 94.8052 76.1627C94.7909 76.1618 94.7791 76.1613 94.771 76.1608C94.767 76.1605 94.7634 76.1599 94.7612 76.1598H94.7583C94.4955 76.1419 94.2909 75.9232 94.2915 75.6598C94.2921 75.3963 94.4974 75.1784 94.7603 75.1617C95.0588 75.1428 95.3131 75.1248 95.5786 75.0895C95.9756 75.0349 96.1888 74.7136 96.1538 74.2906C96.1191 73.8736 95.8399 73.4963 95.3267 73.4459C95.184 73.4347 95.0401 73.439 94.8979 73.4586L94.897 73.4576L94.8921 73.4586C94.6193 73.4927 94.3703 73.3005 94.3345 73.0279C94.2987 72.7555 94.4891 72.5051 94.7612 72.4674C94.7634 72.4671 94.7659 72.4667 94.7681 72.4664L94.9829 72.4332C95.0594 72.4201 95.1481 72.4044 95.2319 72.3922L95.3052 72.3775C95.4682 72.3359 95.5724 72.2435 95.6401 72.1266C95.7248 71.9804 95.7623 71.7751 95.7261 71.5582C95.6901 71.3432 95.5871 71.1509 95.438 71.0221C95.3146 70.9155 95.1393 70.8339 94.8901 70.8336L94.7788 70.8385C94.1323 70.8955 93.6431 70.939 92.9888 71.0094H92.8823C92.7549 70.9977 92.6318 70.9377 92.5435 70.8316C92.4653 70.7377 92.4298 70.6237 92.4302 70.5104C92.3457 69.8358 92.2094 69.6958 92.0815 69.6275C91.985 69.5761 91.8269 69.5318 91.5464 69.5084C91.4071 69.4968 91.2495 69.491 91.0688 69.4889L90.4526 69.4918ZM138.876 71.8414C139.633 74.4449 139.924 77.1726 139.725 79.8981L144.856 78.9772C145.247 76.3583 144.998 73.7944 144.258 71.2652L138.876 71.8414ZM150.521 70.5953C150.054 71.4444 149.361 72.1257 148.489 72.5856C148.245 72.714 147.943 72.6197 147.814 72.3756C147.685 72.1314 147.779 71.8296 148.023 71.7008C148.482 71.4588 148.886 71.1335 149.219 70.735L145.271 71.1568C145.809 73.052 146.085 74.9803 146.036 76.9449C147.672 76.66 149.554 76.3849 151.311 76.11C151.385 76.0985 151.458 76.0853 151.531 76.0738C151.013 75.7905 150.671 75.321 150.57 74.7848C150.485 74.3324 150.58 73.8511 150.881 73.4586C151.012 73.2884 151.176 73.1437 151.369 73.026C150.886 72.7434 150.562 72.2959 150.454 71.7838C150.369 71.3832 150.423 70.957 150.634 70.5836L150.521 70.5953ZM156.151 73.2887L156.152 73.2897C154.949 73.4082 153.897 73.4956 152.411 73.7047C152.013 73.7606 151.79 73.9165 151.674 74.067C151.557 74.2195 151.516 74.4091 151.552 74.6002C151.621 74.9622 152.003 75.411 152.837 75.3522C153.706 75.2906 154.388 75.2581 154.96 75.2272C155.057 75.1942 155.16 75.1798 155.262 75.1871L155.364 75.2037C155.901 75.1706 156.344 75.1315 156.775 75.0543C156.964 75.0204 157.095 74.9427 157.187 74.8453C157.197 74.8325 157.207 74.8201 157.218 74.8082C157.241 74.7795 157.264 74.7514 157.282 74.7203C157.376 74.5535 157.409 74.3271 157.359 74.0924C157.262 73.6425 156.876 73.2202 156.151 73.2887ZM100.391 74.2408C100.051 74.4003 99.699 74.533 99.3354 74.6334C98.6051 74.8351 97.8466 74.9077 97.0933 74.8541C97.05 75.0193 96.9835 75.1785 96.894 75.3258L100.649 74.9244C100.565 74.6979 100.479 74.4699 100.391 74.2408ZM136.413 68.317C133.206 68.9095 129.15 69.6557 124.989 70.4108C116.315 71.9846 107.134 73.609 104.27 73.9625L103.784 74.0162C102.989 74.0881 102.193 73.9407 101.478 73.6002C101.41 73.6497 101.341 73.697 101.271 73.7438C101.41 74.1036 101.545 74.4601 101.675 74.8141L137.548 70.9781C137.229 70.0703 136.851 69.1809 136.413 68.317ZM94.5659 69.7975C94.5633 69.8164 94.5609 69.8353 94.5581 69.8541C94.6017 69.8503 94.646 69.8464 94.6909 69.8424C95.2555 69.7927 95.7361 69.9576 96.0923 70.2652C96.4402 70.5659 96.6432 70.9793 96.7124 71.3932C96.7813 71.8053 96.7228 72.2522 96.5054 72.6275C96.4689 72.6904 96.4261 72.749 96.3813 72.8063C96.7423 73.071 96.9776 73.451 97.0864 73.8522C97.7521 73.9088 98.4233 73.8478 99.0688 73.6695C99.5956 73.5242 100.096 73.3014 100.557 73.0133C99.9806 72.5369 99.5289 71.9231 99.2524 71.2213C99.1292 70.9529 99.0185 70.6785 98.9194 70.401L96.4429 68.3102L96.5054 68.1832L94.5659 69.7975ZM110.241 41.277C95.0462 38.9382 79.5203 42.212 66.564 50.4869C62.1751 53.29 58.1823 56.6013 54.6558 60.3297L71.8735 73.1256L74.0259 72.4752C78.4677 68.6848 83.6721 65.8987 89.2827 64.3014C88.6704 63.5921 88.0499 62.8249 87.479 61.9772C86.9607 61.2071 86.7508 60.3508 86.7612 59.4723C86.765 59.0075 86.8292 58.5361 86.9458 58.068C87.2797 56.7272 88.0313 55.375 88.9692 54.1705C89.9093 52.9633 91.0554 51.8797 92.2056 51.0787C93.3432 50.2865 94.5393 49.7336 95.5757 49.6656C96.605 49.5982 97.4293 49.8917 98.0884 50.4947C98.3726 50.7548 98.6168 51.0678 98.8354 51.4195C99.1103 51.8573 99.3431 52.3568 99.5483 52.8981C99.9183 53.874 100.225 55.0376 100.543 56.3014C100.863 57.5663 101.197 58.9418 101.626 60.3873C101.893 60.9869 102.111 61.547 102.286 62.0699L123.159 44.693C119.013 43.112 114.686 41.9611 110.241 41.277ZM102.72 63.7623C102.954 65.1252 102.801 66.1563 102.353 66.9274C101.7 68.0516 100.522 68.461 99.4712 68.5904C99.4978 68.7409 99.5276 68.8906 99.561 69.0397C99.7024 69.6543 99.9059 70.2538 100.171 70.8277C100.175 70.8365 100.18 70.8461 100.183 70.8551C100.455 71.5448 100.942 72.1279 101.573 72.5182C101.648 72.5389 101.718 72.578 101.778 72.6334C102.364 72.9435 103.03 73.0803 103.694 73.0201L104.169 72.9674C106.68 72.6566 114.236 71.3321 122.033 69.9264C116.234 66.247 109.584 64.1215 102.72 63.7623ZM157.05 70.2418C156.855 70.0988 156.569 70.004 156.169 70.0572C154.925 70.2233 153.839 70.348 152.31 70.6061C151.898 70.6758 151.668 70.8448 151.548 71.0084C151.428 71.174 151.389 71.376 151.431 71.5768C151.512 71.9582 151.924 72.4153 152.787 72.3326L152.788 72.3316C154.827 72.1364 155.866 72.1113 156.855 71.9039C157.127 71.8468 157.289 71.702 157.379 71.5299C157.476 71.3464 157.506 71.1037 157.448 70.857C157.39 70.6123 157.253 70.3896 157.05 70.2418ZM90.02 65.1334C85.1623 66.4529 80.6066 68.683 76.5933 71.6988L83.3022 69.6725L83.3794 69.6559C83.5589 69.6313 83.7405 69.7057 83.8501 69.8551C84.3594 70.5506 84.816 71.2774 85.2222 72.027C85.8991 71.5204 86.4371 70.8459 86.7769 70.065L86.7944 70.0279C87.1298 69.4052 87.4322 68.9377 88.0532 68.7076C88.3369 68.6026 88.6616 68.5562 89.0337 68.5309C89.4072 68.5054 89.8693 68.4995 90.439 68.4918C90.8966 68.4856 91.2953 68.4845 91.6294 68.5123C91.9613 68.54 92.2792 68.5994 92.5532 68.7457C92.91 68.9364 93.1171 69.2315 93.2476 69.5943L93.2544 69.5885C92.9334 68.5969 92.2511 67.6611 91.3452 66.6168C90.9382 66.1476 90.4891 65.6551 90.02 65.1334ZM142.615 67.1666C142.357 67.2146 141.979 67.2858 141.497 67.3756C140.532 67.5552 139.148 67.8121 137.475 68.1217C137.462 68.1241 137.449 68.1261 137.436 68.1285C137.874 69.0194 138.253 69.9347 138.57 70.8688L140.493 70.6627C140.334 70.6214 140.182 70.5556 140.044 70.4625L139.93 70.3766C139.637 70.1316 139.453 69.78 139.417 69.399L139.417 69.3971C139.4 69.2094 139.42 69.0193 139.477 68.8375C139.534 68.6565 139.624 68.4883 139.745 68.3434C139.867 68.196 140.018 68.0756 140.185 67.9879C140.353 67.8997 140.536 67.8458 140.725 67.8287C140.914 67.8117 141.104 67.8318 141.285 67.8883C141.466 67.9447 141.635 68.0358 141.781 68.1578C141.889 68.2486 141.984 68.3551 142.062 68.4733L142.134 68.5953L142.135 68.5983C142.221 68.7634 142.276 68.9459 142.293 69.1363L142.299 69.2789C142.297 69.6121 142.179 69.9352 141.965 70.192C141.839 70.3444 141.682 70.4664 141.509 70.5543L143.949 70.2936C143.589 69.2445 143.148 68.2014 142.635 67.1627C142.628 67.164 142.622 67.1653 142.615 67.1666ZM151.689 63.2467C151.346 63.2043 150.856 63.2459 150.079 63.3326C149.427 63.4053 148.941 63.4587 148.559 63.5211C148.176 63.5838 147.938 63.6498 147.771 63.7301C147.49 63.865 147.33 64.0699 147.026 64.7965C146.164 66.8556 145.249 67.8286 144.246 68.275C144.514 68.9079 144.756 69.5439 144.968 70.1842L149.859 69.6608C150.265 68.6516 150.326 67.3745 149.885 65.8844L149.884 65.8795C149.809 65.6149 149.962 65.3388 150.226 65.2623C150.49 65.186 150.766 65.3375 150.844 65.6012L150.845 65.6061C151.041 66.2959 151.265 66.819 151.489 67.2125C151.526 67.2567 151.555 67.3046 151.574 67.3561C151.943 67.9527 152.305 68.2073 152.548 68.2809C152.74 68.3389 152.848 68.2897 152.898 68.2477C152.949 68.2037 153.007 68.1081 152.985 67.9361C152.813 66.6258 152.705 65.6609 152.587 64.9283C152.552 64.7063 152.514 64.5146 152.478 64.3483C152.421 64.2865 152.372 64.2174 152.337 64.1402C152.212 63.8649 152.081 63.5881 151.951 63.3102C151.887 63.2837 151.803 63.2608 151.689 63.2467ZM140.815 68.8248C140.756 68.8301 140.701 68.8473 140.651 68.8736H140.649C140.596 68.9012 140.551 68.9389 140.515 68.982C140.477 69.0276 140.449 69.0797 140.431 69.1354C140.414 69.1899 140.408 69.2484 140.413 69.3072L140.429 69.3932C140.454 69.477 140.504 69.5522 140.572 69.609C140.661 69.6837 140.778 69.7201 140.895 69.7096C141.013 69.6989 141.122 69.6421 141.197 69.5524C141.273 69.4611 141.309 69.344 141.298 69.2281V69.2262C141.293 69.1712 141.277 69.1153 141.25 69.0621L141.202 68.9889C141.183 68.9658 141.162 68.9445 141.139 68.9254C141.095 68.8887 141.044 68.8608 140.988 68.8434C140.933 68.8262 140.874 68.8195 140.815 68.8248ZM160.636 69.6988L162.154 68.8531L160.508 68.2369L160.636 69.6988ZM103 62.777C110.311 63.2004 117.38 65.5784 123.467 69.6686C123.915 69.5875 124.363 69.5084 124.81 69.4274C129.039 68.66 133.159 67.9013 136.389 67.3043C136.403 67.2952 136.416 67.2849 136.431 67.277C136.542 67.2183 136.664 67.2072 136.777 67.233C136.952 67.2007 137.124 67.1696 137.293 67.1383C138.966 66.8288 140.349 66.5718 141.314 66.3922C141.796 66.3024 142.174 66.2322 142.431 66.1842C142.559 66.1603 142.658 66.1419 142.724 66.1295C142.757 66.1233 142.783 66.118 142.799 66.1149C142.808 66.1133 142.815 66.1127 142.819 66.1119C142.821 66.1115 142.824 66.1109 142.824 66.1109L142.825 66.11C143.043 66.0692 143.262 66.1771 143.363 66.3746C143.529 66.7016 143.686 67.0311 143.839 67.36C144.537 67.0483 145.304 66.3207 146.104 64.4098L146.218 64.1432C146.486 63.5446 146.771 63.1011 147.338 62.8287C147.636 62.686 147.986 62.6021 148.398 62.5348C148.446 62.5269 148.496 62.5209 148.546 62.5133C141.903 54.8017 133.545 48.8585 124.222 45.109L103 62.777ZM156.569 67.15C156.365 67.0078 156.072 66.9175 155.667 66.9801L155.666 66.9791C155.065 67.0797 154.482 67.1453 153.902 67.2184C153.926 67.4071 153.95 67.6028 153.977 67.8053C154.038 68.2697 153.888 68.7194 153.545 69.0104C153.201 69.3032 152.728 69.3795 152.259 69.2379C151.891 69.1265 151.527 68.8847 151.185 68.5045C151.18 68.66 151.214 68.8147 151.288 68.9537C151.378 69.1252 151.522 69.2629 151.698 69.3463C151.803 69.3962 151.917 69.4217 152.032 69.4283L153.321 69.2906C154.741 69.1321 155.592 69.0663 156.402 68.8688C156.681 68.8007 156.845 68.647 156.935 68.4654C157.031 68.2725 157.055 68.0213 156.99 67.7701C156.925 67.5209 156.779 67.2967 156.569 67.15ZM98.4761 68.7174C98.4741 68.7057 98.4732 68.6939 98.4712 68.6822C98.4689 68.6688 98.4656 68.6556 98.4634 68.6422C98.4377 68.6418 98.4119 68.6418 98.3862 68.6412L98.4761 68.7174ZM97.3765 56.0748C97.0351 55.8946 96.7432 55.8509 96.4937 55.8824C96.2431 55.9141 95.9949 56.0262 95.7524 56.2252C95.7492 56.2278 95.7459 56.2303 95.7427 56.233C95.244 56.6473 94.8174 57.3869 94.5327 58.2643C94.3904 58.7031 94.289 59.1598 94.2319 59.6022C94.2189 59.7041 94.2081 59.8051 94.1997 59.9049C94.1979 59.9264 94.1964 59.9479 94.1948 59.9693C94.1887 60.0527 94.184 60.1351 94.1812 60.2164C94.1797 60.2571 94.1798 60.2974 94.1792 60.3375C94.1784 60.3932 94.1774 60.4482 94.1782 60.5025C94.179 60.5556 94.1817 60.608 94.1841 60.6598C94.1908 60.8036 94.2012 60.9419 94.2202 61.0729L94.2251 61.1002L94.2261 61.1285C94.2318 61.3074 94.2164 61.5197 94.1274 61.7125C94.0251 61.934 93.8343 62.1055 93.5679 62.1608C93.3377 62.2084 93.1038 62.1584 92.8999 62.0846C92.6877 62.0078 92.4508 61.8838 92.189 61.7213C91.7804 61.4678 91.5082 61.4972 91.3667 61.5641C91.2207 61.6331 91.0851 61.8019 91.0601 62.0885C91.0574 62.119 91.0558 62.1509 91.0562 62.1842C91.0709 62.7206 91.4878 63.5782 92.8696 64.1969L93.1821 64.3258L93.2876 64.3815C93.5126 64.5368 93.6946 64.7459 93.8169 64.9889L93.8657 65.0943L93.8794 65.1334C94.2962 66.4276 94.5483 67.4958 94.6108 68.4596L101.456 62.7613C101.278 62.1715 101.031 61.5068 100.698 60.7594L100.694 60.7506C100.495 60.2807 100.238 59.7871 99.9546 59.2535L99.769 58.9127C98.8519 57.2663 98.0368 56.4236 97.3765 56.0748ZM95.6421 50.6822C94.8708 50.735 93.8542 51.1718 92.7769 51.9225C91.7119 52.6645 90.6388 53.678 89.7583 54.8082C88.8757 55.941 88.2054 57.1674 87.9155 58.3307C87.8163 58.729 87.7633 59.1156 87.7593 59.4869C87.755 60.1875 87.9278 60.8336 88.3091 61.4C89.0077 62.4373 89.7712 63.3336 90.521 64.1744C90.5633 64.208 90.5985 64.2492 90.6284 64.2955C91.1342 64.8601 91.631 65.4022 92.1001 65.943C92.6348 66.5594 93.1322 67.1803 93.5317 67.8316C93.4254 67.1622 93.2292 66.3995 92.937 65.4889C92.8953 65.3935 92.8311 65.3106 92.7495 65.2467C90.9335 64.5289 90.0751 63.3131 90.0562 62.2203V62.2018C90.0549 62.1279 90.0576 62.0546 90.064 61.982C90.1139 61.4104 90.4139 60.8886 90.9399 60.6402C91.4704 60.3899 92.1062 60.4745 92.7163 60.8531C92.9304 60.986 93.0909 61.0688 93.2075 61.1178C93.2063 61.0638 93.2042 60.999 93.1978 60.9225C93.1973 60.917 93.1972 60.9114 93.1968 60.9059C93.1892 60.8136 93.1853 60.7198 93.1821 60.6246C93.1813 60.5983 93.1797 60.572 93.1792 60.5455C93.1776 60.4643 93.1777 60.3823 93.1792 60.2994C93.1799 60.2634 93.1799 60.2273 93.1812 60.191C93.1845 60.0903 93.191 59.9887 93.1987 59.8863C93.2006 59.8613 93.2024 59.8362 93.2046 59.8111C93.2133 59.7088 93.2239 59.6059 93.2368 59.5025C93.239 59.485 93.2413 59.4674 93.2437 59.4498C93.2748 59.2134 93.3177 58.9758 93.3696 58.7399C93.3736 58.722 93.3763 58.7039 93.3804 58.6861C93.4177 58.5214 93.4585 58.3574 93.5054 58.1959C93.6703 57.6281 93.9013 57.0662 94.1948 56.569C94.1994 56.5613 94.2049 56.5542 94.2095 56.5465C94.4345 56.1694 94.6939 55.8289 94.9937 55.5563C95.3485 55.2336 95.7695 54.9912 96.2515 54.9039C96.7384 54.8158 97.2483 54.8934 97.7612 55.1461C98.0295 55.2783 98.2989 55.4596 98.5708 55.691C98.578 55.6971 98.5851 55.7034 98.5923 55.7096C98.8327 55.9165 99.0747 56.1631 99.3179 56.4518C99.3311 56.4674 99.3437 56.4837 99.3569 56.4996C99.4014 56.5533 99.4461 56.6082 99.4907 56.6647C99.513 56.6928 99.5348 56.7217 99.5571 56.7506C99.5873 56.7897 99.6187 56.8284 99.6489 56.8688C99.6216 56.7603 99.5938 56.6529 99.5669 56.5465C99.2454 55.2751 98.9525 54.1641 98.6069 53.2477C98.4146 52.7376 98.2094 52.3058 97.9878 51.9488C97.8106 51.6667 97.6231 51.4315 97.4175 51.2447C96.9727 50.8408 96.42 50.6291 95.6421 50.6822ZM97.3003 67.5211C97.8193 67.607 98.3461 67.6411 98.8726 67.6188L99.3345 67.5983V67.6002C100.24 67.4922 101.059 67.1644 101.488 66.4254C101.793 65.8994 101.947 65.0867 101.72 63.8424L97.3003 67.5211ZM155.793 64.1149C155.608 63.9856 155.344 63.9058 154.978 63.9733C154.506 64.0603 154.111 64.1319 153.691 64.2115C153.644 64.2924 153.583 64.3613 153.511 64.4195C153.532 64.5326 153.555 64.6491 153.575 64.7701C153.637 65.1614 153.697 65.6215 153.765 66.1539C154.412 66.0707 155.053 65.951 155.686 65.7916C156.126 65.6687 156.333 65.2231 156.195 64.7086C156.129 64.4629 155.987 64.2498 155.793 64.1149ZM125.093 44.3844C134.564 48.2859 143.034 54.4251 149.733 62.3649C149.809 62.3563 149.887 62.3474 149.967 62.3385C150.528 62.2759 151.018 62.2252 151.433 62.2301C148.599 56.4007 144.832 50.1064 141.754 44.3961C139.923 41.2089 138.334 37.8909 136.999 34.4723L125.093 44.3844ZM34.1616 57.7818L50.2446 58.399L43.2847 53.1256L42.4741 52.5231L26.3481 51.9869L34.1616 57.7818ZM42.9849 51.6441L43.8345 52.2877L50.7827 57.4518L45.7446 42.319L37.9321 36.4879L42.9849 51.6441ZM138.456 33.0631C138.446 33.193 138.386 33.3188 138.278 33.4088L137.81 33.7975C139.027 36.9553 140.462 40.0265 142.108 42.9879L142.628 43.9098L142.635 43.9215C144.19 46.8057 145.939 49.8771 147.663 52.9723C146.07 49.8266 144.446 46.6955 143 43.732C141.312 40.4057 139.838 36.9737 138.588 33.4586L138.586 33.4527C138.542 33.3231 138.499 33.193 138.456 33.0631ZM24.936 50.94L41.064 51.4752L32.8843 45.3971L16.8579 44.9498L24.936 50.94ZM33.4097 44.5406L41.5347 50.5787L36.5229 35.4244L28.4048 29.3551L33.4097 44.5406ZM15.4556 43.9098L31.4351 44.3551L23.6704 38.5729L7.56592 38.0592L15.4556 43.9098ZM24.3335 37.7955L32.0151 43.5045L27.0073 28.3102L19.2192 22.4869L24.3335 37.7955ZM135.182 22.11C135.095 22.1223 135.012 22.1521 134.938 22.1969L134.937 22.1979C134.862 22.2429 134.797 22.3016 134.748 22.3707L134.747 22.3727C134.695 22.4437 134.658 22.525 134.638 22.61L134.637 22.609C134.618 22.6964 134.617 22.7842 134.631 22.8668C134.936 24.4995 135.315 26.1172 135.768 27.7145L135.967 28.3981L136.277 29.4098C136.635 30.5523 137.023 31.6848 137.437 32.8072L137.638 32.6402C137.847 32.4668 138.154 32.4924 138.333 32.6949C137.262 29.4375 136.457 26.0981 135.925 22.7096L135.923 22.6979L135.922 22.6871C135.913 22.5995 135.886 22.5155 135.844 22.44C135.8 22.3615 135.742 22.2946 135.674 22.2418C135.64 22.215 135.602 22.1919 135.563 22.1725L135.441 22.1256C135.357 22.1033 135.269 22.0978 135.182 22.11ZM81.7964 14.8229C81.9121 14.5721 82.2087 14.4621 82.4595 14.5777C82.7101 14.6934 82.8191 14.9901 82.7036 15.2408L79.3032 22.6129C79.2317 22.7679 79.0856 22.8759 78.9165 22.899C78.7475 22.9221 78.5787 22.8572 78.4683 22.7272L74.6108 18.1861C74.4323 17.9757 74.4581 17.6607 74.6685 17.482C74.8789 17.3033 75.1948 17.3283 75.3735 17.5387L78.7222 21.482L81.7964 14.8229Z" fill="white"/>
</svg>
