<svg width="200" height="200" viewBox="0 0 200 200" fill="none" xmlns="http://www.w3.org/2000/svg">
<path d="M182.155 164.68C183.274 163.905 184.022 163.204 183.847 162.803L155.508 115.03C154.601 105.343 145.347 97.3536 144.464 97.3536C133.534 96.0849 117.421 99.6729 106.753 102.329C103.86 103.059 101.249 104.634 99.2522 106.852C97.2559 109.071 95.9645 111.833 95.5423 114.787L91.629 142.502L93.5404 142.631L92.7264 148.402C94.1254 149.596 97.2816 151.653 104.05 151.426C104.427 148.313 104.823 145.107 105.051 143.402L106.602 143.502L111.079 118.887C111.079 118.887 131.535 118.415 136.771 118.415C139.181 118.415 142.632 116.683 144.693 114.017L139.645 122.933C147.831 135.788 168.815 168.815 169.137 169.553C169.414 170.181 170.59 170.068 171.885 169.716L174.808 174.43C178.904 175.603 183.249 175.603 187.345 174.43L182.155 164.68Z" fill="#E15252"/>
<path d="M32.7549 137.243C32.5113 137.244 32.2719 137.18 32.061 137.058C31.8501 136.936 31.675 136.761 31.5537 136.55C31.4325 136.338 31.3693 136.1 31.3706 135.856C31.3718 135.612 31.4374 135.373 31.5609 135.163L39.6712 121.117C39.7924 120.906 39.9672 120.73 40.178 120.608C40.3888 120.486 40.628 120.421 40.8716 120.421C41.1152 120.421 41.3545 120.486 41.5652 120.608C41.7761 120.73 41.9509 120.906 42.0721 121.117L50.1823 135.163C50.3038 135.373 50.368 135.612 50.3683 135.855C50.3687 136.098 50.3052 136.336 50.1843 136.547C50.0633 136.757 49.8892 136.932 49.6794 137.055C49.4694 137.177 49.2312 137.242 48.9883 137.243H32.7549Z" fill="#E15252"/>
<path d="M170.194 65.0258C165.033 63.2109 161.025 60.6587 160.156 58.7871L162.027 76.6523C162.102 77.3569 162.371 78.0268 162.805 78.5867C163.239 79.1466 163.821 79.5744 164.485 79.8218C165.149 80.0693 165.868 80.1267 166.563 79.9876C167.258 79.8485 167.9 79.5184 168.417 79.0344L181.821 66.4974C179.893 67.3322 175.261 66.8028 170.194 65.0258Z" fill="#E15252"/>
<path d="M140.608 60.5265C140.863 60.2186 141.004 59.8319 141.006 59.432C140.996 59.1132 140.9 58.803 140.73 58.5333C140.56 58.2634 140.321 58.044 140.038 57.8975C139.755 57.7511 139.438 57.6829 139.119 57.7C138.801 57.7173 138.493 57.8191 138.227 57.9953C138.401 57.6451 138.454 57.2467 138.376 56.8633C138.298 56.4799 138.095 56.1335 137.797 55.8793C137.5 55.6251 137.125 55.4775 136.734 55.4602C136.344 55.4428 135.958 55.5565 135.64 55.7834C135.757 55.5161 135.806 55.2233 135.781 54.9321C135.756 54.6411 135.658 54.361 135.496 54.1178C135.334 53.8748 135.114 53.6764 134.854 53.5412C134.595 53.4061 134.306 53.3385 134.014 53.3446C133.707 53.3407 133.404 53.4172 133.135 53.5664C132.867 53.7156 132.642 53.9324 132.483 54.1953L130.8 58.7325C131.382 59.3076 132.022 59.8207 132.71 60.2639C131.632 63.024 132.558 63.4588 133.406 62.627C134.998 61.0579 136.677 63.1752 133.822 65.4438C134.078 67.6669 134.533 69.8624 135.183 72.0039C135.183 72.0039 134.635 65.7652 141.687 63.818C141.911 63.7547 142.121 63.6467 142.303 63.5002C142.486 63.3537 142.636 63.1719 142.746 62.9657C142.856 62.7595 142.923 62.5333 142.943 62.3004C142.963 62.0677 142.936 61.8332 142.864 61.6111C142.791 61.3891 142.674 61.184 142.52 61.0083C142.366 60.8326 142.178 60.6899 141.967 60.5888C141.756 60.4876 141.527 60.4301 141.294 60.4198C141.061 60.4094 140.828 60.4464 140.609 60.5285L140.608 60.5265Z" fill="#9AD4A6"/>
<path d="M127.263 69.9604C127.287 70.1046 127.332 70.2447 127.395 70.3763C127.755 71.1514 129.626 71.6996 131.328 71.9832C132.006 71.1288 132.543 70.1715 132.92 69.1475C130.248 70.4897 127.661 71.3782 127.263 69.9604Z" fill="#9AD4A6"/>
<path d="M123.993 85.9282C123.589 88.1152 123.751 90.3693 124.463 92.4763L127.261 86.6158C126.185 86.4108 125.097 86.1816 123.993 85.9282Z" fill="#9AD4A6"/>
<path d="M188.872 183.731C179.477 183.749 171.934 183.863 159.967 183.863C163.199 180.838 169.4 176.017 174.826 174.448C178.922 175.621 183.267 175.621 187.363 174.448C188.442 177.421 188.953 180.569 188.872 183.731Z" fill="#9AD4A6"/>
<path d="M92.7365 148.397C86.952 149.333 81.4492 151.549 76.6294 154.881C82.9248 158.001 97.7085 161.725 103.078 159.589C103.134 159.116 103.569 155.335 104.042 151.422C97.2777 151.649 94.1205 149.588 92.7365 148.397Z" fill="#9AD4A6"/>
<path d="M114.217 40.5065L113.555 42.0756L103.611 38.5404C103.506 38.5032 103.41 38.4457 103.327 38.3713C103.246 38.2969 103.179 38.2069 103.131 38.1068C103.084 38.0065 103.056 37.8979 103.051 37.7871C103.045 37.6762 103.062 37.5654 103.098 37.4608C103.135 37.3563 103.193 37.2601 103.268 37.1778C103.342 37.0954 103.432 37.0286 103.532 36.981C103.633 36.9334 103.741 36.9061 103.852 36.9005C103.962 36.8948 104.074 36.9112 104.178 36.9484L114.217 40.5065Z" fill="#9AD4A6"/>
<path d="M138.302 49.07L123.499 43.8145C123.385 44.098 123.272 44.3816 123.14 44.703C123.915 45.0244 124.198 45.3269 124.18 45.8562L137.734 50.677C137.947 50.7522 138.181 50.7397 138.385 50.6421C138.589 50.5446 138.746 50.3701 138.821 50.1571C138.897 49.944 138.884 49.7097 138.786 49.5059C138.689 49.302 138.514 49.1453 138.302 49.07Z" fill="#9AD4A6"/>
<path d="M43.6252 36.2147C43.6252 36.7606 43.4634 37.2943 43.16 37.7481C42.8568 38.202 42.4257 38.5559 41.9214 38.7647C41.417 38.9737 40.8621 39.0283 40.3267 38.9218C39.7913 38.8154 39.2994 38.5525 38.9134 38.1664C38.5274 37.7805 38.2645 37.2886 38.158 36.7532C38.0515 36.2178 38.1061 35.6628 38.3151 35.1584C38.524 34.6541 38.8777 34.223 39.3317 33.9198C39.7856 33.6165 40.3192 33.4546 40.8651 33.4546C41.5969 33.4554 42.2985 33.7464 42.816 34.2639C43.3334 34.7813 43.6245 35.4829 43.6252 36.2147Z" fill="#9AD4A6"/>
<path d="M167.377 31.1861C166.877 31.7365 166.267 32.1758 165.586 32.4754C164.906 32.775 164.17 32.9283 163.426 32.9254C162.513 32.9251 161.615 32.6917 160.817 32.2474C160.02 31.803 159.349 31.1624 158.868 30.3862C158.388 29.61 158.113 28.724 158.07 27.812C158.027 26.8998 158.218 25.992 158.624 25.1743C157.332 24.7837 156.001 24.5364 154.654 24.437C154.593 24.5304 154.508 24.6068 154.409 24.6589C154.31 24.711 154.2 24.7374 154.087 24.7355C153.812 24.7343 153.538 24.7878 153.283 24.8928C153.028 24.9979 152.796 25.1524 152.601 25.3475C152.406 25.5426 152.251 25.7744 152.146 26.0295C152.041 26.2846 151.988 26.5581 151.989 26.834V28.2707C151.991 28.8312 152.216 29.368 152.613 29.7632C153.596 30.7652 154.446 30.0279 154.749 30.8219C154.938 31.3135 155.259 31.7483 154.843 32.1642C154.449 32.5608 154.227 33.0974 154.227 33.6567C154.227 34.2161 154.449 34.7527 154.843 35.1492L155.864 36.1701C156.261 36.5636 156.798 36.7844 157.357 36.7844C157.916 36.7844 158.452 36.5636 158.849 36.1701C158.947 36.0745 159.071 36.011 159.205 35.9877C159.34 35.9644 159.478 35.9826 159.602 36.0397C160.08 36.2566 160.623 36.3382 160.623 36.9282C160.622 37.204 160.676 37.4772 160.782 37.7321C160.886 37.987 161.041 38.2186 161.236 38.4135C161.431 38.6083 161.663 38.7626 161.918 38.8676C162.173 38.9725 162.446 39.0259 162.722 39.0247H164.159C164.719 39.0234 165.256 38.7997 165.651 38.4028C166.653 37.4009 165.916 36.569 166.71 36.2666C167.182 36.0964 167.636 35.7561 168.052 36.172C168.342 36.4659 168.711 36.6676 169.115 36.7516C169.519 36.8358 169.939 36.7985 170.321 36.6447C169.659 34.6703 168.663 32.824 167.377 31.1861Z" fill="#9AD4A6"/>
<path d="M41.3188 133.141C41.3133 133.255 41.2642 133.363 41.1815 133.441C41.0987 133.521 40.9888 133.565 40.8745 133.565C40.7602 133.565 40.6502 133.521 40.5675 133.441C40.4848 133.363 40.4356 133.255 40.4302 133.141C40.4356 133.026 40.4848 132.919 40.5675 132.84C40.6502 132.761 40.7602 132.717 40.8745 132.717C40.9888 132.717 41.0987 132.761 41.1815 132.84C41.2642 132.919 41.3133 133.026 41.3188 133.141Z" fill="#9AD4A6"/>
<path d="M130.646 95.6522C130.638 95.8802 130.543 96.0963 130.378 96.255C130.214 96.4136 129.995 96.5022 129.766 96.5022C129.539 96.5022 129.32 96.4136 129.155 96.255C128.991 96.0963 128.896 95.8802 128.888 95.6522C128.896 95.4242 128.991 95.208 129.155 95.0495C129.32 94.8909 129.539 94.8022 129.766 94.8022C129.995 94.8022 130.214 94.8909 130.378 95.0495C130.543 95.208 130.638 95.4242 130.646 95.6522Z" fill="#9AD4A6"/>
<path d="M138.888 85.727C138.88 85.955 138.784 86.1712 138.62 86.3298C138.456 86.4884 138.237 86.577 138.008 86.577C137.78 86.577 137.561 86.4884 137.397 86.3298C137.233 86.1712 137.137 85.955 137.129 85.727C137.137 85.4989 137.233 85.2828 137.397 85.1242C137.561 84.9656 137.78 84.877 138.008 84.877C138.237 84.877 138.456 84.9656 138.62 85.1242C138.784 85.2828 138.88 85.4989 138.888 85.727Z" fill="#9AD4A6"/>
<path d="M128.074 82.891C128.066 83.1191 127.97 83.3352 127.806 83.4938C127.642 83.6524 127.423 83.7411 127.194 83.7411C126.966 83.7411 126.748 83.6524 126.583 83.4938C126.419 83.3352 126.324 83.1191 126.316 82.891C126.324 82.663 126.419 82.4469 126.583 82.2883C126.748 82.1297 126.966 82.041 127.194 82.041C127.423 82.041 127.642 82.1297 127.806 82.2883C127.97 82.4469 128.066 82.663 128.074 82.891Z" fill="#9AD4A6"/>
<path d="M120.099 74.0439C120.091 74.2719 119.996 74.488 119.831 74.6467C119.667 74.8053 119.448 74.8939 119.219 74.8939C118.992 74.8939 118.773 74.8053 118.608 74.6467C118.444 74.488 118.349 74.2719 118.341 74.0439C118.349 73.8158 118.444 73.5997 118.608 73.4411C118.773 73.2825 118.992 73.1938 119.219 73.1938C119.448 73.1938 119.667 73.2825 119.831 73.4411C119.996 73.5997 120.091 73.8158 120.099 74.0439Z" fill="#9AD4A6"/>
<path d="M105.709 72.8715C105.701 73.0996 105.606 73.3157 105.442 73.4743C105.277 73.6329 105.059 73.7215 104.83 73.7215C104.602 73.7215 104.383 73.6329 104.219 73.4743C104.055 73.3157 103.959 73.0996 103.951 72.8715C103.959 72.6435 104.055 72.4273 104.219 72.2687C104.383 72.1101 104.602 72.0215 104.83 72.0215C105.059 72.0215 105.277 72.1101 105.442 72.2687C105.606 72.4273 105.701 72.6435 105.709 72.8715Z" fill="#9AD4A6"/>
<path d="M113.593 60.81C113.585 61.038 113.489 61.2542 113.325 61.4128C113.161 61.5714 112.942 61.66 112.714 61.66C112.485 61.66 112.266 61.5714 112.102 61.4128C111.938 61.2542 111.842 61.038 111.835 60.81C111.842 60.5819 111.938 60.3658 112.102 60.2072C112.266 60.0486 112.485 59.96 112.714 59.96C112.942 59.96 113.161 60.0486 113.325 60.2072C113.489 60.3658 113.585 60.5819 113.593 60.81Z" fill="#9AD4A6"/>
<path d="M136.77 118.433C136.77 118.433 137.865 120.134 139.644 122.932L144.899 113.65C143.083 116.318 139.568 118.414 136.77 118.433Z" fill="#9AD4A6"/>
<path d="M114.217 40.506L113.555 42.0751L103.611 38.5399C103.506 38.5027 103.41 38.4453 103.327 38.3708C103.246 38.2964 103.179 38.2065 103.131 38.1063C103.084 38.006 103.056 37.8974 103.051 37.7866C103.045 37.6757 103.062 37.5649 103.098 37.4603C103.135 37.3558 103.193 37.2596 103.268 37.1773C103.342 37.0949 103.432 37.0281 103.532 36.9805C103.633 36.933 103.741 36.9056 103.852 36.9C103.962 36.8944 104.074 36.9107 104.178 36.9479L114.217 40.506Z" stroke="white"/>
<path d="M41.3188 133.141C41.3133 133.255 41.2642 133.363 41.1815 133.441C41.0987 133.521 40.9888 133.565 40.8745 133.565C40.7602 133.565 40.6502 133.521 40.5675 133.441C40.4848 133.363 40.4356 133.255 40.4302 133.141C40.4356 133.026 40.4848 132.919 40.5675 132.84C40.6502 132.761 40.7602 132.717 40.8745 132.717C40.9888 132.717 41.0987 132.761 41.1815 132.84C41.2642 132.919 41.3133 133.026 41.3188 133.141Z" stroke="white"/>
<path d="M138.302 49.07L123.499 43.8145C123.385 44.098 123.272 44.3816 123.14 44.703C123.915 45.0244 124.198 45.3269 124.179 45.8562L137.734 50.677C137.947 50.7522 138.181 50.7397 138.385 50.6421C138.589 50.5446 138.746 50.3701 138.821 50.1571C138.897 49.944 138.884 49.7097 138.786 49.5059C138.689 49.302 138.514 49.1453 138.302 49.07Z" stroke="white"/>
<path d="M5.475 183.863H194.525" stroke="white" stroke-linecap="round" stroke-linejoin="round"/>
<path d="M36.1956 127.129C33.4852 125.564 31.2351 123.312 29.6719 120.601C28.1087 117.889 27.2876 114.814 27.2914 111.684V109.944" stroke="white" stroke-linecap="round" stroke-linejoin="round"/>
<path d="M93.4589 129.53H46.9337" stroke="white" stroke-linecap="round" stroke-linejoin="round"/>
<path d="M143.841 129.53H109.131" stroke="white" stroke-linecap="round" stroke-linejoin="round"/>
<path d="M171.215 109.944V111.684C171.214 114.759 170.421 117.782 168.911 120.461C167.4 123.14 165.225 125.385 162.594 126.978" stroke="white" stroke-linecap="round" stroke-linejoin="round"/>
<path d="M123.934 90.3586H98.601V83.7607H116.391" stroke="white" stroke-linecap="round" stroke-linejoin="round"/>
<path d="M103.951 77.8626H98.601V71.2837H100.813" stroke="white" stroke-linecap="round" stroke-linejoin="round"/>
<path d="M135.182 71.2837H161.47M137.999 77.8626H162.365" stroke="white" stroke-linecap="round" stroke-linejoin="round"/>
<path d="M176.748 71.2837H179.609V77.8626H169.653" stroke="white" stroke-linecap="round" stroke-linejoin="round"/>
<path d="M140.381 83.7607H179.609V90.3586H141.856" stroke="white" stroke-linecap="round" stroke-linejoin="round"/>
<path d="M105.104 102.836H98.601V96.2383H125.994" stroke="white" stroke-linecap="round" stroke-linejoin="round"/>
<path d="M143.822 96.2383H179.609V102.836H150.249" stroke="white" stroke-linecap="round" stroke-linejoin="round"/>
<path d="M138.131 65.5366H160.874" stroke="white" stroke-linecap="round" stroke-linejoin="round"/>
<path d="M117.979 65.5366H127.998" stroke="white" stroke-linecap="round" stroke-linejoin="round"/>
<path d="M102.117 65.5366H89.2999C87.134 65.5371 85.057 66.3977 83.5255 67.9292C81.9941 69.4607 81.1334 71.5377 81.1329 73.7036V101.778C81.1334 103.944 81.9941 106.02 83.5255 107.551C85.057 109.084 87.134 109.943 89.2999 109.944H97.0887" stroke="white" stroke-linecap="round" stroke-linejoin="round"/>
<path d="M182.426 66.2168C183.848 66.8835 185.049 67.9422 185.889 69.2684C186.73 70.5945 187.175 72.1331 187.171 73.7032V101.777C187.171 103.943 186.31 106.02 184.778 107.551C183.247 109.083 181.17 109.943 179.004 109.944H154.328" stroke="white" stroke-linecap="round" stroke-linejoin="round"/>
<path d="M129.995 46.1021H171.215" stroke="white" stroke-linecap="round" stroke-linejoin="round"/>
<path d="M27.2914 46.1021H112.042" stroke="white" stroke-linecap="round" stroke-linejoin="round"/>
<path d="M87.0878 73.3254L90.3205 77.8626L94.1015 71.2837" stroke="white" stroke-linecap="round" stroke-linejoin="round"/>
<path d="M87.0878 85.8025L90.3205 90.3586L94.1015 83.7607" stroke="white" stroke-linecap="round" stroke-linejoin="round"/>
<path d="M142.952 62.1524C142.949 62.5293 142.824 62.8951 142.596 63.1949C142.367 63.4948 142.048 63.7127 141.686 63.816C134.663 65.8657 135.182 72.0019 135.182 72.0019C134.532 69.8605 134.078 67.6649 133.821 65.4419C136.676 63.1733 134.997 61.0639 133.405 62.625C132.556 63.4588 131.628 63.023 132.709 60.2619C132.021 59.8187 131.381 59.3056 130.799 58.7306L132.482 54.1934C132.641 53.9304 132.866 53.7136 133.134 53.5644C133.403 53.4152 133.706 53.3387 134.013 53.3427C134.306 53.3365 134.594 53.4042 134.854 53.5393C135.113 53.6744 135.333 53.8727 135.496 54.1159C135.658 54.359 135.755 54.6391 135.78 54.9302C135.806 55.2213 135.757 55.5141 135.639 55.7814C135.957 55.5546 136.343 55.4408 136.734 55.4581C137.124 55.4756 137.499 55.6231 137.796 55.8773C138.094 56.1316 138.298 56.4779 138.375 56.8613C138.453 57.2448 138.401 57.6432 138.226 57.9933C138.492 57.8172 138.8 57.7153 139.118 57.6981C139.437 57.681 139.754 57.7491 140.038 57.8956C140.32 58.0421 140.56 58.2615 140.73 58.5313C140.9 58.801 140.995 59.1113 141.005 59.4301C141.003 59.8299 140.862 60.2166 140.607 60.5246C140.87 60.4341 141.15 60.407 141.426 60.4451C141.701 60.4833 141.964 60.5858 142.192 60.7443C142.421 60.9028 142.608 61.1129 142.74 61.3575C142.873 61.6022 142.945 61.8745 142.952 62.1524Z" stroke="white" stroke-linecap="round" stroke-linejoin="round"/>
<path d="M137.148 76.5181C135.144 73.2097 134.237 68.8238 133.821 65.4398C136.676 63.1712 134.993 61.0538 133.405 62.6229C132.554 63.4548 131.628 63.0209 132.709 60.2598C132.029 59.8059 131.39 59.2935 130.799 58.7285C128.241 64.394 127.265 67.2746 127.169 68.9412C127.058 70.9014 128.121 71.4456 131.329 71.9809C130.852 73.0306 131.164 73.753 129.777 74.0495" stroke="white" stroke-linecap="round" stroke-linejoin="round"/>
<path d="M131.326 71.9832C132.004 71.1288 132.541 70.1715 132.918 69.1475C130.252 70.4897 127.651 71.3713 127.254 69.9534" stroke="white" stroke-linecap="round" stroke-linejoin="round"/>
<path d="M126.826 98.1667C125.923 96.0463 125.055 94.322 124.487 92.6066C123.739 90.4582 123.565 88.1515 123.982 85.9152C122.028 85.4745 120.038 84.9352 118.073 84.3093C113.696 82.928 109.466 81.1183 105.445 78.9065C103.653 77.917 102.256 76.343 101.485 74.4472C100.714 72.5513 100.617 70.4486 101.21 68.4898C103.167 61.7331 105.697 55.1556 108.772 48.8286C111.097 48.9805 113.393 49.4324 115.603 50.1729C117.269 50.742 118.855 51.5229 120.323 52.4962C118.009 57.7829 116.038 63.2136 114.425 68.7545C119.104 71.0572 124.042 72.7951 129.133 73.9315C130.058 74.1623 136.074 74.8369 137.432 76.9563C141.947 84.0029 140.778 91.7211 144.465 97.3359" stroke="white" stroke-linecap="round" stroke-linejoin="round"/>
<path d="M109.226 118.943L111.075 118.904" stroke="white" stroke-linecap="round" stroke-linejoin="round"/>
<path d="M188.872 183.731C179.477 183.749 171.934 183.863 159.967 183.863C163.199 180.838 169.4 176.017 174.826 174.448C178.922 175.621 183.267 175.621 187.363 174.448C188.442 177.421 188.953 180.569 188.872 183.731Z" stroke="white" stroke-linecap="round" stroke-linejoin="round"/>
<path d="M174.826 174.429L171.896 169.722" stroke="white" stroke-linecap="round" stroke-linejoin="round"/>
<path d="M183.844 162.803L155.505 115.03C154.411 104.008 144.461 97.3345 144.461 97.3345C133.628 96.0679 117.218 99.6976 106.75 102.325C103.852 103.047 101.236 104.619 99.2378 106.839C97.2401 109.059 95.952 111.826 95.5394 114.784L91.6261 142.499L106.58 143.501L111.075 118.905C111.184 118.905 131.547 118.433 136.77 118.433C136.77 118.433 168.816 168.841 169.136 169.572C169.81 171.111 175.703 168.319 177.201 167.574C178.393 166.978 184.276 163.834 183.844 162.803Z" stroke="white" stroke-linecap="round" stroke-linejoin="round"/>
<path d="M182.142 164.674L187.341 174.429" stroke="white" stroke-linecap="round" stroke-linejoin="round"/>
<path d="M105.048 143.382C104.821 145.084 104.424 148.298 104.046 151.417" stroke="white" stroke-linecap="round" stroke-linejoin="round"/>
<path d="M92.7227 148.398C86.9444 149.336 81.4479 151.551 76.6335 154.881C82.9289 158.001 97.7126 161.725 103.082 159.589C103.138 159.116 103.573 155.335 104.046 151.422C97.2828 151.649 94.1236 149.59 92.7227 148.398Z" stroke="white" stroke-linecap="round" stroke-linejoin="round"/>
<path d="M92.7226 148.398L93.5534 142.631" stroke="white" stroke-linecap="round" stroke-linejoin="round"/>
<path d="M123.858 42.6046C124.69 41.8862 126.503 42.7737 125.957 44.1359C125.729 44.703 125.559 45.1379 125.333 45.7279C126.618 46.2761 126.544 46.7299 126.029 48.3746C125.388 50.4352 125.311 50.6432 124.025 50.9079C121.713 51.3775 120.971 52.5765 120.647 53.5755" stroke="white" stroke-linecap="round" stroke-linejoin="round"/>
<path d="M138.018 49.8643L159.986 57.6531" stroke="white" stroke-linecap="round" stroke-linejoin="round"/>
<path d="M172.557 58.3335C166.3 56.1445 160.704 55.8569 160.061 57.6907C159.129 60.3324 167.403 64.0229 170.21 65.0069C173.054 66.0019 181.743 68.2835 182.706 65.6686C183.352 63.8348 178.796 60.5642 172.557 58.3335Z" stroke="white" stroke-linecap="round" stroke-linejoin="round"/>
<path d="M160.156 58.7871L162.027 76.6523C162.102 77.3569 162.371 78.0268 162.805 78.5867C163.239 79.1466 163.821 79.5744 164.485 79.8218C165.149 80.0693 165.868 80.1267 166.563 79.9876C167.258 79.8485 167.9 79.5184 168.417 79.0344L181.821 66.4974" stroke="white" stroke-linecap="round" stroke-linejoin="round"/>
<path d="M43.6252 36.2147C43.6252 36.7606 43.4634 37.2943 43.16 37.7481C42.8568 38.202 42.4257 38.5559 41.9214 38.7647C41.417 38.9737 40.8621 39.0283 40.3267 38.9218C39.7913 38.8154 39.2994 38.5525 38.9134 38.1664C38.5274 37.7805 38.2645 37.2886 38.158 36.7532C38.0515 36.2178 38.1061 35.6628 38.3151 35.1584C38.524 34.6541 38.8777 34.223 39.3317 33.9198C39.7856 33.6165 40.3192 33.4546 40.8651 33.4546C41.5969 33.4554 42.2985 33.7464 42.816 34.2639C43.3334 34.7813 43.6245 35.4829 43.6252 36.2147Z" stroke="white" stroke-linecap="round" stroke-linejoin="round"/>
<path d="M52.0001 36.2147C52.0001 36.7606 51.8382 37.2943 51.5349 37.7481C51.2317 38.202 50.8006 38.5559 50.2963 38.7647C49.7919 38.9737 49.237 39.0283 48.7016 38.9218C48.1662 38.8154 47.6743 38.5525 47.2883 38.1664C46.9023 37.7805 46.6394 37.2886 46.5329 36.7532C46.4264 36.2178 46.481 35.6628 46.69 35.1584C46.8989 34.6541 47.2527 34.223 47.7066 33.9198C48.1605 33.6165 48.6941 33.4546 49.24 33.4546C49.9718 33.4554 50.6734 33.7464 51.1909 34.2639C51.7083 34.7813 51.9993 35.4829 52.0001 36.2147Z" stroke="white" stroke-linecap="round" stroke-linejoin="round"/>
<path d="M60.375 36.2147C60.375 36.7606 60.2132 37.2941 59.9101 37.7479C59.6068 38.2018 59.1758 38.5556 58.6717 38.7645C58.1674 38.9736 57.6125 39.0283 57.0772 38.9219C56.5418 38.8157 56.0501 38.553 55.6639 38.1671C55.2778 37.7813 55.0148 37.2897 54.9081 36.7544C54.8013 36.2191 54.8558 35.6642 55.0643 35.1598C55.273 34.6555 55.6264 34.2242 56.08 33.9207C56.5336 33.6172 57.0671 33.455 57.6129 33.4546C58.345 33.4549 59.0472 33.7456 59.5651 34.2632C60.0829 34.7807 60.3742 35.4826 60.375 36.2147Z" stroke="white" stroke-linecap="round" stroke-linejoin="round"/>
<path d="M93.7234 96.4463L87.4848 102.647" stroke="white" stroke-linecap="round" stroke-linejoin="round"/>
<path d="M93.7045 102.666L87.4848 96.4272" stroke="white" stroke-linecap="round" stroke-linejoin="round"/>
<path d="M20.5801 54.2302C20.6436 54.5929 20.5982 54.9663 20.4495 55.3031C20.3009 55.6399 20.0557 55.9252 19.745 56.1227C19.4343 56.3202 19.0719 56.4211 18.7038 56.4126C18.3357 56.4042 17.9784 56.2868 17.677 56.0753C17.3756 55.8639 17.1437 55.5678 17.0106 55.2245C16.8775 54.8811 16.8491 54.5061 16.9292 54.1467C17.0093 53.7873 17.1941 53.4597 17.4604 53.2054C17.7265 52.9511 18.0622 52.7814 18.4249 52.7178C18.911 52.6345 19.4104 52.7466 19.814 53.03C20.2178 53.3133 20.4931 53.7447 20.5801 54.2302Z" stroke="white" stroke-linecap="round" stroke-linejoin="round"/>
<path d="M179.618 122.308V132.63" stroke="white" stroke-linecap="round" stroke-linejoin="round"/>
<path d="M184.77 127.46H174.467" stroke="white" stroke-linecap="round" stroke-linejoin="round"/>
<path d="M119.982 53.335L121.816 53.9857C120.01 58.3211 118.588 62.8061 117.563 67.3893L130.985 73.023" stroke="white" stroke-linecap="round" stroke-linejoin="round"/>
<path d="M110.927 49.0561C110.968 48.9566 114.543 39.8026 114.576 39.6982C115.087 38.4116 117.172 39.1649 116.693 40.7569C116.76 40.5434 116.842 40.3349 116.939 40.133C117.506 38.8285 119.661 39.6415 119.113 41.2862C119.075 41.3857 118.981 41.6643 118.981 41.6643C119.08 41.3996 119.17 41.1539 119.279 40.9081C119.886 39.5857 122.107 40.4753 121.521 42.12L121.434 42.326C121.491 42.1747 121.567 42.0424 121.623 41.9101C122.247 40.6812 124.365 41.6116 123.76 43.12C123.533 43.6871 123.362 44.1219 123.136 44.712C124.119 45.1309 124.306 45.495 124.112 46.3776C123.348 49.8502 122.576 49.7347 121.812 49.8919C119.979 50.27 119.147 50.875 118.712 51.5367" stroke="white" stroke-linecap="round" stroke-linejoin="round"/>
<path d="M175.563 168.342L142.877 117.223" stroke="white" stroke-linecap="round" stroke-linejoin="round"/>
<path d="M133.783 97.3345C134.157 99.6556 133.615 102.031 132.272 103.96C130.928 105.889 128.887 107.222 126.58 107.676L109.188 111.097C107.396 111.453 105.757 112.353 104.498 113.677C103.239 115.001 102.421 116.681 102.155 118.489L98.601 142.971" stroke="white" stroke-linecap="round" stroke-linejoin="round"/>
<path d="M40.8653 125.881V130.778" stroke="white" stroke-linecap="round" stroke-linejoin="round"/>
<path d="M144.899 113.649L139.644 122.932" stroke="white" stroke-linecap="round" stroke-linejoin="round"/>
<path d="M136.77 118.432C139.178 118.432 142.117 116.878 144.048 114.746C145.529 113.123 146.411 111.042 146.544 108.848" stroke="white" stroke-linecap="round" stroke-linejoin="round"/>
<path d="M167.396 31.2051C169.874 34.3533 171.219 38.2437 171.215 42.2496V57.9178" stroke="white" stroke-linecap="round" stroke-linejoin="round"/>
<path d="M158.643 25.1931C156.933 24.6734 155.157 24.403 153.37 24.3901H45.1566C42.811 24.3887 40.488 24.8495 38.3204 25.7462C36.1529 26.6428 34.1834 27.9578 32.5243 29.6161C30.8652 31.2742 29.5491 33.2431 28.6512 35.4101C27.7533 37.5771 27.2913 39.8998 27.2914 42.2454V65.5364" stroke="white" stroke-linecap="round" stroke-linejoin="round"/>
<path d="M172.869 24.7573C172.537 24.7205 172.286 24.6807 172.15 24.3136C171.963 23.8161 171.63 23.3982 172.051 22.9614C172.445 22.5667 172.667 22.0317 172.667 21.4738C172.667 20.9159 172.445 20.3809 172.051 19.9863L171.031 18.9913C170.836 18.7958 170.604 18.6408 170.348 18.5349C170.094 18.4291 169.82 18.3746 169.544 18.3746C169.267 18.3746 168.993 18.4291 168.739 18.5349C168.483 18.6408 168.251 18.7958 168.056 18.9913C167.64 19.4072 167.203 19.0739 166.725 18.8868C166.594 18.8376 166.482 18.7491 166.404 18.6337C166.326 18.5183 166.285 18.3815 166.288 18.2421C166.289 17.9659 166.235 17.6922 166.13 17.4369C166.024 17.1816 165.869 16.9497 165.674 16.7544C165.479 16.5591 165.247 16.4043 164.991 16.299C164.736 16.1937 164.462 16.1398 164.186 16.1406H162.751C162.474 16.1398 162.2 16.1937 161.946 16.299C161.69 16.4043 161.458 16.5591 161.263 16.7544C161.068 16.9498 160.913 17.1817 160.808 17.437C160.703 17.6923 160.649 17.966 160.65 18.2421C160.65 18.8241 160.109 18.9077 159.63 19.1157C159.505 19.1708 159.367 19.1864 159.232 19.1605C159.099 19.1345 158.977 19.0681 158.881 18.9704C158.686 18.7749 158.454 18.6199 158.199 18.514C157.944 18.4082 157.67 18.3537 157.394 18.3537C157.117 18.3537 156.843 18.4082 156.589 18.514C156.333 18.6199 156.101 18.7749 155.906 18.9704L154.866 19.9893C154.67 20.1845 154.516 20.4164 154.41 20.6717C154.304 20.9269 154.249 21.2005 154.249 21.4768C154.249 21.7531 154.304 22.0268 154.41 22.282C154.516 22.5372 154.67 22.7691 154.866 22.9643C155.282 23.3812 154.95 23.8181 154.762 24.3165C154.712 24.447 154.624 24.559 154.508 24.6372C154.393 24.7154 154.256 24.7559 154.117 24.7534C153.84 24.7526 153.567 24.8064 153.312 24.9118C153.056 25.017 152.825 25.1719 152.63 25.3671C152.434 25.5624 152.279 25.7943 152.174 26.0496C152.068 26.305 152.015 26.5786 152.016 26.8548L152.037 28.2906C152.036 28.5668 152.089 28.8404 152.195 29.0957C152.3 29.3511 152.454 29.583 152.65 29.7783C152.845 29.9736 153.077 30.1283 153.333 30.2336C153.588 30.339 153.861 30.3928 154.138 30.392C154.721 30.392 154.804 30.9323 155.012 31.4109C155.071 31.5382 155.09 31.6812 155.063 31.8195C155.037 31.9579 154.969 32.0843 154.866 32.181C154.67 32.3762 154.516 32.6082 154.41 32.8634C154.304 33.1186 154.249 33.3922 154.249 33.6686C154.249 33.9449 154.304 34.2185 154.41 34.4737C154.516 34.7289 154.67 34.9609 154.866 35.1561L155.885 36.175C156.08 36.3704 156.312 36.5254 156.567 36.6313C156.822 36.737 157.095 36.7915 157.372 36.7915C157.647 36.7915 157.921 36.737 158.177 36.6313C158.431 36.5254 158.663 36.3704 158.858 36.175C159.274 35.759 159.713 36.0894 160.193 36.2745C160.323 36.324 160.434 36.4125 160.513 36.5278C160.591 36.6432 160.631 36.7799 160.629 36.9192C160.628 37.1957 160.682 37.4698 160.788 37.7256C160.892 37.9813 161.047 38.2138 161.242 38.4096C161.437 38.6055 161.669 38.761 161.925 38.867C162.181 38.973 162.454 39.0276 162.731 39.0276L164.186 38.9998C164.462 39.0006 164.736 38.9467 164.991 38.8415C165.247 38.7361 165.479 38.5814 165.674 38.386C165.869 38.1907 166.024 37.9588 166.13 37.7035C166.235 37.4482 166.289 37.1745 166.288 36.8983C166.288 36.3162 166.829 36.2327 167.307 36.0247C167.434 35.9657 167.576 35.948 167.715 35.9741C167.853 36.0001 167.979 36.0686 168.077 36.17C168.272 36.3655 168.504 36.5205 168.759 36.6264C169.014 36.7322 169.288 36.7867 169.564 36.7867C169.841 36.7867 170.115 36.7322 170.369 36.6264C170.625 36.5205 170.857 36.3655 171.052 36.17L172.047 35.1511C172.441 34.7565 172.663 34.2215 172.663 33.6636C172.663 33.1057 172.441 32.5707 172.047 32.1761C171.63 31.7591 171.963 31.3233 172.146 30.8238C172.196 30.6936 172.285 30.5818 172.399 30.5036C172.515 30.4254 172.652 30.3848 172.791 30.387C173.067 30.3878 173.34 30.334 173.596 30.2286C173.852 30.1234 174.084 29.9686 174.279 29.7733C174.474 29.578 174.629 29.3461 174.734 29.0908C174.84 28.8354 174.894 28.5618 174.893 28.2856V26.8518C174.893 26.3084 174.682 25.7863 174.304 25.3955C173.927 25.0047 173.412 24.7759 172.869 24.7573Z" stroke="white" stroke-linecap="round" stroke-linejoin="round"/>
<path d="M163.454 32.9275C162.392 32.9265 161.356 32.6109 160.474 32.0207C159.592 31.4305 158.904 30.5921 158.499 29.6114C158.093 28.6307 157.988 27.5518 158.195 26.511C158.402 25.4701 158.913 24.5141 159.663 23.7636C160.413 23.0132 161.37 22.502 162.41 22.2948C163.451 22.0875 164.531 22.1934 165.511 22.5991C166.492 23.0047 167.331 23.692 167.921 24.574C168.511 25.456 168.826 26.4932 168.827 27.5545C168.83 28.2609 168.694 28.9609 168.424 29.6142C168.156 30.2674 167.759 30.8609 167.26 31.3605C166.761 31.86 166.167 32.2556 165.514 32.5246C164.861 32.7935 164.161 32.9304 163.454 32.9275Z" stroke="white" stroke-linecap="round" stroke-linejoin="round"/>
<path d="M62.4737 65.5366C64.6401 65.5374 66.7176 66.3979 68.2501 67.9291C69.7826 69.4603 70.6449 71.5372 70.6476 73.7036V101.778C70.6486 102.849 70.4384 103.912 70.0288 104.902C69.6193 105.893 69.0184 106.793 68.2607 107.551C67.5029 108.311 66.6031 108.912 65.6127 109.323C64.6223 109.734 63.5607 109.944 62.4886 109.944H19.2568C17.0899 109.944 15.0118 109.084 13.4787 107.552C11.9456 106.021 11.0828 103.945 11.0799 101.778V73.7036C11.0788 72.6315 11.2891 71.5696 11.6987 70.5788C12.1083 69.588 12.709 68.6876 13.4668 67.9291C14.2245 67.1706 15.1243 66.5689 16.1147 66.1584C17.1052 65.7479 18.1667 65.5366 19.2389 65.5366H62.4737Z" stroke="white" stroke-linecap="round" stroke-linejoin="round"/>
<path d="M32.7549 137.243C32.5113 137.244 32.2719 137.18 32.061 137.058C31.8501 136.936 31.675 136.761 31.5537 136.55C31.4325 136.338 31.3693 136.1 31.3706 135.856C31.3718 135.612 31.4374 135.373 31.5609 135.163L39.6712 121.117C39.7924 120.906 39.9672 120.73 40.178 120.608C40.3888 120.486 40.628 120.421 40.8716 120.421C41.1152 120.421 41.3545 120.486 41.5652 120.608C41.7761 120.73 41.9509 120.906 42.0721 121.117L50.1823 135.163C50.3038 135.373 50.368 135.612 50.3683 135.855C50.3687 136.098 50.3052 136.336 50.1843 136.547C50.0633 136.757 49.8892 136.932 49.6794 137.055C49.4694 137.177 49.2312 137.242 48.9883 137.243H32.7549Z" stroke="white" stroke-linecap="round" stroke-linejoin="round"/>
<path d="M123.979 85.915C125.086 86.1698 126.18 86.3969 127.263 86.5966L124.446 92.4572" stroke="white" stroke-linecap="round" stroke-linejoin="round"/>
<path d="M40.5 74.5C43.947 74.5016 47.2529 75.8712 49.6904 78.3086C52.0518 80.6697 53.4116 83.8458 53.4961 87.1758L53.5 87.499C53.5002 90.0701 52.7378 92.5839 51.3096 94.7217C49.8814 96.8596 47.8509 98.5258 45.4756 99.5098C43.1003 100.494 40.4867 100.751 37.9648 100.25C35.4431 99.7486 33.1268 98.5111 31.3086 96.6934C29.4903 94.8754 28.2518 92.5587 27.75 90.0371C27.2483 87.5154 27.5054 84.9009 28.4893 82.5254C29.4731 80.15 31.1397 78.1199 33.2773 76.6914C35.2817 75.3522 37.616 74.5978 40.0186 74.5088L40.5 74.5Z" fill="#E15252" stroke="white"/>
<path d="M44.412 82L38.3088 82.517C37.6262 82.6127 37.0081 82.9529 36.5808 83.4678C36.1537 83.9827 35.9497 84.6336 36.0106 85.2869C36.0715 85.9401 36.3929 86.5465 36.9089 86.9819C37.4247 87.4172 38.0963 87.6486 38.7858 87.6285L42.2 87.3413C42.8919 87.3178 43.567 87.5475 44.0858 87.983C44.6049 88.4187 44.9283 89.0271 44.9894 89.6826C45.0506 90.3383 44.8449 90.9912 44.4147 91.5069C43.9844 92.0226 43.3625 92.3617 42.6771 92.4542L36.5754 93" stroke="white" stroke-linecap="round" stroke-linejoin="round"/>
<path d="M40 80L41 95" stroke="white" stroke-linecap="round" stroke-linejoin="round"/>
</svg>
