<svg width="200" height="200" viewBox="0 0 200 200" fill="none" xmlns="http://www.w3.org/2000/svg">
<path d="M46.0113 135.434L38.2623 135.963C38.6145 135.951 38.9587 136.072 39.2264 136.303C42.5537 139.158 28.4326 163.089 23.7263 162.257C23.4819 162.165 23.2525 162.038 23.0457 161.879C25.573 164.406 31.8137 158.859 34.329 155.72C37.5807 151.674 42.3069 149.86 46.9556 149.198C48.3307 145.446 47.86 138.642 46.0113 135.434Z" fill="#E15252"/>
<path d="M160.982 192.88C157.579 190.026 152.589 186.512 148.127 185.206L145.969 180.933C142.493 182.736 138.617 183.626 134.703 183.52L135.724 185.203C134.93 187.454 134.428 189.798 134.231 192.178C134.198 192.606 134.298 193.034 134.519 193.402C134.74 193.77 135.07 194.061 135.463 194.233C135.724 194.349 136.006 194.407 136.291 194.408C144.023 194.427 150.771 194.503 160.37 194.522C160.512 194.522 160.653 194.49 160.782 194.428C160.91 194.365 161.022 194.274 161.11 194.162C161.197 194.049 161.258 193.918 161.287 193.778C161.316 193.638 161.312 193.494 161.276 193.356C161.229 193.171 161.126 193.005 160.982 192.88Z" fill="#E15252"/>
<path d="M66.4685 77.8171C66.6681 77.3935 66.9991 77.0457 67.4122 76.8253C67.8254 76.6049 68.2986 76.5238 68.7615 76.5938C69.2245 76.6639 69.6525 76.8815 69.9819 77.2143C70.3113 77.5471 70.5245 77.9773 70.5898 78.441C69.1689 78.2519 67.7889 78.044 66.4685 77.8171Z" stroke="white" stroke-linecap="round" stroke-linejoin="round"/>
<path fill-rule="evenodd" clip-rule="evenodd" d="M82.1895 74.6032C82.1904 73.9029 82.0531 73.2092 81.7855 72.5621C81.5179 71.9149 81.1252 71.3269 80.63 70.8317C80.1348 70.3366 79.5467 69.944 78.8995 69.6765C78.2522 69.409 77.5586 69.2719 76.8583 69.273H38.7727C38.0724 69.272 37.3789 69.4093 36.7318 69.6768C36.0847 69.9444 35.4967 70.337 35.0016 70.8321C34.5064 71.3272 34.1139 71.9152 33.8463 72.5623C33.5788 73.2094 33.4415 73.9029 33.4424 74.6032V96.2852C33.4415 96.9854 33.5788 97.679 33.8463 98.3261C34.1139 98.9732 34.5064 99.5611 35.0016 100.056C35.4967 100.551 36.0847 100.944 36.7318 101.212C37.3789 101.479 38.0724 101.616 38.7727 101.615H76.8613C78.2751 101.616 79.6311 101.054 80.6313 100.055C81.1259 99.56 81.5181 98.9721 81.7855 98.3253C82.0528 97.6784 82.1901 96.9852 82.1895 96.2852V92.6952C77.8413 92.7699 73.4932 92.5301 69.1819 91.9798L70.5301 94.3191H45.0302L53.026 80.4627C51.5214 79.9979 50.0019 79.5827 48.4699 79.218C46.1476 78.6598 46.5247 78.1454 46.9008 78.0648C48.2732 77.8695 49.6653 77.8568 51.041 78.027L50.9694 77.9643C50.7097 77.7394 50.451 77.5155 50.2092 77.2897C47.7217 74.9634 47.8908 74.0062 51.648 76.0041C52.6432 76.5651 53.6627 77.0816 54.7036 77.5524L55.2747 76.5693L56.1762 78.1494C58.1612 78.9056 60.4388 79.5901 62.5382 79.9622C63.0067 79.0467 63.5779 78.1875 64.2407 77.4011C65.0198 77.5484 65.6207 77.6608 66.4018 77.7931C66.6009 77.369 66.9318 77.0205 67.3451 76.7996C67.7583 76.5787 68.2319 76.4973 68.6952 76.5674C69.1585 76.6376 69.5868 76.8555 69.9162 77.1888C70.2456 77.5221 70.4585 77.9529 70.5231 78.417C74.3937 78.9354 78.2861 79.2628 82.1895 79.3941V74.6032Z" fill="#E15252"/>
<path fill-rule="evenodd" clip-rule="evenodd" d="M181.113 49.1212C181.115 48.0664 180.803 47.0349 180.217 46.1578C179.631 45.2806 178.798 44.5974 177.823 44.195C177.176 43.9274 176.482 43.7901 175.782 43.791H137.697C136.996 43.7897 136.303 43.9267 135.655 44.1941C135.008 44.4615 134.42 44.8541 133.925 45.3493C133.429 45.8445 133.037 46.4326 132.769 47.0799C132.502 47.7272 132.365 48.4209 132.366 49.1212V73.838C135.466 74.4898 137.695 74.7713 137.995 74.6599C144.213 72.3555 149.848 68.4979 155.556 63.5448C156.188 63.6938 156.796 63.932 157.362 64.2522C159.158 62.91 161.872 60.1608 162.477 58.8573C162.925 57.6504 163.629 56.5542 164.539 55.6435H164.837C165.443 56.0216 164.743 59.1598 164.421 60.4642C166.318 59.1693 167.959 57.5349 169.261 55.6435C170.017 54.6226 170.868 53.545 171.284 53.7908C171.87 54.136 171.442 55.731 171.226 56.3857C170.842 57.5327 170.275 58.61 169.547 59.5757C170.364 60.5747 169.959 62.3587 169.188 63.2851C170.15 63.6831 169.791 65.3059 168.857 66.4084C169.717 66.3785 169.949 67.9994 168.979 68.9327L168.97 68.9387C168.522 69.267 167.682 69.8839 163.197 73.054C163.327 73.8002 163.365 74.4719 163.345 75.2121C160.443 77.6618 157.378 79.822 154.193 81.7931H175.786C176.486 81.7936 177.18 81.656 177.826 81.3882C178.473 81.1205 179.061 80.7277 179.556 80.2325C180.05 79.7373 180.443 79.1494 180.71 78.5023C180.977 77.8553 181.114 77.1619 181.113 76.4618V49.1212Z" fill="#E15252"/>
<path d="M157.106 79.9009C156.359 80.4064 155.603 80.898 154.837 81.3755C154.755 81.7499 154.786 82.1403 154.926 82.4972C155.066 82.8541 155.309 83.1613 155.624 83.3799C155.939 83.5985 156.312 83.7185 156.695 83.7248C157.078 83.7311 157.455 83.6233 157.777 83.4152C158.098 83.2061 158.351 82.9058 158.501 82.5528C158.652 82.1997 158.694 81.8098 158.622 81.4328C158.55 81.0558 158.367 80.7087 158.097 80.4359C157.827 80.1631 157.482 79.9768 157.106 79.9009Z" fill="#9AD4A6"/>
<path d="M59.7363 101.616C59.7369 101.998 59.6239 102.371 59.4119 102.688C59.1998 103.006 58.8982 103.253 58.5453 103.399C58.2817 103.509 57.997 103.558 57.7118 103.545C57.4266 103.531 57.1481 103.454 56.8964 103.319C56.6446 103.184 56.426 102.995 56.2564 102.765C56.0868 102.536 55.9703 102.271 55.9155 101.991C55.8602 101.711 55.8676 101.422 55.9374 101.146C56.0071 100.869 56.1374 100.611 56.3188 100.391C56.5002 100.171 56.7283 99.9933 56.9865 99.8718C57.2447 99.7504 57.5267 99.6878 57.812 99.6885C58.3218 99.6919 58.8098 99.8961 59.17 100.257C59.5303 100.618 59.7337 101.106 59.7363 101.616Z" fill="#9AD4A6"/>
<path d="M69.1878 91.9943C66.7703 91.691 64.3673 91.281 61.986 90.7655C61.6043 89.5621 61.3509 88.3217 61.2298 87.0651C59.4486 86.6316 57.6203 86.422 55.7872 86.4412C51.7216 86.5546 53.1007 85.4959 54.5006 85.0233C56.0498 84.5129 59.8119 83.7189 58.3941 82.6602C57.4866 82.2254 56.8021 81.8642 56.2767 81.5657C55.2138 81.1421 54.1287 80.7767 53.026 80.4712L45.0302 94.3196H70.5301L69.1878 91.9943Z" fill="#9AD4A6"/>
<path d="M110.149 61.2007L110.092 61.2574L111.227 63.5459C113.193 63.0543 114.647 62.2981 114.762 60.8594C114.503 62.1648 111.443 61.534 110.149 61.2007Z" fill="#9AD4A6"/>
<path d="M118.657 85.4728L118.544 87.0041L115.061 84.1494C116.241 84.6392 117.441 85.0807 118.657 85.4728Z" fill="#9AD4A6"/>
<path d="M95.3693 88.5919C95.9165 88.2327 96.5036 87.8357 97.1264 87.382L97.5045 81.7861L95.3693 88.5919Z" fill="#9AD4A6"/>
<path d="M101.361 117.684C100.47 116.158 99.8312 114.498 99.4706 112.769L101.909 126.039C102.514 124.905 103.103 123.75 103.668 122.556L101.361 117.684Z" fill="#9AD4A6"/>
<path d="M98.8856 90.5763C96.5593 89.7455 96.3135 88.6112 98.5443 87.7227L98.8856 90.5763Z" fill="#9AD4A6"/>
<path d="M116.899 87.7412L116.426 90.6138C117.655 90.179 118.393 89.6496 118.393 89.0835C118.393 88.5919 117.863 88.1382 116.899 87.7412Z" fill="#9AD4A6"/>
<path d="M46.0123 135.434L42.4402 135.661C43.3666 133.487 44.8223 133.354 46.0123 135.434Z" fill="#9AD4A6"/>
<path d="M46.9575 149.196C46.1068 151.463 44.6899 151.936 43.4054 149.951C44.5712 149.62 45.7579 149.368 46.9575 149.196Z" fill="#9AD4A6"/>
<path d="M23.7452 162.257C21.8268 161.467 22.5412 158.234 23.6676 155.292C25.6775 150.034 30.1092 142.662 33.9907 138.707C36.8812 135.761 39.9746 134.71 39.7189 138.231C39.2542 144.648 27.8754 162.983 23.7452 162.257Z" fill="#9AD4A6"/>
<path d="M110.756 51.4279C110.655 50.9104 110.394 50.4373 110.011 50.0748C109.628 49.7122 109.142 49.4781 108.62 49.4051C108.74 48.9792 108.747 48.5291 108.639 48.0999C108.531 47.6706 108.312 47.2773 108.004 46.9594C107.695 46.6417 107.309 46.4107 106.883 46.2897C106.457 46.1686 106.006 46.1618 105.577 46.2698C105.526 45.8196 105.354 45.3913 105.081 45.0298C104.808 44.6682 104.443 44.3865 104.024 44.2141C103.605 44.0417 103.147 43.9854 102.698 44.051C102.249 44.1167 101.827 44.3019 101.475 44.5873C101.32 44.278 101.103 44.0039 100.838 43.782C100.572 43.5602 100.264 43.3952 99.9324 43.2975C99.6007 43.1998 99.2523 43.1714 98.9091 43.2141C98.5659 43.2567 98.2351 43.3696 97.9374 43.5455C97.5394 43.7813 97.214 44.1226 96.9971 44.5306C96.6538 44.2343 96.2369 44.0364 95.7903 43.9575C95.3438 43.8787 94.8843 43.9219 94.4603 44.0826C94.0363 44.2434 93.6636 44.5156 93.3815 44.8707C93.0995 45.2257 92.9186 45.6503 92.8579 46.0997C92.4317 45.9779 91.9809 45.9706 91.551 46.0785C91.121 46.1864 90.7271 46.4057 90.4089 46.7143C90.0907 47.023 89.8595 47.41 89.7385 47.8364C89.6175 48.2628 89.611 48.7136 89.7197 49.1434C89.2706 49.1964 88.8438 49.3686 88.4836 49.6421C88.1235 49.9156 87.843 50.2805 87.6714 50.6989C87.4998 51.1173 87.4431 51.574 87.5075 52.0217C87.5718 52.4693 87.7546 52.8916 88.0371 53.2448C87.6229 53.4511 87.2736 53.7676 87.0275 54.1595C86.7814 54.5514 86.6482 55.0035 86.6423 55.4662C86.6364 55.9289 86.7582 56.3843 86.9943 56.7823C87.2304 57.1803 87.5716 57.5055 87.9804 57.7223C87.6801 58.0643 87.4781 58.4813 87.3958 58.9289C87.3135 59.3765 87.354 59.8381 87.513 60.2646C87.672 60.691 87.9435 61.0665 88.2988 61.351C88.654 61.6355 89.0797 61.8184 89.5306 61.8804C89.4089 62.3066 89.4016 62.7574 89.5095 63.1873C89.6174 63.6172 89.8367 64.0111 90.1453 64.3293C90.4539 64.6475 90.8409 64.8788 91.2674 64.9998C91.6938 65.1208 92.1446 65.1273 92.5743 65.0186C92.6249 65.469 92.7957 65.8976 93.0688 66.2593C93.3419 66.6211 93.7073 66.9027 94.1266 67.0748C94.546 67.2468 95.0039 67.3029 95.4524 67.2372C95.9008 67.1714 96.3234 66.9863 96.6757 66.7011C96.8825 67.1148 97.1992 67.4635 97.5911 67.7091C97.9829 67.9547 98.4348 68.0878 98.8972 68.0936C99.3596 68.0995 99.8147 67.978 100.213 67.7423C100.611 67.5067 100.936 67.1661 101.153 66.7579C101.495 67.0575 101.912 67.2589 102.36 67.3409C102.807 67.4228 103.269 67.3821 103.695 67.2232C104.121 67.0643 104.496 66.7931 104.781 66.4383C105.065 66.0834 105.249 65.6582 105.311 65.2076C105.672 65.3093 106.05 65.3298 106.42 65.2677C106.789 65.2056 107.14 65.0624 107.448 64.8485C108.045 62.2562 108.494 59.6317 108.79 56.988C105.705 55.0975 107.24 52.5105 108.847 54.0955C109.773 55.0218 109.603 53.1124 109.036 51.7324C109.582 51.5123 110.168 51.4086 110.756 51.4279Z" fill="#9AD4A6"/>
<path d="M170.943 166.284L166.879 157.588C166.811 157.453 166.706 157.342 166.575 157.267C166.445 157.191 166.296 157.156 166.145 157.164C165.995 157.173 165.851 157.225 165.73 157.314C165.609 157.404 165.516 157.526 165.464 157.667C165.394 157.856 165.399 158.065 165.48 158.249L169.545 166.946C169.586 167.04 169.647 167.126 169.722 167.197C169.797 167.268 169.885 167.324 169.982 167.361C170.079 167.397 170.183 167.413 170.286 167.409C170.39 167.405 170.492 167.379 170.585 167.335C170.679 167.291 170.763 167.229 170.832 167.151C170.901 167.074 170.954 166.983 170.986 166.885C171.02 166.787 171.033 166.683 171.026 166.58C171.019 166.477 170.991 166.376 170.943 166.284Z" fill="#9AD4A6"/>
<path d="M12.4599 194.525H187.54" stroke="white" stroke-linecap="round" stroke-linejoin="round"/>
<path d="M122.098 109.801C123.362 109.801 124.574 109.299 125.467 108.406C126.361 107.513 126.864 106.301 126.865 105.037V87.5332" stroke="white" stroke-linecap="round" stroke-linejoin="round"/>
<path d="M87.5048 92.2588V105.019C87.5063 106.129 87.8931 107.205 88.5993 108.062" stroke="white" stroke-linecap="round" stroke-linejoin="round"/>
<path d="M78.1856 126.436V101.445" stroke="white" stroke-linecap="round" stroke-linejoin="round"/>
<path d="M118.998 154.771H85.8641C84.3399 154.774 82.8495 154.323 81.5834 153.474C80.3174 152.625 79.3332 151.418 78.7568 150.007" stroke="white" stroke-linecap="round" stroke-linejoin="round"/>
<path d="M136.18 88.7998V147.078C136.184 147.432 136.158 147.786 136.105 148.137" stroke="white" stroke-linecap="round" stroke-linejoin="round"/>
<path d="M136.123 44.0179C135.872 42.1879 134.953 40.5153 133.544 39.3215C132.134 38.1277 130.333 37.4969 128.487 37.5504H85.8789C84.8847 37.5158 83.8937 37.681 82.9645 38.0364C82.0353 38.3917 81.1869 38.9299 80.4695 39.6191C79.7521 40.3083 79.1803 41.1345 78.788 42.0487C78.3957 42.9628 78.1909 43.9465 78.1856 44.9413V69.4431" stroke="white" stroke-linecap="round" stroke-linejoin="round"/>
<path d="M82.1895 79.413V74.6032C82.1904 73.9029 82.0531 73.2092 81.7855 72.5621C81.5179 71.9149 81.1252 71.3269 80.63 70.8317C80.1348 70.3366 79.5467 69.944 78.8995 69.6765C78.2522 69.409 77.5586 69.2719 76.8583 69.273H38.7727C38.0724 69.272 37.3789 69.4093 36.7318 69.6768C36.0847 69.9444 35.4967 70.337 35.0016 70.8321C34.5064 71.3272 34.1139 71.9152 33.8463 72.5623C33.5788 73.2094 33.4415 73.9029 33.4424 74.6032V96.2852C33.4415 96.9854 33.5788 97.679 33.8463 98.3261C34.1139 98.9732 34.5064 99.5611 35.0016 100.056C35.4967 100.551 36.0847 100.944 36.7318 101.212C37.3789 101.479 38.0724 101.616 38.7727 101.615H55.8777M82.1895 92.6365V96.2852C82.1904 96.9852 82.0533 97.6785 81.7859 98.3254C81.5185 98.9723 81.1262 99.5601 80.6314 100.055C80.1366 100.55 79.549 100.943 78.9022 101.211C78.2554 101.478 77.5622 101.616 76.8623 101.615H59.7025" stroke="white" stroke-linecap="round" stroke-linejoin="round"/>
<path d="M154.856 81.3935C154.834 81.5251 154.822 81.6581 154.819 81.7915C154.816 82.0439 154.863 82.2944 154.958 82.5285C155.052 82.7625 155.193 82.9754 155.37 83.1548C155.548 83.3342 155.759 83.4765 155.992 83.5735C156.225 83.6705 156.475 83.7202 156.728 83.7198C157.239 83.7175 157.728 83.5135 158.089 83.1524C158.45 82.7913 158.654 82.3022 158.656 81.7915C158.657 81.3507 158.504 80.9235 158.225 80.5825C157.946 80.2414 157.557 80.0076 157.125 79.9209" stroke="white" stroke-linecap="round" stroke-linejoin="round"/>
<path d="M54.7275 77.5146L55.2747 76.5693L56.1822 78.1385" stroke="white" stroke-linecap="round" stroke-linejoin="round"/>
<path d="M66.4685 77.8171C66.6681 77.3935 66.9991 77.0457 67.4122 76.8253C67.8254 76.6049 68.2986 76.5238 68.7615 76.5938C69.2245 76.6639 69.6525 76.8815 69.9819 77.2143C70.3113 77.5471 70.5245 77.9773 70.5898 78.441C69.1689 78.2519 67.7889 78.044 66.4685 77.8171Z" stroke="white" stroke-linecap="round" stroke-linejoin="round"/>
<path d="M69.1878 92.0129L70.5301 94.3193H45.0302L53.026 80.4629" stroke="white" stroke-linecap="round" stroke-linejoin="round"/>
<path d="M132.362 73.84V49.1222C132.36 48.0675 132.672 47.036 133.258 46.1589C133.844 45.2817 134.677 44.5985 135.652 44.196C136.299 43.9281 136.992 43.7905 137.693 43.791H175.782C176.837 43.7893 177.869 44.1012 178.746 44.6871C179.623 45.2729 180.307 46.1064 180.709 47.0815C180.977 47.7282 181.114 48.4218 181.113 49.1222V76.4559C181.115 77.5107 180.803 78.5422 180.217 79.4194C179.631 80.2965 178.798 80.9797 177.823 81.3821C177.176 81.6498 176.482 81.787 175.782 81.7861H158.705" stroke="white" stroke-linecap="round" stroke-linejoin="round"/>
<path d="M140.736 43.7915C140.726 40.9306 139.582 38.1905 137.555 36.171C135.529 34.1516 132.785 33.0174 129.924 33.0166H84.2731C82.853 33.0161 81.4467 33.2954 80.1346 33.8386C78.8225 34.3818 77.6303 35.1782 76.6262 36.1824C75.622 37.1865 74.8256 38.3787 74.2824 39.6908C73.7392 41.0029 73.4599 42.4092 73.4604 43.8293V69.2734" stroke="white" stroke-linecap="round" stroke-linejoin="round"/>
<path d="M73.4604 131.634V101.616" stroke="white" stroke-linecap="round" stroke-linejoin="round"/>
<path d="M121.077 159.157H84.2721C81.7881 159.158 79.3798 158.303 77.4521 156.736C75.5245 155.17 74.195 152.987 73.6873 150.556" stroke="white" stroke-linecap="round" stroke-linejoin="round"/>
<path d="M140.736 88.7998V148.345C140.737 150.691 139.974 152.973 138.562 154.847" stroke="white" stroke-linecap="round" stroke-linejoin="round"/>
<path d="M164.837 58.5737H166.765" stroke="white" stroke-linecap="round" stroke-linejoin="round"/>
<path d="M156.728 83.7148V103.544C156.728 105.227 156.397 106.894 155.753 108.449C155.109 110.004 154.165 111.417 152.975 112.607C151.785 113.797 150.372 114.741 148.817 115.385C147.262 116.029 145.595 116.361 143.912 116.361H124.593" stroke="white" stroke-linecap="round" stroke-linejoin="round"/>
<path d="M84.9357 116.35H70.6475C67.2477 116.348 63.988 114.995 61.5849 112.59C59.1818 110.185 57.8319 106.925 57.8319 103.525" stroke="white" stroke-linecap="round" stroke-linejoin="round"/>
<path d="M57.818 157.324V168.042" stroke="white" stroke-linecap="round" stroke-linejoin="round"/>
<path d="M63.1771 162.683H52.4589" stroke="white" stroke-linecap="round" stroke-linejoin="round"/>
<path d="M114.801 60.8564C114.479 62.1231 111.716 61.5599 110.775 61.3539L110.078 61.1898C110.675 62.529 111.243 63.5449 111.243 63.5449" stroke="white" stroke-linecap="round" stroke-linejoin="round"/>
<path d="M119.149 69.8782C117.262 69.1909 115.435 68.35 113.686 67.3639C113.189 67.0985 112.75 66.7358 112.396 66.2974C112.042 65.8589 111.78 65.3536 111.626 64.8117C111.492 64.3948 111.38 63.96 111.247 63.5431C112.956 63.1142 114.555 62.4814 114.801 60.8566C115.099 58.9004 113.45 55.9383 110.813 51.4478C110.207 51.4191 109.602 51.5153 109.036 51.7304C109.584 53.1105 109.776 55.0139 108.847 54.0935C107.245 52.5015 105.708 55.0955 108.79 56.986C108.639 58.5551 108.392 60.0098 108.128 61.4844C107.983 62.6211 107.756 63.7458 107.448 64.8495C107.08 65.6123 106.544 66.2813 105.879 66.8054C105.214 67.3296 104.438 67.6952 103.611 67.8743C102.138 68.3013 100.732 68.9309 99.4319 69.7449C107.258 73.6393 119.133 69.8782 119.133 69.8782H119.149Z" stroke="white" stroke-linecap="round" stroke-linejoin="round"/>
<path d="M118.544 87.0039L115.061 84.1304C116.231 84.6261 117.424 85.0677 118.634 85.4537" stroke="white" stroke-linecap="round" stroke-linejoin="round"/>
<path d="M118.393 89.0836C118.575 86.5881 118.52 87.406 118.638 85.4538C125.024 87.3929 131.617 88.5683 138.279 88.9552C139.739 89.0517 141.198 88.765 142.513 88.1234C149.93 84.5106 157.027 80.5455 163.345 75.2123C163.481 70.1497 159.899 64.5986 155.556 63.5449C149.848 68.498 144.213 72.3556 137.995 74.6601C137.329 74.9068 127.228 73.2283 119.13 69.8781" stroke="white" stroke-linecap="round" stroke-linejoin="round"/>
<path d="M95.3693 88.5919L97.5045 81.7861L97.1264 87.382" stroke="white" stroke-linecap="round" stroke-linejoin="round"/>
<path d="M96.9971 89.0317L97.1264 87.382C93.9993 89.7158 90.4683 91.4523 86.7108 92.5043C78.4301 93.0618 70.1121 92.4765 61.991 90.765C60.4985 86.0029 60.9502 81.3314 64.2407 77.4012C71.4693 78.771 78.8103 79.4609 86.1675 79.4618C91.4987 76.3236 95.3165 72.259 99.4378 69.7446" stroke="white" stroke-linecap="round" stroke-linejoin="round"/>
<path d="M99.3951 94.9434C99.3951 94.9434 89.9823 100.803 86.261 114.376L74.918 131.332C65.8715 133.329 55.3952 134.002 44.2054 133.949" stroke="white" stroke-linecap="round" stroke-linejoin="round"/>
<path d="M101.891 126.058L99.4518 112.788" stroke="white" stroke-linecap="round" stroke-linejoin="round"/>
<path d="M100.907 102.296C99.6435 104.642 99.0088 107.274 99.0651 109.938C99.1214 112.602 99.8669 115.205 101.229 117.495C101.32 117.648 103.668 122.561 103.668 122.561" stroke="white" stroke-linecap="round" stroke-linejoin="round"/>
<path d="M46.9575 149.195C42.3079 149.856 37.5787 151.669 34.331 155.717C31.2087 159.608 25.8894 163.734 23.2805 162.072" stroke="white" stroke-linecap="round" stroke-linejoin="round"/>
<path d="M98.5632 87.7227L99.3951 94.9434C104.747 93.5625 110.361 93.5625 115.713 94.9434L116.915 87.7416" stroke="white" stroke-linecap="round" stroke-linejoin="round"/>
<path d="M116.426 90.6141C117.655 90.1793 118.393 89.6509 118.393 89.0838C118.393 88.5922 117.864 88.1375 116.918 87.7415C112.8 86.0162 102.722 86.0231 98.5632 87.7226C97.8866 87.9992 96.824 88.5524 97.019 89.2609C97.1523 89.7454 97.823 90.2061 98.8846 90.5763" stroke="white" stroke-linecap="round" stroke-linejoin="round"/>
<path d="M167.295 61.7919C167.711 61.376 168.94 60.2805 169.544 59.5811" stroke="white" stroke-linecap="round" stroke-linejoin="round"/>
<path d="M162.759 61.5031C163.364 61.1439 163.931 60.8066 164.421 60.4644" stroke="white" stroke-linecap="round" stroke-linejoin="round"/>
<path d="M169.186 63.2852L167.314 64.9249" stroke="white" stroke-linecap="round" stroke-linejoin="round"/>
<path d="M167.446 67.7041C167.446 67.7041 168.522 66.6892 168.855 66.4106" stroke="white" stroke-linecap="round" stroke-linejoin="round"/>
<path d="M115.708 94.9434C129.924 126.531 134.932 148.972 148.505 179.327C143.399 182.958 138.834 183.634 132.646 183.467L103.668 122.561L101.891 126.058C98.4528 132.063 94.5399 137.784 90.1893 143.165C88.7046 145.094 86.8463 146.705 84.7255 147.9C82.6046 149.095 80.2646 149.85 77.8453 150.121C66.9547 151.38 55.9791 151.742 45.0292 151.202" stroke="white" stroke-linecap="round" stroke-linejoin="round"/>
<path d="M145.969 180.933L148.124 185.206C152.586 186.51 157.592 190.008 160.979 192.88C161.125 193.003 161.23 193.168 161.279 193.353C161.328 193.538 161.319 193.734 161.252 193.913C161.187 194.093 161.068 194.248 160.911 194.357C160.754 194.467 160.568 194.525 160.377 194.525C150.774 194.516 144.026 194.425 136.298 194.411C136.013 194.41 135.731 194.35 135.47 194.235C135.209 194.121 134.975 193.954 134.781 193.745C134.588 193.536 134.44 193.289 134.346 193.019C134.253 192.75 134.216 192.465 134.238 192.181C134.442 189.795 134.95 187.444 135.749 185.187L134.711 183.504" stroke="white" stroke-linecap="round" stroke-linejoin="round"/>
<path d="M43.4044 149.949C44.1278 151.067 44.8969 151.405 45.5775 151.082C47.3595 150.239 47.7516 145.809 47.7516 143.806C47.7516 140.843 46.8461 134.331 44.3785 133.96C43.6581 133.852 42.9656 134.429 42.4402 135.659" stroke="white" stroke-linecap="round" stroke-linejoin="round"/>
<path d="M37.3359 136.261C36.0983 136.885 34.9688 137.703 33.9907 138.685C30.4622 142.355 27.5852 146.6 25.4835 151.236C23.5412 155.341 22.3233 159.352 22.7621 161.198C23.0606 162.47 24.1054 162.51 25.2576 161.886C30.9032 158.829 42.2383 138.901 39.2274 136.303C38.9562 136.1 38.6281 135.986 38.289 135.978C37.95 135.971 37.616 136.069 37.3359 136.261Z" stroke="white" stroke-linecap="round" stroke-linejoin="round"/>
<path d="M111.229 94.1113C111.229 94.1113 110.472 103.015 112.423 107.476C114.373 111.938 142.422 182.408 142.422 182.408" stroke="white" stroke-linecap="round" stroke-linejoin="round"/>
<path d="M101.021 117.249C96.7849 124.36 92.1787 131.244 87.2212 137.872C84.071 141.885 78.9796 143 73.8952 143.373C65.2028 144.021 56.4797 144.167 47.7704 143.808" stroke="white" stroke-linecap="round" stroke-linejoin="round"/>
<path d="M59.7363 101.616C59.7369 101.998 59.6239 102.371 59.4119 102.688C59.1998 103.006 58.8982 103.253 58.5453 103.399C58.2817 103.509 57.997 103.558 57.7118 103.545C57.4266 103.531 57.1481 103.454 56.8964 103.319C56.6446 103.184 56.426 102.995 56.2564 102.765C56.0868 102.536 55.9703 102.271 55.9155 101.991C55.8602 101.711 55.8676 101.422 55.9374 101.146C56.0071 100.869 56.1374 100.611 56.3188 100.391C56.5002 100.171 56.7283 99.9933 56.9865 99.8718C57.2447 99.7504 57.5267 99.6878 57.812 99.6885C58.3218 99.6919 58.8098 99.8961 59.17 100.257C59.5303 100.618 59.7337 101.106 59.7363 101.616Z" stroke="white" stroke-linecap="round" stroke-linejoin="round"/>
<path d="M18.8866 85.1515L22.2328 89.8778L26.164 83.0342" stroke="white" stroke-linecap="round" stroke-linejoin="round"/>
<path d="M109.036 51.7303C109.603 53.1104 109.776 55.0138 108.847 54.0934C107.245 52.5014 105.708 55.0954 108.79 56.9859C108.639 58.5361 108.392 60.0107 108.128 61.4843C107.98 62.6204 107.752 63.7448 107.448 64.8494C107.026 65.1424 106.525 65.3006 106.011 65.3031C105.776 65.3005 105.542 65.2688 105.314 65.2086C105.268 65.546 105.154 65.8707 104.979 66.1628C104.804 66.455 104.572 66.7085 104.296 66.9082C104.02 67.1078 103.706 67.2494 103.374 67.3242C103.042 67.3991 102.698 67.4058 102.363 67.3438C101.915 67.2614 101.498 67.0592 101.156 66.7588C100.939 67.1676 100.614 67.5088 100.216 67.7449C99.8182 67.981 99.3628 68.1028 98.9001 68.0969C98.4374 68.0911 97.9853 67.9578 97.5934 67.7117C97.2015 67.4656 96.885 67.1163 96.6787 66.7021C96.3261 66.9865 95.9037 67.1711 95.4554 67.2365C95.0071 67.3019 94.5495 67.2456 94.1304 67.0737C93.7113 66.9018 93.3461 66.6204 93.0729 66.2591C92.7996 65.8977 92.6285 65.4696 92.5773 65.0195C92.1476 65.1279 91.6969 65.1212 91.2707 65C90.8444 64.8789 90.4575 64.6477 90.149 64.3296C89.8405 64.0115 89.6211 63.6177 89.5131 63.1879C89.4051 62.7581 89.4122 62.3075 89.5336 61.8813C89.0829 61.819 88.6574 61.6359 88.3024 61.3514C87.9473 61.0668 87.6759 60.6914 87.517 60.2651C87.358 59.8388 87.3175 59.3773 87.3996 58.9298C87.4817 58.4823 87.6834 58.0653 87.9834 57.7232C87.5748 57.5062 87.2339 57.1809 86.9981 56.7829C86.7622 56.385 86.6406 55.9297 86.6464 55.4671C86.6523 55.0046 86.7855 54.5526 87.0313 54.1607C87.2772 53.7688 87.6262 53.4523 88.0401 53.2457C87.7583 52.8923 87.5759 52.4701 87.512 52.0227C87.448 51.5752 87.5048 51.1188 87.6763 50.7006C87.8479 50.2825 88.128 49.9177 88.4878 49.6441C88.8475 49.3705 89.2739 49.1979 89.7227 49.1443C89.614 48.7146 89.6205 48.2638 89.7415 47.8373C89.8625 47.4109 90.0937 47.0239 90.4119 46.7153C90.7301 46.4067 91.124 46.1874 91.5539 46.0794C91.9839 45.9715 92.4347 45.9788 92.8609 46.1006C92.9219 45.6514 93.103 45.227 93.3851 44.8722C93.6671 44.5174 94.0398 44.2453 94.4636 44.0846C94.8875 43.9239 95.3469 43.8806 95.7933 43.9593C96.2397 44.0379 96.6567 44.2356 97.0001 44.5315C97.2171 44.1229 97.5424 43.782 97.9403 43.5462C98.3383 43.3103 98.7936 43.1887 99.2561 43.1945C99.7187 43.2004 100.171 43.3336 100.563 43.5794C100.954 43.8252 101.271 44.1743 101.478 44.5882C101.83 44.3046 102.252 44.1208 102.7 44.0558C103.148 43.9909 103.605 44.0472 104.024 44.2189C104.442 44.3906 104.807 44.6715 105.08 45.0322C105.354 45.3929 105.525 45.8202 105.577 46.2697C106.007 46.1617 106.457 46.1686 106.883 46.2898C107.309 46.4109 107.696 46.6421 108.004 46.9601C108.312 47.278 108.532 47.6715 108.64 48.101C108.748 48.5306 108.741 48.981 108.62 49.407C109.142 49.4797 109.629 49.7137 110.012 50.0763C110.395 50.439 110.655 50.9122 110.756 51.4298C110.168 51.4092 109.582 51.5116 109.036 51.7303Z" stroke="white" stroke-linecap="round" stroke-linejoin="round"/>
<path d="M160.412 23L154.309 23.517C153.626 23.6127 153.008 23.9529 152.581 24.4678C152.154 24.9827 151.95 25.6336 152.011 26.2869C152.072 26.9401 152.393 27.5465 152.909 27.9819C153.425 28.4172 154.096 28.6486 154.786 28.6285L158.2 28.3413C158.892 28.3178 159.567 28.5475 160.086 28.983C160.605 29.4187 160.928 30.0271 160.989 30.6826C161.051 31.3383 160.845 31.9912 160.415 32.5069C159.984 33.0226 159.363 33.3617 158.677 33.4542L152.575 34" stroke="white" stroke-linecap="round" stroke-linejoin="round"/>
<path d="M156 21L157 36" stroke="white" stroke-linecap="round" stroke-linejoin="round"/>
<path d="M160.412 23.0093L154.309 23.5263C153.626 23.622 153.008 23.9622 152.581 24.4771C152.154 24.992 151.95 25.6429 152.011 26.2961C152.071 26.9494 152.393 27.5558 152.909 27.9912C153.425 28.4264 154.096 28.6579 154.786 28.6378L158.2 28.3505C158.892 28.3271 159.567 28.5568 160.086 28.9923C160.605 29.428 160.928 30.0364 160.989 30.6919C161.051 31.3476 160.845 32.0005 160.415 32.5162C159.984 33.0319 159.362 33.371 158.677 33.4635L152.575 34.0093" stroke="white" stroke-linecap="round" stroke-linejoin="round"/>
<path d="M156 21.0093L157 36.0093" stroke="white" stroke-linecap="round" stroke-linejoin="round"/>
<path d="M170.962 166.284C171.006 166.377 171.031 166.477 171.036 166.58C171.041 166.683 171.025 166.786 170.99 166.882C170.955 166.979 170.901 167.068 170.831 167.143C170.762 167.219 170.678 167.28 170.584 167.323C170.491 167.367 170.39 167.392 170.288 167.397C170.185 167.402 170.082 167.386 169.986 167.351C169.889 167.316 169.8 167.262 169.725 167.192C169.649 167.123 169.588 167.039 169.545 166.945L165.499 158.25C165.429 158.067 165.431 157.865 165.504 157.684C165.577 157.503 165.715 157.355 165.892 157.272C166.069 157.188 166.271 157.174 166.457 157.233C166.643 157.292 166.801 157.419 166.898 157.588L170.962 166.284Z" stroke="white" stroke-linecap="round" stroke-linejoin="round"/>
<path d="M163.836 152.881L166.198 157.928" stroke="white" stroke-linecap="round" stroke-linejoin="round"/>
<path d="M157.976 140.329C157.048 140.762 156.227 141.396 155.573 142.184C154.92 142.972 154.449 143.896 154.195 144.888C153.941 145.88 153.911 146.917 154.106 147.922C154.3 148.928 154.716 149.877 155.322 150.703C156.133 151.806 157.253 152.644 158.54 153.111C159.827 153.578 161.224 153.653 162.553 153.327C163.883 153.001 165.087 152.289 166.012 151.279C166.937 150.27 167.542 149.009 167.752 147.656C167.959 146.302 167.761 144.917 167.181 143.675C166.403 142.012 164.996 140.726 163.271 140.098C161.545 139.471 159.64 139.554 157.976 140.329Z" stroke="white" stroke-linecap="round" stroke-linejoin="round"/>
<path d="M78.2831 14.4437C77.9389 14.4049 77.6772 14.3641 77.5369 13.983C77.3379 13.4646 76.9966 13.0328 77.4274 12.5791C77.836 12.1688 78.0655 11.6134 78.0655 11.0343C78.0655 10.4553 77.836 9.89985 77.4274 9.48959L76.3698 8.4528C75.9597 8.0457 75.4053 7.81724 74.8275 7.81724C74.2497 7.81724 73.6953 8.0457 73.2853 8.4528C72.8534 8.88463 72.3997 8.53936 71.9022 8.34434C71.7666 8.29373 71.6502 8.20215 71.5691 8.08232C71.4879 7.9625 71.4461 7.82037 71.4495 7.6757C71.4505 7.38886 71.3948 7.10464 71.2855 6.83943C71.1762 6.57422 71.0156 6.33325 70.8127 6.13042C70.6099 5.92759 70.3689 5.76691 70.1037 5.65762C69.8385 5.54834 69.5543 5.49261 69.2674 5.49367H67.7749C67.4882 5.49288 67.2042 5.54879 66.9391 5.65818C66.6741 5.76757 66.4333 5.92828 66.2306 6.13107C66.0279 6.33386 65.8673 6.57473 65.758 6.83982C65.6488 7.1049 65.593 7.38898 65.5939 7.6757C65.5939 8.28066 65.0317 8.3722 64.5352 8.58314C64.4054 8.6399 64.2614 8.65574 64.1224 8.62854C63.9834 8.60134 63.856 8.5324 63.7571 8.43091C63.3471 8.02381 62.7927 7.79535 62.2149 7.79535C61.6371 7.79535 61.0827 8.02381 60.6726 8.43091L59.5861 9.48959C59.1765 9.89933 58.9464 10.455 58.9464 11.0343C58.9464 11.6137 59.1765 12.1693 59.5861 12.5791C60.0179 13.0109 59.6727 13.4646 59.4766 13.983C59.4262 14.1188 59.3347 14.2354 59.2148 14.3167C59.095 14.3981 58.9528 14.44 58.808 14.4367C58.5213 14.4361 58.2373 14.4921 57.9723 14.6015C57.7074 14.7109 57.4666 14.8717 57.264 15.0744C57.0613 15.2772 56.9007 15.518 56.7914 15.783C56.682 16.0481 56.6262 16.3321 56.627 16.6188L56.6489 18.1113C56.6482 18.3979 56.7042 18.6819 56.8135 18.9468C56.9229 19.2118 57.0835 19.4526 57.2861 19.6553C57.4888 19.858 57.7295 20.0188 57.9944 20.1282C58.2593 20.2377 58.5432 20.2938 58.8299 20.2933C59.4349 20.2933 59.5264 20.8555 59.7373 21.352C59.7983 21.4839 59.8165 21.6315 59.7894 21.7742C59.7622 21.917 59.6912 22.0476 59.5861 22.148C59.1775 22.5573 58.9481 23.1119 58.9481 23.6902C58.9481 24.2685 59.1775 24.8232 59.5861 25.2325L60.6448 26.2912C61.0548 26.6983 61.6092 26.9267 62.187 26.9267C62.7648 26.9267 63.3192 26.6983 63.7293 26.2912C64.1611 25.8583 64.6148 26.2036 65.1123 26.3986C65.2477 26.45 65.3639 26.5419 65.4451 26.6617C65.5263 26.7815 65.5685 26.9235 65.566 27.0683C65.5647 27.3557 65.6203 27.6405 65.7297 27.9063C65.839 28.1721 65.9998 28.4136 66.203 28.6169C66.4061 28.8202 66.6475 28.9813 66.9132 29.0909C67.1789 29.2005 67.4637 29.2563 67.7511 29.2553L69.2635 29.2334C69.5499 29.2336 69.8337 29.1774 70.0984 29.0678C70.363 28.9581 70.6035 28.7974 70.8059 28.5947C71.0084 28.392 71.1688 28.1513 71.278 27.8864C71.3873 27.6216 71.4432 27.3378 71.4425 27.0513C71.4425 26.4464 72.0047 26.3608 72.5022 26.1439C72.6342 26.0831 72.7819 26.065 72.9246 26.0923C73.0673 26.1196 73.198 26.1909 73.2982 26.2961C73.7082 26.7032 74.2626 26.9317 74.8404 26.9317C75.4183 26.9317 75.9726 26.7032 76.3827 26.2961L77.4195 25.2375C77.8266 24.8274 78.055 24.273 78.055 23.6952C78.055 23.1174 77.8266 22.563 77.4195 22.153C76.9876 21.7211 77.3329 21.2674 77.5279 20.749C77.5793 20.6137 77.6712 20.4975 77.791 20.4163C77.9109 20.3351 78.0528 20.2928 78.1976 20.2953C78.4851 20.297 78.7701 20.2417 79.0361 20.1326C79.3022 20.0235 79.5439 19.8628 79.7475 19.6597C79.951 19.4566 80.1123 19.2152 80.222 18.9495C80.3317 18.6837 80.3876 18.3988 80.3866 18.1113V16.6188C80.3869 16.0541 80.1676 15.5114 79.775 15.1055C79.3825 14.6996 78.8475 14.4623 78.2831 14.4437Z" stroke="white" stroke-linecap="round" stroke-linejoin="round"/>
<path d="M68.5072 22.9262C67.4052 22.9262 66.3279 22.5994 65.4116 21.9872C64.4953 21.3749 63.7811 20.5047 63.3594 19.4865C62.9377 18.4684 62.8273 17.348 63.0423 16.2672C63.2573 15.1863 63.788 14.1935 64.5672 13.4142C65.3465 12.635 66.3393 12.1043 67.4202 11.8893C68.5011 11.6743 69.6214 11.7846 70.6396 12.2064C71.6577 12.6281 72.5279 13.3423 73.1402 14.2586C73.7525 15.1749 74.0792 16.2522 74.0792 17.3542C74.0817 18.0867 73.9393 18.8123 73.6602 19.4895C73.3811 20.1666 72.9707 20.7819 72.4528 21.2998C71.9349 21.8177 71.3197 22.228 70.6425 22.5072C69.9654 22.7863 69.2397 22.9287 68.5072 22.9262Z" stroke="white" stroke-linecap="round" stroke-linejoin="round"/>
<path d="M171.226 56.3858C171.442 55.731 171.87 54.1361 171.284 53.7908C170.868 53.545 170.017 54.6226 169.261 55.6435C167.959 57.5349 166.318 59.1693 164.421 60.4643C164.743 59.1598 165.443 56.0216 164.837 55.6435H164.539C163.629 56.5542 162.925 57.6504 162.477 58.8573C161.872 60.1608 159.158 62.91 157.362 64.2522C158.914 65.209 160.24 66.4917 161.247 68.0114C162.255 69.5312 162.92 71.2517 163.197 73.054C167.711 69.863 168.533 69.2601 168.979 68.9327C169.949 67.9994 169.717 66.3785 168.857 66.4084C169.791 65.3059 170.15 63.6831 169.188 63.2851C169.959 62.3587 170.364 60.5747 169.547 59.5757C170.275 58.61 170.842 57.5328 171.226 56.3858Z" stroke="white" stroke-linecap="round" stroke-linejoin="round"/>
<path d="M61.2308 87.0759C59.4491 86.6401 57.6204 86.4255 55.7862 86.4371C51.7216 86.5526 53.0997 85.4859 54.5006 85.0193C56.0479 84.5029 59.812 83.7148 58.3941 82.6561C57.4687 82.2213 56.8021 81.8601 56.2767 81.5616C53.7224 80.6291 51.1157 79.8466 48.4699 79.2184C46.1476 78.6602 46.5247 78.1458 46.9008 78.0652C48.2732 77.87 49.6653 77.8573 51.041 78.0274C50.7575 77.7816 50.4739 77.5369 50.2092 77.2901C47.7217 74.9638 47.8909 74.0066 51.648 76.0046C55.0241 77.9366 58.7082 79.2715 62.5383 79.9507" stroke="white" stroke-linecap="round" stroke-linejoin="round"/>
<path d="M60.3224 83.5254C59.6743 83.2475 59.0314 82.9575 58.394 82.6558" stroke="white" stroke-linecap="round" stroke-linejoin="round"/>
<path d="M51.046 78.0254C52.1405 78.9209 55.7225 81.2432 56.2817 81.5596" stroke="white" stroke-linecap="round" stroke-linejoin="round"/>
<path d="M38.3538 135.969L46.0153 135.434" stroke="white" stroke-linecap="round" stroke-linejoin="round"/>
</svg>
