<svg width="200" height="200" viewBox="0 0 200 200" fill="none" xmlns="http://www.w3.org/2000/svg">
<path d="M127.167 67.3608C128.916 67.8292 131.365 68.1482 134.172 69.7046C137.117 71.3375 140.423 74.3397 143.36 80.3345V80.3354C145.185 84.1113 147.564 87.593 150.419 90.6646L150.864 91.144L151.21 90.5884C153.864 86.314 158.312 81.8633 162.125 78.4653C164.027 76.7706 165.762 75.3455 167.021 74.3442C167.65 73.844 168.16 73.45 168.512 73.1812C168.616 73.1015 168.707 73.0322 168.782 72.9751C171.833 74.9273 174.527 77.3866 176.748 80.2466L156.441 103.185V103.186C155.062 104.745 153.147 105.729 151.077 105.944C149.007 106.159 146.931 105.589 145.262 104.345H145.263C139.733 100.207 135.31 95.8085 132.693 91.4097L132.214 90.6069L131.812 91.4497C129.793 95.6707 128.093 98.7886 126.856 101.193L126.703 101.49L126.919 101.745C132.959 108.877 136.251 119.047 140.211 130.215C137.198 132.487 133.8 134.193 130.177 135.248L114.116 106.936C113.311 105.491 112.946 103.842 113.066 102.191V102.189C113.729 92.642 115.273 83.1769 117.679 73.9146C121.116 72.3928 124.963 69.9826 127.167 67.3608Z" fill="#339458" stroke="white"/>
<path d="M38.7573 69.8813C40.8901 69.8823 42.9355 70.7297 44.4438 72.2378C45.9521 73.7459 46.7999 75.7915 46.8012 77.9243C46.8014 79.416 46.387 80.8763 45.6069 82.1431L45.4458 82.394C44.562 83.7168 43.3061 84.7481 41.8364 85.3569C40.3667 85.9659 38.7493 86.1251 37.1889 85.8149C35.6285 85.5047 34.1949 84.7386 33.0698 83.6138C31.9446 82.4888 31.1781 81.055 30.8676 79.4946C30.5573 77.9344 30.7169 76.3169 31.3256 74.8472C31.9345 73.3773 32.9657 72.1207 34.2885 71.2368C35.5287 70.4083 36.9729 69.9423 38.4594 69.8872L38.7573 69.8813Z" fill="#339458" stroke="white"/>
<path d="M73.8882 38.8789L65.7691 41.7861C65.4184 41.5054 65.1256 41.3052 64.8823 41.1885C64.7373 41.1189 64.573 41.0605 64.4028 41.0527C64.2152 41.0442 64.0028 41.0997 63.8433 41.2754C63.7019 41.4312 63.6616 41.6178 63.6499 41.748C63.6377 41.8845 63.6505 42.0255 63.6714 42.1533C63.6903 42.269 63.7199 42.3925 63.7544 42.5195L54.4917 45.8281C53.4456 45.8417 52.666 45.9339 52.189 46.1211C51.9599 46.2111 51.6602 46.3774 51.5484 46.7012C51.5234 46.7736 51.5131 46.8438 51.5103 46.9111L51.0396 47.0801L50.0005 42.25L49.9507 42.0186L49.7398 41.9102L34.6538 34.1621L35.1782 32.9238L48.2027 37.499L49.0435 37.7949L48.8569 36.9219L46.8032 27.3467L64.6724 20.9512L73.8882 38.8789Z" fill="#339458" stroke="white"/>
<path d="M70.3115 88.9873C73.0966 88.7315 75.8697 89.5924 78.0215 91.3789C80.0388 93.0538 81.356 95.415 81.7276 97.998L81.7891 98.5176C81.9809 100.594 81.5531 102.68 80.5596 104.513C79.6279 106.231 78.238 107.655 76.5479 108.628L76.2051 108.816C74.3604 109.788 72.2691 110.191 70.1953 109.975C68.1215 109.759 66.1581 108.932 64.5537 107.601C63.1469 106.433 62.0709 104.922 61.4268 103.22C64.316 100.85 66.5106 97.7397 67.7686 94.2158L67.7744 94.2002L67.7793 94.1846C68.233 92.5881 68.4873 90.9505 68.5498 89.3076C69.1249 89.1529 69.7142 89.044 70.3125 88.9883L70.3115 88.9873Z" fill="#339458" stroke="white"/>
<path d="M44.5016 159.832C46.6721 161.043 48.5081 162.781 49.8365 164.891C51.0164 167.091 51.6125 169.552 51.5778 172.041C49.3658 170.889 47.52 169.131 46.2643 166.964C45.0087 164.798 44.4015 162.324 44.5016 159.832Z" fill="#B6E7FA" stroke="white"/>
<path d="M67.0023 83.834C67.8116 87.1441 67.7512 90.6117 66.8197 93.8984C65.6686 97.1125 63.6997 99.9655 61.1136 102.181C60.3027 98.8729 60.3626 95.4066 61.2953 92.1221C62.4449 88.9056 64.4142 86.0499 67.0023 83.834Z" fill="#B6E7FA" stroke="white"/>
<path d="M32.6697 63.4751C33.9335 63.8273 35.1025 64.4676 36.0828 65.3501C36.9984 66.3029 37.6792 67.4511 38.0779 68.7036C36.8142 68.3513 35.6449 67.7123 34.6648 66.8296C33.7488 65.8767 33.068 64.7281 32.6697 63.4751Z" fill="#B6E7FA" stroke="white"/>
<path d="M39.4203 120.278C41.5294 122.613 43.8372 124.761 46.3178 126.698C46.4908 130.886 45.5893 135.045 43.7006 138.781C41.0939 135.352 39.4333 131.294 38.8959 127.012C38.7179 124.752 38.8954 122.479 39.4203 120.278Z" fill="#B6E7FA" stroke="white"/>
<path d="M109.571 49.0991C109.272 49.0338 109.02 48.9614 108.808 48.8833C109.1 48.8501 109.416 48.7927 109.744 48.7163C109.688 48.8442 109.629 48.9712 109.571 49.0991Z" fill="#B6E7FA" stroke="white"/>
<path d="M111.821 39.1348C113.187 38.342 115.666 38.0034 119.984 40.5889C121.043 41.2236 121.643 41.978 121.968 42.7383C122.295 43.505 122.356 44.3109 122.281 45.0605C122.207 45.811 121.998 46.489 121.806 46.9824C121.71 47.2278 121.619 47.4246 121.554 47.5586C121.521 47.6255 121.494 47.6766 121.477 47.71C121.468 47.7263 121.461 47.7385 121.457 47.7461C121.455 47.7497 121.453 47.7525 121.452 47.7539V47.7549L121.112 48.3477L121.779 48.4922H121.781C121.783 48.4925 121.784 48.4935 121.787 48.4941C121.793 48.4954 121.802 48.4972 121.814 48.5C121.839 48.5057 121.877 48.5144 121.927 48.5264C122.026 48.5503 122.172 48.5876 122.358 48.6377C122.73 48.7379 123.26 48.891 123.885 49.1045C125.137 49.5326 126.759 50.1964 128.261 51.1396C129.767 52.0856 131.117 53.2903 131.878 54.7852C132.627 56.2577 132.828 58.0572 131.967 60.2725C131.566 61.2775 130.912 62.1626 130.068 62.8408C129.224 63.519 128.22 63.9676 127.152 64.1436L127.131 64.1475C125.531 64.4834 123.869 64.3384 122.353 63.7295C120.836 63.1204 119.534 62.075 118.612 60.7266L118.606 60.7178L118.601 60.7109L118.279 60.2705C115.051 55.7831 112.86 50.6332 111.866 45.1934C112.796 44.4472 113.147 43.5421 112.9 42.8271C112.765 42.4337 112.437 42.1235 111.988 42.0791C111.727 42.0532 111.471 42.1224 111.236 42.2607C111.273 42.017 111.336 41.7402 111.43 41.4854L111.615 40.9795L111.097 40.832C110.833 40.7574 110.564 40.7087 110.292 40.6865C110.316 40.6457 110.341 40.6035 110.368 40.5605C110.656 40.0994 111.119 39.5425 111.821 39.1348Z" fill="#B6E7FA" stroke="white"/>
<path d="M107.746 66.582C107.278 66.1858 106.859 65.8226 106.504 65.5068C106.155 65.1974 105.868 64.9337 105.652 64.7344C105.902 64.5606 106.148 64.3819 106.389 64.1973L107.746 66.582Z" fill="#B6E7FA" stroke="white"/>
<path d="M139.92 134.031C140.573 135.013 141.39 136.089 142.615 137.842C142.913 139.701 142.852 143.494 142.497 147.41C142.185 150.847 141.656 154.289 140.989 156.513C138.445 152.395 136.713 148.49 134.905 138.996L134.889 138.915L134.849 138.843L134.013 137.367C135.868 136.063 137.847 134.946 139.92 134.031Z" fill="#B6E7FA" stroke="white"/>
<path d="M193 64.0654C189.934 67.7924 186.787 70.6968 178.398 75.4844L178.33 75.5225L178.277 75.5801L177.106 76.8545C175.28 75.5099 173.589 73.992 172.058 72.3203C172.768 71.3954 173.54 70.2951 174.804 68.5596C176.467 67.6748 180.076 66.5088 183.895 65.5801C187.249 64.7644 190.678 64.1532 193 64.0654Z" fill="#B6E7FA" stroke="white"/>
<path d="M82.8538 27.9121C93.5578 28.6545 103.795 32.5846 112.245 39.1964" stroke="white" stroke-linecap="round" stroke-linejoin="round"/>
<path d="M120.865 119.829C115.014 126.332 107.687 131.334 99.4997 134.414C91.3123 137.493 82.5046 138.56 73.8188 137.524C65.1329 136.488 56.8232 133.38 49.5895 128.462C42.356 123.543 36.4105 116.958 32.2538 109.261C28.097 101.565 25.851 92.9816 25.7048 84.2353C25.5585 75.4892 27.5164 66.8359 31.4134 59.0045C34.937 51.9236 39.9526 45.7021 46.1039 40.7622" stroke="white" stroke-linecap="round" stroke-linejoin="round"/>
<path d="M133.812 93.9722C133.03 97.9189 131.813 101.767 130.183 105.446" stroke="white" stroke-linecap="round" stroke-linejoin="round"/>
<path d="M130.882 62.8413C131.627 64.6762 132.269 66.5503 132.81 68.4551" stroke="white" stroke-linecap="round" stroke-linejoin="round"/>
<path d="M88.5054 62.0287C101.359 51.8797 107.293 50.7643 110.395 52.7295C113.072 54.4269 114.866 57.9661 116.695 58.7532" stroke="white" stroke-linecap="round" stroke-linejoin="round"/>
<path d="M124.758 64.8267C125.469 65.5191 126.22 66.169 127.007 66.7729" stroke="white" stroke-linecap="round" stroke-linejoin="round"/>
<path d="M109.505 41.2003C109.505 41.2003 111.433 34.8851 120.241 40.1606C124.818 42.8998 121.886 48.0041 121.886 48.0041C121.886 48.0041 136.066 51.0797 132.433 60.4605C131.999 61.5456 131.293 62.5003 130.382 63.2324C129.472 63.9645 128.388 64.4492 127.235 64.6395C125.538 64.9967 123.775 64.8426 122.166 64.1967C120.558 63.5506 119.178 62.4419 118.2 61.0108C114.69 56.2767 112.335 50.7879 111.321 44.9823C113.399 43.5455 112.236 41.7784 111.169 42.9595C110.559 43.6351 110.602 42.2988 110.962 41.3157C110.488 41.1819 109.993 41.1427 109.505 41.2003Z" stroke="white" stroke-linecap="round" stroke-linejoin="round"/>
<path d="M109.864 49.6676C105.857 48.9493 107.104 47.0966 109.505 41.2002" stroke="white" stroke-linecap="round" stroke-linejoin="round"/>
<path d="M108.635 52.0488C109.395 50.7448 110.046 49.3803 110.582 47.9693C108.919 48.4797 107.482 48.6658 107.274 47.9126" stroke="white" stroke-linecap="round" stroke-linejoin="round"/>
<path d="M101.117 53.6746C95.0475 50.4617 78.7753 38.6103 78.7753 38.6103C79.815 34.7547 81.7603 31.9567 84.6915 30.313C84.6915 30.313 99.0942 40.7844 107.807 45.3962" stroke="white" stroke-linecap="round" stroke-linejoin="round"/>
<path d="M132.28 91.6467C134.946 96.1242 139.424 100.57 144.983 104.727C146.753 106.045 148.953 106.65 151.148 106.422C153.343 106.195 155.371 105.151 156.833 103.498L177.398 80.2688C175.01 77.1381 172.085 74.4564 168.76 72.3486C168.76 72.3486 152.032 84.6727 148.877 94.1988" stroke="white" stroke-linecap="round" stroke-linejoin="round"/>
<path d="M127.29 101.532C133.49 108.828 136.799 119.092 140.806 130.376C137.569 132.876 133.878 134.725 129.937 135.819L113.682 107.183C112.827 105.652 112.44 103.905 112.566 102.156C113.236 92.492 114.805 82.9118 117.254 73.5394C120.827 71.9892 124.853 69.4599 126.988 66.7734C130.315 67.7565 137.856 67.9455 143.81 80.0995C145.61 83.827 147.959 87.2643 150.775 90.2972" stroke="white" stroke-linecap="round" stroke-linejoin="round"/>
<path d="M125.968 104.216C127.007 101.796 129.508 97.4145 131.64 93.0265C138.746 78.3871 134.625 75.2409 133.431 73.7285" stroke="white" stroke-linecap="round" stroke-linejoin="round"/>
<path d="M104.852 64.6731C105.434 64.2932 105.997 63.8838 106.538 63.4463L109.505 68.6631" stroke="white" stroke-linecap="round" stroke-linejoin="round"/>
<path d="M117.273 73.5398C113.321 71.8951 107.963 67.6574 104.852 64.6734C101.56 66.9245 98.1401 68.9843 94.6107 70.8424C90.169 72.9587 87.6397 71.5389 82.9861 68.2146C77.6032 64.3719 69.9068 58.8019 69.9068 58.8019C70.1668 56.8342 70.8882 54.956 72.0121 53.3202C73.1361 51.6844 74.6308 50.3375 76.3743 49.3892C85.8935 55.7731 91.565 59.6476 91.565 59.6476" stroke="white" stroke-linecap="round" stroke-linejoin="round"/>
<path d="M75.6719 29.8592C76.8659 31.0303 78.3385 29.6114 77.2589 28.4035C76.448 27.4951 75.444 26.4573 74.7833 25.7767C74.5923 25.548 74.3197 25.403 74.0234 25.3723C73.727 25.3416 73.4304 25.4276 73.1966 25.6121C72.9627 25.7966 72.81 26.065 72.7709 26.3604C72.7318 26.6557 72.8096 26.9546 72.9874 27.1936C73.5077 27.8254 74.5754 28.7816 75.6719 29.8592Z" stroke="white" stroke-linecap="round" stroke-linejoin="round"/>
<path d="M79.625 23.9807C79.227 23.508 78.9285 23.1638 78.5474 22.714C78.3661 22.4801 78.1007 22.3262 77.8075 22.285C77.5144 22.2438 77.2168 22.3186 76.978 22.4934C76.7392 22.6684 76.578 22.9295 76.5289 23.2214C76.4797 23.5133 76.5464 23.8128 76.7146 24.0563C77.1301 24.597 77.5802 25.1101 78.0619 25.5926" stroke="white" stroke-linecap="round" stroke-linejoin="round"/>
<path d="M78.0151 25.6444C77.5992 25.1907 76.6151 24.1897 76.2012 23.735C76.0156 23.4919 75.7411 23.3324 75.438 23.2916C75.1349 23.2508 74.828 23.3321 74.5848 23.5176C74.3417 23.7031 74.1822 23.9776 74.1414 24.2808C74.1006 24.5839 74.182 24.8908 74.3674 25.134C74.8739 25.7798 76.1127 26.9797 77.2022 28.1011C78.1156 29.0414 79.1305 28.0633 79.036 27.1747" stroke="white" stroke-linecap="round" stroke-linejoin="round"/>
<path d="M72.6471 30.0859C72.6471 30.0859 72.271 33.0451 79.1782 37.2887" stroke="white" stroke-linecap="round" stroke-linejoin="round"/>
<path d="M67.1875 25.2284C69.0581 21.8634 73.4122 18.5401 77.2798 20.6733C77.8894 21.0189 78.4133 21.4974 78.8126 22.0733C79.2119 22.6491 79.4762 23.3075 79.5862 23.9996" stroke="white" stroke-linecap="round" stroke-linejoin="round"/>
<path d="M49.4934 42.3145L34.0132 34.3953L34.9017 32.2969L48.3591 37.0032" stroke="white" stroke-linecap="round" stroke-linejoin="round"/>
<path d="M54.5779 46.3225L64.3518 42.8311" stroke="white" stroke-linecap="round" stroke-linejoin="round"/>
<path d="M65.6731 42.3524L74.5943 39.1773L64.9169 20.333L46.2049 27.0234L50.6655 47.7204L52.1212 47.2099" stroke="white" stroke-linecap="round" stroke-linejoin="round"/>
<path d="M5 63.3897L8.25067 56.567L18.7599 53.0696L22.2573 41.8042" stroke="white" stroke-linecap="round" stroke-linejoin="round"/>
<path d="M18.325 44.1107L22.2762 41.7485L24.2602 45.8877" stroke="white" stroke-linecap="round" stroke-linejoin="round"/>
<path d="M132.148 135.158L134.417 139.089C136.364 149.315 138.234 153.132 141.127 157.669C142.827 153.359 143.754 141.432 143.092 137.652C141.628 135.714 140.267 133.702 139.013 131.623" stroke="white" stroke-linecap="round" stroke-linejoin="round"/>
<path d="M140.102 133.402C137.714 134.423 135.447 135.706 133.344 137.23" stroke="white" stroke-linecap="round" stroke-linejoin="round"/>
<path d="M174.374 76.8091L163.808 87.6964" stroke="white" stroke-linecap="round" stroke-linejoin="round"/>
<path d="M171.369 72.3486C173.109 74.2788 175.054 76.0137 177.171 77.5226" stroke="white" stroke-linecap="round" stroke-linejoin="round"/>
<path d="M176.113 78.6997L178.608 75.9217C187.642 70.7805 190.667 67.7746 194.012 63.5787C189.363 63.3708 177.794 66.3389 174.431 68.1906C173.192 70.0258 171.855 71.7926 170.424 73.483" stroke="white" stroke-linecap="round" stroke-linejoin="round"/>
<path d="M135.486 133.698L126.724 116.937" stroke="white" stroke-linecap="round" stroke-linejoin="round"/>
<path d="M70.1904 57.3957C67.6823 55.145 64.9747 53.1271 62.1011 51.367C59.8015 50.102 57.3667 49.1008 54.8425 48.382C51.1401 47.3342 50.8546 46.2676 55.0505 46.3223C59.5083 46.6804 63.8961 47.647 68.092 49.1949" stroke="white" stroke-linecap="round" stroke-linejoin="round"/>
<path d="M65.8811 48.4008C68.0542 48.4953 65.0085 44.584 64.5766 43.4487C63.9876 41.9005 63.4105 40.1542 66.7129 43.3164C69.4517 45.7207 72.3349 47.9552 75.3465 50.0077" stroke="white" stroke-linecap="round" stroke-linejoin="round"/>
<path d="M58.2255 49.5351C57.2614 49.5162 55.2584 49.6147 54.6724 49.6485C52.0088 49.8008 52.2326 50.5221 52.6496 50.6316C54.2903 51.0624 57.0146 51.4276 58.528 51.8594C60.9638 52.55 65.7298 53.731 67.4303 55.1489" stroke="white" stroke-linecap="round" stroke-linejoin="round"/>
<path d="M58.3469 51.8101C57.9071 51.9016 57.5599 51.9752 57.3519 52.03C54.744 52.5971 55.0843 53.2986 55.5191 53.3344C57.2196 53.4747 59.9608 53.407 61.5299 53.5802C63.4233 53.8339 65.2887 54.2643 67.1019 54.8657" stroke="white" stroke-linecap="round" stroke-linejoin="round"/>
<path d="M47.3014 77.9244C47.3016 79.6143 46.8006 81.2663 45.862 82.6715C44.9233 84.0767 43.5889 85.172 42.0277 85.8187C40.4665 86.4656 38.7486 86.6349 37.0911 86.3054C35.4337 85.9759 33.9111 85.1621 32.7161 83.9673C31.5211 82.7725 30.7073 81.25 30.3776 79.5926C30.0478 77.9353 30.217 76.2172 30.8636 74.6559C31.5103 73.0947 32.6054 71.7602 34.0104 70.8213C35.4156 69.8824 37.0675 69.3813 38.7574 69.3813C41.0229 69.3823 43.1954 70.2827 44.7974 71.8847C46.3995 73.4865 47.3001 75.6589 47.3014 77.9244Z" stroke="white" stroke-linecap="round" stroke-linejoin="round"/>
<path d="M68.1286 88.9051C68.8224 88.6979 69.5381 88.5584 70.266 88.4907C73.1829 88.2228 76.0869 89.1232 78.3406 90.9943C80.5942 92.8654 82.0135 95.5541 82.2866 98.4706C82.4878 100.646 82.0396 102.831 80.9987 104.751C79.9577 106.671 78.3709 108.239 76.4387 109.258C74.5065 110.276 72.3157 110.699 70.1434 110.472C67.971 110.246 65.9146 109.381 64.2342 107.986C62.6691 106.686 61.4955 104.982 60.8391 103.063" stroke="white" stroke-linecap="round" stroke-linejoin="round"/>
<path d="M33.0491 131.095C37.3501 132.921 41.0507 135.921 43.7284 139.751C39.1697 140.772 34.4164 140.496 30.0063 138.955C25.7057 137.127 22.0053 134.128 19.327 130.299C23.8856 129.277 28.6391 129.553 33.0491 131.095Z" stroke="white" stroke-linecap="round" stroke-linejoin="round"/>
<path d="M50.2725 164.644C51.6224 167.15 52.2384 169.987 52.0496 172.828C49.4408 171.654 47.2661 169.691 45.8317 167.215C44.3973 164.741 43.7754 161.878 44.0537 159.03C46.6085 160.287 48.7621 162.231 50.2725 164.644Z" stroke="white" stroke-linecap="round" stroke-linejoin="round"/>
<path d="M83.1374 104.708C80.5389 107.435 77.2241 109.375 73.5734 110.303C73.975 106.54 75.5484 102.998 78.0716 100.177C80.5948 97.356 83.9403 95.3989 87.6357 94.582C87.1077 98.3102 85.5498 101.817 83.1374 104.708Z" stroke="white" stroke-linecap="round" stroke-linejoin="round"/>
<path d="M67.2979 94.0474C66.0299 97.5995 63.7889 100.724 60.8305 103.063C59.7899 99.4384 59.7861 95.5946 60.8195 91.9678C62.0863 88.4152 64.3277 85.2908 67.287 82.9521C68.3248 86.5772 68.3286 90.4203 67.2979 94.0474Z" stroke="white" stroke-linecap="round" stroke-linejoin="round"/>
<path d="M34.3157 67.1887C33.1427 65.9729 32.3314 64.4546 31.9725 62.8037C33.635 63.1013 35.1804 63.8598 36.433 64.9927C37.6057 66.2088 38.4169 67.7271 38.7763 69.3777C37.1137 69.0801 35.5683 68.3217 34.3157 67.1887Z" stroke="white" stroke-linecap="round" stroke-linejoin="round"/>
<path d="M39.9305 86.3882C40.5723 97.0028 41.2578 104.054 52.5361 121.492C62.6025 137.064 51.6267 151.492 51.9003 169.497" stroke="white" stroke-linecap="round" stroke-linejoin="round"/>
<path d="M65.6731 109.036C65.6731 109.036 56.9619 117.747 56.7181 133.812" stroke="white" stroke-linecap="round" stroke-linejoin="round"/>
<path d="M43.7851 139.694C43.7851 139.694 53.5192 145.346 52.4605 161.298" stroke="white" stroke-linecap="round" stroke-linejoin="round"/>
<path d="M65.3706 172.072C65.1994 171.441 64.7848 170.903 64.2176 170.577C63.6506 170.251 62.9775 170.163 62.3458 170.333L42.1603 175.738C41.8474 175.823 41.5543 175.968 41.2976 176.165C41.0409 176.363 40.8256 176.609 40.664 176.891C40.5025 177.171 40.3978 177.481 40.356 177.802C40.3142 178.123 40.3361 178.45 40.4205 178.762C40.5049 179.076 40.65 179.368 40.8477 179.626C41.0453 179.882 41.2915 180.097 41.5723 180.259C41.8532 180.421 42.163 180.525 42.4843 180.567C42.8056 180.609 43.132 180.587 43.4448 180.502L63.6314 175.097C64.2626 174.925 64.8002 174.51 65.1263 173.943C65.4523 173.376 65.5402 172.704 65.3706 172.072Z" stroke="white" stroke-linecap="round" stroke-linejoin="round"/>
<path d="M41.218 74.311L37.3992 74.6513C36.9721 74.7143 36.5854 74.9382 36.318 75.2771C36.0508 75.616 35.9231 76.0443 35.9612 76.4743C35.9993 76.9042 36.2004 77.3033 36.5233 77.5899C36.8461 77.8763 37.2663 78.0287 37.6977 78.0154L39.834 77.8264C40.2669 77.8109 40.6893 77.9621 41.0139 78.2487C41.3387 78.5355 41.5411 78.9359 41.5793 79.3673C41.6176 79.7989 41.4888 80.2286 41.2197 80.568C40.9504 80.9074 40.5613 81.1306 40.1325 81.1915L36.3146 81.5507" stroke="white" stroke-linecap="round" stroke-linejoin="round"/>
<path d="M38.3415 73.2939L39.1922 82.5554" stroke="white" stroke-linecap="round" stroke-linejoin="round"/>
<path d="M76.2768 97.5628L72.2123 95.2384C71.7336 94.9653 71.1659 94.8936 70.6344 95.0389C70.1028 95.1843 69.6506 95.5348 69.3775 96.0135C69.1044 96.4922 69.0326 97.0599 69.1779 97.5914C69.3233 98.123 69.6739 98.5752 70.1526 98.8483L72.4202 100.153C72.6572 100.288 72.8653 100.468 73.0325 100.684C73.1998 100.9 73.3229 101.147 73.3948 101.409C73.4669 101.673 73.4863 101.948 73.452 102.218C73.4178 102.489 73.3305 102.751 73.1953 102.987C73.0601 103.224 72.8795 103.432 72.6638 103.599C72.4482 103.767 72.2017 103.89 71.9384 103.963C71.6753 104.034 71.4004 104.053 71.1297 104.019C70.859 103.985 70.5976 103.898 70.3606 103.763L66.2811 101.438" stroke="white" stroke-linecap="round" stroke-linejoin="round"/>
<path d="M74.1028 94.5391L68.4701 104.443" stroke="white" stroke-linecap="round" stroke-linejoin="round"/>
<path d="M75.2938 157.82C75.8835 158.068 76.5466 158.077 77.1428 157.845C77.7391 157.613 78.2219 157.158 78.4892 156.577C78.7566 155.996 78.7876 155.333 78.5757 154.73C78.3637 154.127 77.9254 153.629 77.3534 153.342L64.7657 147.615C64.1755 147.366 63.5113 147.355 62.9136 147.586C62.316 147.817 61.8319 148.273 61.564 148.855C61.296 149.437 61.2653 150.101 61.4783 150.705C61.6913 151.31 62.1313 151.807 62.705 152.093L75.2938 157.82Z" stroke="white" stroke-linecap="round" stroke-linejoin="round"/>
<path d="M103.4 142.831C103.435 143.562 103.253 144.287 102.876 144.915C102.5 145.542 101.946 146.043 101.284 146.356C100.622 146.668 99.8832 146.777 99.1598 146.67C98.4361 146.563 97.7606 146.242 97.2187 145.751C96.6768 145.259 96.2929 144.618 96.1155 143.908C95.9381 143.198 95.9751 142.451 96.222 141.763C96.4689 141.074 96.9144 140.474 97.5024 140.038C98.0903 139.603 98.7942 139.352 99.525 139.316C100.011 139.292 100.495 139.365 100.953 139.528C101.411 139.692 101.83 139.945 102.191 140.271C102.551 140.598 102.842 140.992 103.049 141.43C103.257 141.87 103.376 142.346 103.4 142.831Z" stroke="white" stroke-linecap="round" stroke-linejoin="round"/>
<path d="M113.398 151.753C113.434 152.484 113.252 153.208 112.875 153.836C112.499 154.463 111.945 154.964 111.283 155.277C110.621 155.59 109.882 155.699 109.159 155.591C108.435 155.484 107.76 155.163 107.217 154.672C106.675 154.18 106.292 153.54 106.114 152.829C105.937 152.12 105.974 151.372 106.22 150.684C106.468 149.995 106.913 149.395 107.501 148.96C108.089 148.524 108.793 148.273 109.524 148.237C110.009 148.212 110.495 148.284 110.953 148.448C111.41 148.611 111.831 148.864 112.191 149.19C112.551 149.517 112.843 149.912 113.05 150.351C113.257 150.79 113.375 151.267 113.398 151.753Z" stroke="white" stroke-linecap="round" stroke-linejoin="round"/>
<path d="M96.6524 156.27L112.737 138.522" stroke="white" stroke-linecap="round" stroke-linejoin="round"/>
<path d="M152.732 54.1284L153.166 63.163" stroke="white" stroke-linecap="round" stroke-linejoin="round"/>
<path d="M157.476 58.4185L148.422 58.8722" stroke="white" stroke-linecap="round" stroke-linejoin="round"/>
<path d="M83.7801 30.8992C82.4379 29.1599 83.1602 26.0764 81.9284 24.6237C80.4011 22.8248 80.1812 23.2377 77.4509 26.2684C76.7883 27.0038 77.829 28.3848 80.2678 26.3819C79.4546 26.9285 78.852 27.7361 78.5593 28.6712C78.2666 29.6064 78.3014 30.6133 78.6579 31.526" stroke="white" stroke-linecap="round" stroke-linejoin="round"/>
<path d="M71.854 34.0363L74.3485 31.6553" stroke="white" stroke-linecap="round" stroke-linejoin="round"/>
<path d="M74.3515 31.6551C75.5395 32.7496 76.9385 31.3566 75.8639 30.2183C75.0679 29.3715 74.4649 28.8004 73.8033 28.1387C73.6125 27.9224 73.3449 27.789 73.0573 27.7669C72.7698 27.7449 72.4849 27.8359 72.2634 28.0206C72.0419 28.2053 71.9011 28.4692 71.8712 28.756C71.8412 29.0429 71.9243 29.33 72.1028 29.5566C72.6013 30.1327 73.249 30.6372 74.3515 31.6551Z" stroke="white" stroke-linecap="round" stroke-linejoin="round"/>
<path d="M46.7383 125.752C46.0758 121.308 44.2337 117.123 41.4041 113.632C39.1596 117.732 38.1178 122.381 38.3982 127.046C38.9761 131.682 40.8424 136.063 43.7851 139.691C46.1389 135.444 47.1674 130.589 46.7383 125.752Z" stroke="white" stroke-linecap="round" stroke-linejoin="round"/>
<path d="M73.6112 61.5002C74.3345 57.5612 76.5141 54.0388 79.7165 51.6338" stroke="white" stroke-linecap="round" stroke-linejoin="round"/>
<path d="M82.0608 40.9783C83.1006 37.658 85.1238 34.7314 87.8626 32.5854" stroke="white" stroke-linecap="round" stroke-linejoin="round"/>
</svg>
