<svg width="201" height="200" viewBox="0 0 201 200" fill="none" xmlns="http://www.w3.org/2000/svg">
<path fill-rule="evenodd" clip-rule="evenodd" d="M44.3415 9.77195L65.0773 45.7103C65.3874 46.2483 65.5504 46.8584 65.5503 47.4792C65.5502 48.1001 65.3869 48.71 65.0766 49.2478C64.7664 49.7857 64.3201 50.2325 63.7827 50.5435C63.2453 50.8545 62.6356 51.0186 62.0147 51.0196L20.5212 51.0226C19.8999 51.0219 19.2897 50.8579 18.7519 50.5467C18.2141 50.2356 17.7676 49.7884 17.4572 49.2501C17.1469 48.7118 16.9837 48.1014 16.9839 47.48C16.9842 46.8588 17.1479 46.2484 17.4586 45.7103L38.1984 9.77195C38.51 9.23313 38.9579 8.78577 39.497 8.47474C40.0362 8.16373 40.6476 8 41.27 8C41.8924 8 42.5039 8.16373 43.043 8.47474C43.5821 8.78577 44.03 9.23313 44.3415 9.77195ZM41.2671 41.8562C41.9923 41.8562 42.5803 41.2682 42.5803 40.543C42.5803 39.8177 41.9923 39.2299 41.2671 39.2299C40.5419 39.2299 39.954 39.8177 39.954 40.543C39.954 41.2682 40.5419 41.8562 41.2671 41.8562Z" fill="#E15252"/>
<path d="M151.296 58.1648C151.288 58.3379 151.213 58.5007 151.085 58.6178C150.958 58.7348 150.789 58.7963 150.616 58.7887C150.443 58.7812 150.279 58.7053 150.163 58.5777C150.046 58.45 149.984 58.2811 149.992 58.1081C149.996 58.0225 150.016 57.9385 150.053 57.8608C150.088 57.783 150.14 57.7132 150.203 57.6553C150.267 57.5974 150.34 57.5524 150.421 57.5231C150.501 57.4937 150.587 57.4806 150.673 57.4842C150.758 57.488 150.843 57.5085 150.92 57.5447C150.998 57.581 151.068 57.6322 151.125 57.6954C151.183 57.7586 151.229 57.8326 151.258 57.9131C151.286 57.9937 151.3 58.0793 151.296 58.1648Z" fill="#9AD4A6"/>
<path d="M39.7686 196.196V51.0341L42.7686 51.0197V197.02C40.8926 197.025 39.8926 197.525 39.7686 196.196Z" fill="#9AD4A6"/>
<path d="M88.0758 138.394L82.3475 161.629C77.1624 161.797 72.0398 160.457 67.6006 157.773L71.4195 142.515L88.0758 138.394Z" fill="#E15252"/>
<path d="M146.817 101.393L137.628 111.81L125.604 102.15L133.299 90.3525C132.278 89.6908 131.257 88.9913 130.198 88.2729L115.188 111.017H86.7902C84.6476 111.017 82.5666 111.734 80.8779 113.052C79.1892 114.371 77.9897 116.216 77.4701 118.295L77.0541 119.94C76.9218 119.997 37.7298 135.689 37.7298 135.689C37.6336 140.827 39.4996 145.808 42.9475 149.619L78.8312 137.614C86.2241 138.299 109.663 140.184 117.343 139.221C125.004 138.266 130.404 130.896 132.107 124.474L149.52 104.037L146.817 101.393Z" fill="#E15252"/>
<path d="M146.212 120.112C144.216 118.399 142.244 116.659 140.294 114.894L141.712 113.231L146.212 120.112Z" fill="#9AD4A6"/>
<path d="M142.525 91.7345L139.557 91.8669C140.058 91.5653 140.511 91.1892 140.899 90.7515C141.396 91.1486 141.943 91.479 142.525 91.7345Z" fill="#9AD4A6"/>
<path d="M78.8123 137.638L72.0622 139.906L71.4195 142.515L88.0758 138.394C82.7067 137.978 78.8312 137.619 78.8123 137.638Z" fill="#9AD4A6"/>
<path d="M174.268 138.507C172.509 139.357 171.283 138.733 171.394 136.673L174.268 138.507Z" fill="#9AD4A6"/>
<path d="M180.242 128.544C179.259 128.572 178.296 128.258 177.519 127.655C178.805 127.05 179.939 127.22 180.242 128.544Z" fill="#9AD4A6"/>
<path d="M147.686 82.4701C151.221 82.1716 149.993 86.8003 148.291 88.5018C147.97 88.9177 148.102 89.1983 149.123 89.2769C151.259 89.447 150.276 92.5096 146.873 91.4888C146.547 91.5087 146.233 91.6211 145.966 91.8102C150.543 93.9842 151.789 101.849 155.437 93.9992C159.067 86.1755 151.637 82.0353 147.686 82.4701Z" fill="#9AD4A6"/>
<path d="M172.906 125.671C172.906 125.891 172.819 126.103 172.663 126.258C172.507 126.414 172.296 126.502 172.076 126.502C171.855 126.502 171.644 126.414 171.488 126.258C171.332 126.103 171.245 125.891 171.245 125.671C171.245 125.451 171.332 125.239 171.488 125.084C171.644 124.928 171.855 124.84 172.076 124.84C172.296 124.84 172.507 124.928 172.663 125.084C172.819 125.239 172.906 125.451 172.906 125.671Z" fill="#9AD4A6"/>
<path d="M160.069 124.838C160.069 125.059 159.981 125.27 159.826 125.426C159.67 125.581 159.459 125.669 159.238 125.669C159.018 125.669 158.806 125.581 158.651 125.426C158.495 125.27 158.407 125.059 158.407 124.838C158.407 124.618 158.495 124.407 158.651 124.251C158.806 124.095 159.018 124.007 159.238 124.007C159.459 124.007 159.67 124.095 159.826 124.251C159.981 124.407 160.069 124.618 160.069 124.838Z" fill="#9AD4A6"/>
<path d="M157.838 114.062C157.838 114.283 157.751 114.494 157.595 114.65C157.439 114.806 157.228 114.893 157.007 114.893C156.787 114.893 156.576 114.806 156.42 114.65C156.264 114.494 156.177 114.283 156.177 114.062C156.177 113.842 156.264 113.631 156.42 113.475C156.576 113.319 156.787 113.232 157.007 113.232C157.228 113.232 157.439 113.319 157.595 113.475C157.751 113.631 157.838 113.842 157.838 114.062Z" fill="#9AD4A6"/>
<path d="M144.869 114.062C144.869 114.283 144.782 114.494 144.626 114.65C144.47 114.806 144.259 114.893 144.039 114.893C143.818 114.893 143.607 114.806 143.451 114.65C143.295 114.494 143.208 114.283 143.208 114.062C143.208 113.842 143.295 113.631 143.451 113.475C143.607 113.319 143.818 113.232 144.039 113.232C144.259 113.232 144.47 113.319 144.626 113.475C144.782 113.631 144.869 113.842 144.869 114.062Z" fill="#9AD4A6"/>
<path d="M142.979 101.471C142.979 101.691 142.891 101.902 142.736 102.058C142.58 102.214 142.368 102.301 142.148 102.301C141.928 102.301 141.716 102.214 141.561 102.058C141.405 101.902 141.317 101.691 141.317 101.471C141.317 101.25 141.405 101.039 141.561 100.883C141.716 100.727 141.928 100.64 142.148 100.64C142.368 100.64 142.58 100.727 142.736 100.883C142.891 101.039 142.979 101.25 142.979 101.471Z" fill="#9AD4A6"/>
<path d="M131.484 101.679C131.484 101.899 131.396 102.11 131.24 102.266C131.084 102.422 130.873 102.509 130.653 102.509C130.432 102.509 130.221 102.422 130.065 102.266C129.91 102.11 129.822 101.899 129.822 101.679C129.822 101.458 129.91 101.247 130.065 101.091C130.221 100.935 130.432 100.848 130.653 100.848C130.873 100.848 131.084 100.935 131.24 101.091C131.396 101.247 131.484 101.458 131.484 101.679Z" fill="#9AD4A6"/>
<path d="M125.361 87.8023C125.361 88.0226 125.274 88.234 125.118 88.3898C124.962 88.5456 124.751 88.6331 124.531 88.6331C124.31 88.6331 124.099 88.5456 123.943 88.3898C123.787 88.234 123.7 88.0226 123.7 87.8023C123.7 87.5819 123.787 87.3706 123.943 87.2148C124.099 87.059 124.31 86.9715 124.531 86.9715C124.751 86.9715 124.962 87.059 125.118 87.2148C125.274 87.3706 125.361 87.5819 125.361 87.8023Z" fill="#9AD4A6"/>
<path d="M113.334 89.1635C113.334 89.3838 113.246 89.5951 113.09 89.7509C112.935 89.9067 112.723 89.9943 112.503 89.9943C112.283 89.9943 112.071 89.9067 111.916 89.7509C111.76 89.5951 111.672 89.3838 111.672 89.1635C111.672 88.9431 111.76 88.7318 111.916 88.576C112.071 88.4202 112.283 88.3326 112.503 88.3326C112.723 88.3326 112.935 88.4202 113.09 88.576C113.246 88.7318 113.334 88.9431 113.334 89.1635Z" fill="#9AD4A6"/>
<path d="M113.334 78.5189C113.334 78.7393 113.246 78.9506 113.09 79.1064C112.935 79.2622 112.723 79.3498 112.503 79.3498C112.283 79.3498 112.071 79.2622 111.916 79.1064C111.76 78.9506 111.672 78.7393 111.672 78.5189C111.672 78.2986 111.76 78.0873 111.916 77.9315C112.071 77.7757 112.283 77.6881 112.503 77.6881C112.723 77.6881 112.935 77.7757 113.09 77.9315C113.246 78.0873 113.334 78.2986 113.334 78.5189Z" fill="#9AD4A6"/>
<path d="M103.073 80.3338C103.073 80.5542 102.986 80.7655 102.83 80.9213C102.674 81.0771 102.463 81.1646 102.243 81.1646C102.022 81.1646 101.811 81.0771 101.655 80.9213C101.499 80.7655 101.412 80.5542 101.412 80.3338C101.412 80.1135 101.499 79.9022 101.655 79.7463C101.811 79.5905 102.022 79.503 102.243 79.503C102.463 79.503 102.674 79.5905 102.83 79.7463C102.986 79.9022 103.073 80.1135 103.073 80.3338Z" fill="#9AD4A6"/>
<path d="M101.688 68.6883C101.688 68.7975 101.667 68.9055 101.625 69.0063C101.583 69.1071 101.522 69.1987 101.445 69.2758C101.368 69.353 101.276 69.4142 101.175 69.4559C101.075 69.4977 100.967 69.5192 100.858 69.5192C100.748 69.5192 100.64 69.4977 100.54 69.4559C100.439 69.4142 100.347 69.353 100.27 69.2758C100.193 69.1987 100.132 69.1071 100.09 69.0063C100.048 68.9055 100.027 68.7975 100.027 68.6883C100.027 68.468 100.114 68.2567 100.27 68.1009C100.426 67.945 100.637 67.8575 100.858 67.8575C101.078 67.8575 101.289 67.945 101.445 68.1009C101.601 68.2567 101.688 68.468 101.688 68.6883Z" fill="#9AD4A6"/>
<path d="M91.4598 70.1629C91.4598 70.3835 91.3721 70.5951 91.2161 70.7511C91.0601 70.9071 90.8485 70.9948 90.6279 70.9948C90.4073 70.9948 90.1957 70.9071 90.0397 70.7511C89.8838 70.5951 89.7961 70.3835 89.7961 70.1629C89.7961 69.9423 89.8838 69.7308 90.0397 69.5748C90.1957 69.4188 90.4073 69.3311 90.6279 69.3311C90.8485 69.3311 91.0601 69.4188 91.2161 69.5748C91.3721 69.7308 91.4598 69.9423 91.4598 70.1629Z" fill="#9AD4A6"/>
<path d="M41.27 7.5C41.9801 7.5 42.6773 7.68723 43.2924 8.04199C43.8304 8.35246 44.29 8.78167 44.6342 9.2959L44.7748 9.52148L65.5102 45.46C65.8647 46.0739 66.0519 46.7706 66.0522 47.4795C66.0525 48.1886 65.8663 48.8857 65.5121 49.5C65.158 50.1142 64.6483 50.6244 64.0346 50.9795C63.4976 51.2901 62.8973 51.4724 62.2807 51.5137L62.0151 51.5225L43.269 51.5205L43.3383 132.903C43.4474 132.86 43.558 132.816 43.6694 132.771C47.3457 131.299 52.2494 129.336 57.1567 127.371C62.0639 125.406 66.9756 123.439 70.6684 121.96C72.5144 121.221 74.0559 120.603 75.1401 120.169C75.6822 119.952 76.1105 119.78 76.4047 119.662C76.4924 119.627 76.5679 119.596 76.6313 119.57L76.7924 118.936L76.9662 118.217L76.9672 118.214C77.1075 117.653 77.2949 117.109 77.5258 116.586C78.1946 115.052 79.2371 113.699 80.5698 112.658C82.0005 111.541 83.6994 110.835 85.4838 110.603V109.591C85.0166 109.483 84.5842 109.249 84.2397 108.904C83.7558 108.42 83.4838 107.764 83.4838 107.08C83.4838 106.396 83.7558 105.74 84.2397 105.256C84.5211 104.974 84.8613 104.767 85.2309 104.641V69.2559C85.1871 69.2524 85.1416 69.2488 85.0942 69.2451C84.4994 69.1985 83.6626 69.1301 82.27 68.9043C82.2671 68.9038 82.264 68.9019 82.2612 68.9014C81.7524 68.8638 81.3478 68.626 81.0864 68.2734C80.8303 67.928 80.7278 67.4974 80.7612 67.0859C80.793 66.6937 80.9509 66.3079 81.227 66.0029C80.979 65.8839 80.7742 65.7088 80.6215 65.4932C80.3661 65.1322 80.2695 64.6866 80.312 64.2637C80.3573 63.8121 80.5645 63.3687 80.9223 63.0469C80.8089 62.9514 80.7094 62.8421 80.6274 62.7197C80.38 62.3507 80.295 61.8994 80.3481 61.4746C80.4124 60.9604 80.6851 60.4593 81.1479 60.1396C80.7862 59.7395 80.6563 59.1701 80.7231 58.6729C80.7791 58.257 80.9693 57.8381 81.309 57.5283C81.6563 57.2117 82.1315 57.0355 82.6967 57.0674H82.7016C83.2003 57.0998 83.6017 57.1168 84.0805 57.1416C84.1055 57.0612 84.1329 56.9843 84.1655 56.9121C84.2647 56.6922 84.4042 56.5046 84.5952 56.3564C84.7154 56.2632 84.8478 56.1943 84.9858 56.1406V19.0596C84.9859 18.7835 85.2097 18.5596 85.4858 18.5596C85.7619 18.5596 85.9857 18.7835 85.9858 19.0596V55.9531C86.255 55.9342 86.5517 55.9262 86.8725 55.9189C87.9918 55.8921 88.7465 55.8404 89.3315 55.917C89.9027 55.9919 90.331 56.1869 90.8325 56.5557L91.0532 56.7246L91.06 56.7295C92.0866 57.5761 93.0447 58.5017 93.9282 59.4961C94.0925 59.3642 94.2573 59.2323 94.4243 59.1035L94.5034 59.0537C94.6961 58.9558 94.9355 58.9922 95.0903 59.1533L95.1127 59.1758C95.1272 59.19 95.1468 59.2097 95.1713 59.2334C95.2205 59.2809 95.2891 59.3457 95.3754 59.4277C95.548 59.5917 95.793 59.8224 96.1049 60.1133C96.7289 60.6951 97.6217 61.5183 98.7455 62.5352C100.994 64.5693 104.166 67.378 107.966 70.5811C114.111 75.7612 121.89 81.9673 130.045 87.5967L130.06 87.5752L130.479 87.8594C131.54 88.5796 132.556 89.2747 133.571 89.9326L133.992 90.2061L133.969 90.2393C134.587 90.6444 135.206 91.0443 135.826 91.4395C135.876 91.4594 135.923 91.4884 135.964 91.5234C136.455 91.8087 137.013 91.9586 137.581 91.9531C138.172 91.9474 138.748 91.7749 139.246 91.458L140.127 90.7363C139.4 90.0252 138.749 88.9986 139.027 87.7197C139.352 86.2219 140.91 84.6358 144.414 82.9707L144.793 82.7852C145.688 82.371 146.64 82.0914 147.618 81.9561L147.634 81.9541C149.772 81.7292 152.77 82.7233 154.77 84.7881C155.78 85.8309 156.547 87.1588 156.813 88.7549C157.079 90.352 156.838 92.1806 155.891 94.2139C155.427 95.2106 154.992 95.9787 154.572 96.5469C154.552 96.5742 154.53 96.6004 154.51 96.627C154.113 97.1487 153.708 97.5214 153.276 97.7266C152.8 97.952 152.328 97.9583 151.879 97.8018C151.451 97.6524 151.063 97.3619 150.707 97.0283C150.349 96.692 149.99 96.2791 149.629 95.8496C149.262 95.4128 148.892 94.9583 148.49 94.5049C147.765 93.6889 146.977 92.929 146.059 92.4209C145.162 93.3705 144.49 94.1225 144.019 94.7549C143.499 95.4536 143.264 95.9542 143.209 96.3643C143.159 96.7463 143.257 97.1154 143.572 97.5811C143.686 97.75 143.826 97.9266 143.992 98.1152C144.034 98.1497 144.072 98.1899 144.101 98.2363C144.392 98.5557 144.755 98.9117 145.196 99.3232C145.734 99.8262 146.24 100.301 146.718 100.748L146.789 100.668L147.166 101.035L150.204 104.006L150.201 104.008C153.658 107.245 155.027 108.494 157.642 110.609C161.591 113.806 167.47 118.175 179.858 127.101C180.1 127.252 180.3 127.462 180.454 127.723C180.458 127.729 180.462 127.736 180.466 127.743C180.473 127.755 180.479 127.767 180.486 127.778C180.532 127.858 180.572 127.94 180.607 128.025C181.028 127.978 181.375 127.822 181.627 127.545L182.156 126.95C182.708 126.317 183.322 125.595 183.863 125.054C184.227 124.69 184.606 124.356 184.964 124.163C185.144 124.066 185.356 123.984 185.581 123.976C185.827 123.966 186.068 124.047 186.26 124.234L186.261 124.235C186.733 124.698 186.694 125.349 186.559 125.878C186.419 126.428 186.127 127.047 185.827 127.642C185.516 128.256 185.194 128.851 184.941 129.419C184.692 129.977 184.549 130.429 184.54 130.762C184.551 130.777 184.574 130.806 184.625 130.85C184.738 130.945 184.915 131.051 185.139 131.155C185.586 131.362 186.116 131.515 186.415 131.568L186.417 131.569C187.519 131.77 191.222 132.451 191.603 132.512C192.474 132.648 193.142 132.843 193.6 133.078C193.828 133.195 194.031 133.335 194.178 133.508C194.329 133.685 194.441 133.925 194.407 134.203C194.373 134.475 194.212 134.677 194.04 134.814C193.869 134.952 193.653 135.054 193.418 135.131C192.948 135.285 192.309 135.366 191.54 135.358H191.528C190.732 135.329 189.935 135.363 189.146 135.456C189.298 135.507 189.452 135.559 189.606 135.611C191.35 136.198 193.129 136.794 193.336 136.856C194.172 137.107 194.813 137.386 195.251 137.674C195.47 137.817 195.66 137.978 195.794 138.157C195.929 138.336 196.036 138.576 195.999 138.851C195.962 139.132 195.788 139.333 195.601 139.464C195.418 139.591 195.191 139.676 194.95 139.731C194.464 139.843 193.803 139.869 192.997 139.8C191.598 139.68 190.051 139.47 188.832 139.286C189.305 139.554 189.792 139.797 190.291 140.015C190.299 140.018 190.307 140.023 190.315 140.026C191.188 140.46 191.821 140.867 192.22 141.232C192.418 141.413 192.585 141.608 192.684 141.816C192.786 142.031 192.838 142.314 192.692 142.588C192.556 142.843 192.31 142.967 192.104 143.028C191.89 143.092 191.641 143.114 191.376 143.108C190.844 143.097 190.153 142.971 189.344 142.729C188.254 142.403 187.247 142.082 186.422 141.813C186.884 142.204 187.364 142.574 187.865 142.916C188.629 143.44 189.182 143.9 189.526 144.284C189.695 144.474 189.837 144.671 189.918 144.87C189.998 145.066 190.05 145.353 189.884 145.619C189.726 145.873 189.46 145.96 189.264 145.991C189.058 146.024 188.822 146.012 188.579 145.975C188.086 145.9 187.447 145.705 186.696 145.397C185.657 144.973 185.029 144.666 184.101 144.213C183.177 143.762 181.944 143.16 179.684 142.14C179.676 142.136 179.667 142.132 179.66 142.128C177.823 141.177 176.02 140.163 174.254 139.088C173.933 139.247 173.584 139.344 173.224 139.368C173.146 139.373 173.068 139.374 172.99 139.372C172.587 139.388 172.209 139.31 171.875 139.111C171.871 139.109 171.866 139.108 171.861 139.105C171.84 139.095 171.819 139.084 171.8 139.071C171.798 139.07 171.796 139.068 171.793 139.066C160.04 131.505 154.046 127.453 145.889 120.487L145.886 120.491C144.632 119.414 143.386 118.325 142.15 117.228C142.108 117.191 142.067 117.153 142.025 117.116C141.458 116.612 140.893 116.107 140.33 115.599L137.447 118.983V119.319C137.439 122.107 136.609 124.829 135.062 127.147C133.548 129.415 131.412 131.194 128.913 132.277C128.662 132.624 128.401 132.966 128.13 133.299C128.101 133.337 128.072 133.375 128.042 133.413C128.995 135.407 129.797 137.479 130.435 139.612C132.657 147.043 132.827 154.938 130.924 162.457C129.021 169.977 125.117 176.841 119.626 182.319C114.136 187.799 107.264 191.687 99.7397 193.574C92.2162 195.461 84.3215 195.274 76.895 193.035C69.4691 190.795 62.7885 186.586 57.562 180.855C55.1624 178.224 53.1117 175.315 51.4448 172.204C51.2249 172.152 51.061 171.955 51.061 171.719C51.061 171.655 51.0734 171.594 51.0952 171.538C49.4203 168.277 48.1626 164.802 47.3647 161.193L47.2133 160.482C46.4416 156.688 46.1891 152.824 46.4506 148.995L43.353 150.033L43.393 196.524C43.393 196.533 43.3905 196.541 43.3901 196.55H170.805C171.081 196.55 171.305 196.774 171.305 197.05C171.305 197.326 171.081 197.55 170.805 197.55H41.977C41.8337 197.559 41.6959 197.568 41.5629 197.578C41.2151 197.604 40.8683 197.63 40.5717 197.606C40.4596 197.597 40.3426 197.581 40.227 197.55H20.4457C20.1696 197.55 19.9457 197.326 19.9457 197.05C19.9457 196.774 20.1696 196.55 20.4457 196.55H39.269V149.078C38.6002 149.402 37.9874 149.734 37.3989 150.042C36.2193 150.658 35.0863 151.202 33.853 151.202C33.8482 151.202 33.8431 151.202 33.8383 151.202C32.6118 151.166 31.4034 150.897 30.2778 150.408C29.2091 149.963 27.75 149.687 26.1293 149.489C24.5119 149.292 22.7921 149.178 21.1938 149.037C19.6176 148.898 18.1427 148.733 17.0883 148.423C16.5651 148.269 16.0872 148.064 15.7514 147.765C15.3873 147.44 15.1907 146.999 15.2885 146.473L15.2905 146.464C15.3423 146.21 15.5143 146.02 15.6586 145.892C15.8154 145.753 16.0162 145.621 16.2397 145.496C16.6889 145.244 17.3002 144.979 18.0151 144.709C19.4493 144.167 21.3705 143.576 23.4135 142.998C26.9629 141.992 33.2327 139.697 37.3246 138.107C37.26 137.447 37.2277 136.781 37.227 136.112C37.2267 135.968 37.2272 135.824 37.2299 135.68L37.2358 135.348L37.5444 135.225L37.5453 135.224C37.5453 135.224 37.5488 135.223 37.5512 135.222C37.556 135.22 37.5634 135.217 37.5727 135.213C37.5915 135.205 37.6199 135.194 37.6567 135.18C37.7308 135.15 37.8405 135.105 37.9838 135.048C38.2709 134.933 38.6921 134.764 39.228 134.55C39.2416 134.544 39.2552 134.539 39.269 134.533V51.5205L20.5209 51.5225C19.812 51.5217 19.1152 51.3346 18.5014 50.9795C17.8878 50.6244 17.378 50.1143 17.0239 49.5C16.6697 48.8857 16.4836 48.1885 16.4838 47.4795C16.4842 46.7706 16.6713 46.0739 17.0258 45.46L37.7631 9.52148C38.0742 8.98366 38.5044 8.52544 39.019 8.18164L39.2455 8.04199L39.4799 7.91602C40.0351 7.64271 40.6469 7.5 41.268 7.5L41.269 7.50098L41.27 7.5ZM41.1909 148.271C40.8706 148.383 40.5638 148.501 40.269 148.625V196.169C40.296 196.431 40.3566 196.511 40.3784 196.532C40.3832 196.537 40.3908 196.543 40.4018 196.55H41.9487C42.0514 196.543 42.1582 196.537 42.269 196.532V149.629C41.8894 149.19 41.5301 148.737 41.1909 148.271ZM70.2153 159.714C68.9293 163.878 67.0498 169.593 65.7377 172.801C64.9353 174.774 64.2285 176.627 63.7836 178.05C63.5606 178.764 63.4095 179.352 63.3422 179.786C63.3084 180.004 63.2995 180.164 63.3061 180.271C63.3082 180.306 63.3131 180.329 63.3159 180.344C63.3998 180.427 63.4934 180.459 63.6616 180.429C63.8848 180.389 64.1956 180.242 64.5991 179.953C65.3993 179.381 66.3746 178.396 67.4653 177.23C68.5407 176.081 69.719 174.767 70.8881 173.601C72.0547 172.437 73.253 171.377 74.3891 170.741L74.3969 170.736C75.3675 170.215 76.2295 169.513 76.936 168.668C77.498 167.954 77.7461 167.016 77.9819 165.769C78.1848 164.695 78.3746 163.417 78.7895 162.01C76.481 161.782 74.2134 161.261 72.0405 160.461C72.0285 160.457 72.0163 160.453 72.0043 160.448C71.4312 160.236 70.8649 160.005 70.3061 159.755C70.2758 159.741 70.2455 159.728 70.2153 159.714ZM54.8891 175.538V172.219H52.5903C54.1692 175.074 56.0821 177.749 58.3002 180.182C63.4052 185.779 69.9308 189.89 77.184 192.078C84.4377 194.265 92.1484 194.448 99.4965 192.604C106.846 190.762 113.558 186.964 118.92 181.612C124.283 176.261 128.096 169.557 129.956 162.212C131.814 154.868 131.648 147.157 129.477 139.899C128.897 137.962 128.179 136.076 127.333 134.255C125.101 136.773 122.029 138.994 117.915 139.649L117.405 139.722C113.52 140.207 105.729 139.976 98.0141 139.543C94.7266 139.358 91.4419 139.134 88.4623 138.913L82.7426 162.117L82.3637 162.129C82.033 162.14 81.7026 162.144 81.3725 162.143C80.8511 162.141 80.3307 162.123 79.812 162.092C79.375 163.507 79.1857 164.784 78.9643 165.955C78.7286 167.202 78.4482 168.37 77.7114 169.299L77.7036 169.309C76.9151 170.252 75.9529 171.037 74.8696 171.618C73.862 172.184 72.7469 173.159 71.5942 174.309C70.441 175.459 69.2909 176.743 68.1948 177.914C67.1139 179.069 66.0745 180.128 65.1811 180.767C64.7376 181.084 64.2811 181.334 63.8383 181.413C63.4179 181.488 63.0073 181.407 62.6743 181.116L62.5346 180.977C62.3639 180.78 62.32 180.526 62.308 180.334C62.2951 180.125 62.3148 179.886 62.3539 179.633C62.4326 179.125 62.6014 178.481 62.8295 177.751C63.2874 176.286 64.0074 174.403 64.812 172.425L64.8129 172.424C66.1216 169.225 68.0163 163.453 69.3022 159.28C68.6345 158.948 67.9788 158.588 67.3373 158.2C67.3273 158.194 67.3185 158.186 67.309 158.18L67.0258 158.01L67.1 157.712C67.1025 157.692 67.1057 157.671 67.1108 157.651L71.2455 141.133L71.3637 140.648L47.4799 148.65C47.1769 152.524 47.4114 156.439 48.1928 160.282C48.9709 164.106 50.2767 167.785 52.0561 171.219H54.8891V167.9C54.8891 167.624 55.113 167.4 55.3891 167.4C55.6652 167.4 55.8891 167.624 55.8891 167.9V171.219H59.2162C59.4923 171.219 59.716 171.443 59.7162 171.719C59.7162 171.995 59.4924 172.219 59.2162 172.219H55.8891V175.538C55.889 175.814 55.6652 176.038 55.3891 176.038C55.1131 176.038 54.8892 175.814 54.8891 175.538ZM112.012 166.525V162.129H107.606C107.33 162.129 107.106 161.905 107.106 161.629C107.106 161.353 107.33 161.129 107.606 161.129H112.012V156.733C112.012 156.457 112.236 156.233 112.512 156.233C112.788 156.233 113.012 156.457 113.012 156.733V161.129H117.418C117.694 161.129 117.918 161.353 117.918 161.629C117.918 161.905 117.694 162.129 117.418 162.129H113.012V166.525C113.012 166.801 112.788 167.025 112.512 167.025C112.236 167.025 112.012 166.802 112.012 166.525ZM71.8315 142.928L68.1752 157.532C69.3075 158.196 70.4836 158.77 71.6928 159.255C71.8003 159.298 71.908 159.34 72.0161 159.382C72.0681 159.402 72.1202 159.422 72.1723 159.441C72.2747 159.48 72.3771 159.518 72.4799 159.556C72.5974 159.598 72.7154 159.64 72.8334 159.681C72.882 159.697 72.9303 159.715 72.9789 159.731C73.1564 159.792 73.3345 159.85 73.5131 159.907C74.3211 160.163 75.1412 160.378 75.9702 160.555L79.5756 146.606C79.6447 146.339 79.9177 146.178 80.185 146.247C80.4524 146.316 80.6135 146.589 80.5444 146.856L76.9526 160.745C77.7923 160.891 78.6398 160.996 79.4926 161.06C79.5158 161.061 79.5386 161.067 79.561 161.072C80.164 161.116 80.7695 161.14 81.3764 161.143C81.5667 161.143 81.7571 161.141 81.9477 161.138L87.3862 139.079L71.8315 142.928ZM149.653 154.611V150.528C149.653 150.252 149.877 150.028 150.153 150.028C150.429 150.028 150.653 150.252 150.653 150.528V154.611C150.653 154.887 150.429 155.111 150.153 155.111C149.877 155.111 149.653 154.887 149.653 154.611ZM147.238 149.116C147.433 148.921 147.751 148.921 147.946 149.116C148.141 149.312 148.14 149.628 147.945 149.823L145.053 152.715C144.858 152.91 144.54 152.91 144.345 152.715C144.15 152.52 144.151 152.203 144.346 152.008L147.238 149.116ZM152.359 149.117C152.553 148.921 152.87 148.921 153.066 149.115L155.958 151.987C156.154 152.182 156.156 152.499 155.961 152.695C155.767 152.891 155.45 152.892 155.254 152.697L152.362 149.825C152.166 149.631 152.164 149.313 152.359 149.117ZM37.4164 139.144C33.318 140.729 27.2057 142.963 23.686 143.961C21.6497 144.537 19.7615 145.118 18.3686 145.645C17.67 145.909 17.1133 146.153 16.7289 146.368C16.5358 146.477 16.4034 146.568 16.3217 146.641C16.2946 146.665 16.278 146.683 16.268 146.694C16.2554 146.811 16.289 146.905 16.4164 147.019C16.5862 147.17 16.8945 147.324 17.3705 147.464C18.3149 147.741 19.6918 147.901 21.2817 148.041C22.8496 148.179 24.611 148.297 26.2504 148.497C27.682 148.672 29.066 148.914 30.1948 149.308L30.6625 149.485L30.6694 149.488C31.6784 149.927 32.762 150.168 33.8618 150.201C34.8144 150.199 35.7408 149.78 36.936 149.155C37.6267 148.794 38.3932 148.375 39.269 147.974V145.055C38.9639 144.42 38.6922 143.77 38.4536 143.107C37.9788 141.827 37.6289 140.5 37.4164 139.144ZM43.3481 144.438L43.352 148.955L46.5424 147.888C46.6983 146.235 46.9503 144.592 47.2973 142.965L43.3481 144.438ZM40.6284 145.451C40.9945 146.111 41.3978 146.751 41.8403 147.367C41.8787 147.421 41.9026 147.481 41.9174 147.544C42.0322 147.704 42.1492 147.863 42.269 148.02V144.84L40.6284 145.451ZM40.269 147.548C40.3787 147.505 40.489 147.46 40.602 147.418C40.4883 147.244 40.3773 147.069 40.269 146.892V147.548ZM85.4838 111.657C83.9173 111.88 82.4278 112.508 81.1684 113.49C79.9719 114.423 79.0342 115.636 78.4311 117.011C78.2355 117.463 78.0763 117.933 77.9555 118.416L77.9545 118.418L77.769 119.147L77.7553 119.204C80.2675 118.382 82.9128 118.055 85.5463 118.237C85.5078 118.166 85.4838 118.086 85.4838 118V111.657ZM146.514 146.418C146.79 146.418 147.014 146.642 147.014 146.918C147.014 147.194 146.79 147.418 146.514 147.418H142.431C142.155 147.418 141.931 147.194 141.931 146.918C141.931 146.642 142.155 146.418 142.431 146.418H146.514ZM157.837 146.398C158.113 146.398 158.337 146.622 158.337 146.898C158.337 147.175 158.113 147.398 157.837 147.398H153.754C153.478 147.398 153.254 147.175 153.254 146.898C153.255 146.622 153.478 146.398 153.754 146.398H157.837ZM185.587 124.981C185.558 124.989 185.509 125.006 185.439 125.044C185.216 125.164 184.922 125.409 184.57 125.761C183.859 126.472 183.101 127.413 182.366 128.218C181.939 128.687 181.398 128.923 180.829 129.007L180.832 129.026L180.585 129.033C180.479 129.041 180.373 129.043 180.266 129.042L180.256 129.043C179.268 129.071 178.299 128.789 177.482 128.242C177.351 128.316 177.218 128.399 177.083 128.489C176.237 129.054 175.402 129.867 174.8 130.569L174.557 130.862C173.852 131.748 172.869 133.401 172.307 134.979C172.125 135.49 171.992 135.977 171.924 136.417L174.537 138.085L174.567 138.104C176.377 139.213 178.225 140.258 180.111 141.234C182.374 142.256 183.613 142.862 184.54 143.314C185.466 143.767 186.069 144.062 187.075 144.473L187.581 144.668C188.057 144.84 188.442 144.942 188.729 144.985C188.76 144.99 188.79 144.991 188.818 144.994C188.806 144.98 188.794 144.965 188.781 144.95C188.515 144.653 188.037 144.246 187.299 143.74C186.154 142.957 185.102 142.049 184.159 141.036C184.093 140.992 184.041 140.934 184.003 140.866C183.854 140.701 183.706 140.534 183.562 140.364C183.469 140.463 183.376 140.561 183.28 140.657C183.084 140.852 182.768 140.852 182.573 140.656C182.378 140.461 182.378 140.144 182.574 139.949C182.766 139.758 182.948 139.559 183.125 139.355C183.157 139.295 183.201 139.24 183.258 139.194C183.263 139.191 183.268 139.188 183.272 139.185C184.316 137.94 185.083 136.491 185.529 134.934C185.529 134.881 185.536 134.827 185.554 134.774C185.567 134.737 185.583 134.703 185.603 134.671C185.719 134.227 185.81 133.775 185.872 133.316C185.91 133.043 186.162 132.851 186.436 132.889C186.709 132.926 186.901 133.179 186.864 133.452C186.81 133.845 186.735 134.232 186.645 134.615C186.791 134.665 186.969 134.723 187.169 134.791C188.603 134.451 190.076 134.305 191.549 134.358C192.255 134.365 192.777 134.289 193.108 134.181C193.208 134.148 193.28 134.112 193.333 134.083C193.289 134.05 193.227 134.011 193.143 133.968C192.819 133.802 192.27 133.628 191.45 133.5C191.062 133.439 187.324 132.75 186.239 132.553C185.857 132.484 185.245 132.307 184.718 132.062C184.456 131.941 184.188 131.79 183.977 131.61C183.782 131.444 183.539 131.17 183.539 130.794C183.54 130.231 183.764 129.602 184.027 129.013C184.293 128.415 184.642 127.769 184.934 127.19C185.237 126.591 185.48 126.062 185.589 125.631C185.689 125.238 185.645 125.064 185.587 124.981ZM144.326 141.121C144.52 140.925 144.837 140.924 145.033 141.118L147.925 143.992C148.121 144.187 148.122 144.503 147.927 144.699C147.733 144.895 147.416 144.896 147.22 144.701L144.328 141.828C144.132 141.634 144.131 141.317 144.326 141.121ZM155.234 141.101C155.429 140.905 155.747 140.905 155.942 141.101C156.137 141.296 156.137 141.612 155.942 141.808L153.049 144.7C152.854 144.895 152.538 144.895 152.342 144.7C152.147 144.505 152.147 144.188 152.342 143.993L155.234 141.101ZM40.269 135.234V144.519L42.269 143.772V134.435L40.269 135.234ZM149.634 143.288V139.204C149.634 138.928 149.858 138.704 150.134 138.704C150.41 138.704 150.634 138.928 150.634 139.204V143.288C150.634 143.564 150.41 143.788 150.134 143.788C149.858 143.788 149.634 143.564 149.634 143.288ZM38.227 136.052C38.227 136.072 38.227 136.092 38.227 136.112C38.232 138.263 38.5894 140.381 39.269 142.387V135.635L38.227 136.052ZM185.331 137.967C185.007 138.537 184.638 139.082 184.226 139.598C184.397 139.803 184.571 140.006 184.75 140.203C184.813 140.225 184.896 140.254 184.997 140.288C185.25 140.375 185.617 140.499 186.072 140.649C186.981 140.95 188.238 141.355 189.63 141.771C190.391 141.999 190.989 142.099 191.399 142.108C191.509 142.111 191.599 142.105 191.67 142.097C191.637 142.06 191.597 142.017 191.545 141.97C191.247 141.696 190.709 141.339 189.873 140.923C188.205 140.195 186.671 139.195 185.331 137.967ZM72.4858 140.291L72.2192 141.358L72.1069 141.812L84.9584 138.646C83.5771 138.533 82.369 138.434 81.3959 138.352C80.574 138.282 79.9205 138.225 79.4711 138.188C79.2463 138.169 79.0743 138.155 78.9584 138.146C78.9287 138.144 78.9033 138.142 78.8823 138.141L72.4858 140.291ZM186.378 135.58C186.218 136.08 186.028 136.569 185.807 137.044C186.143 137.363 186.493 137.666 186.855 137.953C186.876 137.957 186.901 137.962 186.93 137.967C187.03 137.984 187.177 138.009 187.362 138.04C187.732 138.102 188.256 138.188 188.869 138.281C190.095 138.468 191.671 138.683 193.082 138.804C193.836 138.868 194.381 138.836 194.724 138.757C194.813 138.736 194.881 138.713 194.931 138.692C194.881 138.644 194.809 138.58 194.703 138.51C194.459 138.349 194.093 138.172 193.593 137.993L193.047 137.814C192.82 137.746 191.017 137.141 189.288 136.56C188.419 136.268 187.564 135.979 186.926 135.765C186.718 135.695 186.533 135.632 186.378 135.58ZM171.979 137.652C172.066 137.949 172.206 138.127 172.353 138.228C172.547 138.312 172.754 138.361 172.964 138.37C173.003 138.368 173.043 138.365 173.084 138.36C172.714 138.127 172.346 137.891 171.979 137.652ZM144.37 114.062C144.37 113.975 144.335 113.89 144.273 113.828C144.211 113.766 144.126 113.731 144.039 113.731C143.951 113.731 143.866 113.766 143.804 113.828C143.742 113.89 143.707 113.975 143.707 114.062C143.708 114.15 143.742 114.234 143.804 114.296C143.866 114.358 143.951 114.394 144.039 114.394C144.126 114.394 144.211 114.358 144.273 114.296C144.335 114.234 144.37 114.15 144.37 114.062ZM183.763 133.34C183.934 133.123 184.248 133.085 184.465 133.256C184.682 133.427 184.72 133.741 184.549 133.958C183.581 135.19 182.502 136.118 181.299 136.585C180.081 137.058 178.777 137.04 177.415 136.452C177.162 136.343 177.045 136.048 177.155 135.795C177.264 135.541 177.558 135.425 177.812 135.534C178.946 136.024 179.978 136.025 180.938 135.652C181.915 135.273 182.859 134.49 183.763 133.34ZM121.884 126.016C122.152 126.081 122.317 126.351 122.252 126.619C121.635 129.173 121.969 131.865 123.192 134.191C123.32 134.436 123.226 134.738 122.982 134.866C122.737 134.995 122.436 134.901 122.307 134.656C120.971 132.115 120.606 129.175 121.281 126.385C121.346 126.116 121.616 125.951 121.884 126.016ZM40.269 51.5312V134.133C40.858 133.897 41.5292 133.628 42.269 133.332V51.5215L40.269 51.5312ZM132.557 124.722C132.03 126.662 131.175 128.679 130.031 130.585C131.703 129.586 133.14 128.225 134.23 126.593C135.505 124.683 136.254 122.476 136.414 120.195L132.557 124.722ZM172.407 125.671C172.407 125.583 172.372 125.499 172.31 125.438C172.248 125.375 172.163 125.34 172.076 125.34C171.988 125.34 171.903 125.375 171.841 125.438C171.779 125.499 171.745 125.583 171.745 125.671C171.745 125.759 171.779 125.843 171.841 125.905C171.903 125.967 171.988 126.002 172.076 126.002C172.163 126.002 172.248 125.967 172.31 125.905C172.372 125.843 172.407 125.759 172.407 125.671ZM159.569 124.838C159.569 124.75 159.534 124.666 159.472 124.604C159.41 124.542 159.326 124.508 159.238 124.508C159.15 124.508 159.066 124.543 159.004 124.604C158.942 124.666 158.908 124.75 158.908 124.838C158.908 124.926 158.942 125.01 159.004 125.072C159.066 125.134 159.15 125.169 159.238 125.169C159.325 125.169 159.41 125.134 159.472 125.072C159.534 125.01 159.569 124.926 159.569 124.838ZM13.3207 110.835C13.5839 110.834 13.8432 110.903 14.0717 111.033C14.243 111.131 14.3928 111.261 14.5131 111.416L14.6235 111.578L14.6254 111.582L20.4858 121.753L20.4868 121.755C20.617 121.984 20.6855 122.243 20.685 122.506C20.6844 122.769 20.6151 123.029 20.4838 123.257C20.3526 123.485 20.164 123.675 19.937 123.808C19.7097 123.941 19.4512 124.012 19.1879 124.015H7.45844C7.195 124.013 6.93629 123.943 6.70844 123.811C6.48061 123.678 6.2909 123.489 6.15863 123.261L6.15765 123.259C6.02575 123.03 5.95648 122.77 5.95648 122.506C5.95649 122.242 6.02573 121.982 6.15765 121.753L12.02 111.582L12.0219 111.578C12.155 111.351 12.3453 111.164 12.5737 111.033C12.8013 110.903 13.0587 110.835 13.3207 110.835ZM124.987 104.794C125.122 104.775 125.26 104.813 125.367 104.897L135.008 112.556C135.118 112.642 135.185 112.771 135.196 112.91C135.206 113.049 135.158 113.186 135.063 113.288L128.9 119.886C128.778 120.016 128.595 120.072 128.421 120.031L122.258 118.595C122.107 118.56 121.981 118.456 121.916 118.315L119.383 112.757C119.309 112.594 119.328 112.403 119.432 112.258L124.65 104.998L124.717 104.922C124.791 104.853 124.885 104.808 124.987 104.794ZM12.8227 118.826V115.291C12.8228 115.015 13.0466 114.791 13.3227 114.791C13.5987 114.791 13.8226 115.015 13.8227 115.291V118.826C13.8227 119.102 13.5987 119.326 13.3227 119.326C13.0466 119.326 12.8227 119.102 12.8227 118.826ZM120.414 112.606L122.724 117.677L128.366 118.991L133.961 113.002L125.156 106.007L120.414 112.606ZM140.991 114.848C141.97 115.73 142.91 116.564 143.815 117.36L141.659 114.063L140.991 114.848ZM157.338 114.062C157.338 113.975 157.304 113.89 157.242 113.828C157.18 113.766 157.095 113.731 157.007 113.731C156.92 113.731 156.836 113.766 156.774 113.828C156.712 113.89 156.676 113.975 156.676 114.062C156.676 114.15 156.712 114.234 156.774 114.296C156.836 114.358 156.92 114.394 157.007 114.394C157.095 114.394 157.18 114.358 157.242 114.296C157.303 114.234 157.338 114.15 157.338 114.062ZM126.283 102.054L137.568 111.12L146.056 101.498C145.572 101.045 145.059 100.564 144.513 100.054C144.11 99.6777 143.751 99.3288 143.442 98.9971C141.284 98.9434 139.484 98.364 138.085 97.2158C136.685 96.0658 135.737 94.3871 135.207 92.2314C134.617 91.854 134.026 91.4724 133.436 91.0859L126.283 102.054ZM130.984 101.679C130.984 101.591 130.949 101.506 130.887 101.444C130.825 101.382 130.741 101.348 130.653 101.348C130.565 101.348 130.48 101.382 130.418 101.444C130.356 101.506 130.322 101.591 130.322 101.679C130.322 101.766 130.357 101.85 130.418 101.912C130.48 101.974 130.565 102.01 130.653 102.01C130.741 102.01 130.825 101.974 130.887 101.912C130.949 101.85 130.984 101.766 130.984 101.679ZM142.479 101.471C142.479 101.383 142.444 101.298 142.382 101.236C142.32 101.174 142.236 101.14 142.148 101.14C142.06 101.14 141.976 101.175 141.914 101.236C141.852 101.298 141.817 101.383 141.817 101.471C141.817 101.558 141.852 101.642 141.914 101.704C141.977 101.766 142.06 101.802 142.148 101.802C142.236 101.802 142.32 101.766 142.382 101.704C142.444 101.642 142.479 101.558 142.479 101.471ZM94.6977 60.1621C94.5404 60.2869 94.3837 60.4124 94.2289 60.54C94.2186 60.5506 94.2102 60.5634 94.1987 60.5732C94.1841 60.5857 94.1673 60.595 94.1518 60.6055C91.2748 62.9945 88.8441 65.8757 86.978 69.1182C86.9576 69.1775 86.9272 69.2299 86.8891 69.2754C86.8424 69.3576 86.7974 69.4408 86.7514 69.5234C97.7989 80.3795 109.68 90.3524 122.286 99.3525L129.494 88.4307C112.489 76.6942 97.1339 62.4749 94.6977 60.1621ZM147.726 82.9502C146.73 83.0913 145.765 83.3986 144.872 83.8594C144.867 83.8619 144.862 83.8648 144.857 83.8672C141.373 85.5208 140.222 86.9294 140.004 87.9316C139.823 88.7669 140.263 89.5062 140.918 90.1104L141.211 90.3604C141.216 90.3637 141.22 90.3678 141.224 90.3711C141.697 90.7173 142.199 91.0199 142.726 91.2764C142.731 91.2789 142.735 91.2816 142.741 91.2842C142.947 91.3841 143.058 91.6118 143.012 91.8359C142.966 92.059 142.775 92.222 142.547 92.2334L139.683 92.3613C139.051 92.7395 138.33 92.9459 137.591 92.9531C137.187 92.957 136.787 92.9005 136.403 92.79C136.914 94.3915 137.692 95.5983 138.72 96.4424C139.734 97.2745 141.025 97.7832 142.619 97.9453C142.294 97.4043 142.136 96.8503 142.218 96.2324C142.307 95.5677 142.664 94.9002 143.217 94.1572C143.683 93.5311 144.318 92.8147 145.119 91.9609L144.981 91.8955L145.582 91.4678L145.613 91.4375C145.785 91.2651 145.996 91.1358 146.228 91.0596C146.428 90.9937 146.639 90.9705 146.848 90.9883L146.932 90.9844L147.017 91.0098C148.586 91.4803 149.404 90.9678 149.649 90.5684C149.777 90.3591 149.766 90.1807 149.708 90.0703C149.706 90.0665 149.703 90.0635 149.701 90.0596C149.64 89.957 149.48 89.8097 149.084 89.7793H149.081C148.861 89.7611 148.646 89.7333 148.456 89.6865C148.278 89.6426 148.064 89.5683 147.897 89.4209C147.807 89.3415 147.724 89.2339 147.676 89.0957C147.639 88.988 147.629 88.8797 147.639 88.7764C147.642 88.7479 147.646 88.7196 147.652 88.6914L147.653 88.6865C147.661 88.649 147.671 88.6121 147.684 88.5762C147.734 88.4279 147.816 88.2992 147.896 88.1963L147.915 88.1709L147.938 88.1484C148.01 88.0766 148.08 87.9976 148.15 87.9141C148.836 87.0943 149.403 85.7574 149.455 84.6523C149.458 84.5843 149.458 84.5182 149.457 84.4541C149.457 84.4153 149.455 84.3772 149.454 84.3398C149.43 83.9184 149.317 83.5915 149.13 83.3711C148.91 83.1115 148.504 82.9032 147.728 82.9688L147.726 82.9502ZM150.215 83.2334C150.313 83.4548 150.378 83.6902 150.415 83.9336C150.418 83.9475 150.419 83.9616 150.421 83.9756C150.431 84.0481 150.44 84.1209 150.446 84.1943C150.448 84.221 150.449 84.2477 150.451 84.2744C150.454 84.3333 150.457 84.3921 150.457 84.4512C150.458 84.4997 150.458 84.5482 150.456 84.5967C150.456 84.6221 150.457 84.6475 150.456 84.6729C150.455 84.6832 150.453 84.6937 150.453 84.7041C150.452 84.7244 150.453 84.7453 150.452 84.7656C150.449 84.8055 150.444 84.8455 150.441 84.8857C150.438 84.9156 150.435 84.9455 150.432 84.9756C150.426 85.0333 150.419 85.0912 150.412 85.1494C150.408 85.1767 150.404 85.2041 150.4 85.2314C150.277 86.0401 149.968 86.8887 149.556 87.6191C149.546 87.6364 149.537 87.6537 149.527 87.6709C149.44 87.8226 149.348 87.9689 149.253 88.1084C149.244 88.1218 149.235 88.1352 149.226 88.1484C149.185 88.2071 149.144 88.2643 149.102 88.3203C149.085 88.3437 149.067 88.3668 149.049 88.3896C149.02 88.4278 148.99 88.4652 148.96 88.502C148.931 88.5378 148.902 88.573 148.872 88.6074C148.839 88.6463 148.805 88.6837 148.771 88.7207L148.768 88.7246C148.867 88.7446 148.995 88.7655 149.162 88.7783C149.74 88.8244 150.214 89.0551 150.493 89.4434C150.513 89.4713 150.532 89.4998 150.55 89.5293C150.565 89.5541 150.581 89.5795 150.594 89.6055C150.616 89.6465 150.632 89.6894 150.649 89.7314C150.671 89.7868 150.689 89.8428 150.704 89.8994C150.723 89.9764 150.737 90.0536 150.744 90.1318C150.77 90.4635 150.681 90.8006 150.502 91.0928C150.018 91.8829 148.935 92.3682 147.476 92.1406C148.139 92.6474 148.719 93.241 149.237 93.8252C149.651 94.2931 150.04 94.771 150.394 95.1934C150.754 95.623 151.08 95.9967 151.391 96.29C151.705 96.5861 151.973 96.7693 152.208 96.8525C152.423 96.9283 152.622 96.9262 152.847 96.8203C153.093 96.7046 153.399 96.4496 153.767 95.9521C153.859 95.8284 153.953 95.6918 154.049 95.541C154.337 95.0893 154.647 94.5121 154.984 93.7881C155.855 91.909 156.048 90.2857 155.82 88.9189C155.591 87.551 154.934 86.4024 154.045 85.4854C152.965 84.3698 151.558 83.6161 150.215 83.2334ZM112.833 89.1631C112.833 89.0755 112.799 88.9916 112.737 88.9297C112.675 88.8677 112.591 88.8331 112.503 88.833C112.416 88.833 112.331 88.8676 112.269 88.9297C112.207 88.9916 112.172 89.0755 112.172 89.1631C112.172 89.2508 112.207 89.3354 112.269 89.3975C112.331 89.4595 112.416 89.4941 112.503 89.4941C112.591 89.494 112.675 89.4593 112.737 89.3975C112.799 89.3354 112.833 89.2508 112.833 89.1631ZM124.862 87.8027C124.862 87.715 124.826 87.6304 124.764 87.5684C124.702 87.5065 124.618 87.4717 124.531 87.4717C124.443 87.4717 124.358 87.5063 124.296 87.5684C124.234 87.6304 124.2 87.7151 124.2 87.8027C124.2 87.8902 124.235 87.9742 124.296 88.0361C124.358 88.0982 124.443 88.1328 124.531 88.1328C124.618 88.1328 124.702 88.098 124.764 88.0361C124.826 87.9742 124.862 87.8903 124.862 87.8027ZM102.574 80.334C102.574 80.2463 102.538 80.1617 102.476 80.0996C102.414 80.0378 102.33 80.0029 102.243 80.0029C102.155 80.0029 102.07 80.0376 102.008 80.0996C101.946 80.1617 101.912 80.2463 101.912 80.334C101.912 80.4215 101.946 80.5054 102.008 80.5674C102.07 80.6294 102.155 80.665 102.243 80.665C102.33 80.665 102.414 80.6294 102.476 80.5674C102.538 80.5054 102.574 80.4217 102.574 80.334ZM112.833 78.5186C112.833 78.431 112.799 78.3471 112.737 78.2852C112.675 78.2232 112.591 78.1886 112.503 78.1885C112.416 78.1885 112.331 78.2231 112.269 78.2852C112.207 78.3471 112.172 78.431 112.172 78.5186C112.172 78.6063 112.207 78.6909 112.269 78.7529C112.331 78.815 112.416 78.8496 112.503 78.8496C112.591 78.8495 112.675 78.8148 112.737 78.7529C112.799 78.6909 112.833 78.6063 112.833 78.5186ZM90.9594 70.1631C90.9594 70.0752 90.9248 69.9909 90.8627 69.9287C90.8006 69.8666 90.7162 69.8312 90.6284 69.8311C90.5404 69.8311 90.4552 69.8665 90.393 69.9287C90.331 69.9909 90.2963 70.0753 90.2963 70.1631C90.2964 70.2509 90.3309 70.3353 90.393 70.3975C90.4552 70.4597 90.5404 70.4951 90.6284 70.4951C90.7162 70.495 90.8006 70.4596 90.8627 70.3975C90.9248 70.3353 90.9594 70.251 90.9594 70.1631ZM101.188 68.6885C101.188 68.6007 101.153 68.5161 101.091 68.4541C101.029 68.3923 100.945 68.3575 100.858 68.3574C100.77 68.3574 100.686 68.3921 100.623 68.4541C100.561 68.5161 100.527 68.6007 100.527 68.6885C100.527 68.7319 100.536 68.7753 100.552 68.8154C100.569 68.8553 100.593 68.8913 100.623 68.9219C100.654 68.9526 100.691 68.9775 100.731 68.9941C100.771 69.0108 100.814 69.0195 100.858 69.0195C100.901 69.0195 100.944 69.0106 100.984 68.9941C101.024 68.9775 101.061 68.9526 101.091 68.9219C101.122 68.8913 101.147 68.8554 101.164 68.8154C101.18 68.7753 101.188 68.7319 101.188 68.6885ZM84.2534 66.3457L82.6772 66.3906C82.0541 66.4058 81.7877 66.7918 81.7573 67.167C81.7412 67.3659 81.7939 67.5492 81.8891 67.6777C81.9759 67.7948 82.1126 67.8869 82.3295 67.9043C83.4913 67.9133 84.6532 67.858 85.808 67.7373L85.8286 67.7354C86.5455 67.6899 86.812 67.2663 86.8305 66.9668C86.8402 66.8082 86.7881 66.6624 86.6801 66.5537C86.5868 66.4598 86.4219 66.3649 86.1479 66.3398L86.0239 66.334C85.3592 66.3256 84.7899 66.3329 84.2534 66.3457ZM87.4145 63.5332C87.548 63.7986 87.6034 64.0923 87.5795 64.3818C87.5428 64.8273 87.3309 65.2426 86.9789 65.5508C87.133 65.6299 87.2707 65.7296 87.3891 65.8486C87.4963 65.9565 87.582 66.0771 87.6498 66.2041C88.016 65.6806 88.3973 65.1685 88.7934 64.668C88.2584 64.3858 87.7933 64.003 87.4145 63.5332ZM82.2866 63.5576C81.6414 63.5577 81.3478 63.9582 81.3071 64.3633C81.2857 64.5765 81.3384 64.7754 81.4379 64.916C81.5302 65.0462 81.6774 65.1488 81.9135 65.1689C82.3351 65.2024 82.7817 65.1933 83.3608 65.167C83.9344 65.1409 84.6359 65.0983 85.5268 65.0732L85.6606 65.0645C86.3023 64.9971 86.5576 64.5995 86.5825 64.2998C86.5964 64.1301 86.5441 63.97 86.4301 63.8486C86.3179 63.7292 86.1096 63.6095 85.7485 63.5947C84.363 63.5396 83.3944 63.5576 82.2866 63.5576ZM86.8969 56.9189C86.1988 56.9348 85.766 56.9555 85.4731 57.0312C85.3374 57.0663 85.2588 57.1075 85.2084 57.1465C85.1618 57.1826 85.1183 57.2332 85.0776 57.3232C85.0382 57.4105 85.0081 57.5251 84.9819 57.6768C84.9818 57.6823 84.9832 57.6878 84.9828 57.6934C84.9805 57.7352 84.9713 57.7751 84.9594 57.8135C84.9344 58.0071 84.9165 58.2517 84.9077 58.5635C84.889 59.2202 84.9059 60.0815 84.9086 61.2578C84.9087 61.3932 84.9625 61.4522 84.9955 61.4736C85.0261 61.4934 85.1059 61.5257 85.2524 61.46C85.4367 61.3772 85.7091 61.1336 85.9565 60.6025C85.9678 60.5213 85.9974 60.4413 86.0502 60.3711C86.0529 60.3676 86.0563 60.3647 86.059 60.3613C86.1971 60.0043 86.3218 59.5443 86.4086 58.9551L86.4096 58.9502C86.4524 58.6784 86.707 58.4918 86.9789 58.5332C87.2509 58.5747 87.4379 58.8284 87.3979 59.1006L87.3969 59.1045L87.3979 59.1055C87.012 61.5549 87.981 63.2007 89.4428 63.8711C90.5759 62.5287 91.8172 61.2778 93.1567 60.1328C92.3161 59.1895 91.405 58.3113 90.4301 57.5068L90.2465 57.3662C89.8397 57.0658 89.565 56.9568 89.2016 56.9092C88.7185 56.8459 88.1025 56.8901 86.8969 56.9189ZM86.9018 62.9424C86.9816 62.9981 87.0546 63.0611 87.1225 63.1289C87.0696 63.0461 87.0192 62.9611 86.9711 62.874C86.9489 62.8976 86.9254 62.92 86.9018 62.9424ZM83.3842 60.7939C83.0538 60.7985 82.7147 60.8027 82.3549 60.793C81.7023 60.7804 81.3922 61.1833 81.3403 61.5986C81.3131 61.8164 81.3612 62.0194 81.4575 62.1631C81.5464 62.2958 81.6905 62.4007 81.9243 62.4238L82.268 62.4502C82.9157 62.4876 83.6263 62.4612 84.7153 62.4385C84.6237 62.4082 84.5348 62.3673 84.4516 62.3135C84.0999 62.0857 83.909 61.6908 83.9086 61.2598L83.9057 60.7891C83.7313 60.7896 83.5589 60.7915 83.3842 60.7939ZM86.4457 61.7217C86.2083 62.0285 85.9446 62.2454 85.6625 62.3721C85.6192 62.3915 85.5747 62.4068 85.5307 62.4219C85.5577 62.4215 85.5853 62.4212 85.6127 62.4209L85.6498 62.4219C85.8113 62.4322 85.9722 62.3909 86.1078 62.3027C86.2435 62.2146 86.3467 62.0843 86.4028 61.9326C86.428 61.8644 86.441 61.7933 86.4457 61.7217ZM82.6362 58.0645C82.325 58.0479 82.1189 58.1435 81.9828 58.2676C81.8387 58.3991 81.7431 58.5917 81.7143 58.8057C81.6535 59.2571 81.8774 59.5905 82.2455 59.6416C82.7953 59.7025 83.3469 59.7336 83.8998 59.7363C83.8976 59.2768 83.8979 58.8776 83.9077 58.5352C83.9116 58.397 83.9184 58.2637 83.9262 58.1357C83.4926 58.1135 83.101 58.0947 82.6362 58.0645ZM150.695 56.9844C150.845 56.991 150.994 57.0276 151.131 57.0918C151.269 57.156 151.393 57.2467 151.495 57.3584C151.594 57.4674 151.675 57.5978 151.728 57.7441C151.777 57.882 151.803 58.0334 151.795 58.1885C151.781 58.4921 151.648 58.7795 151.423 58.9863C151.226 59.1673 150.973 59.2724 150.708 59.2871L150.594 59.2881C150.289 59.2749 150 59.1416 149.793 58.915C149.587 58.69 149.479 58.391 149.493 58.085L149.503 57.9736C149.519 57.8645 149.549 57.7556 149.598 57.6514C149.663 57.5112 149.755 57.3885 149.864 57.2881L149.867 57.2852C149.977 57.1849 150.106 57.1059 150.249 57.0537C150.392 57.0019 150.544 56.9779 150.695 56.9844ZM150.592 57.9932C150.575 57.9996 150.557 58.0096 150.54 58.0244C150.525 58.0393 150.513 58.0556 150.506 58.0703L150.504 58.0752C150.498 58.0894 150.493 58.1078 150.492 58.1309C150.491 58.1504 150.494 58.1701 150.5 58.1885L150.531 58.2393L150.533 58.2412C150.559 58.2696 150.596 58.2873 150.637 58.2891C150.678 58.2909 150.718 58.2768 150.747 58.25C150.777 58.2229 150.795 58.1837 150.797 58.1416L150.787 58.082C150.781 58.0676 150.772 58.0495 150.756 58.0322C150.743 58.0176 150.726 58.0063 150.708 57.998C150.691 57.9901 150.672 57.9844 150.651 57.9834L150.592 57.9932ZM151.016 46.7207C152.158 46.7747 153.189 47.4268 153.566 48.5625C153.916 49.617 153.661 50.9553 152.646 52.4238L152.433 52.7188C151.379 54.1207 151.149 54.6279 151.134 55.3037C151.128 55.5795 150.899 55.798 150.623 55.792C150.347 55.7859 150.128 55.5572 150.134 55.2812C150.157 54.2556 150.58 53.52 151.633 52.1182C152.715 50.6787 152.849 49.5727 152.618 48.877C152.39 48.1924 151.764 47.7567 150.971 47.7188C150.698 47.7066 150.426 47.7556 150.175 47.8604C149.924 47.9652 149.698 48.1241 149.514 48.3262C149.33 48.5287 149.193 48.7691 149.114 49.0293C149.034 49.2898 149.013 49.5653 149.051 49.8359C149.09 50.1092 148.9 50.3624 148.626 50.4014C148.353 50.4402 148.1 50.25 148.061 49.9766C148.002 49.5615 148.035 49.1381 148.158 48.7363C148.281 48.3342 148.492 47.9648 148.774 47.6543C149.056 47.3434 149.403 47.0989 149.79 46.9375C150.178 46.7759 150.597 46.702 151.016 46.7207ZM41.269 8.5C40.7347 8.50017 40.2095 8.64116 39.7465 8.9082C39.2836 9.1754 38.8989 9.55969 38.6313 10.0225L38.6303 10.0215L17.892 45.96C17.6262 46.4219 17.4866 46.9456 17.4868 47.4785C17.487 48.0115 17.6268 48.5354 17.893 48.9971C18.1595 49.459 18.543 49.8432 19.0043 50.1104C19.4656 50.3774 19.9889 50.5184 20.5219 50.5195L39.7553 50.5205C39.7597 50.5204 39.7645 50.5195 39.769 50.5195C39.7732 50.5195 39.7775 50.5204 39.7817 50.5205H42.4487L43.268 50.5176V50.5205L62.0141 50.5195L62.2133 50.5127C62.6771 50.4815 63.1288 50.344 63.5327 50.1104C63.994 49.8432 64.3777 49.4598 64.644 48.998C64.9103 48.5363 65.0501 48.0125 65.0502 47.4795C65.0503 46.9462 64.9102 46.422 64.644 45.96L43.9067 10.0215C43.6391 9.55878 43.2545 9.1754 42.7914 8.9082C42.3286 8.6412 41.8034 8.50019 41.269 8.5ZM42.0805 40.543C42.0805 40.3691 42.0251 40.2084 41.9321 40.0762C41.9053 40.038 41.8757 40.0012 41.8422 39.9678C41.7967 39.9223 41.7451 39.8833 41.6899 39.8496C41.5957 39.7922 41.491 39.7538 41.3813 39.7383C41.3439 39.733 41.3058 39.7295 41.267 39.7295C41.2279 39.7295 41.1894 39.7329 41.1518 39.7383C41.0449 39.7536 40.9423 39.7897 40.85 39.8447C40.718 39.9238 40.611 40.0397 40.5414 40.1777C40.502 40.2561 40.4748 40.3402 40.4623 40.4277C40.457 40.4654 40.4536 40.5038 40.4536 40.543C40.4536 40.606 40.4619 40.6682 40.476 40.7285C40.5539 41.062 40.8363 41.3162 41.184 41.3516L41.267 41.3564C41.4225 41.3564 41.5674 41.312 41.6909 41.2363C41.7053 41.2275 41.719 41.2177 41.7328 41.208C41.8104 41.1536 41.8777 41.0863 41.9321 41.0088C41.9413 40.9957 41.9501 40.9824 41.9584 40.9688C42.035 40.8448 42.0805 40.6994 42.0805 40.543ZM40.7485 34.5459V21.8242C40.7485 21.5481 40.9724 21.3242 41.2485 21.3242C41.5244 21.3244 41.7484 21.5483 41.7485 21.8242V34.5459C41.7485 34.8219 41.5244 35.0457 41.2485 35.0459C40.9723 35.0459 40.7485 34.822 40.7485 34.5459ZM68.6635 28.0264C69.2962 27.9712 69.9252 28.1691 70.4125 28.5762C70.8391 28.9324 71.1266 29.4239 71.2309 29.9648L71.2651 30.1992C71.3074 30.6715 71.2091 31.1472 70.9819 31.5635C70.7832 31.9274 70.4934 32.2323 70.143 32.4502L69.9887 32.5391C69.5687 32.7588 69.0929 32.8484 68.6215 32.7979C68.1502 32.7473 67.7041 32.5588 67.3403 32.2549C66.9764 31.9509 66.7103 31.5457 66.5766 31.0908C66.4429 30.6359 66.4478 30.1518 66.5893 29.6992C66.7308 29.2467 67.0024 28.8455 67.3715 28.5479C67.7407 28.2501 68.1914 28.0689 68.6635 28.0264ZM68.7514 29.0215L68.7524 29.0225C68.477 29.0472 68.2145 29.1537 67.9995 29.3271C67.7846 29.5005 67.6259 29.7335 67.5434 29.9971C67.4609 30.2609 67.4586 30.5434 67.5366 30.8086C67.6144 31.0736 67.7687 31.3101 67.9809 31.4873C68.1929 31.6644 68.4532 31.7743 68.728 31.8037C69.0027 31.8332 69.2799 31.7805 69.5248 31.6523C69.7696 31.5243 69.9715 31.3267 70.1039 31.084C70.2361 30.8419 70.2934 30.5659 70.269 30.291L70.2495 30.1543C70.1886 29.8386 70.0208 29.5516 69.7719 29.3438C69.4876 29.1063 69.1204 28.9896 68.7514 29.0215ZM173.407 125.671C173.407 126.024 173.267 126.363 173.017 126.612C172.767 126.862 172.429 127.002 172.076 127.002C171.723 127.002 171.384 126.862 171.134 126.612C170.885 126.363 170.745 126.024 170.745 125.671C170.745 125.318 170.885 124.979 171.134 124.729C171.384 124.48 171.723 124.34 172.076 124.34C172.429 124.34 172.767 124.48 173.017 124.729C173.267 124.979 173.407 125.318 173.407 125.671ZM160.569 124.838C160.569 125.191 160.429 125.53 160.179 125.779C159.93 126.029 159.591 126.169 159.238 126.169C158.885 126.169 158.547 126.029 158.297 125.779C158.048 125.53 157.908 125.191 157.908 124.838C157.908 124.485 158.048 124.147 158.297 123.897C158.547 123.648 158.885 123.508 159.238 123.508C159.591 123.508 159.93 123.648 160.179 123.897C160.429 124.147 160.569 124.485 160.569 124.838ZM6.95648 122.506C6.95648 122.595 6.9797 122.682 7.02386 122.759L7.06097 122.813C7.10171 122.866 7.15221 122.912 7.21039 122.945C7.28781 122.99 7.37574 123.014 7.46527 123.015H19.1782C19.2673 123.014 19.3551 122.99 19.4321 122.945C19.509 122.9 19.5722 122.835 19.6166 122.758C19.661 122.681 19.6848 122.593 19.685 122.504C19.6852 122.415 19.6617 122.327 19.6176 122.25L13.7612 112.085L13.7241 112.03C13.6836 111.978 13.6333 111.934 13.5756 111.901C13.4989 111.858 13.4119 111.835 13.3237 111.835H13.3207C13.2326 111.835 13.1454 111.858 13.0688 111.901C12.9922 111.945 12.9288 112.009 12.8842 112.085L7.02484 122.252C6.98036 122.329 6.95649 122.417 6.95648 122.506ZM13.4877 120.479L13.4487 120.421L13.4477 120.42C13.4312 120.404 13.4121 120.391 13.3911 120.382L13.3227 120.368C13.2754 120.368 13.2292 120.386 13.1957 120.42C13.1622 120.453 13.144 120.499 13.144 120.547L13.1577 120.615C13.1665 120.637 13.1792 120.656 13.1957 120.673C13.2292 120.706 13.2753 120.726 13.3227 120.726C13.37 120.726 13.4152 120.706 13.4487 120.673C13.4654 120.656 13.4789 120.637 13.4877 120.615L13.5014 120.547L13.4877 120.479ZM14.144 120.547C14.1439 120.765 14.0568 120.974 13.9028 121.128C13.7488 121.282 13.5402 121.368 13.3227 121.368C13.1049 121.368 12.8957 121.282 12.7416 121.128C12.6069 120.993 12.524 120.816 12.5053 120.628L12.5014 120.547L12.5053 120.466C12.5239 120.278 12.6068 120.101 12.7416 119.966L12.8022 119.911C12.9483 119.792 13.1322 119.726 13.3227 119.726L13.4037 119.729C13.5916 119.748 13.7681 119.831 13.9028 119.966C14.0568 120.12 14.144 120.329 14.144 120.547ZM86.4838 118C86.4838 118.118 86.4406 118.224 86.3725 118.31C86.5858 118.333 86.7993 118.359 87.0121 118.39L110.87 121.698C111.143 121.736 111.333 121.988 111.295 122.262C111.257 122.535 111.005 122.726 110.732 122.688L86.8725 119.38C83.6205 118.918 80.3031 119.285 77.2309 120.447L77.2299 120.446L43.3393 134.006L43.3471 143.371L47.561 141.8C47.8974 140.412 48.3048 139.039 48.7807 137.685C48.8724 137.424 49.1571 137.288 49.4174 137.379C49.6779 137.47 49.8156 137.756 49.7241 138.017C49.3348 139.124 48.9925 140.245 48.6987 141.376L55.4213 138.871C55.6801 138.775 55.9684 138.906 56.0649 139.165C56.161 139.424 56.0293 139.711 55.7709 139.808L48.4135 142.549C48.0357 144.197 47.7576 145.863 47.5815 147.54L78.6723 137.14L78.7729 137.106L78.8774 137.116C82.5695 137.458 90.2711 138.1 98.0073 138.536C105.763 138.973 113.495 139.199 117.281 138.725L117.624 138.677C121.161 138.139 124.205 136.177 126.59 133.561C126.68 133.462 126.767 133.359 126.855 133.259C124.567 128.654 121.443 124.49 117.621 120.989C117.417 120.803 117.403 120.487 117.589 120.283C117.776 120.08 118.093 120.065 118.296 120.252C122.099 123.734 125.226 127.859 127.549 132.415C127.754 132.146 127.953 131.878 128.141 131.607L128.425 131.187C129.819 129.075 130.896 126.771 131.624 124.347L131.654 124.236L131.727 124.149L148.821 104.086C148.216 103.519 147.551 102.898 146.814 102.207L137.984 112.219C137.939 112.269 137.886 112.308 137.83 112.336L137.687 112.498L137.543 112.382C137.455 112.37 137.369 112.337 137.295 112.277L125.272 102.598C125.208 102.546 125.162 102.481 125.13 102.41L124.938 102.257L125.185 101.877L132.589 90.5225C131.835 90.0224 131.083 89.5167 130.333 89.0049L115.585 111.341C115.566 111.37 115.544 111.395 115.52 111.419L115.456 111.517H115.377C115.313 111.547 115.242 111.565 115.168 111.565H86.7719C86.6757 111.565 86.5797 111.568 86.4838 111.571V118ZM145.37 114.062C145.37 114.415 145.229 114.753 144.98 115.003C144.73 115.253 144.391 115.394 144.039 115.394C143.92 115.394 143.804 115.376 143.692 115.346L146.582 119.765C154.328 126.376 160.12 130.348 170.881 137.289C170.877 137.23 170.873 137.17 170.872 137.11C170.869 136.92 170.88 136.724 170.902 136.522L170.941 135.79L171.017 135.838C171.103 135.444 171.223 135.042 171.365 134.645C171.965 132.958 173.003 131.208 173.775 130.239L173.776 130.238C174.426 129.424 175.452 128.375 176.529 127.657C176.561 127.636 176.593 127.615 176.625 127.594L176.568 127.55L177.306 127.202C177.356 127.179 177.407 127.157 177.457 127.136C177.618 127.063 177.78 127 177.942 126.949C166.462 118.668 160.842 114.486 157.013 111.387C154.382 109.259 152.988 107.986 149.554 104.771L142.326 113.256L142.724 113.864C142.766 113.585 142.895 113.323 143.097 113.121C143.347 112.872 143.686 112.731 144.039 112.731C144.391 112.731 144.73 112.872 144.98 113.121C145.229 113.371 145.37 113.71 145.37 114.062ZM158.338 114.062C158.338 114.415 158.198 114.753 157.949 115.003C157.699 115.253 157.36 115.394 157.007 115.394C156.654 115.394 156.315 115.252 156.066 115.003C155.817 114.753 155.676 114.415 155.676 114.062C155.676 113.71 155.816 113.371 156.066 113.121C156.315 112.872 156.654 112.731 157.007 112.731C157.36 112.731 157.699 112.872 157.949 113.121C158.198 113.371 158.338 113.71 158.338 114.062ZM84.4838 107.08C84.4838 107.499 84.6504 107.901 84.9467 108.197C85.1492 108.4 85.4014 108.54 85.6743 108.609C85.7596 108.542 85.8665 108.5 85.9838 108.5C86.1164 108.5 86.2361 108.553 86.3256 108.637C86.6475 108.583 86.9473 108.431 87.1811 108.197C87.4774 107.901 87.644 107.499 87.644 107.08C87.644 106.661 87.4774 106.259 87.1811 105.963C86.8848 105.667 86.483 105.5 86.0639 105.5C85.6449 105.5 85.243 105.667 84.9467 105.963C84.6504 106.259 84.4838 106.661 84.4838 107.08ZM88.644 107.08C88.644 107.764 88.372 108.42 87.8881 108.904C87.5045 109.288 87.0122 109.536 86.4838 109.623V110.522C86.5858 110.519 86.6882 110.517 86.7905 110.517H114.918L121.734 100.188C109.143 91.2012 97.2735 81.2451 86.2309 70.4121V104.508C86.8541 104.548 87.4438 104.812 87.8881 105.256C88.372 105.74 88.644 106.396 88.644 107.08ZM131.984 101.679C131.984 102.031 131.843 102.37 131.594 102.619C131.345 102.869 131.006 103.01 130.653 103.01C130.3 103.01 129.961 102.869 129.711 102.619C129.462 102.37 129.322 102.031 129.322 101.679C129.322 101.326 129.462 100.987 129.711 100.737C129.961 100.488 130.3 100.348 130.653 100.348C131.006 100.348 131.345 100.488 131.594 100.737C131.844 100.987 131.984 101.326 131.984 101.679ZM143.479 101.471C143.479 101.824 143.339 102.163 143.089 102.412C142.84 102.662 142.501 102.802 142.148 102.802C141.795 102.802 141.457 102.661 141.207 102.412C140.958 102.163 140.817 101.824 140.817 101.471C140.817 101.118 140.958 100.779 141.207 100.529C141.457 100.28 141.795 100.14 142.148 100.14C142.501 100.14 142.84 100.28 143.089 100.529C143.339 100.779 143.479 101.118 143.479 101.471ZM113.833 89.1631C113.833 89.516 113.693 89.8549 113.444 90.1045C113.194 90.3539 112.856 90.494 112.503 90.4941C112.15 90.4941 111.812 90.3541 111.562 90.1045C111.312 89.8549 111.172 89.516 111.172 89.1631C111.172 88.8103 111.313 88.4721 111.562 88.2227C111.812 87.9731 112.15 87.833 112.503 87.833C112.856 87.8331 113.194 87.9732 113.444 88.2227C113.693 88.4722 113.833 88.8103 113.833 89.1631ZM125.862 87.8027C125.862 88.1555 125.721 88.4937 125.471 88.7432C125.222 88.9926 124.884 89.1328 124.531 89.1328C124.178 89.1328 123.839 88.9927 123.589 88.7432C123.34 88.4937 123.2 88.1554 123.2 87.8027C123.2 87.4499 123.34 87.1109 123.589 86.8613C123.839 86.6117 124.178 86.4717 124.531 86.4717C124.884 86.4717 125.222 86.6119 125.471 86.8613C125.721 87.1109 125.862 87.4498 125.862 87.8027ZM103.574 80.334C103.574 80.6867 103.433 81.0249 103.184 81.2744C102.934 81.524 102.596 81.665 102.243 81.665C101.89 81.665 101.551 81.524 101.301 81.2744C101.052 81.0249 100.912 80.6867 100.912 80.334C100.912 79.981 101.052 79.6421 101.301 79.3926C101.551 79.143 101.89 79.0029 102.243 79.0029C102.596 79.0029 102.934 79.143 103.184 79.3926C103.434 79.6421 103.574 79.9811 103.574 80.334ZM113.833 78.5186C113.833 78.8715 113.693 79.2104 113.444 79.46C113.194 79.7094 112.856 79.8495 112.503 79.8496C112.15 79.8496 111.812 79.7095 111.562 79.46C111.312 79.2104 111.172 78.8715 111.172 78.5186C111.172 78.1658 111.313 77.8276 111.562 77.5781C111.812 77.3286 112.15 77.1885 112.503 77.1885C112.856 77.1886 113.194 77.3286 113.444 77.5781C113.693 77.8276 113.833 78.1657 113.833 78.5186ZM91.9594 70.1631C91.9594 70.5162 91.8194 70.8548 91.5698 71.1045C91.3201 71.3542 90.9814 71.495 90.6284 71.4951C90.2751 71.4951 89.9357 71.3543 89.686 71.1045C89.4364 70.8548 89.2964 70.5162 89.2963 70.1631C89.2963 69.81 89.4364 69.4714 89.686 69.2217C89.9357 68.9719 90.2751 68.8311 90.6284 68.8311C90.9814 68.8312 91.3201 68.972 91.5698 69.2217C91.8193 69.4714 91.9594 69.81 91.9594 70.1631ZM102.188 68.6885C102.188 68.863 102.154 69.036 102.087 69.1973C102.02 69.3587 101.922 69.5053 101.798 69.6289C101.675 69.7525 101.528 69.8511 101.367 69.918C101.205 69.9848 101.032 70.0195 100.858 70.0195C100.683 70.0195 100.51 69.9848 100.348 69.918C100.187 69.8511 100.04 69.7525 99.9164 69.6289C99.793 69.5054 99.6952 69.3586 99.6284 69.1973C99.5616 69.0359 99.5268 68.8631 99.5268 68.6885C99.5268 68.3355 99.6669 67.9966 99.9164 67.7471C100.166 67.4975 100.505 67.3574 100.858 67.3574C101.211 67.3575 101.549 67.4977 101.798 67.7471C102.048 67.9967 102.188 68.3355 102.188 68.6885ZM43.0717 40.7217C43.0539 40.9017 43.0089 41.077 42.9399 41.2422C42.848 41.4617 42.7149 41.6595 42.5493 41.8252C42.4852 41.8892 42.4151 41.9459 42.3432 41.999C42.2259 42.0859 42.0989 42.16 41.9623 42.2168C41.937 42.2273 41.911 42.2358 41.8852 42.2451C41.8577 42.2551 41.8303 42.2657 41.8022 42.2744C41.7652 42.2858 41.7276 42.2947 41.6899 42.3037C41.6687 42.3088 41.6478 42.315 41.6264 42.3193C41.5089 42.3431 41.3886 42.3564 41.267 42.3564C41.1451 42.3564 41.0245 42.3432 40.9067 42.3193C40.8852 42.315 40.8644 42.3088 40.8432 42.3037C40.8055 42.2947 40.7679 42.2858 40.7309 42.2744C40.7028 42.2657 40.6754 42.2551 40.6479 42.2451C40.6221 42.2358 40.5961 42.2273 40.5707 42.2168C40.4342 42.1599 40.3071 42.0859 40.1899 41.999C40.1659 41.9813 40.1407 41.9652 40.1176 41.9463L39.9848 41.8252C39.9028 41.7432 39.8292 41.653 39.7641 41.5566C39.7415 41.5231 39.7218 41.488 39.7016 41.4531C39.6915 41.4357 39.6799 41.4191 39.6703 41.4014C39.6559 41.3745 39.6433 41.3468 39.6303 41.3193C39.6175 41.2924 39.6037 41.2659 39.5922 41.2383C39.5817 41.213 39.5732 41.1869 39.5639 41.1611C39.5539 41.1336 39.5433 41.1063 39.5346 41.0781C39.4816 40.9062 39.4536 40.726 39.4536 40.543C39.4536 40.4227 39.4655 40.3037 39.4887 40.1875L39.4907 40.1777C39.5234 40.0174 39.5788 39.8655 39.6508 39.7236C39.6575 39.7104 39.6633 39.6967 39.6703 39.6836C39.6832 39.6598 39.6985 39.6374 39.7123 39.6143C39.7304 39.5839 39.7471 39.5527 39.767 39.5234C40.0279 39.1404 40.4319 38.8627 40.9018 38.7666L40.9116 38.7646C41.0277 38.7414 41.1468 38.7295 41.267 38.7295C41.3886 38.7295 41.509 38.7419 41.6264 38.7656C42.2656 38.8941 42.7811 39.3593 42.9848 39.9678C43.0277 40.0959 43.0583 40.2284 43.0717 40.3643L43.0805 40.543L43.0717 40.7217Z" fill="white"/>
</svg>
