<svg width="200" height="200" viewBox="0 0 200 200" fill="none" xmlns="http://www.w3.org/2000/svg">
<path d="M135.653 57.0618C135.123 53.6132 132.204 50.0511 129.476 48.3267C129.191 48.1377 128.908 47.9665 128.623 47.7964C122.446 52.0749 111.152 58.9951 97.8876 61.0985C96.8648 61.2687 95.614 61.0219 94.8369 61.7234C92.3932 63.9025 91.9007 71.5202 85.8561 71.6903C85.0213 73.8136 84.2641 75.8594 83.4492 77.6026C84.4372 76.2186 91.6579 77.531 93.4917 77.9439C95.2907 78.3419 103.051 80.4563 102.72 82.1129C104.084 79.1747 103.554 76.2007 102.664 73.0923C113.483 71.0087 128.472 63.3532 135.653 57.0618Z" fill="#00441A"/>
<path d="M41.0234 89.029C39.0989 90.8788 36.6691 92.1164 34.0413 92.5853C31.4135 93.0541 28.7056 92.7332 26.2602 91.6631C23.8147 90.593 21.7416 88.8217 20.3028 86.5733C18.864 84.3249 18.1243 81.7004 18.1772 79.0316C18.2301 76.3628 19.0732 73.7695 20.5999 71.5799C22.1265 69.3902 24.2683 67.7025 26.7542 66.7301C29.2401 65.7577 31.9585 65.5443 34.5657 66.1169C37.1729 66.6895 39.5518 68.0223 41.4015 69.9469C42.6307 71.2241 43.5961 72.731 44.2425 74.3816C44.8888 76.0322 45.2035 77.7941 45.1684 79.5664C45.1333 81.3387 44.7491 83.0866 44.0378 84.7103C43.3266 86.334 42.3022 87.8016 41.0234 89.029Z" fill="#00441A"/>
<path d="M35.412 74L29.3088 74.517C28.6262 74.6127 28.0081 74.9529 27.5808 75.4678C27.1537 75.9827 26.9497 76.6336 27.0106 77.2869C27.0715 77.9401 27.3929 78.5465 27.9089 78.9819C28.4247 79.4172 29.0963 79.6486 29.7858 79.6285L33.2 79.3413C33.8919 79.3178 34.567 79.5475 35.0858 79.983C35.6049 80.4187 35.9283 81.0271 35.9894 81.6826C36.0506 82.3383 35.8449 82.9912 35.4147 83.5069C34.9844 84.0226 34.3625 84.3617 33.6771 84.4542L27.5754 85" stroke="white" stroke-linecap="round" stroke-linejoin="round"/>
<path d="M31 72L32 87" stroke="white" stroke-linecap="round" stroke-linejoin="round"/>
<path d="M186.057 142.067C187.421 137.348 191.969 138.788 194.47 135.945C194.925 140.286 192.537 144.644 188.217 144.852L186.057 142.067Z" fill="#00441A"/>
<path d="M83.2213 151.407C81.497 152.412 78.2762 150.328 74.7519 146.348C74.8135 147.721 75.203 149.06 75.8882 150.252C78.2762 154.724 78.1627 165.752 80.8154 164.978C81.5547 164.75 82.4263 160.998 83.2034 156.698C83.6056 154.62 84.1373 152.569 84.7954 150.557C84.4661 150.726 83.5517 151.187 83.2213 151.407Z" fill="#89B81F"/>
<path d="M94.2499 56.3799C94.5978 57.3915 95.1102 58.3388 95.7663 59.1838C97.4329 58.938 99.2856 58.4326 99.6309 57.6684C99.6912 57.5397 99.7421 57.4066 99.7831 57.2704C99.3473 58.6535 96.8269 57.7251 94.2499 56.3799Z" fill="#89B81F"/>
<path d="M96.4857 46.204C93.1315 42.6798 82.1985 45.4459 74.7897 50.8089C67.3431 56.1899 69.4844 61.2305 79.1289 58.9192C78.5607 59.0893 72.3828 60.946 68.3471 65.5857C62.4159 72.4074 67.57 75.0222 74.2176 73.6581C82.1567 72.0283 88.9784 65.51 91.2898 60.9997C92.3514 58.3424 93.0715 55.5609 93.433 52.7223C90.6669 50.4676 92.3534 48.4209 93.8688 49.9751C94.6837 50.8089 95.5931 50.4109 94.5892 47.6866C95.6011 47.0588 96.816 46.8578 96.4857 46.204Z" fill="#89B81F"/>
<path d="M121.783 156.373C121.432 151.873 121.483 147.352 121.934 142.862C118.339 143.876 114.525 143.818 110.963 142.691C111.039 145.838 110.053 147.429 110.868 149.381C111.358 150.475 112.052 151.465 112.914 152.298C116.477 155.899 119.528 166.51 121.858 164.994C122.503 164.575 122.256 160.731 121.783 156.373Z" fill="#89B81F"/>
<path d="M86.1396 76.9961C85.9692 77.8755 85.7023 78.7335 85.3437 79.5542C82.2552 78.019 82.9755 77.015 86.1396 76.9961Z" fill="#89B81F"/>
<path d="M102.739 82.0899C102.663 82.4501 102.151 82.678 101.298 82.7864C101.621 82.1994 101.905 81.668 102.151 81.1377C102.587 81.5058 102.795 81.8282 102.739 82.0899Z" fill="#89B81F"/>
<path d="M111.228 111.16L109.238 116.864C109.162 114.647 109.086 112.468 109.048 110.327L111.228 111.16Z" fill="#89B81F"/>
<path d="M43.1765 151.426C38.0881 142.716 31.336 135.297 28.1461 136.526C23.8288 138.19 29.6863 151.531 33.0455 157.358C38.6921 167.136 45.5138 173.767 48.3595 172.237C52.4957 169.932 45.7387 155.811 43.1765 151.426Z" fill="#89B81F"/>
<path d="M78.1627 130.905C72.5539 121.203 65.7511 114.647 62.9462 116.279C60.1234 117.908 62.397 127.08 67.9869 136.781C73.5768 146.482 80.3985 153.02 83.2024 151.407C86.0262 149.779 83.7526 140.607 78.1627 130.905Z" fill="#89B81F"/>
<path d="M84.7944 150.555C84.1382 152.566 83.6066 154.617 83.2024 156.695C82.4343 160.997 81.5557 164.754 80.8144 164.975C78.1667 165.771 78.2662 154.727 75.8872 150.249C75.2006 149.058 74.8109 147.719 74.7509 146.345" stroke="white" stroke-linecap="round" stroke-linejoin="round"/>
<path d="M125.837 104.093L123.014 105.798" stroke="white" stroke-linecap="round" stroke-linejoin="round"/>
<path d="M123.829 100.833L121.043 102.52" stroke="white" stroke-linecap="round" stroke-linejoin="round"/>
<path d="M109.144 114.23L79.0533 132.497" stroke="white" stroke-linecap="round" stroke-linejoin="round"/>
<path d="M108.537 110.118L77.1389 129.2" stroke="white" stroke-linecap="round" stroke-linejoin="round"/>
<path d="M135.255 57.4027C141.994 56.7794 148.77 58.1164 154.767 61.2528C160.764 64.3891 165.728 69.1914 169.06 75.0819C179.125 92.38 173.853 114.721 157.292 124.974C146.933 131.388 144.059 127.997 123.943 133.73" stroke="white" stroke-linecap="round" stroke-linejoin="round"/>
<path d="M83.4193 151.26C92.6211 146.461 100.845 142.266 109.314 138.807" stroke="white" stroke-linecap="round" stroke-linejoin="round"/>
<path d="M84.472 100.132C78.0871 105.249 71.0943 110.233 62.9273 116.258" stroke="white" stroke-linecap="round" stroke-linejoin="round"/>
<path d="M111.91 70.3828C107.939 76.3534 103.483 81.9874 98.5891 87.2282" stroke="white" stroke-linecap="round" stroke-linejoin="round"/>
<path d="M128.604 47.8153C131.806 49.6152 135.066 53.3107 135.653 57.0618C128.471 63.3532 113.483 71.0087 102.664 73.0923C103.554 76.2007 104.084 79.1757 102.72 82.1129C103.051 80.4583 95.4041 78.3707 93.4917 77.9439C91.6251 77.527 84.4292 76.2315 83.4492 77.6026C84.2641 75.8594 85.0223 73.8127 85.8561 71.6903C91.9007 71.5202 92.3833 63.8915 94.8369 61.7234C95.6101 61.0408 96.8269 61.2697 97.8876 61.0985C111.144 58.9424 122.446 52.0789 128.623 47.7964L128.604 47.8153Z" stroke="white" stroke-linecap="round" stroke-linejoin="round"/>
<path d="M84.5337 80.9754C89.9586 80.8891 95.3011 82.3081 99.9682 85.0748" stroke="white" stroke-linecap="round" stroke-linejoin="round"/>
<path d="M99.6955 57.4724C99.0776 58.553 96.6896 57.6535 94.2499 56.3779C94.5975 57.3896 95.11 58.3371 95.7663 59.1818" stroke="white" stroke-linecap="round" stroke-linejoin="round"/>
<path d="M97.1851 61.1689C95.8648 60.8445 96.218 60.2018 95.7663 59.1839C99.3284 58.6575 99.9453 58.0018 99.799 56.2168C99.5851 53.6238 98.0627 47.9742 96.4857 46.2041" stroke="white" stroke-linecap="round" stroke-linejoin="round"/>
<path d="M102.664 73.0923C101.564 73.3012 100.503 73.4525 99.5174 73.548" stroke="white" stroke-linecap="round" stroke-linejoin="round"/>
<path d="M94.5912 47.6825C95.5951 50.4108 94.6907 50.8088 93.8708 49.971C92.3544 48.4178 90.6689 50.4685 93.435 52.7182C93.0744 55.5579 92.3549 58.3402 91.2937 60.9986C88.9824 65.509 82.1606 72.0272 74.2215 73.657C67.57 75.0212 62.4159 72.4063 68.351 65.5846C72.3868 60.9419 78.5647 59.0852 79.1329 58.9181C69.4883 61.2295 67.3491 56.1918 74.7937 50.8078C82.2044 45.4478 93.1355 42.6787 96.4896 46.203C96.81 46.8517 95.5653 47.0806 94.5912 47.6825Z" stroke="white" stroke-linecap="round" stroke-linejoin="round"/>
<path d="M85.8561 71.69C86.8568 68.9822 88.1466 66.3902 89.7027 63.9588C90.318 63.0384 90.8444 62.0615 91.2748 61.0415" stroke="white" stroke-linecap="round" stroke-linejoin="round"/>
<path d="M98.6179 87.198C99.932 85.263 101.115 83.2427 102.161 81.1504" stroke="white" stroke-linecap="round" stroke-linejoin="round"/>
<path d="M139.784 46.8867C142.645 46.2041 145 47.4936 144.805 48.5921C144.761 48.8123 144.671 49.0207 144.54 49.2034C144.409 49.3863 144.242 49.5393 144.048 49.6528" stroke="white" stroke-linecap="round" stroke-linejoin="round"/>
<path d="M139.518 45.1438C142.531 44.4234 145.525 45.9398 144.237 47.5318" stroke="white" stroke-linecap="round" stroke-linejoin="round"/>
<path d="M135.33 55.6974C137.113 53.6622 139.401 52.133 141.963 51.2637" stroke="white" stroke-linecap="round" stroke-linejoin="round"/>
<path d="M139.67 48.9323C142.456 48.3641 144.29 49.4626 144.18 50.5432C144.044 51.8695 141.394 53.8784 139.158 52.5899" stroke="white" stroke-linecap="round" stroke-linejoin="round"/>
<path d="M137.32 44.1387C137.358 44.1009 138.514 42.491 138.003 41.9786C137.567 41.5428 131.276 46.7158 129.514 48.3645" stroke="white" stroke-linecap="round" stroke-linejoin="round"/>
<path d="M140.939 44.9536C145.942 42.5477 147.285 39.6453 146.34 40.1776C143.186 41.7567 139.946 43.161 136.638 44.3845C134.077 45.3589 131.671 46.6994 129.495 48.3645" stroke="white" stroke-linecap="round" stroke-linejoin="round"/>
<path d="M121.934 142.861C121.487 147.352 121.436 151.873 121.783 156.372C122.265 160.73 122.502 164.576 121.858 164.994C119.526 166.508 116.47 155.906 112.914 152.298C112.05 151.466 111.356 150.475 110.868 149.381C110.051 147.425 111.042 145.831 110.962 142.675" stroke="white" stroke-linecap="round" stroke-linejoin="round"/>
<path d="M78.1627 130.906C83.7596 140.603 86.0282 149.782 83.2024 151.403C80.4005 153.017 73.5768 146.477 67.9869 136.776C62.397 127.076 60.1254 117.91 62.9462 116.277C65.767 114.644 72.5609 121.2 78.1627 130.906Z" stroke="white" stroke-linecap="round" stroke-linejoin="round"/>
<path d="M49.4023 166.896C47.9854 158.077 39.4682 143.405 32.5529 138.106C28.9809 135.339 26.4227 135.829 26.7153 140.47C27.2705 149.275 37.0762 166.264 44.3954 171.249C48.459 174.015 50.2062 171.902 49.4023 166.896Z" stroke="white" stroke-linecap="round" stroke-linejoin="round"/>
<path d="M48.5476 172.137L54.1733 168.883C54.7153 168.458 55.0837 167.85 55.2094 167.173C55.335 166.497 55.2093 165.797 54.8559 165.206C57.0946 168.578 61.4875 165.097 59.7254 162.174C61.3602 164.96 66.5003 163.161 64.387 158.935C64.866 159.555 65.5486 159.986 66.3146 160.152C67.0805 160.32 67.8807 160.21 68.5739 159.844C70.8624 158.383 70.0137 155.543 68.5938 150.919C65.938 142.978 61.7248 135.646 56.2011 129.352C54.8736 127.771 53.3537 126.361 51.6768 125.157C49.0252 123.513 46.0421 124.745 47.068 129.22C46.2242 127.814 45.2342 126.895 43.5616 127.343C43.1393 127.461 42.75 127.675 42.4241 127.967C42.0982 128.261 41.8445 128.625 41.6832 129.033C41.5217 129.44 41.4568 129.88 41.4936 130.316C41.5303 130.753 41.6677 131.175 41.895 131.55C41.895 131.55 39.9319 129.069 37.707 130.831C37.1545 131.262 36.7823 131.882 36.6631 132.572C36.5439 133.263 36.6862 133.972 37.0623 134.563C36.8832 134.247 36.6432 133.97 36.3562 133.747C36.0693 133.524 35.7411 133.361 35.3905 133.266C35.0399 133.17 34.6741 133.146 34.3139 133.193C33.9537 133.24 33.6065 133.358 33.2922 133.54L27.9968 136.587" stroke="white" stroke-linecap="round" stroke-linejoin="round"/>
<path d="M186.057 142.066C183.719 143.357 181.479 144.814 179.349 146.425C173.095 151.255 166.994 157.32 167.807 158.381C168.62 159.443 176.014 155.087 182.284 150.252C184.385 148.601 186.361 146.796 188.196 144.851" stroke="white" stroke-linecap="round" stroke-linejoin="round"/>
<path d="M186.057 142.067C187.421 137.348 191.969 138.788 194.47 135.945C194.925 140.286 192.537 144.644 188.217 144.852L186.057 142.067Z" stroke="white" stroke-linecap="round" stroke-linejoin="round"/>
<path d="M180.135 145.831L183.063 149.626" stroke="white" stroke-linecap="round" stroke-linejoin="round"/>
<path d="M191.794 56.3774L187.59 56.7336C187.12 56.7995 186.694 57.0338 186.4 57.3884C186.106 57.7431 185.965 58.1913 186.007 58.6413C186.049 59.0912 186.271 59.5089 186.626 59.8087C186.981 60.1085 187.444 60.2679 187.919 60.2541L190.27 60.0563C190.747 60.0401 191.212 60.1983 191.569 60.4983C191.927 60.7984 192.149 61.2174 192.191 61.6689C192.234 62.1205 192.092 62.5702 191.796 62.9254C191.499 63.2805 191.071 63.5141 190.599 63.5778L186.396 63.9537" stroke="white" stroke-width="0.688753" stroke-linecap="round" stroke-linejoin="round"/>
<path d="M188.755 55L189.444 65.3313" stroke="white" stroke-width="0.688753" stroke-linecap="round" stroke-linejoin="round"/>
<path d="M102.151 188.661L92.0708 188.964" stroke="white" stroke-linecap="round" stroke-linejoin="round"/>
<path d="M97.2628 193.853L96.9593 183.772" stroke="white" stroke-linecap="round" stroke-linejoin="round"/>
<path d="M86.1396 76.9966C85.9692 77.876 85.7023 78.7339 85.3437 79.5547C82.2552 78.0194 82.9755 77.0155 86.1396 76.9966Z" stroke="white" stroke-linecap="round" stroke-linejoin="round"/>
<path d="M102.72 82.1128C102.629 82.4561 102.142 82.6799 101.319 82.7914" stroke="white" stroke-linecap="round" stroke-linejoin="round"/>
<path d="M86.1396 76.9966C85.8292 79.1493 84.7364 81.1121 83.0701 82.5099C75.6235 88.4222 75.5081 96.7026 80.9477 102.899" stroke="white" stroke-linecap="round" stroke-linejoin="round"/>
<path d="M27.6655 136.794L19.2697 141.554" stroke="white" stroke-linecap="round" stroke-linejoin="round"/>
<path d="M48.1625 172.345L40.6254 176.742" stroke="white" stroke-linecap="round" stroke-linejoin="round"/>
<path d="M36.9866 179.035L31.3967 182.294" stroke="white" stroke-linecap="round" stroke-linejoin="round"/>
<path d="M15.3663 143.999L9.66294 147.239" stroke="white" stroke-linecap="round" stroke-linejoin="round"/>
<path d="M33.0644 157.357L14.7026 168.215" stroke="white" stroke-linecap="round" stroke-linejoin="round"/>
<path d="M11.046 170.509L5.475 173.749" stroke="white" stroke-linecap="round" stroke-linejoin="round"/>
<path d="M41.0234 89.029C39.0989 90.8788 36.6691 92.1164 34.0413 92.5853C31.4135 93.0541 28.7056 92.7332 26.2602 91.6631C23.8147 90.593 21.7416 88.8217 20.3028 86.5733C18.864 84.3249 18.1243 81.7004 18.1772 79.0316C18.2301 76.3628 19.0732 73.7695 20.5999 71.5799C22.1265 69.3902 24.2683 67.7025 26.7542 66.7301C29.2401 65.7577 31.9585 65.5443 34.5657 66.1169C37.1729 66.6895 39.5518 68.0223 41.4015 69.9469C42.6307 71.2241 43.5961 72.731 44.2425 74.3816C44.8888 76.0322 45.2035 77.7941 45.1684 79.5664C45.1333 81.3387 44.7491 83.0866 44.0378 84.7103C43.3266 86.334 42.3022 87.8016 41.0234 89.029Z" stroke="white" stroke-linecap="round" stroke-linejoin="round"/>
<path d="M45.1536 80.0997C49.3416 82.0897 51.8201 83.9802 51.4639 85.1742C50.8261 87.3303 41.4015 86.5005 30.3928 83.3165C19.3841 80.1325 10.9674 75.8013 11.5952 73.6421C11.9534 72.4093 15.1384 72.1446 19.8537 72.7327" stroke="white" stroke-linecap="round" stroke-linejoin="round"/>
<path d="M81.692 94.1823C82.2412 97.631 84.1795 100.793 86.7894 101.611C94.9394 104.16 109.054 110.346 109.054 110.346C109.23 120.105 110.113 130.843 109.168 142.067C113.687 143.969 118.76 144.084 123.361 142.388C124.157 131.796 124.667 121.639 124.478 112.259C124.435 109.925 123.895 107.628 122.892 105.519C121.888 103.412 120.446 101.542 118.661 100.038C111.297 93.95 103.086 88.9649 94.2877 85.2393" stroke="white" stroke-linecap="round" stroke-linejoin="round"/>
<path d="M109.049 110.346L111.228 111.161L109.239 116.864" stroke="white" stroke-linecap="round" stroke-linejoin="round"/>
<path d="M109.561 134.581C114.168 136.162 119.128 136.405 123.867 135.283" stroke="white" stroke-linecap="round" stroke-linejoin="round"/>
<path d="M105.392 6.14648V9.31158" stroke="white" stroke-linecap="round" stroke-linejoin="round"/>
<path d="M111.55 12.3047H108.385" stroke="white" stroke-linecap="round" stroke-linejoin="round"/>
<path d="M105.392 18.4634V15.2983" stroke="white" stroke-linecap="round" stroke-linejoin="round"/>
<path d="M99.2338 12.3047H102.4" stroke="white" stroke-linecap="round" stroke-linejoin="round"/>
<path d="M108.385 12.3045C107.992 12.3055 107.602 12.2289 107.239 12.0788C106.874 11.9288 106.544 11.7083 106.267 11.4302C105.988 11.1521 105.768 10.8217 105.618 10.4581C105.468 10.0945 105.391 9.70486 105.392 9.31152C105.393 9.70478 105.316 10.0944 105.166 10.4579C105.017 10.8214 104.796 11.1517 104.518 11.4299C104.24 11.708 103.909 11.9284 103.546 12.0785C103.183 12.2286 102.793 12.3054 102.4 12.3045C102.793 12.3036 103.183 12.3804 103.546 12.5306C103.91 12.6807 104.241 12.9012 104.518 13.1795C104.796 13.4577 105.017 13.7881 105.167 14.1518C105.316 14.5154 105.393 14.9051 105.392 15.2984C105.391 14.905 105.468 14.5153 105.618 14.1515C105.767 13.7878 105.988 13.4573 106.266 13.1791C106.544 12.9009 106.874 12.6804 107.238 12.5303C107.602 12.3801 107.992 12.3034 108.385 12.3045Z" stroke="white" stroke-linecap="round" stroke-linejoin="round"/>
<path d="M135.5 81.5C138.947 81.5016 142.253 82.8712 144.69 85.3086C147.052 87.6697 148.412 90.8458 148.496 94.1758L148.5 94.499C148.5 97.0701 147.738 99.5839 146.31 101.722C144.881 103.86 142.851 105.526 140.476 106.51C138.1 107.494 135.487 107.751 132.965 107.25C130.443 106.749 128.127 105.511 126.309 103.693C124.49 101.875 123.252 99.5587 122.75 97.0371C122.248 94.5154 122.505 91.9009 123.489 89.5254C124.473 87.15 126.14 85.1199 128.277 83.6914C130.282 82.3522 132.616 81.5978 135.019 81.5088L135.5 81.5Z" stroke="white"/>
<path d="M139.412 89L133.309 89.517C132.626 89.6127 132.008 89.9529 131.581 90.4678C131.154 90.9827 130.95 91.6336 131.011 92.2869C131.071 92.9401 131.393 93.5465 131.909 93.9819C132.425 94.4172 133.096 94.6486 133.786 94.6285L137.2 94.3413C137.892 94.3178 138.567 94.5475 139.086 94.983C139.605 95.4187 139.928 96.0271 139.989 96.6826C140.051 97.3383 139.845 97.9912 139.415 98.5069C138.984 99.0226 138.362 99.3617 137.677 99.4542L131.575 100" stroke="white" stroke-linecap="round" stroke-linejoin="round"/>
<path d="M135 87L136 102" stroke="white" stroke-linecap="round" stroke-linejoin="round"/>
</svg>
