<svg width="200" height="200" viewBox="0 0 200 200" fill="none" xmlns="http://www.w3.org/2000/svg">
<path d="M50 12.5C54.6401 12.5021 59.0898 14.346 62.3711 17.627C65.6524 20.9079 67.4973 25.3578 67.5 29.998L67.4883 30.6455C67.369 33.8799 66.3544 37.0225 64.5518 39.7207C62.6291 42.5989 59.896 44.8423 56.6982 46.167C53.5007 47.4919 49.9818 47.839 46.5869 47.1641C43.1922 46.4891 40.0735 44.8221 37.626 42.375C35.1784 39.9277 33.5113 36.8095 32.8359 33.415C32.1606 30.0205 32.5076 26.5014 33.832 23.3037C35.1565 20.1059 37.3995 17.3722 40.2773 15.4492C42.9753 13.6465 46.1175 12.6316 49.3516 12.5117L50 12.5Z" fill="#E15252" stroke="white"/>
<path d="M55.216 22.6665L47.0783 23.3559C46.1683 23.4835 45.3441 23.937 44.7744 24.6236C44.2049 25.3102 43.9329 26.178 44.0141 27.049C44.0953 27.92 44.5238 28.7285 45.2118 29.309C45.8997 29.8894 46.7951 30.198 47.7144 30.1712L52.2667 29.7882C53.1892 29.7569 54.0893 30.0631 54.7811 30.6439C55.4732 31.2248 55.9045 32.036 55.9859 32.91C56.0675 33.7842 55.7931 34.6548 55.2196 35.3424C54.6459 36.03 53.8166 36.4821 52.9028 36.6055L44.7672 37.3332" fill="#E15252"/>
<path d="M55.216 22.6665L47.0783 23.3559C46.1683 23.4835 45.3441 23.937 44.7744 24.6236C44.2049 25.3102 43.9329 26.178 44.0141 27.049C44.0953 27.92 44.5238 28.7285 45.2118 29.309C45.8997 29.8894 46.7951 30.198 47.7144 30.1712L52.2667 29.7882C53.1892 29.7569 54.0893 30.0631 54.7811 30.6439C55.4732 31.2248 55.9045 32.036 55.9859 32.91C56.0675 33.7842 55.7931 34.6548 55.2196 35.3424C54.6459 36.03 53.8166 36.4821 52.9028 36.6055L44.7672 37.3332" stroke="white" stroke-linecap="round" stroke-linejoin="round"/>
<path d="M49.3333 20L50.6666 40L49.3333 20Z" fill="#E15252"/>
<path d="M49.3333 20L50.6666 40" stroke="white" stroke-linecap="round" stroke-linejoin="round"/>
<path d="M153.9 122.272L119.91 127.339C118.27 119.996 117.399 116.336 116.825 113.707C114.427 102.786 104.938 99.0388 102.31 98.209C101.98 100.189 90.446 107.048 85.2113 103.912C66.0486 128.932 54.23 145.282 28.9053 169.252C25.0108 172.863 36.3538 185.264 40.2672 181.709C64.6387 159.871 77.5956 147.919 95.9772 125.546L92.4241 113.749L107.661 139.928C108.744 141.785 110.371 143.265 112.321 144.168C114.272 145.07 116.452 145.352 118.569 144.976L156.756 138.095C160.179 137.536 157.406 121.639 153.9 122.272Z" fill="#E15252"/>
<path d="M92.5564 66.1831L90.7465 68.2438C90.6783 67.7702 90.5527 67.3068 90.3724 66.8637C91.1199 66.7052 91.8511 66.4773 92.5564 66.1831Z" fill="#9AD4A6"/>
<path d="M105.713 84.1616C105.144 85.6983 104.677 87.2708 104.314 88.869C106.659 88.9625 106.81 89.0192 109.041 89.0192L105.713 84.1616Z" fill="#9AD4A6"/>
<path d="M97.9105 123.142C97.2677 123.955 96.606 124.749 95.9822 125.543L92.429 113.746L97.9105 123.142Z" fill="#9AD4A6"/>
<path d="M99.7393 54.6327C93.7315 47.7513 90.0609 50.9273 88.06 54.8595C90.1774 50.8517 93.5225 52.0616 94.2787 56.4854C94.3544 56.9958 94.6379 56.958 94.6947 56.9202C94.9974 56.8399 95.2806 56.6984 95.5265 56.5043C97.2846 55.2755 98.4946 58.357 95.8668 59.2455C95.5253 61.1559 95.3294 63.0894 95.2807 65.0294C95.2807 65.0294 106.186 61.9907 99.7393 54.6327Z" fill="#9AD4A6"/>
<path d="M106.696 52.9503C104.466 55.2756 100.973 55.5542 98.8886 53.5552C96.804 51.5563 96.9224 48.0539 99.1532 45.7286C101.384 43.4033 104.876 43.1247 106.961 45.1236C109.046 47.1226 108.927 50.625 106.696 52.9503Z" fill="#9AD4A6"/>
<path d="M28.36 172.86C16.8717 181.888 9.85301 185.628 10.0391 187.132C10.4371 190.365 22.3084 185.072 28.2625 185.563C29.6727 185.711 31.0984 185.583 32.4594 185.185C33.9907 184.712 35.1459 183.427 36.6185 181.933C32.8376 180.035 29.895 176.802 28.36 172.86Z" fill="#9AD4A6"/>
<path d="M165.869 124.824C161.681 121.921 159.899 122.934 156.058 123.936C157.856 127.652 158.596 131.792 158.195 135.902C163.052 135.222 168.799 134.521 172.353 134.31C177.514 134.011 182.032 133.554 182.392 132.703C183.679 129.721 170.744 128.264 165.869 124.824Z" fill="#9AD4A6"/>
<path d="M148.814 71.512L144.807 71.91C145.714 69.3021 147.434 69.111 148.814 71.512Z" fill="#9AD4A6"/>
<path d="M149.571 83.0083C148.682 84.9744 147.264 85.05 146.055 83.2919L149.571 83.0083Z" fill="#9AD4A6"/>
<path d="M123.634 34.5946C123.55 34.6127 123.462 34.6139 123.378 34.598C123.293 34.5821 123.211 34.5493 123.14 34.5019C123.067 34.4543 123.005 34.3929 122.958 34.3213C122.909 34.2495 122.876 34.1689 122.859 34.0842L121.252 26.2237C121.217 26.0557 121.25 25.8807 121.344 25.7371C121.438 25.5935 121.586 25.4931 121.753 25.458C121.921 25.4229 122.096 25.456 122.24 25.55C122.384 25.6439 122.484 25.791 122.519 25.959L124.126 33.8195C124.148 33.9028 124.153 33.9898 124.14 34.075C124.127 34.1602 124.096 34.2418 124.049 34.3146C124.003 34.3874 123.943 34.4498 123.871 34.498C123.799 34.5463 123.719 34.5791 123.634 34.5946Z" fill="#9AD4A6"/>
<path d="M80.3438 81.4014L77.3588 88.6788C78.0393 88.7355 78.7388 88.7733 79.4194 88.8111C79.0407 86.3031 79.3605 83.7394 80.3438 81.4014Z" fill="#9AD4A6"/>
<path d="M6.99535 108.774C6.83052 108.932 6.61053 109.021 6.38177 109.021C6.153 109.02 5.93333 108.931 5.76907 108.772C5.60481 108.613 5.50879 108.396 5.50127 108.167C5.49374 107.938 5.57529 107.716 5.72872 107.546C5.89355 107.388 6.11354 107.299 6.34231 107.299C6.57108 107.3 6.79074 107.389 6.955 107.548C7.11926 107.707 7.21527 107.924 7.2228 108.153C7.23033 108.382 7.14878 108.604 6.99535 108.774Z" fill="#9AD4A6"/>
<path d="M92.4997 78.3954C92.5183 78.5973 92.4766 78.8001 92.38 78.9782C92.2834 79.1564 92.1361 79.3019 91.9568 79.3963C91.7775 79.4907 91.5743 79.5299 91.3727 79.5088C91.1711 79.4878 90.9803 79.4074 90.8244 79.278C90.6685 79.1484 90.5545 78.9757 90.4968 78.7814C90.4391 78.5872 90.4403 78.3801 90.5002 78.1866C90.5601 77.993 90.6761 77.8214 90.8335 77.6938C90.9908 77.5661 91.1825 77.4879 91.3843 77.4691C91.5184 77.4562 91.6539 77.4698 91.7827 77.5094C91.9116 77.5491 92.0314 77.6138 92.135 77.6999C92.2387 77.786 92.3243 77.8919 92.387 78.0112C92.4496 78.1306 92.4879 78.2612 92.4997 78.3954Z" fill="#9AD4A6"/>
<path d="M90.836 85.2959C90.8546 85.4977 90.8129 85.7005 90.7163 85.8787C90.6197 86.0568 90.4724 86.2023 90.2931 86.2968C90.1138 86.3912 89.9106 86.4304 89.709 86.4093C89.5074 86.3882 89.3166 86.3079 89.1607 86.1785C89.0048 86.049 88.8908 85.8762 88.8331 85.6819C88.7754 85.4877 88.7766 85.2806 88.8365 85.087C88.8964 84.8935 89.0124 84.7219 89.1698 84.5943C89.3271 84.4665 89.5188 84.3884 89.7206 84.3696C89.8548 84.3565 89.9903 84.3701 90.1192 84.4096C90.2481 84.4492 90.3679 84.5139 90.4715 84.6C90.5753 84.6862 90.6609 84.7921 90.7235 84.9115C90.7861 85.031 90.8243 85.1616 90.836 85.2959Z" fill="#9AD4A6"/>
<path d="M90.836 93.0083C90.8546 93.2101 90.8129 93.4128 90.7163 93.591C90.6197 93.7691 90.4724 93.9147 90.2931 94.0091C90.1138 94.1036 89.9106 94.1428 89.709 94.1217C89.5074 94.1007 89.3166 94.0203 89.1607 93.8908C89.0048 93.7613 88.8908 93.5886 88.8331 93.3942C88.7754 93.2 88.7766 92.9929 88.8365 92.7993C88.8964 92.6058 89.0124 92.4343 89.1698 92.3066C89.3271 92.1788 89.5188 92.1007 89.7206 92.0819C89.8547 92.0689 89.9902 92.0826 90.119 92.1222C90.2479 92.1618 90.3677 92.2266 90.4713 92.3127C90.575 92.3988 90.6606 92.5046 90.7233 92.624C90.7859 92.7434 90.8242 92.874 90.836 93.0083Z" fill="#9AD4A6"/>
<path d="M41.9915 180.175L67.165 189.968L74.1022 172.104C74.506 171.12 75.18 170.271 76.0465 169.654C76.9128 169.037 77.9361 168.679 78.9978 168.619C80.0595 168.559 81.1164 168.802 82.046 169.319C82.9758 169.835 83.7402 170.604 84.2512 171.536C85.4166 173.677 87.1692 175.439 89.3026 176.617C91.4361 177.794 93.8615 178.338 96.2934 178.184C98.7254 178.029 101.063 177.183 103.03 175.745C104.998 174.308 106.513 172.337 107.399 170.068C108.284 167.797 108.503 165.321 108.029 162.931C107.554 160.541 106.407 158.336 104.722 156.576C103.037 154.815 100.884 153.573 98.5167 152.995C96.1494 152.417 93.6661 152.527 91.3594 153.313C90.3516 153.66 89.2659 153.714 88.2287 153.468C87.1914 153.222 86.2452 152.687 85.5005 151.925C84.7556 151.162 84.2428 150.204 84.0216 149.161C83.8004 148.118 83.88 147.034 84.2512 146.035L88.9396 133.995" stroke="white" stroke-linecap="round" stroke-linejoin="round"/>
<path d="M26.6367 174.202L8.99928 167.336C8.32438 167.074 7.70782 166.681 7.18483 166.18C6.66183 165.679 6.24265 165.08 5.95122 164.417C5.65979 163.754 5.50183 163.04 5.48637 162.316C5.47089 161.592 5.59821 160.872 5.86105 160.197L26.3909 107.433C26.6535 106.757 27.0467 106.139 27.5481 105.616C28.0496 105.092 28.6493 104.672 29.3131 104.381C29.9769 104.089 30.6916 103.932 31.4163 103.917C32.1412 103.902 32.8618 104.031 33.537 104.294L73.138 119.682" stroke="white" stroke-linecap="round" stroke-linejoin="round"/>
<path d="M166.641 73.5557C166.759 74.0062 166.937 74.4387 167.17 74.8412" stroke="white" stroke-linecap="round" stroke-linejoin="round"/>
<path d="M166.588 70.9288C166.756 70.1325 167.094 69.382 167.579 68.7292C168.065 68.0763 168.687 67.5367 169.401 67.1478C171.54 65.9823 173.304 64.2297 174.481 62.0964C175.658 59.963 176.201 57.5378 176.047 55.1061C175.892 52.6744 175.046 50.3375 173.608 48.3705C172.17 46.4033 170.2 44.8879 167.931 44.0025C165.66 43.1172 163.184 42.8988 160.794 43.373C158.404 43.8472 156.2 44.9943 154.439 46.6793C152.679 48.3643 151.438 50.517 150.859 52.8841C150.282 55.2512 150.392 57.734 151.178 60.0405C151.526 61.0483 151.58 62.1343 151.335 63.1718C151.089 64.2093 150.554 65.1556 149.791 65.9006C149.028 66.6454 148.069 67.1581 147.026 67.379C145.983 67.5998 144.898 67.5196 143.899 67.1478L124.769 59.7191L119.794 72.5168" stroke="white" stroke-linecap="round" stroke-linejoin="round"/>
<path d="M145.09 140.198L157.926 145.173C158.602 145.437 159.322 145.565 160.046 145.55C160.771 145.535 161.486 145.377 162.15 145.085C162.813 144.794 163.412 144.375 163.914 143.852C164.415 143.327 164.808 142.71 165.071 142.035L167.968 134.58M168.568 76.4941C169 76.8309 169.478 77.1046 169.986 77.3071L182.445 82.1278C183.12 82.3903 183.737 82.7835 184.261 83.2849C184.784 83.7863 185.204 84.386 185.495 85.0497C185.787 85.7133 185.944 86.428 185.959 87.1527C185.974 87.8773 185.846 88.5978 185.582 89.2729L170.867 127.126" stroke="white" stroke-linecap="round" stroke-linejoin="round"/>
<path d="M102.786 96.0518C104.062 96.1493 105.269 96.6686 106.216 97.5277C107.163 98.3869 107.798 99.5371 108.02 100.797" stroke="white" stroke-linecap="round" stroke-linejoin="round"/>
<path d="M81.6671 72.5729C84.0533 70.1651 87.295 68.7991 90.6848 68.7729" stroke="white" stroke-linecap="round" stroke-linejoin="round"/>
<path d="M97.5652 48.6398L68.1699 37.2222" stroke="white" stroke-linecap="round" stroke-linejoin="round"/>
<path d="M112.878 72.8184L119.059 57.0148L107.263 52.4209" stroke="white" stroke-linecap="round" stroke-linejoin="round"/>
<path d="M77.8294 113.576L36.3538 97.4508C34.9917 96.9173 33.8965 95.8656 33.3082 94.5261C32.72 93.1868 32.6867 91.6687 33.2156 90.3048L38.7358 75.9947C39.0921 74.9946 39.1611 73.9147 38.9352 72.8773C38.7094 71.84 38.1975 70.8866 37.4578 70.1252C36.718 69.3638 35.7797 68.8247 34.7494 68.569C33.719 68.3133 32.6375 68.3512 31.6276 68.6784C29.3265 69.4556 26.8515 69.56 24.4932 68.9794C22.1349 68.3987 19.9912 67.1573 18.314 65.4007C16.6367 63.6441 15.4955 61.4454 15.0245 59.0627C14.5534 56.6801 14.772 54.2126 15.6546 51.9499C16.5372 49.6873 18.0471 47.7233 20.0071 46.289C21.967 44.8546 24.2955 44.0093 26.7191 43.8524C29.1429 43.6954 31.561 44.2333 33.6895 45.4028C35.8181 46.5724 37.5687 48.3251 38.7358 50.455C40.9338 54.4917 47.1376 54.435 48.8848 49.9068L49.641 47.9595" stroke="white" stroke-linecap="round" stroke-linejoin="round"/>
<path d="M90.3674 66.8664C91.1203 66.715 91.8544 66.4814 92.5564 66.1699L90.7465 68.2246" stroke="white" stroke-linecap="round" stroke-linejoin="round"/>
<path d="M103.861 72.667C101.747 72.6218 99.6613 72.1727 97.7165 71.3436C96.4528 70.6581 95.222 69.4153 95.2777 65.0294C95.3279 63.0894 95.5238 61.1559 95.8638 59.2454C98.4916 58.3758 97.3056 55.3092 95.5235 56.5042C94.8678 56.944 94.3922 57.2176 94.2758 56.5042C93.5554 52.0556 90.1744 50.8705 88.057 54.8784L87.3954 56.4097C85.8631 60.722 85.6342 67.6084 90.3674 66.8632C90.5523 67.2982 90.6781 67.7559 90.7415 68.2243C90.7664 68.6969 90.249 71.2292 89.6829 71.5516C88.5277 72.2103 86.5257 72.8371 82.9338 72.667" stroke="white" stroke-linecap="round" stroke-linejoin="round"/>
<path d="M146.025 83.3387C156.362 82.4343 158.37 81.8104 165.029 80.8154C165.71 80.7209 166.505 80.5716 167.411 80.3806C170.759 79.6721 171.003 78.5896 167.09 78.6413C165.103 78.6676 163.123 78.4065 161.21 77.8662" stroke="white" stroke-linecap="round" stroke-linejoin="round"/>
<path d="M162.633 78.2091C162.652 78.3036 165.13 77.5484 168.135 76.6171C171.5 75.5783 171.707 74.2102 167.624 74.7833C165.566 75.1746 163.456 75.2131 161.385 74.8967" stroke="white" stroke-linecap="round" stroke-linejoin="round"/>
<path d="M160.668 72.5727C160.668 72.5727 168.058 70.527 168.513 70.3837C171.995 69.2563 172.521 70.517 169.553 72.104C166.83 73.5597 163.2 75.089 163.2 75.089" stroke="white" stroke-linecap="round" stroke-linejoin="round"/>
<path d="M144.71 71.5454C144.505 71.5661 144.356 71.7492 144.377 71.9542C144.398 72.1593 144.581 72.3086 144.786 72.2879L144.71 71.5454ZM149.514 71.4381V71.8112C149.523 71.8112 149.531 71.8109 149.54 71.8103L149.514 71.4381ZM159.231 70.0202L159.375 70.3646L159.376 70.3643L159.231 70.0202ZM164.448 67.7705L164.292 67.4317L164.291 67.432L164.448 67.7705ZM165.582 69.3018L165.775 69.621L165.783 69.6162L165.582 69.3018ZM161.743 71.9445C161.602 72.0952 161.61 72.3313 161.761 72.4719C161.911 72.6126 162.148 72.6045 162.288 72.454L161.743 71.9445ZM144.748 71.9167L144.786 72.2879C144.785 72.2879 144.786 72.2878 144.786 72.2879C144.786 72.2878 144.788 72.2876 144.789 72.2875C144.792 72.2873 144.795 72.287 144.799 72.2865L144.839 72.2825C144.874 72.2791 144.924 72.2739 144.989 72.2673C145.118 72.2543 145.303 72.2356 145.525 72.2131C145.969 72.1682 146.561 72.1084 147.154 72.0486C147.748 71.9888 148.342 71.929 148.791 71.8841C149.015 71.8617 149.203 71.843 149.335 71.8299C149.402 71.8234 149.454 71.8184 149.49 71.8149C149.508 71.8131 149.521 71.8119 149.531 71.811C149.554 71.8089 149.535 71.8112 149.514 71.8112V71.065C149.504 71.065 149.496 71.0654 149.495 71.0655C149.491 71.0656 149.489 71.0658 149.487 71.0659C149.484 71.0661 149.481 71.0664 149.479 71.0665C149.474 71.0669 149.469 71.0673 149.463 71.0678C149.453 71.0688 149.438 71.0702 149.419 71.072C149.382 71.0756 149.328 71.0808 149.262 71.0873C149.129 71.1004 148.941 71.1191 148.716 71.1416C148.267 71.1865 147.673 71.2463 147.079 71.3061C146.486 71.3659 145.894 71.4257 145.45 71.4706C145.228 71.4931 145.044 71.5118 144.914 71.5249C144.85 71.5314 144.798 71.5366 144.764 71.5401C144.746 71.5418 144.733 71.5432 144.724 71.5441L144.714 71.545C144.713 71.5452 144.711 71.5453 144.71 71.5454L144.748 71.9167ZM149.54 71.8103C150.304 71.758 151.152 71.4437 151.837 70.9852C152.511 70.5333 153.102 69.8899 153.229 69.1367L152.492 69.0133C152.416 69.4709 152.024 69.9617 151.422 70.3651C150.829 70.7619 150.103 71.0237 149.487 71.0659L149.54 71.8103ZM153.229 69.1367C153.317 68.6098 153.392 68.019 153.47 67.4459C153.549 66.8676 153.631 66.3048 153.732 65.8146C153.834 65.3169 153.952 64.9293 154.088 64.6833C154.228 64.4322 154.31 64.4489 154.334 64.4526L154.45 63.7155C153.954 63.6371 153.628 63.9769 153.436 64.3215C153.242 64.6714 153.107 65.1522 153.001 65.663C152.893 66.1814 152.809 66.7674 152.73 67.3454C152.651 67.9283 152.578 68.5013 152.492 69.0133L153.229 69.1367ZM154.334 64.4526C154.532 64.4841 154.72 64.6471 154.888 65.0881C155.053 65.5215 155.154 66.1119 155.24 66.7826C155.325 67.4348 155.398 68.1652 155.513 68.8095C155.627 69.4474 155.796 70.0774 156.11 70.5199L156.719 70.0877C156.507 69.7905 156.361 69.3048 156.247 68.6777C156.136 68.0568 156.069 67.3725 155.981 66.6866C155.894 66.0192 155.786 65.3479 155.586 64.8224C155.389 64.3045 155.054 63.8114 154.45 63.7155L154.334 64.4526ZM156.11 70.5199C156.3 70.7876 156.626 70.8641 156.879 70.8857C157.153 70.9089 157.465 70.8786 157.767 70.8267C158.371 70.7225 159.011 70.5159 159.375 70.3646L159.088 69.6757C158.771 69.8081 158.184 69.9975 157.639 70.0913C157.367 70.1384 157.125 70.1576 156.943 70.1421C156.741 70.1249 156.709 70.0742 156.719 70.0877L156.11 70.5199ZM159.376 70.3643C160.491 69.8959 164.238 68.2795 164.605 68.1089L164.291 67.432C163.938 67.5959 160.204 69.2072 159.087 69.6761L159.376 70.3643ZM164.604 68.1093C165.425 67.7307 166.042 67.5441 166.46 67.4897C166.67 67.4625 166.808 67.4715 166.889 67.4916C166.967 67.5111 166.955 67.53 166.938 67.4986C166.922 67.4689 166.944 67.4709 166.918 67.5487C166.892 67.6268 166.829 67.7436 166.706 67.8953C166.46 68.197 166.025 68.5761 165.381 68.9873L165.783 69.6162C166.465 69.1808 166.97 68.7519 167.285 68.3663C167.441 68.1744 167.563 67.9776 167.626 67.7826C167.691 67.5872 167.709 67.3565 167.594 67.1447C167.479 66.931 167.275 66.8184 167.068 66.7673C166.864 66.7166 166.624 66.7158 166.364 66.7497C165.84 66.8177 165.147 67.0377 164.292 67.4317L164.604 68.1093ZM165.389 68.9827C164.043 69.7981 162.816 70.7948 161.743 71.9445L162.288 72.454C163.315 71.3542 164.489 70.401 165.775 69.621L165.389 68.9827Z" fill="white"/>
<path d="M160.025 71.0981C161.271 73.4729 161.638 76.211 161.064 78.8303" stroke="white" stroke-linecap="round" stroke-linejoin="round"/>
<path d="M158.229 72.5913C157.984 75.6539 156.637 77.7713 153.768 78.3384" stroke="white" stroke-linecap="round" stroke-linejoin="round"/>
<path d="M104.314 88.869C104.677 87.2708 105.144 85.6983 105.713 84.1616L109.015 88.9824" stroke="white" stroke-linecap="round" stroke-linejoin="round"/>
<path d="M95.9703 125.517L92.4241 113.746L97.9055 123.141" stroke="white" stroke-linecap="round" stroke-linejoin="round"/>
<path d="M85.2213 103.897C65.7123 129.342 54.6747 145.239 28.9042 169.249C25.0237 172.868 36.322 185.249 40.2472 181.706L47.0132 175.601C65.374 159.003 77.2244 148.001 91.7415 130.666C91.7415 130.666 97.2607 123.954 97.9035 123.142L107.677 139.909C108.757 141.769 110.383 143.251 112.334 144.155C114.286 145.057 116.468 145.338 118.585 144.957L156.793 138.091C160.214 137.521 157.381 121.66 153.9 122.271L119.91 127.337C119.91 127.337 117.266 115.696 116.825 113.688C116.039 110.034 114.277 106.661 111.728 103.928C109.178 101.195 105.936 99.2039 102.345 98.166" stroke="white" stroke-linecap="round" stroke-linejoin="round"/>
<path d="M88.06 54.8596C90.0639 50.9274 93.7315 47.7523 99.7423 54.6328C106.169 61.9868 95.2807 65.0484 95.2807 65.0484" stroke="white" stroke-linecap="round" stroke-linejoin="round"/>
<path d="M106.696 52.9503C104.466 55.2756 100.973 55.5542 98.8886 53.5552C96.804 51.5563 96.9224 48.0539 99.1532 45.7286C101.384 43.4033 104.876 43.1247 106.961 45.1236C109.046 47.1226 108.927 50.625 106.696 52.9503Z" stroke="white" stroke-linecap="round" stroke-linejoin="round"/>
<path d="M36.6185 181.933C35.1439 183.426 33.9877 184.703 32.4594 185.185C31.0982 185.582 29.6727 185.71 28.2625 185.563C22.3064 185.088 10.44 190.364 10.039 187.132C9.9266 186.225 13.5743 183.54 17.8846 180.665C20.6069 178.85 24.7282 175.713 28.357 172.858" stroke="white" stroke-linecap="round" stroke-linejoin="round"/>
<path d="M156.055 123.936C158.456 123.312 160.308 122.615 162.066 123.028C163.436 123.376 164.726 123.984 165.866 124.819C170.757 128.24 183.664 129.711 182.389 132.702C182.027 133.551 177.513 134.007 172.35 134.308C168.796 134.517 163.049 135.216 158.192 135.9" stroke="white" stroke-linecap="round" stroke-linejoin="round"/>
<path d="M146.656 69.8323C147.364 69.7736 148.132 70.3298 148.814 71.5119" stroke="white" stroke-linecap="round" stroke-linejoin="round"/>
<path d="M149.571 83.0083C149.155 83.9157 148.588 84.4829 147.945 84.5396" stroke="white" stroke-linecap="round" stroke-linejoin="round"/>
<path d="M124.145 33.8195C124.173 33.9871 124.135 34.1591 124.039 34.2993C123.943 34.4395 123.795 34.537 123.629 34.5712C123.463 34.6055 123.29 34.5739 123.146 34.4831C123.002 34.3922 122.9 34.2493 122.859 34.0842L121.252 26.2237C121.217 26.0556 121.25 25.8806 121.344 25.737C121.438 25.5935 121.586 25.4931 121.754 25.458C121.921 25.4229 122.096 25.4559 122.24 25.5499C122.384 25.6439 122.484 25.791 122.519 25.959L124.145 33.8195Z" stroke="white" stroke-linecap="round" stroke-linejoin="round"/>
<path d="M120.95 21.5122L121.895 26.0872" stroke="white" stroke-linecap="round" stroke-linejoin="round"/>
<path d="M118.624 10.1513C117.501 10.3814 116.471 10.9393 115.665 11.7547C114.858 12.5701 114.312 13.6061 114.095 14.732C113.877 15.8578 113.999 17.0229 114.443 18.0798C114.888 19.1367 115.636 20.0379 116.594 20.6698C117.55 21.3015 118.673 21.6353 119.819 21.629C120.967 21.6228 122.085 21.2766 123.035 20.6343C123.985 19.9922 124.723 19.0827 125.157 18.021C125.589 16.9593 125.698 15.793 125.468 14.6696C125.316 13.9235 125.017 13.2146 124.591 12.5837C124.165 11.9528 123.618 11.4121 122.983 10.9925C122.347 10.5729 121.635 10.2826 120.887 10.1383C120.14 9.99393 119.371 9.99836 118.624 10.1513Z" stroke="white" stroke-linecap="round" stroke-linejoin="round"/>
<path d="M188.173 116.241L185.961 115.58" stroke="white" stroke-linecap="round" stroke-linejoin="round"/>
<path d="M190.857 114.767L191.5 112.555" stroke="white" stroke-linecap="round" stroke-linejoin="round"/>
<path d="M188.986 121.119L189.648 118.926" stroke="white" stroke-linecap="round" stroke-linejoin="round"/>
<path d="M192.332 117.451L194.525 118.094" stroke="white" stroke-linecap="round" stroke-linejoin="round"/>
<path d="M192.336 117.451C191.785 117.289 191.321 116.916 191.045 116.412C190.768 115.909 190.702 115.317 190.861 114.765C190.699 115.316 190.326 115.78 189.823 116.056C189.319 116.333 188.727 116.398 188.175 116.239C188.726 116.401 189.19 116.775 189.466 117.278C189.743 117.781 189.809 118.374 189.65 118.926C189.812 118.375 190.185 117.911 190.688 117.634C191.192 117.358 191.784 117.292 192.336 117.451Z" stroke="white" stroke-linecap="round" stroke-linejoin="round"/>
<path d="M52.0608 55.9694C50.9254 53.2447 50.0887 50.405 49.5654 47.5" stroke="white" stroke-linecap="round" stroke-linejoin="round"/>
<path d="M55.4469 52.3076C54.3693 50.9842 54.0101 47.7893 55.9006 46.3376C55.9006 46.3376 56.1523 40.9924 57.0727 39.7785C57.9931 38.5646 58.5085 43.5934 58.9065 45.5018C59.1682 46.7505 59.8517 49.642 60.5323 52.024" stroke="white" stroke-linecap="round" stroke-linejoin="round"/>
<path d="M77.3647 88.6571L80.3627 81.3936C79.3805 83.7318 79.0538 86.2933 79.4174 88.8033" stroke="white" stroke-linecap="round" stroke-linejoin="round"/>
<path d="M146.656 69.8324C130.097 71.9866 113.18 73.4045 103.861 72.6672C96.3742 74.5199 89.3425 74.7278 82.9338 72.6672C79.6254 72.5159 74.9937 71.6463 68.4724 69.4722L63.1223 52.4209C62.5552 50.5682 49.4351 54.5761 50.0022 56.4288L58.6796 83.3107C65.1196 86.6054 72.1911 88.481 79.4174 88.8111C79.8711 92.0627 81.4403 96.6566 85.2213 103.897C89.2858 106.317 98.0568 102.857 102.236 98.5093C102.973 95.1064 103.635 91.7224 104.315 88.8688C118.981 89.3655 133.646 87.9096 147.927 84.5395C144.031 84.8758 142.685 70.1677 146.656 69.8324Z" stroke="white" stroke-linecap="round" stroke-linejoin="round"/>
<path d="M33.534 164.825C30.5659 167.412 41.7925 180.248 44.7447 177.68" stroke="white" stroke-linecap="round" stroke-linejoin="round"/>
<path d="M146.981 123.312C149.59 122.839 152.501 138.869 149.892 139.342" stroke="white" stroke-linecap="round" stroke-linejoin="round"/>
<path d="M135.469 168.171L128.323 186.565" stroke="white" stroke-linecap="round" stroke-linejoin="round"/>
<path d="M141.101 180.931L122.689 173.805" stroke="white" stroke-linecap="round" stroke-linejoin="round"/>
<path d="M7.58139 104.559C7.95949 103.481 8.64007 102.838 10.6062 101.496C14.7683 98.6544 13.9892 95.3958 11.5325 94.4257C11.0983 94.258 10.6326 94.1876 10.1681 94.2193C9.70369 94.2512 9.25189 94.3844 8.84454 94.6098C8.43718 94.835 8.08419 95.1469 7.81042 95.5234C7.53665 95.8999 7.34877 96.3318 7.26001 96.7888" stroke="white" stroke-linecap="round" stroke-linejoin="round"/>
<path d="M38.8871 175.222C58.1503 157.175 76.4734 138.152 93.7842 118.225" stroke="white" stroke-linecap="round" stroke-linejoin="round"/>
<path d="M97.9105 101.818C97.9105 101.818 108.022 106.279 108.97 114.389C109.497 118.907 112.486 128.246 114.074 133.009C114.349 133.835 114.903 134.54 115.641 135.002C116.38 135.465 117.255 135.656 118.119 135.542L150.464 131.308" stroke="white" stroke-linecap="round" stroke-linejoin="round"/>
</svg>
